<svg width="59" height="59" viewBox="0 0 59 59" fill="none" xmlns="http://www.w3.org/2000/svg">
<g clip-path="url(#clip0_342_64078)">
<rect x="3.25" y="3.25" width="52" height="52" rx="26" fill="white"/>
<rect x="2.70833" y="2.70833" width="53.0833" height="53.0833" stroke="white" stroke-width="1.08333"/>
<circle cx="29.25" cy="29.25" r="26" fill="#7ACFFF"/>
<g clip-path="url(#clip1_342_64078)">
<path d="M24.3525 72.5718C24.3525 72.5718 25.2313 73.6936 24.9056 74.4351C24.5798 75.1766 24.4182 75.2122 22.3457 75.9235C20.2732 76.6349 17.1166 78.5091 17.1166 78.5091L17.363 76.1753L13.6779 76.6979C13.6779 76.6979 15.7203 74.4433 15.0687 74.2819C14.4171 74.1205 13.6779 73.4118 13.6779 73.4118L17.9461 71.6142C17.9461 71.6142 16.5773 70.1149 16.4677 67.2475C16.3582 64.3801 17.9899 61.6276 17.9899 61.6276C17.9899 61.6276 19.5559 58.9243 19.6408 57.5262C19.7257 56.1308 18.9235 54.6834 18.9235 54.6834L16.903 56.377L16.8702 54.0678L14.4993 53.838L17.1303 50.5191L18.9865 45.4519L20.4649 43.181L15.2467 40.6993L12.1585 38.3463L9.32489 35.3202L7.93411 33.1013C7.93411 33.1013 8.238 32.0096 5.91363 31.7934C3.58926 31.5773 4.06564 32.0616 4.06564 32.0616C4.06564 32.0616 3.60021 30.409 2.80078 30.1573C2.00136 29.9055 0.397021 29.6593 0.416186 27.5416C0.438088 25.4266 0.714602 23.8944 0.714602 23.8944C0.714602 23.8944 2.07801 25.7823 3.21145 27.3063L6.80614 26.9314L6.60355 23.2706C6.60355 23.2706 12.4049 18.1377 16.5362 16.0419C20.6675 13.946 24.2102 11.8365 27.4955 11.0239C30.7808 10.2086 36.2509 11.1033 40.467 14.0692C44.6832 17.0323 56.5378 25.5935 56.5378 25.5935L50.5201 34.8223C50.5201 34.8223 47.3525 40.9784 42.764 42.1768C38.1755 43.3752 38.6355 43.6078 38.6355 43.6078C38.6355 43.6078 42.5697 49.2195 43.1993 54.1061L43.6538 55.838L46.3341 53.8763L45.9481 51.3372L48.7598 43.6817C48.7598 43.6817 54.7281 41.066 58.9634 41.4873L60.6198 41.6406L58.2982 44.3465L54.1915 51.5287L52.297 51.2195C52.297 51.2195 54.0026 53.1074 53.8082 54.771C53.6138 56.4345 51.5714 66.3418 51.5714 66.3418L46.4135 70.9576L43.3554 71.2284C43.3554 71.2284 42.5341 72.3995 41.6251 72.9686C41.6251 72.9686 42.1453 72.8974 41.8715 75.0644C41.5977 77.2314 35.9908 79.5735 35.9908 79.5735L34.1181 82.0414L32.8889 79.2862L29.8335 80.5557L30.4331 78.1562L28.4975 77.0015C28.4975 77.0015 31.5118 75.6937 32.0128 74.8072C32.5138 73.9207 33.1298 72.8072 33.1298 72.8072C33.1298 72.8072 30.4167 74.3175 27.4407 73.5185C24.4648 72.7141 24.3525 72.5718 24.3525 72.5718Z" fill="#EF99B7"/>
<path d="M34.0677 66.3661C34.0677 66.3661 30.7249 48.4749 26.8756 48.7567C23.0263 49.0385 23.7463 51.159 22.8483 53.5558C21.9476 55.9526 20.0668 60.8419 19.8532 63.1484C19.6397 65.455 19.2263 70.8094 23.593 72.2213C27.9598 73.6331 30.0213 73.8082 32.2225 73.1707C34.4209 72.5332 33.5229 72.7548 33.5229 72.7548C33.5229 72.7548 31.6092 71.2281 34.0677 66.3661Z" fill="#F5CBEB"/>
<path opacity="0.7" d="M44.2059 67.4498H45.5639L49.2763 64.6837C49.2763 64.6837 50.8998 57.05 51.2201 56.5302C51.5404 56.0076 51.8388 55.2606 51.8388 55.2606L51.0695 51.2605L52.7204 47.0798C52.7204 47.0798 53.6759 44.9867 54.1331 44.6091C54.5903 44.2315 56.4602 42.7568 56.4602 42.7568L55.762 43.014L54.9325 43.2958L53.0051 44.6365C53.0051 44.6365 49.3885 47.4574 48.8492 48.653C48.3098 49.8487 48.8492 48.7077 48.8492 48.7077L48.6055 49.5286L48.5152 51.6955L48.4385 53.8105L44.5235 59.1076L42.7795 59.9913L42.5879 59.0501C42.5879 59.0501 43.0506 58.8887 42.7029 57.4659L44.2087 57.258L43.5379 56.0185L46.3359 53.8762L45.9937 51.2195C45.9937 51.2195 48.1839 45.1919 48.7616 43.6788C48.7616 43.6788 54.9873 40.65 58.9899 41.6897C62.9925 42.7294 58.9899 41.8074 58.9899 41.8074L59.3759 42.5762L54.1659 51.6299L52.6246 51.2715L53.9332 54.7682L51.6116 66.1502L46.3113 71.0341L43.3572 70.963L44.2059 67.4498Z" fill="#6592FF"/>
<path d="M12.6641 24.1759C12.6641 24.1759 16.6941 23.9652 17.258 26.808C17.822 29.6535 17.5893 30.0584 17.5893 30.0584C17.5893 30.0584 16.705 30.4114 15.7276 29.4483C14.7502 28.4852 13.2828 26.849 13.0227 25.6643C12.7599 24.4796 12.6641 24.1759 12.6641 24.1759Z" fill="#72C9E0"/>
<path d="M7.56838 33.0987C7.56838 33.0987 5.75871 29.8783 3.79299 32.3791C3.79299 32.3791 4.24198 29.9495 1.31531 29.4159C1.31531 29.4159 -0.20142 25.7113 0.940231 23.5771C0.940231 23.5771 2.25162 27.4432 3.57944 27.5198C4.90726 27.5964 6.8018 26.9288 6.8018 26.9288L7.56838 33.0987Z" fill="#A2467A"/>
<path d="M4.17383 3.58691C4.17383 3.58691 7.30858 3.82495 8.34072 7.42562C9.37286 11.0263 11.533 13.5708 11.533 13.5708C11.533 13.5708 13.3125 13.3246 14.4761 14.7473C15.6396 16.1701 15.7573 16.4574 15.7573 16.4574L12.149 18.7475C12.149 18.7475 12.1243 17.4479 9.95326 17.2481C7.78221 17.0484 7.5714 12.8239 7.5714 12.8239L6.55569 10.3669L6.28191 7.42836L4.17383 3.58691Z" fill="#A2467A"/>
<path d="M16.7204 15.935C16.7204 15.935 16.2631 12.2139 16.8983 8.90053C17.5335 5.58714 15.9428 4.26562 15.68 2.47076C15.4172 0.675896 15.7375 -1.51296 16.3781 -3.93712C17.0188 -6.36402 16.9558 -8.95508 16.9558 -8.95508L19.0475 -6.00559C19.0475 -6.00559 19.8578 -1.95347 19.6963 1.7156C19.5348 5.38468 21.1911 6.47363 21.1911 6.47363L21.1829 9.79796C21.1829 9.79796 22.5573 11.5463 22.5162 12.9581L16.7204 15.935Z" fill="#A2467A"/>
<path d="M47.266 18.7886C47.381 16.1346 51.7094 11.1659 51.7094 11.1659C51.7094 11.1659 52.9825 8.58035 53.7052 6.15893C54.428 3.7375 55.5751 1.61157 55.5751 1.61157C55.5751 1.61157 56.0104 -0.336511 56.1692 -3.38997C56.3253 -6.44342 55.2274 -7.90722 54.5621 -7.08366C53.8969 -6.26011 51.8052 -0.454163 51.8052 -0.454163L49.7765 3.17661L48.9798 6.81832C45.3085 9.84441 41.4619 14.9226 41.4619 14.9226L47.266 18.7886Z" fill="#A2467A"/>
<path d="M48.0625 18.7889C48.0625 18.7889 50.0255 18.6685 51.4875 19.0598C52.9494 19.451 54.0938 20.9996 56.1773 19.9463C58.2607 18.8929 60.1635 17.3634 60.1635 17.3634L62.6493 16.7642L68.2481 12.7832C68.2481 12.7832 70.2001 12.2962 68.6971 16.2143C67.194 20.1323 65.5432 19.9107 65.0367 20.841C64.5302 21.7712 63.1695 23.7111 63.1695 23.7111C63.1695 23.7111 61.1901 23.3581 60.0512 23.8342C58.9123 24.3103 56.8206 24.7426 56.8206 24.7426L55.9774 25.391L48.0625 18.7889Z" fill="#A2467A"/>
<path d="M52.2351 32.4692C52.2351 32.4692 53.259 33.2873 55.2329 30.833C57.2069 28.3815 59.8461 29.1504 59.8461 29.1504L63.6187 27.5333C63.6187 27.5333 64.8754 26.9423 64.8644 28.2502C64.8507 29.558 63.5667 30.8577 62.2279 31.5088C60.8892 32.16 58.8824 32.4336 58.8824 32.4336L54.6744 36.5131C54.6744 36.5131 52.4514 36.4201 51.9887 36.7813C51.526 37.1424 48.999 37.2136 48.999 37.2136L52.2351 32.4692Z" fill="#A2467A"/>
<g opacity="0.8">
<path d="M17.6006 29.9438C17.6006 29.9438 18.5753 23.4128 12.377 24.1789C12.377 24.1789 13.2448 26.7016 14.4549 28.3378C16.0729 30.5212 17.6006 29.9438 17.6006 29.9438Z" fill="#72C9E0"/>
<path d="M31.6504 30.2888C31.6504 30.2888 32.7318 27.695 34.191 26.2886C35.6284 24.9042 37.1177 24.108 38.8891 25.0328C40.6604 25.9576 41.6597 27.29 41.6597 27.29C41.6597 27.29 41.531 27.394 40.8137 27.3666C40.8137 27.3666 40.3784 28.7265 38.4784 29.9823C36.5784 31.2382 34.9357 31.3941 34.191 31.3148C33.4464 31.2354 32.9344 30.39 32.625 30.4693C32.3157 30.5487 31.6504 30.6226 31.6504 30.6226V30.2888Z" fill="#72C9E0"/>
</g>
<path d="M37.838 28.7155C38.8374 28.7155 39.6477 27.9058 39.6477 26.9069C39.6477 25.9081 38.8374 25.0984 37.838 25.0984C36.8385 25.0984 36.0283 25.9081 36.0283 26.9069C36.0283 27.9058 36.8385 28.7155 37.838 28.7155Z" fill="#283B63" stroke="#475780" stroke-width="0.419792" stroke-miterlimit="10"/>
<path d="M15.6808 28.2533C16.2569 28.2533 16.7239 27.5563 16.7239 26.6965C16.7239 25.8367 16.2569 25.1396 15.6808 25.1396C15.1047 25.1396 14.6377 25.8367 14.6377 26.6965C14.6377 27.5563 15.1047 28.2533 15.6808 28.2533Z" fill="#283B63" stroke="#475780" stroke-width="0.279861" stroke-miterlimit="10"/>
<path d="M15.4973 25.6456C15.6514 25.3391 15.4971 24.9504 15.1526 24.7774C14.8081 24.6043 14.4039 24.7125 14.2497 25.019C14.0956 25.3255 14.25 25.7142 14.5945 25.8872C14.939 26.0603 15.3432 25.9521 15.4973 25.6456Z" fill="#F5E3EA" stroke="#475780" stroke-width="0.279861" stroke-miterlimit="10"/>
<path d="M37.0968 27.2602C37.3581 26.7404 37.0717 26.0688 36.457 25.7601C35.8423 25.4513 35.1321 25.6225 34.8707 26.1423C34.6093 26.6621 34.8958 27.3338 35.5105 27.6425C36.1252 27.9512 36.8354 27.78 37.0968 27.2602Z" fill="#F5E3EA" stroke="#475780" stroke-width="0.279861" stroke-miterlimit="10"/>
<path d="M17.346 30.5839C17.294 30.3267 17.3049 30.0996 17.3351 29.8588C17.409 29.2596 17.4281 28.644 17.3296 28.053C17.0668 26.5509 16.1742 24.9065 14.5672 24.5727C13.8362 24.414 12.9765 24.373 12.2811 24.663L12.3824 24.2718L12.5467 24.5207L12.3167 24.3976C12.3195 24.3976 12.7192 24.3976 12.7219 24.3976H12.9683L12.9929 24.6274C13.2558 26.4415 14.9641 29.1173 16.7273 29.7521C16.9627 29.8178 17.2447 29.8424 17.4391 29.7193L17.7594 30.1625C15.6705 31.1393 12.8342 26.4114 12.4509 24.7123L12.7219 24.9421C12.7192 24.9421 12.3195 24.9421 12.3167 24.9421H12.1689L12.0867 24.819C12.0046 24.6931 11.8349 24.4332 11.75 24.3073C13.0368 23.6507 14.7342 23.8012 15.9306 24.5809C17.0339 25.3607 17.628 26.674 17.8662 27.9682C18.0003 28.7151 17.9182 29.4648 17.8525 30.2063C17.8525 30.2911 17.8607 30.3978 17.8717 30.4553C17.8771 30.4553 17.346 30.5839 17.346 30.5839Z" fill="#2C2C4C"/>
<path d="M31.382 30.2362C32.3731 27.853 34.5524 24.3864 37.4517 24.3618C38.6919 24.4056 39.7076 25.1443 40.6357 25.8721C41.1449 26.3072 41.6596 26.775 42.032 27.3578L41.8294 27.5028C41.7856 27.5329 41.7856 27.5302 41.7719 27.5357C41.457 27.6369 41.1176 27.5439 40.8082 27.4919L40.9341 27.4016C40.6248 28.2881 40.0225 29.0022 39.3298 29.6096C37.6324 31.1774 35.0014 31.6726 32.8769 30.7697C32.6469 30.6904 32.5648 30.7806 32.354 30.7998C32.0336 30.8545 31.6942 30.8901 31.3711 30.9284C31.3711 30.7615 31.382 30.4058 31.382 30.2362ZM31.9186 30.3429L31.9241 30.622L31.6202 30.3511C31.946 30.31 32.2609 30.2717 32.5812 30.1979C32.7893 30.1623 32.9316 30.2115 33.0521 30.2471C33.8981 30.6165 34.6865 30.7013 35.5599 30.6876C37.668 30.6083 39.7322 29.1746 40.6932 27.325L40.7315 27.2374C40.8985 27.2374 41.0738 27.1964 41.2325 27.1636C41.3475 27.1362 41.5364 27.0787 41.5255 27.0541C41.52 27.0569 41.5255 27.0486 41.4899 27.0733L41.4406 27.4508C41.1121 27.0377 40.7069 26.641 40.2853 26.2907C39.4667 25.645 38.503 24.9391 37.438 24.9063C36.3593 24.8789 35.4066 25.5465 34.6263 26.2552C33.4107 27.3387 32.5593 28.9666 31.9186 30.3429Z" fill="#2C2C4C"/>
<path d="M18.9111 22.7423C18.9111 22.7423 18.1007 18.6874 15.9953 18.9857C15.9953 18.9857 14.9002 19.8202 16.4087 21.2922C17.92 22.7642 18.7851 22.9256 18.7851 22.9256L18.9111 22.7423Z" fill="#475780"/>
<path d="M31.0869 23.8504C31.0869 23.8504 33.0389 20.7477 34.2819 20.4002C35.5248 20.0527 35.9574 19.3386 36.9348 20.1321C37.9122 20.9255 36.2777 22.4222 36.2777 22.4222L35.6097 22.9256L34.1258 23.44L31.3771 24.0474" fill="#475780"/>
<path opacity="0.8" d="M19.5723 44.3437C19.5723 44.3437 26.2716 48.1769 39.6483 45.1919L38.4465 43.3314C38.4465 43.3314 27.646 45.3944 20.4593 42.9839L19.5723 44.3437Z" fill="#EA68A1"/>
<path d="M21.4039 47.5344L18.4334 52.9655L17.1768 55.5675L19.7229 56.1284L20.2102 52.183L21.4039 47.5344Z" fill="#EA68A1"/>
<path opacity="0.55" d="M6.80318 27.3447L3.72593 27.5664C3.72593 27.5664 1.58225 25.7277 1.26741 24.4308L0.303711 24.2639L1.2811 29.5391L3.19754 30.3517L3.90388 31.9879C3.90388 31.9879 5.63142 31.1616 6.29122 31.717C6.95102 32.2724 7.56976 33.0987 7.56976 33.0987L6.80318 27.3447Z" fill="#283B63"/>
<path d="M5.6995 7.24237C5.61736 7.01527 5.34359 6.93045 5.14921 7.06999C4.43465 7.58711 3.03565 8.70343 3.50107 9.24244C3.98292 9.8006 5.23134 8.73353 5.74878 8.24651C5.89114 8.11244 5.94042 7.90997 5.87472 7.72665L5.6995 7.24237Z" fill="#968EDA" stroke="#2C2C4C" stroke-width="0.559722" stroke-miterlimit="10" stroke-linecap="round"/>
<path d="M6.70447 11.2673C6.70447 11.2673 4.18845 12.6162 4.83183 13.3851C5.47247 14.1539 7.10966 12.3262 7.10966 12.3262L6.70447 11.2673Z" fill="#968EDA" stroke="#2C2C4C" stroke-width="0.559722" stroke-miterlimit="10" stroke-linecap="round"/>
<path d="M11.5968 17.322C11.5968 17.322 10.2114 19.4671 9.51058 19.1634C8.81245 18.8597 9.69948 17.7324 11.5968 17.322Z" fill="#968EDA" stroke="#2C2C4C" stroke-width="0.559722" stroke-miterlimit="10" stroke-linecap="round"/>
<path d="M5.84942 3.7784C5.84942 3.7784 3.77145 1.45 4.92679 0.77693C6.07939 0.103856 6.09856 2.9138 5.84942 3.7784Z" fill="#968EDA" stroke="#2C2C4C" stroke-width="0.559722" stroke-miterlimit="10" stroke-linecap="round"/>
<path d="M7.29303 4.93312C7.29303 4.93312 6.80845 2.48981 7.95558 2.35574C9.1027 2.22167 8.12258 4.62668 7.29303 4.93312Z" fill="#968EDA" stroke="#2C2C4C" stroke-width="0.559722" stroke-miterlimit="10" stroke-linecap="round"/>
<path d="M8.17969 7.04826C8.17969 7.04826 8.88603 3.98113 10.0249 4.85667C11.1036 5.68296 8.76557 6.9142 8.17969 7.04826Z" fill="#968EDA" stroke="#2C2C4C" stroke-width="0.559722" stroke-miterlimit="10" stroke-linecap="round"/>
<path d="M9.15406 8.76084C9.05276 8.58573 9.07466 8.36411 9.18417 8.19447C9.42236 7.82237 10.0137 7.06448 10.8186 7.16571C11.8781 7.29978 9.8166 9.07002 9.43331 8.97426C9.29368 8.93869 9.20608 8.85387 9.15406 8.76084Z" fill="#968EDA" stroke="#2C2C4C" stroke-width="0.559722" stroke-miterlimit="10" stroke-linecap="round"/>
<path d="M10.1529 11.3491C10.5033 10.6131 11.3028 9.20954 12.2555 9.37097C12.2911 9.37644 12.3267 9.39012 12.3541 9.41201C12.9372 9.87714 11.5628 11.2014 10.4239 11.6474C10.2432 11.7213 10.068 11.527 10.1529 11.3491Z" fill="#968EDA" stroke="#2C2C4C" stroke-width="0.559722" stroke-miterlimit="10" stroke-linecap="round"/>
<path d="M3.71153 3.64167C3.71153 3.64167 2.34538 2.2025 1.80604 2.85642C1.2886 3.48298 3.05173 4.71147 4.0209 4.91394C4.0647 4.92215 4.10303 4.93036 4.1441 4.93583C5.08042 5.04801 3.71153 3.64167 3.71153 3.64167Z" fill="#968EDA" stroke="#2C2C4C" stroke-width="0.559722" stroke-miterlimit="10" stroke-linecap="round"/>
<path d="M4.34977 5.22583C4.34977 5.22583 1.78995 6.26007 2.52094 7.29977C3.25192 8.33948 4.83162 5.99193 4.83162 5.99193L4.34977 5.22583Z" fill="#968EDA" stroke="#2C2C4C" stroke-width="0.559722" stroke-miterlimit="10" stroke-linecap="round"/>
<path d="M5.90175 8.97705C5.90175 8.97705 3.59107 10.2794 4.1441 10.947C4.69713 11.6146 5.9784 10.1672 5.9784 10.1672L5.90175 8.97705Z" fill="#968EDA" stroke="#2C2C4C" stroke-width="0.559722" stroke-miterlimit="10" stroke-linecap="round"/>
<path d="M7.17227 13.7163C7.17227 13.7163 5.88552 15.3415 6.40296 16.0994C6.92039 16.8573 7.6815 15.3771 7.6815 15.3771L7.17227 13.7163Z" fill="#968EDA" stroke="#2C2C4C" stroke-width="0.559722" stroke-miterlimit="10" stroke-linecap="round"/>
<path d="M8.31065 16.0796C8.31065 16.0796 7.0239 18.0003 7.83428 18.2301C8.64466 18.46 9.38385 17.2069 9.38385 17.2069L8.42837 16.2711L8.31065 16.0796Z" fill="#968EDA" stroke="#2C2C4C" stroke-width="0.559722" stroke-miterlimit="10" stroke-linecap="round"/>
<path d="M11.7666 13.2561C11.7666 13.2561 12.7604 11.1028 13.4777 11.4858C14.195 11.8689 13.2395 12.821 11.7666 13.2561Z" fill="#968EDA" stroke="#2C2C4C" stroke-width="0.559722" stroke-miterlimit="10" stroke-linecap="round"/>
<path d="M14.124 14.5231C14.124 14.5231 14.6004 12.3205 15.3122 12.6461C16.024 12.9717 14.7537 14.731 14.7537 14.731L14.124 14.5231Z" fill="#968EDA" stroke="#2C2C4C" stroke-width="0.559722" stroke-miterlimit="10" stroke-linecap="round"/>
<path d="M16.3797 10.5311C16.3797 10.5311 14.5509 9.7349 14.3401 10.3642C14.1293 10.9935 16.3797 11.9183 16.3797 11.9183V10.5311Z" fill="#968EDA" stroke="#2C2C4C" stroke-width="0.559722" stroke-miterlimit="10" stroke-linecap="round"/>
<path d="M16.8336 9.0481C16.8336 9.0481 14.3176 8.22728 14.3559 7.59251C14.3942 6.95501 16.631 7.21767 16.631 7.21767L16.8336 9.0481Z" fill="#968EDA" stroke="#2C2C4C" stroke-width="0.559722" stroke-miterlimit="10" stroke-linecap="round"/>
<path d="M16.5326 6.39693C16.5326 6.39693 13.2801 6.32032 13.3568 5.14655C13.4335 3.97277 16.1877 4.49263 16.1877 4.49263L16.5326 6.39693Z" fill="#968EDA" stroke="#2C2C4C" stroke-width="0.559722" stroke-miterlimit="10" stroke-linecap="round"/>
<path d="M15.6096 3.54866C15.6096 3.54866 13.2305 2.81813 12.7459 1.79757C12.2613 0.777019 15.3522 1.79757 15.3522 1.79757L15.6096 3.54866Z" fill="#968EDA" stroke="#2C2C4C" stroke-width="0.559722" stroke-miterlimit="10" stroke-linecap="round"/>
<path d="M19.999 4.0743C19.999 4.0743 21.743 1.27803 22.3864 1.81704C23.027 2.35604 21.1598 4.66529 20.6041 5.30553C20.051 5.94577 19.999 4.0743 19.999 4.0743Z" fill="#968EDA" stroke="#2C2C4C" stroke-width="0.559722" stroke-miterlimit="10" stroke-linecap="round"/>
<path d="M21.1512 6.39694C21.1512 6.39694 22.8459 5.19854 23.5386 4.70058C24.2312 4.20261 24.442 5.51045 23.7877 6.32033C23.1334 7.13021 21.6057 7.97018 21.2142 8.06868C20.8254 8.16444 21.1512 6.39694 21.1512 6.39694Z" fill="#968EDA" stroke="#2C2C4C" stroke-width="0.559722" stroke-miterlimit="10" stroke-linecap="round"/>
<path d="M21.1846 9.79763C21.1846 9.79763 22.8409 9.58148 23.5801 8.98228C24.3193 8.38308 24.5548 9.70734 23.8074 10.2847C23.0599 10.862 21.6965 11.1684 21.6965 11.1684L21.1846 9.79763Z" fill="#968EDA" stroke="#2C2C4C" stroke-width="0.559722" stroke-miterlimit="10" stroke-linecap="round"/>
<path d="M41.9446 13.013C41.9446 13.013 40.7892 11.1278 39.4423 11.1661C38.0953 11.2044 41.46 13.8201 41.46 13.8201L41.9446 13.013Z" fill="#968EDA" stroke="#2C2C4C" stroke-width="0.559722" stroke-miterlimit="10" stroke-linecap="round"/>
<path d="M43.2533 11.5899C43.2533 11.5899 41.0494 8.62676 40.5347 9.24237C40.02 9.85799 42.5606 12.4928 42.5606 12.4928L43.2533 11.5899Z" fill="#968EDA" stroke="#2C2C4C" stroke-width="0.559722" stroke-miterlimit="10" stroke-linecap="round"/>
<path d="M44.9833 9.99756C44.9833 9.99756 42.9053 7.62812 42.5576 8.07136C42.2099 8.51187 44.1373 10.8266 44.1373 10.8266L44.9833 9.99756Z" fill="#968EDA" stroke="#2C2C4C" stroke-width="0.559722" stroke-miterlimit="10" stroke-linecap="round"/>
<path d="M47.4092 8.29053C47.4092 8.29053 45.5613 5.85816 44.9836 6.31782C44.4059 6.78022 46.5496 9.05116 46.5496 9.05116L47.4092 8.29053Z" fill="#968EDA" stroke="#2C2C4C" stroke-width="0.559722" stroke-miterlimit="10" stroke-linecap="round"/>
<path d="M49.1699 5.88259C49.1699 5.88259 47.4889 3.04802 46.4869 3.97281C45.4848 4.89487 48.4882 6.78276 48.4882 6.78276L49.1699 5.88259Z" fill="#968EDA" stroke="#2C2C4C" stroke-width="0.559722" stroke-miterlimit="10" stroke-linecap="round"/>
<path d="M50.0538 2.07402C50.0538 2.07402 46.6151 1.09998 46.6398 2.07402C46.6644 3.04806 48.8464 3.20128 49.7718 3.17666L50.0538 2.07402Z" fill="#968EDA" stroke="#2C2C4C" stroke-width="0.559722" stroke-miterlimit="10" stroke-linecap="round"/>
<path d="M55.5432 2.30396C55.5432 2.30396 57.9853 3.45858 57.958 4.408C57.9306 5.35741 54.6973 3.36555 54.6973 3.36555L55.5432 2.30396Z" fill="#968EDA" stroke="#2C2C4C" stroke-width="0.559722" stroke-miterlimit="10" stroke-linecap="round"/>
<path d="M54.3167 4.11548C54.3167 4.11548 57.4706 6.82693 56.8792 7.65596C56.2879 8.48499 53.4844 6.34538 53.4844 6.34538L54.3167 4.11548Z" fill="#968EDA" stroke="#2C2C4C" stroke-width="0.559722" stroke-miterlimit="10" stroke-linecap="round"/>
<path d="M53.2867 7.84692C53.2867 7.84692 56.572 9.74302 55.7753 11.0755C54.9786 12.408 52.8486 9.42017 52.8486 9.42017L53.2867 7.84692Z" fill="#968EDA" stroke="#2C2C4C" stroke-width="0.559722" stroke-miterlimit="10" stroke-linecap="round"/>
<path d="M51.6721 11.4204C51.6721 11.4204 54.7001 12.7447 54.0594 13.8227C53.4188 14.9007 51.0068 12.0306 51.0068 12.0306L51.6721 11.4204Z" fill="#968EDA" stroke="#2C2C4C" stroke-width="0.559722" stroke-miterlimit="10" stroke-linecap="round"/>
<path d="M50.005 13.2402C50.005 13.2402 52.8249 14.5426 52.3896 15.3361C51.9542 16.1323 49.4766 14.0638 49.4766 14.0638L50.005 13.2402Z" fill="#968EDA" stroke="#2C2C4C" stroke-width="0.559722" stroke-miterlimit="10" stroke-linecap="round"/>
<path d="M48.8987 15.3276C48.8987 15.3276 51.7022 15.8721 51.3298 16.7203C50.9575 17.5685 48.2334 16.7203 48.2334 16.7203L48.8987 15.3276Z" fill="#968EDA" stroke="#2C2C4C" stroke-width="0.559722" stroke-miterlimit="10" stroke-linecap="round"/>
<path d="M52.4355 19.002C52.4355 19.002 52.2356 16.0635 53.1856 16.2112C54.1357 16.3589 53.4868 19.4124 53.4868 19.4124L52.4355 19.002Z" fill="#968EDA" stroke="#2C2C4C" stroke-width="0.559722" stroke-miterlimit="10" stroke-linecap="round"/>
<path d="M54.5848 19.9241C54.5848 19.9241 54.1002 15.976 55.2199 15.9486C56.3397 15.924 55.9016 20.1129 55.9016 20.1129L54.5848 19.9241Z" fill="#968EDA" stroke="#2C2C4C" stroke-width="0.559722" stroke-miterlimit="10" stroke-linecap="round"/>
<path d="M55.1878 36.5156C55.1878 36.5156 57.0577 37.7551 56.8551 38.8823C56.6525 40.0096 54.3172 37.7797 54.1611 36.9069L55.1878 36.5156Z" fill="#968EDA" stroke="#2C2C4C" stroke-width="0.559722" stroke-miterlimit="10" stroke-linecap="round"/>
<path d="M52.567 36.8059C52.567 36.8059 54.4013 39.6542 53.6648 40.371C52.9283 41.0879 51.335 37.1424 51.335 37.1424L52.567 36.8059Z" fill="#968EDA" stroke="#2C2C4C" stroke-width="0.559722" stroke-miterlimit="10" stroke-linecap="round"/>
<path d="M50.3915 37.2651C50.3915 37.2651 51.2155 40.573 50.3915 40.7536C49.5674 40.9342 49.3867 37.6509 49.3867 37.6509L50.3915 37.2651Z" fill="#968EDA" stroke="#2C2C4C" stroke-width="0.559722" stroke-miterlimit="10" stroke-linecap="round"/>
<path d="M7.71661 33.5389C7.71661 33.5389 8.43938 35.353 7.37712 35.3174C6.31487 35.2818 7.05133 33.3337 7.05133 33.3337L7.71661 33.5389Z" fill="#574A7D" stroke="#2C2C4C" stroke-width="0.559722" stroke-miterlimit="10" stroke-linecap="round"/>
<path d="M1.68848 24.8433C1.68848 24.8433 2.59742 21.6011 3.65693 22.1757C4.71645 22.7475 2.01427 25.6395 2.01427 25.6395L1.68848 24.8433Z" fill="#574A7D" stroke="#2C2C4C" stroke-width="0.559722" stroke-miterlimit="10" stroke-linecap="round"/>
<path d="M5.78958 32.3679C5.78958 32.3679 6.20572 34.6772 5.01205 34.6799C3.82112 34.6826 5.18179 31.9849 5.18179 31.9849L5.78958 32.3679Z" fill="#574A7D" stroke="#2C2C4C" stroke-width="0.559722" stroke-miterlimit="10" stroke-linecap="round"/>
<path d="M3.86746 26.9807C3.86746 26.9807 3.44584 23.6865 4.59571 23.7467C5.74283 23.8096 4.46703 27.3419 4.46703 27.3419L3.86746 26.9807Z" fill="#574A7D" stroke="#2C2C4C" stroke-width="0.559722" stroke-miterlimit="10" stroke-linecap="round"/>
<path d="M37.4822 50.4146C38.0763 52.3216 38.654 54.2095 39.0948 56.163C39.1769 56.5953 39.2946 57.0276 39.2399 57.4846C39.1742 57.7281 38.6704 58.7596 38.5664 59.0113C38.5637 58.9949 38.5582 58.9949 38.5445 58.9976C38.5472 58.9976 38.5335 59.0031 38.5555 58.9921C38.9908 58.7048 40.0448 58.0099 40.4938 57.7144L40.6936 57.5831L40.8798 57.7308L41.7422 58.4176L42.172 58.7623C42.2213 58.8006 42.2624 58.8417 42.3062 58.8608C42.402 58.8909 42.4978 58.7979 42.4677 58.7021C42.4102 58.3464 42.3308 57.8539 42.2761 57.4982C42.2213 57.1261 42.6594 56.8388 42.9769 57.0304L42.8428 56.9893C42.977 57.0003 43.7079 57.055 43.8284 57.0659C43.9324 57.0742 43.8558 57.0659 43.8476 57.0796C43.8065 57.1015 43.7928 57.1371 43.812 57.1863C43.5683 56.91 43.0454 56.2944 42.7552 55.9633C42.7497 55.6897 42.7278 55.4079 42.695 55.1206C42.6128 54.3928 42.4568 53.6705 42.2405 52.9728L43.0372 52.7703C43.2316 53.7881 43.4013 54.7923 43.4259 55.832L43.3438 55.6131C43.5136 55.8101 43.9516 56.3217 44.1159 56.5132L44.2445 56.6637C44.6333 57.0085 44.5046 57.6734 43.9242 57.7335C43.8257 57.7363 43.6778 57.7199 43.5793 57.7117L42.7908 57.6487L42.6539 57.6077C42.7826 57.6843 42.9578 57.5721 42.9359 57.4189C42.9331 57.3997 42.9386 57.4326 42.9386 57.438C42.9468 57.4818 42.9633 57.5967 42.9715 57.6432C43.0071 57.8922 43.0865 58.3492 43.1221 58.5954C43.2535 59.3779 42.3089 59.8321 41.7586 59.2767C41.4876 59.0605 40.7511 58.4695 40.4692 58.2424L40.8552 58.2616L39.6122 59.077C39.4507 59.17 38.9333 59.5503 38.758 59.6132C38.2433 59.8047 37.7286 59.222 37.9833 58.7322L38.0599 58.5626C38.1995 58.2534 38.4624 57.6761 38.602 57.3669C38.6157 57.3095 38.6047 57.1371 38.5856 57.0003C38.216 54.836 37.485 52.7183 36.8389 50.6198C36.8416 50.6198 37.4822 50.4146 37.4822 50.4146Z" fill="#2C2C4C"/>
<path d="M44.5239 67.4962H45.5642L49.3752 64.6096C49.3752 64.6096 51.0699 56.7598 51.8392 55.2604L51.0699 51.2603C51.0699 51.2603 53.2245 45.2191 54.3415 44.4119C55.4585 43.6048 56.5372 42.7566 56.5372 42.7566C56.5372 42.7566 53.2656 43.3722 48.7592 48.7595C48.7592 48.7595 48.4526 50.7213 48.4115 53.8377L44.5239 59.1101L42.7607 59.9309" stroke="#2C2C4C" stroke-width="0.559722" stroke-miterlimit="10"/>
<path d="M15.7757 35.5225C15.7757 35.5225 15.0064 38.2914 19.8824 37.8317C23.2799 37.5089 24.2108 36.1381 24.5886 35.8699C24.6981 35.7933 24.7392 35.7742 24.9117 35.9411C25.4866 36.4992 26.6939 38.5048 30.5597 38.7538C35.3343 39.0602 38.3103 37.9275 36.7197 35.5608" stroke="#2C2C4C" stroke-width="0.559722" stroke-miterlimit="10"/>
<path d="M51.8398 55.2606L53.1868 54.2783" stroke="#2C2C4C" stroke-width="0.279861" stroke-miterlimit="10"/>
<path d="M51.4453 53.2986L52.9867 51.947" stroke="#2C2C4C" stroke-width="0.279861" stroke-miterlimit="10"/>
<path d="M52.1182 48.5378L55.2119 49.5283" stroke="#2C2C4C" stroke-width="0.279861" stroke-miterlimit="10"/>
<path d="M52.7217 47.1398C52.7217 47.1398 55.6894 47.1234 56.5381 47.4216" stroke="#2C2C4C" stroke-width="0.279861" stroke-miterlimit="10"/>
<path d="M53.5615 45.4518C54.1447 44.7048 57.7476 44.1138 58.0433 44.7842" stroke="#2C2C4C" stroke-width="0.279861" stroke-miterlimit="10"/>
<path d="M52.5684 44.9699C52.5684 44.9699 52.8038 43.1613 52.5684 42.7537" stroke="#2C2C4C" stroke-width="0.279861" stroke-miterlimit="10"/>
<path d="M50.3639 46.976C50.3639 46.976 49.6055 44.3931 48.9512 43.8623" stroke="#2C2C4C" stroke-width="0.279861" stroke-miterlimit="10"/>
<path d="M48.7596 48.7568L47.9355 46.6062" stroke="#2C2C4C" stroke-width="0.279861" stroke-miterlimit="10"/>
<path d="M48.4732 51.947C48.4732 51.947 46.951 50.2479 46.4883 50.516" stroke="#2C2C4C" stroke-width="0.279861" stroke-miterlimit="10"/>
<path d="M46.6787 54.1058L48.4117 53.8376" stroke="#2C2C4C" stroke-width="0.279861" stroke-miterlimit="10"/>
<path d="M44.6992 55.2412L47.0729 55.6489" stroke="#2C2C4C" stroke-width="0.279861" stroke-miterlimit="10"/>
<path d="M34.7531 23.3059C36.1384 22.8954 36.9598 21.7682 37.1131 21.2018C37.2664 20.6355 37.1651 19.303 35.0597 20.0226C33.4527 20.5725 31.8128 22.7067 31.131 23.6862C31.0079 23.864 31.1666 24.0993 31.3774 24.0528L34.7531 23.3059Z" stroke="#2C2C4C" stroke-width="0.559722" stroke-miterlimit="10"/>
<path d="M16.6759 21.533C15.8874 20.9119 15.6437 20.0118 15.6875 19.6315C15.7313 19.2511 16.1338 18.4796 17.3083 19.481C18.2063 20.2471 18.721 21.9735 18.9126 22.7451C18.9482 22.8846 18.7867 22.9831 18.6607 22.8983L16.6759 21.533Z" stroke="#2C2C4C" stroke-width="0.559722" stroke-miterlimit="10"/>
<path d="M26.4414 32.9066C26.4414 32.9066 27.3148 31.9051 27.6488 31.8559C27.9828 31.8066 27.9828 32.622 26.4414 32.9066Z" fill="#EA68A1" stroke="#2C2C4C" stroke-width="0.279861" stroke-miterlimit="10"/>
<path d="M22.0757 32.496C22.0757 32.496 21.6815 31.5849 21.4816 31.5056C21.2817 31.4262 21.1585 32.0883 22.0757 32.496Z" fill="#EA68A1" stroke="#2C2C4C" stroke-width="0.279861" stroke-miterlimit="10"/>
<path d="M41.3682 34.2146C41.3682 34.2146 42.5043 34.3267 46.4878 34.4827C50.0743 34.625 50.0305 31.6645 50.0305 31.6645C50.0305 31.6645 50.1482 28.7889 47.5473 28.4798C45.6829 28.2609 42.4441 29.3663 41.3682 34.2146Z" fill="#EA68A1" stroke="#475780" stroke-width="0.279861" stroke-miterlimit="10"/>
<path d="M7.48732 26.132C7.51744 25.6614 8.06225 25.4207 8.42911 25.7189C9.20938 26.3591 11.8349 32.1596 11.7035 32.124C10.6713 31.8367 10.6166 32.5837 9.73777 32.4414C8.68099 32.2718 7.86239 31.4154 7.72277 30.3538C7.56398 29.1308 7.39971 27.4563 7.48732 26.132Z" fill="#EA68A1" stroke="#475780" stroke-width="0.279861" stroke-miterlimit="10"/>
<path d="M41.457 14.9224C41.457 14.9224 48.4247 19.2727 56.5339 25.5876" stroke="#2C2C4C" stroke-width="0.839583" stroke-miterlimit="10"/>
<path d="M41.483 42.5242C41.483 42.5242 30.7044 46.1932 20.873 43.1152" stroke="#2C2C4C" stroke-width="0.839583" stroke-miterlimit="10"/>
<path d="M52.295 32.0203C52.295 32.0203 50.3922 35.06 48.4922 37.9274" stroke="#2C2C4C" stroke-width="0.839583" stroke-miterlimit="10"/>
<path d="M5.75416 27.5193C5.75416 27.5193 4.83153 30.3621 4.88081 31.3306" stroke="#2C2C4C" stroke-width="0.279861" stroke-miterlimit="10" stroke-linecap="round"/>
<path d="M4.14737 27.5498C4.14737 27.5498 3.36711 28.5868 3.11523 29.9794" stroke="#2C2C4C" stroke-width="0.279861" stroke-miterlimit="10" stroke-linecap="round"/>
<path d="M14.7901 15.2344C14.7901 15.2344 12.0852 16.2495 11.7676 17.8692" stroke="#2C2C4C" stroke-width="0.279861" stroke-miterlimit="10" stroke-linecap="round"/>
<path d="M11.7671 13.708C11.7671 13.708 9.37158 16.0008 9.29492 17.2321" stroke="#2C2C4C" stroke-width="0.279861" stroke-miterlimit="10" stroke-linecap="round"/>
<path d="M10.2449 12.3069C10.2449 12.3069 8.4024 12.9417 7.8877 14.2413" stroke="#2C2C4C" stroke-width="0.279861" stroke-miterlimit="10" stroke-linecap="round"/>
<path d="M9.06701 9.69116C9.06701 9.69116 7.19164 10.1754 6.84668 11.6776" stroke="#2C2C4C" stroke-width="0.279861" stroke-miterlimit="10" stroke-linecap="round"/>
<path d="M8.34226 7.42554C8.34226 7.42554 6.85566 8.04115 6.70508 9.3572" stroke="#2C2C4C" stroke-width="0.279861" stroke-miterlimit="10" stroke-linecap="round"/>
<path d="M7.16752 5.22583C7.16752 5.22583 5.83148 6.18619 5.94647 6.91399" stroke="#2C2C4C" stroke-width="0.279861" stroke-miterlimit="10" stroke-linecap="round"/>
<path d="M7.18128 25.8174C7.20318 28.1458 7.23056 30.7697 8.36126 32.8491C8.70074 33.41 7.8712 33.9299 7.51529 33.3772C6.87738 32.1678 6.71859 30.8682 6.60908 29.5576C6.52147 28.2935 6.5379 27.0459 6.63372 25.7818C6.66931 25.4344 7.19223 25.4617 7.18128 25.8174Z" fill="#2C2C4C"/>
<path d="M16.5332 13.2565C16.5332 13.2565 20.7685 11.0348 21.8719 11.4397" stroke="#2C2C4C" stroke-width="0.279861" stroke-miterlimit="10" stroke-linecap="round"/>
<path d="M16.7217 9.99759C16.7217 9.99759 19.2541 6.97149 20.8585 7.79231" stroke="#2C2C4C" stroke-width="0.279861" stroke-miterlimit="10" stroke-linecap="round"/>
<path d="M17.2969 5.87453C17.2969 5.87453 18.2524 4.39705 19.843 4.94153" stroke="#2C2C4C" stroke-width="0.279861" stroke-miterlimit="10" stroke-linecap="round"/>
<path d="M15.6816 2.47063C15.6816 2.47063 18.6138 1.48291 19.5884 3.12456" stroke="#2C2C4C" stroke-width="0.279861" stroke-miterlimit="10" stroke-linecap="round"/>
<path d="M42.7383 12.7419C42.7383 12.7419 47.5239 14.6079 48.2302 16.7202" stroke="#2C2C4C" stroke-width="0.279861" stroke-miterlimit="10" stroke-linecap="round"/>
<path d="M45.4854 9.99194C45.4854 9.99194 49.6769 11.3463 50.0054 13.2369" stroke="#2C2C4C" stroke-width="0.279861" stroke-miterlimit="10" stroke-linecap="round"/>
<path d="M48.9971 7.02368C48.9971 7.02368 51.9402 8.11264 52.2933 10.2605" stroke="#2C2C4C" stroke-width="0.279861" stroke-miterlimit="10" stroke-linecap="round"/>
<path d="M50.1289 4.66528C50.1289 4.66528 52.4615 5.19608 52.8503 7.65854" stroke="#2C2C4C" stroke-width="0.279861" stroke-miterlimit="10" stroke-linecap="round"/>
<path d="M51.1582 1.63892C51.1582 1.63892 53.7016 2.19981 53.8412 4.66228" stroke="#2C2C4C" stroke-width="0.279861" stroke-miterlimit="10" stroke-linecap="round"/>
<path d="M53.2305 19.533C53.2305 19.533 55.3413 21.9653 55.5138 24.7999" stroke="#2C2C4C" stroke-width="0.279861" stroke-miterlimit="10" stroke-linecap="round"/>
<path d="M53.6543 32.4827C53.6543 32.4827 55.4256 33.2105 54.9191 35.9848" stroke="#2C2C4C" stroke-width="0.279861" stroke-miterlimit="10" stroke-linecap="round"/>
<path d="M52.4167 32.6577C52.4167 32.6577 52.7069 36.0696 51.5215 37.1421" stroke="#2C2C4C" stroke-width="0.279861" stroke-miterlimit="10" stroke-linecap="round"/>
<path d="M7.60352 32.7505C7.60352 32.7505 11.3762 40.1762 20.4628 43.1777C20.4628 43.1777 19.2308 44.3706 18.8202 45.7031C18.4095 47.0355 17.4349 50.2696 16.8709 50.9344C16.4821 51.3941 15.2775 52.7101 14.5684 53.4817C14.3631 53.7061 14.5246 54.0645 14.8258 54.0645H16.8681L16.8298 56.1822C16.8243 56.4476 17.1501 56.5789 17.3308 56.3847L18.9187 54.6801L19.3814 56.5789" stroke="#2C2C4C" stroke-width="1.25937" stroke-miterlimit="10" stroke-linecap="round"/>
<path d="M21.5775 47.0249C20.978 49.077 20.4852 51.1618 20.3045 53.2741C20.2004 54.3302 20.121 55.4028 20.0033 56.4698C19.8172 58.6259 18.8206 60.6615 18.0787 62.6588C17.5475 64.1226 16.9781 65.5481 17.0219 67.094C17.0794 68.8369 17.7967 70.5524 18.9246 71.8657L18.1854 72.1858C17.1232 72.6455 14.3964 73.822 13.3697 74.268C13.753 74.123 13.8652 73.5429 13.5203 73.2693C13.4217 73.1708 13.2136 73.1298 13.2958 73.1489C13.8735 73.2857 14.6647 73.4773 15.2423 73.6195C15.8638 73.7618 16.1184 74.5881 15.6859 75.0532C15.4066 75.387 14.8399 76.0574 14.5606 76.3912C14.4785 76.4897 14.2211 76.7934 14.139 76.8919L14.1034 76.9329C14.1034 76.9356 14.0952 76.9439 14.0979 76.9384C14.1363 76.8919 14.1691 76.8399 14.191 76.7824C14.358 76.3802 14.0103 75.9397 13.5832 75.9999C14.5743 75.8549 16.0938 75.6387 17.1068 75.4965C17.7748 75.3268 18.4099 75.8385 18.3086 76.5334C18.2019 77.0205 17.9828 77.8769 17.8679 78.3693L17.8158 78.5828L17.8022 78.6347L17.7967 78.6621C17.8624 78.4377 17.7255 78.1012 17.4873 77.9945C17.2765 77.8741 16.9507 77.9234 16.7864 78.0985C16.7892 78.0957 16.8138 78.0711 16.8166 78.0684C17.5667 77.3515 18.3853 76.6812 19.3517 76.238C20.2278 75.885 21.0163 75.6442 21.8979 75.3542C22.544 75.1517 23.2257 74.9438 23.9211 74.807C23.9868 74.7906 24.058 74.7714 24.1018 74.7222C24.4166 74.3008 24.2195 73.5046 23.9457 73.0532C23.7595 72.7631 23.8444 72.3773 24.1374 72.194C24.8793 71.7781 25.2598 72.8096 25.4186 73.3514C25.613 74.1148 25.6486 74.9438 25.0463 75.6251C24.8081 75.8877 24.4631 76.0437 24.1182 76.1121C23.5214 76.2407 22.9273 76.4377 22.3167 76.6401C21.2873 77.0259 20.1758 77.2913 19.2504 77.8796C18.7412 78.2134 18.2429 78.632 17.7912 79.0698C17.2628 79.6471 16.2717 79.1628 16.4196 78.3858C16.4689 78.1614 16.6496 77.4281 16.7043 77.1928L16.9069 76.3419L16.9206 76.2899C16.8987 76.3529 16.9096 76.5252 16.9589 76.6073C17.0328 76.7852 17.282 76.9001 17.449 76.8672C17.3586 76.8809 17.1779 76.9056 17.0849 76.9192C16.1622 77.0451 14.6975 77.2667 13.7831 77.3844C13.0357 77.513 12.5237 76.5882 13.033 76.0245C13.0521 76.0026 13.1863 75.844 13.2109 75.8166C13.6161 75.3433 14.2376 74.6209 14.6373 74.1531C14.3827 74.4431 14.6044 74.8809 14.8727 74.9328C14.3088 74.7906 13.5258 74.5936 12.9645 74.4486C12.2992 74.3227 12.1322 73.3186 12.8413 73.0231C13.8652 72.6044 16.6359 71.4662 17.6954 71.0312L17.449 71.9888C16.4442 70.5606 15.9295 68.8505 15.8967 67.1159C15.9323 64.3497 17.4846 61.8489 18.4647 59.3591C18.8754 58.3823 19.2148 57.4384 19.3572 56.3768C19.5297 55.3261 19.6611 54.27 19.8226 53.2057C20.1758 51.0934 20.7863 49.0195 21.5775 47.0249Z" fill="#2C2C4C"/>
<path d="M33.9248 66.6203C32.9885 63.1756 32.0439 59.7309 30.9132 56.3464C30.5409 55.2218 30.1439 54.1082 29.6977 53.0248C29.2651 52.0343 28.8435 50.9235 28.0961 50.1574C26.9106 49.2162 25.205 49.4733 24.578 50.918C24.4932 51.0986 24.3453 51.5144 24.2577 51.7197C23.7211 53.0959 23.1818 54.5022 22.6808 55.8894C21.1284 60.3738 17.9143 68.4617 23.3707 71.3318C25.3556 72.3989 27.6033 73.1431 29.8619 73.0172C30.9653 72.9516 32.0521 72.6752 32.9666 72.1171L33.6236 73.1595C31.4033 74.5686 28.6299 74.5631 26.1851 73.9201C23.7677 73.2115 21.1394 72.1691 19.8937 69.8297C17.1286 64.5765 21.1476 56.3983 23.0613 51.2491L23.2283 50.8332C23.5158 50.0151 24.0579 49.2408 24.8436 48.7948C26.1194 48.026 27.8196 48.3078 28.9174 49.2517C29.4403 49.7552 29.7223 50.3078 30.0372 50.9098C31.3376 53.6541 32.0932 56.6118 32.8297 59.5175C33.4046 61.8431 33.8974 64.1825 34.3108 66.541C34.3081 66.5355 33.9248 66.6203 33.9248 66.6203Z" fill="#2C2C4C"/>
<path d="M42.9191 55.6434C41.9335 51.2465 40.2744 46.877 37.6133 43.2244C39.8008 42.7155 41.9883 41.9466 43.9841 40.8987C45.739 39.9821 47.357 38.7673 48.5534 37.205C49.164 36.7782 49.9278 36.7727 50.6369 36.7809C50.8587 36.7837 51.0612 36.7289 51.1078 36.6852C51.0667 36.7317 51.2857 36.4936 51.4391 36.3951C51.6061 36.2775 51.7868 36.1817 51.9729 36.1161C52.4739 35.9327 53.0105 35.9546 53.5252 35.9847L53.9414 36.0258C54.2891 36.0449 54.6395 35.9054 54.875 35.6509C55.4088 35.0873 57.4512 32.8547 57.9495 32.3266C58.2452 32.0174 58.6476 31.8122 59.0692 31.7548L60.8104 31.5496L60.6873 31.5769C61.5058 31.2705 62.3299 30.7752 62.9678 30.176C63.5948 29.5796 64.0301 28.8299 64.1478 27.9817L64.1451 28.0966C64.1478 28.1431 64.1478 28.1158 64.1451 28.1185C64.1451 28.1158 64.1423 28.113 64.1423 28.113C64.1423 28.113 64.1478 28.124 64.1615 28.1349C64.1889 28.1623 64.2053 28.1459 64.1423 28.1486C63.8959 28.1349 63.4634 28.4031 63.1923 28.559C62.4914 28.9859 61.8289 29.4318 61.024 29.6836C59.9152 29.9845 58.7845 29.9654 57.6456 29.9626C57.3088 29.949 56.9475 29.9271 56.6545 30.1213C56.4683 30.239 56.3096 30.4278 56.1836 30.6111C55.198 31.7958 53.7169 34.2528 51.8935 32.9887L51.8525 32.9559L51.7977 32.9067L51.4391 32.5783C51.502 32.5127 53.9332 28.5618 54.0728 28.362C54.4041 27.8422 55.3814 26.2553 55.6963 25.7628L55.7647 25.6506C55.7812 25.626 55.7812 25.5931 55.7702 25.5685L55.5293 25.0705L55.1104 24.2087C55.7675 24.1923 56.649 24.1977 57.3143 24.039C58.2342 23.8913 59.0309 23.3468 59.9453 23.2292C60.5723 23.1307 61.1718 23.1225 61.7851 23.158L62.1082 23.1799C62.3025 23.1854 62.4969 23.1197 62.6475 22.9939C63.4524 22.1156 64.2546 21.1497 65.0184 20.2304C66.1354 18.8679 67.3017 17.4779 67.9068 15.8336C68.197 15.1112 68.4653 14.3725 68.4762 13.5982C68.4406 13.434 68.1778 13.3218 68.0299 13.4422C68.0217 13.4477 68.0135 13.4532 68.0053 13.4586L67.9423 13.5134L67.8137 13.6228C67.5536 13.8581 65.5495 15.5435 65.2265 15.8281L64.1916 16.7091C63.6769 17.1907 63.0171 17.519 62.3053 17.5628C61.7221 17.5956 61.0924 17.571 60.5777 17.8227C59.8714 18.4246 59.0747 19.2837 58.2999 19.8145C55.6634 21.9514 53.0379 19.5765 50.2563 19.5382C49.164 19.5546 47.984 19.3932 47.0696 18.7311L46.7191 18.452L46.8889 18.0306C47.6034 16.2823 48.3782 14.5722 49.4241 12.9935C49.6595 12.6406 49.9798 12.2548 50.2618 11.9401C51.0174 11.0947 51.6636 10.2903 52.0605 9.32171C52.4849 8.32851 52.6875 7.23135 52.8983 6.16154C53.3007 4.41593 54.2343 3.05336 54.9571 1.52116C55.0255 1.05056 55.0502 0.402112 55.0885 -0.0684919C55.1898 -1.73476 55.2637 -3.41197 55.1734 -5.07277C55.1378 -5.58441 55.1022 -6.19729 54.9078 -6.63233C54.9023 -6.64601 54.9078 -6.61591 54.9927 -6.5694C55.1296 -6.51194 55.1049 -6.5393 55.1214 -6.53109C55.1323 -6.53383 55.1296 -6.53383 55.1159 -6.52836C54.5683 -6.12616 54.3055 -5.43393 53.9852 -4.79369C53.5417 -3.80049 53.1775 -2.74437 52.8435 -1.68277C52.5342 -0.621179 52.129 0.571749 51.4774 1.57589C51.1571 2.08206 50.8806 2.48973 50.719 2.9494C50.3166 4.00552 50.4562 5.12457 50.0127 6.26825C49.8073 6.87019 49.2872 7.40646 48.8354 7.81687C46.9026 9.6473 44.7863 11.2671 42.9684 13.1905C42.4208 13.88 41.9363 14.6871 41.5639 15.4779L40.978 15.0948C37.3532 12.7856 32.4554 10.7335 28.3706 11.3738C26.1503 12.0906 23.9053 12.843 21.7452 13.7158L21.7397 12.802C21.7206 12.1289 21.5015 11.3902 21.0662 10.8758L20.9594 10.7363L20.8308 10.5584C20.4201 9.87439 20.4749 8.98517 20.5625 8.282C20.609 7.70469 20.7651 7.22314 20.62 6.71149C20.3818 6.27372 20.0313 6.03842 19.67 5.54045C19.3934 5.16835 19.1772 4.72511 19.0567 4.27913C18.824 3.43368 18.8787 2.60191 18.8705 1.751L18.8815 -0.621178C18.8678 -2.05762 18.876 -3.95371 18.5995 -5.14664C18.2272 -6.25749 17.3264 -7.91828 16.6913 -8.4053C16.9048 -8.29586 17.2197 -8.36153 17.3456 -8.54211C17.1649 -7.5708 17.2032 -6.19456 17.2552 -5.07003C17.1758 -4.31761 17.028 -3.56793 16.8856 -2.81551C16.6173 -1.42285 16.1026 -0.166992 16.1766 1.25577C16.141 2.67852 16.7624 3.77569 17.2799 5.12184C18.1067 7.20125 17.2662 9.57616 17.1375 11.6775C17.1101 11.4121 17.3511 15.5627 17.3346 15.497L17.3538 15.8746L17.0253 16.0634L15.9302 16.6927L15.6153 16.8733L15.3142 16.6899C14.8706 16.4136 14.5366 16.047 14.2793 15.5955C14.0767 15.1742 13.7837 14.8185 13.3348 14.6488C13.0309 14.523 12.7078 14.4491 12.3793 14.4327C12.2835 14.4245 12.2588 14.4354 12.0535 14.4163C11.8892 14.3999 11.7359 14.3561 11.599 14.3014C10.6435 13.8554 10.2164 13.1221 9.699 12.3369C9.26643 11.6145 8.91326 10.8895 8.59567 10.1124C8.40129 9.43115 8.18501 8.72524 7.91944 8.05217C7.44855 6.9167 6.85993 5.46111 5.86338 4.80719C5.36784 4.54726 4.83672 4.24356 4.3357 4.1478C4.3357 4.1478 4.36582 4.14506 4.39046 4.13685C4.42057 4.12864 4.437 4.12317 4.47259 4.10402C4.5602 4.06024 4.63138 3.9891 4.68614 3.90428L4.65602 3.94532C4.66697 3.93164 4.67792 3.91523 4.68614 3.89881L4.70256 3.86872L4.71625 3.84135L4.73268 3.80031C4.73815 3.78663 4.74363 3.75927 4.74363 3.75654C4.74637 3.74012 4.74637 3.72644 4.74637 3.73191C5.09133 5.07532 6.36713 6.02474 6.80791 7.349C7.10359 8.12331 7.01598 9.01253 7.04336 9.77316C7.07895 10.4572 7.24595 11.1029 7.53068 11.7678L8.39034 13.8773C8.79006 14.7966 9.16787 15.8992 9.86326 16.5504C9.90159 16.586 9.93444 16.5887 9.97277 16.6161C9.98646 16.6161 9.99741 16.6188 10.0084 16.6243C10.0193 16.627 10.0084 16.6298 10.0385 16.6352C10.7394 16.7529 11.3334 16.8131 11.9987 17.2727C12.4505 17.5737 12.7379 18.1921 12.7434 18.7228L11.5114 18.7666C11.4731 18.0252 10.545 17.9896 9.92897 17.8665C8.40677 17.6421 7.79351 15.5052 7.24869 14.3506C6.97765 13.6009 6.16727 11.8608 5.99479 11.0837C5.78125 10.3286 5.79767 9.43115 5.79767 8.69241C5.82231 7.22314 4.53556 6.27099 3.88945 4.94673C3.64305 4.44603 3.30904 3.76201 3.66221 3.22027C4.01265 2.73051 4.84767 2.96581 5.43081 3.23121C6.16453 3.54859 6.97218 3.97542 7.43212 4.59925C8.16584 5.48847 8.64769 6.57469 9.0611 7.62261C9.28833 8.1835 9.65793 9.3436 9.73459 9.67466C10.0166 10.3642 10.3615 11.0728 10.7448 11.7103C11.0515 12.2302 11.5497 12.9388 12.0507 13.1714C12.1657 13.2124 12.1301 13.2042 12.4395 13.2151C13.3895 13.2726 14.3997 13.6338 14.9856 14.43C15.2676 14.7856 15.4045 15.2398 15.7741 15.5244C15.8234 15.56 15.8754 15.6065 15.9247 15.6393H15.3087L16.4038 15.01L16.0972 15.5736L15.9 11.7021C15.8973 11.6884 15.9 11.6638 15.9 11.6528C15.974 9.55701 16.8473 7.58156 16.1136 5.54866C15.8946 4.93305 15.5633 4.2846 15.3169 3.55954C14.8214 2.10942 14.8296 0.489667 15.1718 -0.998756C15.3634 -1.71834 15.5359 -2.35311 15.6701 -3.04534C15.807 -3.72662 15.9165 -4.42158 16.0205 -5.11654L16.015 -4.99889C15.9877 -5.67744 15.963 -6.35599 15.974 -7.04548C16.0096 -7.75138 15.963 -8.51201 16.2915 -9.17961L16.308 -9.20971L16.3381 -9.25349C16.3874 -9.31368 16.4093 -9.35472 16.527 -9.44227C16.5516 -9.46143 16.579 -9.47784 16.6037 -9.49152C16.7707 -9.58455 17.0116 -9.59823 17.195 -9.51341C17.6194 -9.26717 17.9233 -8.90327 18.1861 -8.5722C18.8897 -7.62826 19.3661 -6.59402 19.7658 -5.49686C20.3161 -2.74163 20.0231 0.161339 20.0943 2.93572C20.1135 3.61973 20.2367 4.27092 20.6473 4.8154C20.9074 5.18477 21.4878 5.67179 21.7205 6.19164C22.2407 7.39277 21.4249 8.70609 21.8355 9.85251C21.8657 9.93459 21.9396 10.0167 21.9916 10.0878C22.6404 10.8649 22.9334 11.8362 22.9553 12.8321L22.1121 12.2493C23.0867 11.8635 24.0613 11.5215 25.0387 11.185C26.0298 10.8457 27.0209 10.5174 28.0202 10.1945C29.2604 9.9811 30.5088 9.99205 31.7244 10.1371C35.3054 10.6624 38.6126 12.159 41.6515 14.0797L40.7508 14.3232C41.3148 13.2452 42.0266 12.2657 42.9246 11.4613C44.5782 9.90723 46.3222 8.45711 47.973 6.92764C48.3426 6.56922 48.6739 6.30108 48.8491 5.82227C49.2078 4.84002 49.1202 3.59237 49.5445 2.5253C49.7471 1.9562 50.103 1.41993 50.4124 0.932911C50.9928 0.0300074 51.3241 -0.941299 51.6499 -2.04394C51.9948 -3.13563 52.3644 -4.22185 52.8435 -5.29439C53.2597 -6.13436 53.6703 -7.17133 54.5984 -7.65015C56.1699 -8.27671 56.3232 -6.1754 56.3835 -5.14664C56.4793 -3.42018 56.3999 -1.70193 56.2986 0.0135908C56.2575 0.519764 56.2219 1.20652 56.1617 1.69901C56.0878 2.06838 55.8907 2.40218 55.7264 2.71957C55.0858 3.89334 54.3685 5.19571 54.081 6.42694C53.7634 8.1534 53.3528 9.95374 52.2768 11.3984C51.6937 12.2329 50.9846 12.8731 50.4179 13.6912C49.435 15.1769 48.6849 16.835 48.0114 18.4821L47.8279 17.7844L47.9019 17.8309C48.986 18.5012 50.333 18.1811 51.5239 18.441C53.1337 18.7064 54.6778 19.634 56.2603 19.4589C57.7688 19.0539 58.6942 17.6968 59.9152 16.772C60.5312 16.4273 61.2047 16.3862 61.87 16.3479C62.3354 16.3425 62.538 16.3124 62.9076 16.1208C63.0773 16.036 63.2033 15.9047 63.3484 15.7898L64.3942 14.8978C64.8131 14.5285 66.787 12.8677 67.2086 12.501C68.0108 11.8252 69.3687 12.2274 69.637 13.2699C69.7821 13.828 69.6014 14.3916 69.4892 14.9361C69.2537 15.8664 68.8403 16.7337 68.4406 17.5819C67.7452 18.8788 66.8281 19.8939 65.941 21.0157C65.3579 21.7243 64.7638 22.422 64.1642 23.1142C63.926 23.3578 63.6769 23.7217 63.4031 23.946C62.9322 24.351 62.2861 24.4713 61.6838 24.3865C60.961 24.3455 60.2218 24.3674 59.5401 24.5753C58.8885 24.8407 58.2233 25.1171 57.5333 25.2429C57.046 25.3387 56.5861 25.4043 56.0522 25.4153L56.6052 24.5315L56.8516 25.0377C57.0433 25.4317 57.0186 25.9187 56.7887 26.2908C56.66 26.5124 56.4026 26.901 56.2685 27.1253C55.5156 28.3347 53.5033 31.5496 52.7258 32.7972L52.6382 32.0366C52.6218 32.0229 52.6245 32.0256 52.6245 32.0256C52.6245 32.0256 52.6245 32.0256 52.6273 32.0284C53.2734 32.4497 54.1823 31.027 54.6203 30.5755C54.8558 30.291 55.083 29.9873 55.3075 29.6918C55.7291 29.1117 56.4355 28.7451 57.15 28.7259L58.0864 28.7423C58.6805 28.7506 59.2527 28.7095 59.8522 28.6548C60.857 28.6001 61.6674 28.0364 62.5024 27.5248C63.2881 27.0049 64.6242 26.4796 65.2128 27.5713C65.2977 27.7437 65.3305 27.875 65.3469 28.083C65.0704 30.3758 63.102 31.9928 61.0459 32.7507L60.9911 32.7698L60.9227 32.7781L59.2061 32.9805C59.0528 32.9997 58.9104 33.0735 58.8037 33.1857L58.2205 33.815C57.9686 34.0667 55.699 36.5894 55.4773 36.7399C55.0201 37.1038 54.426 37.2898 53.8456 37.2597C53.3966 37.2105 53.0543 37.1831 52.6382 37.216C52.3754 37.2406 52.1262 37.3582 51.9565 37.5552C51.1927 38.2639 50.3248 37.8726 49.4788 38.1052C49.4049 38.1298 49.3419 38.1435 49.279 38.1818C49.2844 38.1763 49.2653 38.1955 49.3091 38.1572C47.2968 40.9644 42.5659 43.2709 38.7385 44.2094L39.0944 43.2435C41.5776 46.9181 43.1354 51.0851 44.11 55.3862C44.1429 55.378 42.9191 55.6434 42.9191 55.6434Z" fill="#2C2C4C"/>
<path d="M43.3525 71.0364L45.4196 70.9845C46.0575 70.968 46.6707 70.7245 47.1444 70.3004L50.9718 66.8749C51.3578 66.5274 51.6261 66.0705 51.7356 65.5643C52.2421 63.2414 53.7041 56.4504 53.7971 55.1481C53.9121 53.5694 52.6911 51.3668 52.6911 51.3668L53.548 51.4626C53.934 51.5064 54.3064 51.3148 54.498 50.9783L59.2645 42.6442L60.8825 41.6428C60.2172 41.7304 58.0106 41.6866 56.9538 41.6592C56.5267 41.6483 56.0969 41.6674 55.6725 41.7194C52.3406 42.1216 50.3831 42.9397 49.4441 43.4459C49.0416 43.662 48.7405 44.0314 48.6282 44.4747C48.1299 46.4255 46.6707 49.7361 46.1423 50.9099C46.0137 51.1917 45.9726 51.5036 46.0191 51.8101L46.2327 53.2109C46.2956 53.6268 46.1369 54.0427 45.8165 54.3136L43.5633 56.2015" stroke="#2C2C4C" stroke-width="1.25937" stroke-miterlimit="10"/>
<path d="M22.2914 13.4615C18.9787 15.0676 15.7619 16.8898 12.7257 18.9364C11.2062 19.9597 9.7415 21.0596 8.37262 22.2552C8.03039 22.5562 7.69365 22.8572 7.36238 23.1663C7.32405 23.1992 7.23644 23.3141 7.21454 23.3715C7.21454 23.3743 7.21454 23.3743 7.22001 23.3551C7.22275 23.3469 7.22549 23.3223 7.22823 23.3031C7.22823 23.3059 7.22823 23.3278 7.22823 23.3332C7.20085 24.2471 7.23097 25.5166 7.20906 26.4332C7.26382 27.3142 6.63413 27.9818 5.74162 27.9216C5.28989 27.9244 4.83541 27.9736 4.41106 28.1159C4.19478 28.2007 3.95112 28.2636 3.70745 28.2308C1.84851 27.8259 1.3694 25.533 0.619247 24.1048C0.608296 24.0829 0.589132 24.0665 0.630199 24.1103C0.654839 24.1294 0.70138 24.1842 0.862909 24.2279C0.99706 24.2662 1.19692 24.2334 1.31738 24.1486C0.977896 24.6958 1.11205 25.5659 1.23798 26.2417C1.47069 27.1309 1.54461 28.1679 1.79101 28.8437C1.85124 29.0079 1.93064 29.1228 1.96897 29.1529C2.22084 29.2979 2.66436 29.369 3.09419 29.5523C3.42546 29.7083 3.72662 29.9682 3.90731 30.2856C4.15371 30.7589 4.12633 31.0517 4.22763 31.4183C4.24406 31.4813 4.26322 31.4895 4.2331 31.4594C4.20299 31.4238 4.14002 31.4074 4.15645 31.4156C4.24953 31.4238 4.25775 31.391 4.39737 31.3198C5.64306 30.4771 7.26108 31.6071 7.84149 32.7672C8.15086 33.5142 7.06396 34.0012 6.71353 33.2652C6.44523 32.8137 5.88946 32.3787 5.36381 32.3048C5.23787 32.313 5.21049 32.3513 5.05444 32.4389C4.80804 32.6085 4.32893 32.7782 3.98944 32.7125C3.30774 32.6578 2.94361 31.9874 2.87517 31.4019C2.79304 31.0134 2.80399 30.9149 2.53843 30.7781C2.27012 30.6714 1.67876 30.5592 1.35023 30.365C0.444029 29.8424 0.348208 28.6932 0.178466 27.8587C-0.0460313 26.3593 -0.752375 24.6301 0.301667 23.2457C0.772564 22.6821 1.45427 22.8134 1.78006 23.3798C2.36047 24.4058 2.6233 25.6452 3.36797 26.529C3.51033 26.7068 3.73209 26.8765 3.86351 26.9175C3.85529 26.9175 3.84982 26.9175 3.84708 26.9175C3.83887 26.9175 3.84161 26.9202 3.84982 26.9175L4.00313 26.8655C4.61366 26.6685 5.28441 26.6083 5.90588 26.6275C5.92505 26.633 5.92231 26.6056 5.92231 26.581C5.94695 25.8751 5.95243 24.7068 5.96064 23.9926C5.98254 23.6506 5.93052 23.2293 6.06741 22.8982C6.38226 22.2279 7.05575 21.8229 7.58687 21.3332C9.03789 20.1348 10.5683 19.0486 12.148 18.0499C14.5162 16.556 16.9939 15.2591 19.5482 14.1209C20.3996 13.7433 21.2511 13.3822 22.1299 13.0566C22.2449 13.0128 22.3736 13.073 22.4146 13.1879C22.4475 13.2919 22.3955 13.415 22.2914 13.4615Z" fill="#2C2C4C"/>
</g>
</g>
<rect x="1.625" y="1.625" width="55.25" height="55.25" rx="27.625" stroke="white" stroke-width="3.25"/>
<defs>
<clipPath id="clip0_342_64078">
<rect x="3.25" y="3.25" width="52" height="52" rx="26" fill="white"/>
</clipPath>
<clipPath id="clip1_342_64078">
<rect width="75.5625" height="97.9514" fill="white" transform="translate(-2.82227 -13.2012)"/>
</clipPath>
</defs>
</svg>
