<svg width="162" height="210" viewBox="0 0 162 210" fill="none" xmlns="http://www.w3.org/2000/svg">
<path d="M58.2613 183.891C58.2613 183.891 60.1455 186.296 59.447 187.885C58.7485 189.475 58.4022 189.551 53.9589 191.076C49.5157 192.602 42.7481 196.62 42.7481 196.62L43.2763 191.616L35.3759 192.736C35.3759 192.736 39.7546 187.903 38.3576 187.557C36.9607 187.211 35.3759 185.692 35.3759 185.692L44.5265 181.838C44.5265 181.838 41.5918 178.623 41.357 172.476C41.1222 166.328 44.6205 160.427 44.6205 160.427C44.6205 160.427 47.9779 154.631 48.1598 151.634C48.3418 148.642 46.622 145.539 46.622 145.539L42.2902 149.17L42.2198 144.219L37.1368 143.727L42.7774 136.611L46.757 125.748L49.9265 120.879L38.7392 115.559L32.1183 110.514L26.0433 104.026L23.0616 99.2689C23.0616 99.2689 23.7131 96.9284 18.7298 96.465C13.7466 96.0016 14.7679 97.0398 14.7679 97.0398C14.7679 97.0398 13.77 93.4968 12.0561 92.9572C10.3422 92.4175 6.90264 91.8896 6.94372 87.3493C6.99068 82.815 7.5835 79.5301 7.5835 79.5301C7.5835 79.5301 10.5065 83.5775 12.9365 86.8449L20.6433 86.0412L20.2089 78.1926C20.2089 78.1926 32.6465 67.1882 41.5037 62.6949C50.3609 58.2016 57.9561 53.6789 64.9996 51.9368C72.0431 50.1887 83.7705 52.1069 92.8096 58.4655C101.849 64.8183 127.264 83.1728 127.264 83.1728L114.363 102.959C114.363 102.959 107.572 116.157 97.7342 118.726C87.8968 121.295 88.8829 121.794 88.8829 121.794C88.8829 121.794 97.3174 133.825 98.6674 144.302L99.6418 148.015L105.388 143.809L104.56 138.365L110.589 121.952C110.589 121.952 123.384 116.345 132.464 117.248L136.015 117.576L131.038 123.378L122.234 138.776L118.172 138.113C118.172 138.113 121.829 142.161 121.412 145.727C120.995 149.293 116.617 170.534 116.617 170.534L105.558 180.43L99.002 181.01C99.002 181.01 97.2411 183.521 95.2924 184.741C95.2924 184.741 96.4076 184.589 95.8207 189.235C95.2337 193.88 83.2129 198.902 83.2129 198.902L79.1981 204.193L76.5626 198.286L70.0122 201.007L71.2976 195.863L67.1478 193.388C67.1478 193.388 73.6102 190.584 74.6844 188.683C75.7585 186.783 77.0792 184.395 77.0792 184.395C77.0792 184.395 71.2624 187.633 64.8822 185.92C58.502 184.196 58.2613 183.891 58.2613 183.891Z" fill="#EF99B7"/>
<path d="M79.0928 170.587C79.0928 170.587 71.926 132.23 63.6734 132.834C55.4208 133.438 56.9645 137.984 55.0393 143.123C53.1082 148.261 49.0758 158.743 48.618 163.688C48.1602 168.633 47.2738 180.113 56.6358 183.14C65.9978 186.167 70.4175 186.542 75.1367 185.175C79.8499 183.809 77.9247 184.284 77.9247 184.284C77.9247 184.284 73.8219 181.011 79.0928 170.587Z" fill="#F5CBEB"/>
<path opacity="0.7" d="M100.828 172.91H103.739L111.698 166.979C111.698 166.979 115.179 150.613 115.866 149.499C116.553 148.379 117.192 146.777 117.192 146.777L115.543 138.201L119.082 129.238C119.082 129.238 121.131 124.751 122.111 123.941C123.091 123.132 127.1 119.97 127.1 119.97L125.603 120.521L123.825 121.125L119.693 124C119.693 124 111.939 130.048 110.783 132.611C109.627 135.174 110.783 132.728 110.783 132.728L110.26 134.488L110.067 139.134L109.902 143.668L101.509 155.025L97.77 156.919L97.3591 154.901C97.3591 154.901 98.3511 154.555 97.6057 151.505L100.834 151.059L99.3959 148.402L105.395 143.809L104.661 138.113C104.661 138.113 109.357 125.191 110.595 121.947C110.595 121.947 123.942 115.453 132.524 117.682C141.105 119.911 132.524 117.934 132.524 117.934L133.351 119.583L122.182 138.993L118.877 138.225L121.683 145.721L116.705 170.124L105.342 180.594L99.0085 180.442L100.828 172.91Z" fill="#6592FF"/>
<path d="M33.2048 80.1345C33.2048 80.1345 41.8448 79.6828 43.054 85.7775C44.2631 91.8781 43.7642 92.7462 43.7642 92.7462C43.7642 92.7462 41.8683 93.5029 39.7729 91.4381C37.6774 89.3733 34.5314 85.8655 33.9737 83.3255C33.4103 80.7856 33.2048 80.1345 33.2048 80.1345Z" fill="#72C9E0"/>
<path d="M22.2813 99.2635C22.2813 99.2635 18.4015 92.3593 14.1872 97.7208C14.1872 97.7208 15.1498 92.5118 8.87524 91.368C8.87524 91.368 5.6235 83.4255 8.07111 78.8501C8.07111 78.8501 10.8826 87.1386 13.7294 87.3029C16.5761 87.4671 20.6378 86.0359 20.6378 86.0359L22.2813 99.2635Z" fill="#A2467A"/>
<path d="M15.0032 35.9932C15.0032 35.9932 21.7238 36.5035 23.9367 44.2231C26.1495 51.9426 30.7806 57.3979 30.7806 57.3979C30.7806 57.3979 34.5958 56.87 37.0903 59.9203C39.5849 62.9705 39.8373 63.5865 39.8373 63.5865L32.1012 68.4962C32.1012 68.4962 32.0484 65.7099 27.3938 65.2817C22.7393 64.8535 22.2873 55.7965 22.2873 55.7965L20.1097 50.5289L19.5227 44.2289L15.0032 35.9932Z" fill="#A2467A"/>
<path d="M41.9032 62.4663C41.9032 62.4663 40.923 54.4886 42.2848 47.385C43.6465 40.2814 40.2363 37.4481 39.6728 33.6001C39.1093 29.752 39.7961 25.0593 41.1696 19.8621C42.543 14.659 42.408 9.104 42.408 9.104L46.8924 15.4275C46.8924 15.4275 48.6298 24.1149 48.2835 31.9811C47.9372 39.8473 51.4882 42.1819 51.4882 42.1819L51.4706 49.309C51.4706 49.309 54.4172 53.0574 54.3291 56.0842L41.9032 62.4663Z" fill="#A2467A"/>
<path d="M107.39 68.5844C107.637 62.8945 116.917 52.242 116.917 52.242C116.917 52.242 119.646 46.6987 121.195 41.5073C122.745 36.316 125.204 31.7582 125.204 31.7582C125.204 31.7582 126.138 27.5816 126.478 21.0353C126.813 14.4889 124.459 11.3506 123.033 13.1163C121.606 14.8819 117.122 27.3294 117.122 27.3294L112.773 35.1135L111.065 42.921C103.194 49.4087 94.9468 60.2959 94.9468 60.2959L107.39 68.5844Z" fill="#A2467A"/>
<path d="M109.098 68.5846C109.098 68.5846 113.307 68.3265 116.441 69.1653C119.576 70.0041 122.029 73.3242 126.496 71.0659C130.963 68.8075 135.042 65.5284 135.042 65.5284L140.371 64.2438L152.375 55.7089C152.375 55.7089 156.56 54.6647 153.337 63.0647C150.115 71.4647 146.576 70.9896 145.49 72.984C144.404 74.9784 141.487 79.1374 141.487 79.1374C141.487 79.1374 137.243 78.3807 134.801 79.4013C132.359 80.422 127.875 81.3488 127.875 81.3488L126.067 82.739L109.098 68.5846Z" fill="#A2467A"/>
<path d="M118.043 97.9141C118.043 97.9141 120.238 99.668 124.47 94.4062C128.702 89.1504 134.36 90.7987 134.36 90.7987L142.449 87.3319C142.449 87.3319 145.143 86.0649 145.119 88.8688C145.09 91.6727 142.337 94.459 139.467 95.8551C136.597 97.2512 132.294 97.8378 132.294 97.8378L123.273 106.584C123.273 106.584 118.507 106.384 117.515 107.159C116.523 107.933 111.105 108.086 111.105 108.086L118.043 97.9141Z" fill="#A2467A"/>
<g opacity="0.8">
<path d="M43.7875 92.4998C43.7875 92.4998 45.8771 78.4979 32.5884 80.1403C32.5884 80.1403 34.449 85.5487 37.0434 89.0565C40.5123 93.7375 43.7875 92.4998 43.7875 92.4998Z" fill="#72C9E0"/>
<path d="M73.9102 93.2389C73.9102 93.2389 76.2286 87.6781 79.3571 84.663C82.4386 81.6948 85.6317 79.9878 89.4293 81.9705C93.2269 83.9532 95.3693 86.8099 95.3693 86.8099C95.3693 86.8099 95.0934 87.0328 93.5556 86.9741C93.5556 86.9741 92.6223 89.8895 88.5489 92.582C84.4754 95.2744 80.9536 95.6088 79.3571 95.4387C77.7606 95.2686 76.663 93.456 75.9997 93.6261C75.3365 93.7962 73.9102 93.9546 73.9102 93.9546V93.2389Z" fill="#72C9E0"/>
</g>
<path d="M87.1747 89.8661C89.3174 89.8661 91.0545 88.1301 91.0545 85.9887C91.0545 83.8473 89.3174 82.1113 87.1747 82.1113C85.032 82.1113 83.2949 83.8473 83.2949 85.9887C83.2949 88.1301 85.032 89.8661 87.1747 89.8661Z" fill="#283B63" stroke="#475780" stroke-width="0.9" stroke-miterlimit="10"/>
<path d="M39.6723 88.8746C40.9074 88.8746 41.9086 87.3803 41.9086 85.5369C41.9086 83.6936 40.9074 82.1992 39.6723 82.1992C38.4373 82.1992 37.436 83.6936 37.436 85.5369C37.436 87.3803 38.4373 88.8746 39.6723 88.8746Z" fill="#283B63" stroke="#475780" stroke-width="0.6" stroke-miterlimit="10"/>
<path d="M39.279 83.2853C39.6094 82.6282 39.2785 81.7949 38.5399 81.4239C37.8013 81.053 36.9347 81.285 36.6043 81.9421C36.2739 82.5992 36.6049 83.4325 37.3434 83.8035C38.082 84.1744 38.9486 83.9424 39.279 83.2853Z" fill="#F5E3EA" stroke="#475780" stroke-width="0.6" stroke-miterlimit="10"/>
<path d="M85.5862 86.7466C86.1465 85.6321 85.5325 84.1922 84.2146 83.5303C82.8967 82.8685 81.3741 83.2354 80.8137 84.3498C80.2533 85.4642 80.8674 86.9042 82.1853 87.5661C83.5032 88.2279 85.0258 87.861 85.5862 86.7466Z" fill="#F5E3EA" stroke="#475780" stroke-width="0.6" stroke-miterlimit="10"/>
<path d="M43.2415 93.8723C43.13 93.3209 43.1535 92.834 43.2181 92.3178C43.3765 91.0332 43.4176 89.7134 43.2063 88.4463C42.6428 85.2259 40.7294 81.7005 37.2839 80.9849C35.7167 80.6446 33.8737 80.5567 32.3828 81.1784L32.6 80.3396L32.9522 80.8734L32.4591 80.6094C32.465 80.6094 33.322 80.6094 33.3278 80.6094H33.8561L33.9089 81.1022C34.4724 84.9913 38.135 90.7282 41.915 92.0891C42.4198 92.2298 43.0244 92.2826 43.4411 92.0187L44.1278 92.9689C39.6494 95.0631 33.5685 84.9268 32.7467 81.284L33.3278 81.7768C33.322 81.7768 32.465 81.7768 32.4591 81.7768H32.1422L31.9661 81.5128C31.79 81.243 31.4261 80.6857 31.2441 80.4159C34.0028 79.008 37.642 79.3307 40.207 81.0025C42.5724 82.6742 43.8461 85.4899 44.3568 88.2645C44.6444 89.8659 44.4683 91.4731 44.3274 93.0628C44.3274 93.2446 44.345 93.4734 44.3685 93.5966C44.3802 93.5966 43.2415 93.8723 43.2415 93.8723Z" fill="#2C2C4C"/>
<path d="M73.3345 93.1273C75.4593 88.0181 80.1315 80.586 86.3473 80.5332C89.0063 80.6271 91.1839 82.2109 93.1737 83.7712C94.2654 84.7039 95.3689 85.707 96.1671 86.9564L95.7328 87.2673C95.6389 87.3318 95.6389 87.3259 95.6095 87.3377C94.9345 87.5547 94.2067 87.3553 93.5434 87.2438L93.8134 87.0502C93.1502 88.9508 91.8589 90.4818 90.3739 91.784C86.7347 95.1452 81.0941 96.207 76.5393 94.2712C76.0463 94.1011 75.8702 94.2947 75.4182 94.3357C74.7315 94.453 74.0036 94.5293 73.311 94.6114C73.311 94.2536 73.3345 93.491 73.3345 93.1273ZM74.4849 93.3561L74.4967 93.9544L73.8452 93.3737C74.5436 93.2857 75.2187 93.2036 75.9054 93.0452C76.3515 92.969 76.6567 93.0745 76.9149 93.1508C78.7286 93.9427 80.4191 94.1246 82.2915 94.0952C86.811 93.9251 91.2367 90.8514 93.2969 86.886L93.3791 86.6983C93.7371 86.6983 94.1128 86.6103 94.4532 86.5399C94.6997 86.4813 95.1047 86.3581 95.0813 86.3053C95.0695 86.3111 95.0813 86.2935 95.005 86.3463L94.8993 87.1558C94.1949 86.2701 93.3263 85.4195 92.4223 84.6687C90.6673 83.2843 88.6013 81.7709 86.318 81.7005C84.0054 81.6419 81.9628 83.0732 80.2899 84.5924C77.6839 86.9153 75.8584 90.4056 74.4849 93.3561Z" fill="#2C2C4C"/>
<path d="M46.599 77.0607C46.599 77.0607 44.8616 68.3674 40.3479 69.0068C40.3479 69.0068 38.0001 70.7959 41.2342 73.9517C44.4742 77.1076 46.329 77.4537 46.329 77.4537L46.599 77.0607Z" fill="#475780"/>
<path d="M72.7009 79.4363C72.7009 79.4363 76.8859 72.7843 79.5507 72.0393C82.2155 71.2944 83.1429 69.7634 85.2383 71.4645C87.3338 73.1656 83.8296 76.3743 83.8296 76.3743L82.3975 77.4536L79.2161 78.5564L73.3231 79.8586" fill="#475780"/>
<path opacity="0.8" d="M48.0129 123.372C48.0129 123.372 62.3758 131.59 91.0545 125.19L88.4777 121.202C88.4777 121.202 65.3223 125.624 49.9147 120.457L48.0129 123.372Z" fill="#EA68A1"/>
<path opacity="0.8" d="M52.5621 181.556C52.5621 181.556 57.1286 185.956 51.9575 190.519L58.4493 190.191L59.7699 186.278L58.5021 183.152L52.5621 181.556Z" fill="#EA68A1"/>
<path opacity="0.6" d="M51.9575 178.424C51.9575 178.424 65.8743 185.088 76.4219 179.21C76.4219 179.21 76.9619 182.759 77.9538 184.337C77.9538 184.337 71.5736 186.648 66.6901 186.272C61.8066 185.897 53.8299 181.55 53.8299 181.55L51.9575 178.424Z" fill="#EA68A1"/>
<path d="M51.9398 130.212L45.5713 141.856L42.8772 147.434L48.3359 148.637L49.3807 140.178L51.9398 130.212Z" fill="#EA68A1"/>
<path d="M87.3511 154.761L87.5389 155.611C87.7209 156.427 88.5954 156.872 89.3585 156.544L92.9389 155.013C93.1032 154.943 93.2911 154.948 93.4554 155.025L98.0278 157.172L97.388 155.054L93.2559 152.631L88.7598 155.435L87.3511 154.761Z" fill="#EA68A1"/>
<path opacity="0.47" d="M106.685 165.172L117.438 168.099L105.335 180.6H99.2309C99.2309 180.6 101.479 170.235 99.9411 165.395C98.4032 160.556 98.0276 156.543 98.0276 156.543L102.923 162.703C103.88 163.905 105.2 164.767 106.685 165.172Z" fill="#EA68A1"/>
<path opacity="0.55" d="M20.6375 86.9273L14.0401 87.4024C14.0401 87.4024 9.44421 83.4605 8.76921 80.6801L6.70312 80.3223L8.79856 91.6318L12.9073 93.3739L14.4216 96.8818C14.4216 96.8818 18.1253 95.1103 19.5399 96.301C20.9544 97.4918 22.281 99.2633 22.281 99.2633L20.6375 86.9273Z" fill="#283B63"/>
<path d="M18.272 43.8298C18.0959 43.343 17.5089 43.1611 17.0922 43.4603C15.5602 44.569 12.5609 46.9622 13.5587 48.1178C14.5918 49.3145 17.2683 47.0268 18.3776 45.9826C18.6828 45.6952 18.7885 45.2611 18.6476 44.8681L18.272 43.8298Z" fill="#968EDA" stroke="#2C2C4C" stroke-width="1.2" stroke-miterlimit="10" stroke-linecap="round"/>
<path d="M20.4268 52.459C20.4268 52.459 15.0326 55.3509 16.412 56.9992C17.7854 58.6475 21.2954 54.7291 21.2954 54.7291L20.4268 52.459Z" fill="#968EDA" stroke="#2C2C4C" stroke-width="1.2" stroke-miterlimit="10" stroke-linecap="round"/>
<path d="M30.9153 65.4399C30.9153 65.4399 27.9453 70.0388 26.4427 69.3877C24.946 68.7366 26.8477 66.3198 30.9153 65.4399Z" fill="#968EDA" stroke="#2C2C4C" stroke-width="1.2" stroke-miterlimit="10" stroke-linecap="round"/>
<path d="M18.5951 36.4035C18.5951 36.4035 14.1401 31.4116 16.617 29.9686C19.0881 28.5256 19.1292 34.5499 18.5951 36.4035Z" fill="#968EDA" stroke="#2C2C4C" stroke-width="1.2" stroke-miterlimit="10" stroke-linecap="round"/>
<path d="M21.6881 38.8791C21.6881 38.8791 20.6492 33.6408 23.1085 33.3534C25.5679 33.0659 23.4666 38.2221 21.6881 38.8791Z" fill="#968EDA" stroke="#2C2C4C" stroke-width="1.2" stroke-miterlimit="10" stroke-linecap="round"/>
<path d="M23.5901 43.4136C23.5901 43.4136 25.1044 36.8379 27.5462 38.715C29.8588 40.4865 24.8462 43.1261 23.5901 43.4136Z" fill="#968EDA" stroke="#2C2C4C" stroke-width="1.2" stroke-miterlimit="10" stroke-linecap="round"/>
<path d="M25.6798 47.0856C25.4626 46.7102 25.5096 46.235 25.7444 45.8713C26.255 45.0736 27.5228 43.4487 29.2485 43.6658C31.52 43.9532 27.1002 47.7484 26.2785 47.5431C25.9791 47.4669 25.7913 47.285 25.6798 47.0856Z" fill="#968EDA" stroke="#2C2C4C" stroke-width="1.2" stroke-miterlimit="10" stroke-linecap="round"/>
<path d="M27.8221 52.6347C28.5734 51.0568 30.2874 48.0476 32.33 48.3937C32.4063 48.4054 32.4826 48.4347 32.5413 48.4817C33.7915 49.4789 30.845 52.318 28.4032 53.2741C28.0158 53.4325 27.6402 53.016 27.8221 52.6347Z" fill="#968EDA" stroke="#2C2C4C" stroke-width="1.2" stroke-miterlimit="10" stroke-linecap="round"/>
<path d="M14.0112 36.1103C14.0112 36.1103 11.0823 33.0249 9.92603 34.4268C8.81668 35.7701 12.5967 38.4039 14.6745 38.838C14.7684 38.8556 14.8506 38.8732 14.9386 38.8849C16.946 39.1254 14.0112 36.1103 14.0112 36.1103Z" fill="#968EDA" stroke="#2C2C4C" stroke-width="1.2" stroke-miterlimit="10" stroke-linecap="round"/>
<path d="M15.3789 39.5068C15.3789 39.5068 9.89082 41.7242 11.458 43.9532C13.0252 46.1823 16.4119 41.1493 16.4119 41.1493L15.3789 39.5068Z" fill="#968EDA" stroke="#2C2C4C" stroke-width="1.2" stroke-miterlimit="10" stroke-linecap="round"/>
<path d="M18.7062 47.5493C18.7062 47.5493 13.7523 50.3415 14.9379 51.7728C16.1236 53.2041 18.8706 50.101 18.8706 50.101L18.7062 47.5493Z" fill="#968EDA" stroke="#2C2C4C" stroke-width="1.2" stroke-miterlimit="10" stroke-linecap="round"/>
<path d="M21.4302 57.709C21.4302 57.709 18.6715 61.1933 19.7808 62.8182C20.8902 64.4431 22.5219 61.2696 22.5219 61.2696L21.4302 57.709Z" fill="#968EDA" stroke="#2C2C4C" stroke-width="1.2" stroke-miterlimit="10" stroke-linecap="round"/>
<path d="M23.872 62.7769C23.872 62.7769 21.1133 66.8947 22.8507 67.3875C24.588 67.8802 26.1728 65.1936 26.1728 65.1936L24.1244 63.1875L23.872 62.7769Z" fill="#968EDA" stroke="#2C2C4C" stroke-width="1.2" stroke-miterlimit="10" stroke-linecap="round"/>
<path d="M31.2793 56.7232C31.2793 56.7232 33.4099 52.1067 34.9478 52.928C36.4856 53.7492 34.4371 55.7905 31.2793 56.7232Z" fill="#968EDA" stroke="#2C2C4C" stroke-width="1.2" stroke-miterlimit="10" stroke-linecap="round"/>
<path d="M36.333 59.4392C36.333 59.4392 37.3543 54.7171 38.8804 55.4151C40.4065 56.1132 37.683 59.885 37.683 59.885L36.333 59.4392Z" fill="#968EDA" stroke="#2C2C4C" stroke-width="1.2" stroke-miterlimit="10" stroke-linecap="round"/>
<path d="M41.1693 50.8808C41.1693 50.8808 37.2484 49.1738 36.7965 50.523C36.3445 51.8722 41.1693 53.8549 41.1693 53.8549V50.8808Z" fill="#968EDA" stroke="#2C2C4C" stroke-width="1.2" stroke-miterlimit="10" stroke-linecap="round"/>
<path d="M42.1439 47.7013C42.1439 47.7013 36.7498 45.9416 36.832 44.5807C36.9142 43.2139 41.7096 43.777 41.7096 43.777L42.1439 47.7013Z" fill="#968EDA" stroke="#2C2C4C" stroke-width="1.2" stroke-miterlimit="10" stroke-linecap="round"/>
<path d="M41.4981 42.0175C41.4981 42.0175 34.525 41.8533 34.6894 39.3368C34.8537 36.8203 40.7585 37.9349 40.7585 37.9349L41.4981 42.0175Z" fill="#968EDA" stroke="#2C2C4C" stroke-width="1.2" stroke-miterlimit="10" stroke-linecap="round"/>
<path d="M39.5199 35.9112C39.5199 35.9112 34.4192 34.345 33.3803 32.157C32.3414 29.969 38.9681 32.157 38.9681 32.157L39.5199 35.9112Z" fill="#968EDA" stroke="#2C2C4C" stroke-width="1.2" stroke-miterlimit="10" stroke-linecap="round"/>
<path d="M39.1034 29.7516C39.1034 29.7516 35.2178 28.5314 34.6836 24.6541C34.1495 20.7767 39.5143 26.6309 39.5143 26.6309L39.1034 29.7516Z" fill="#968EDA" stroke="#2C2C4C" stroke-width="1.2" stroke-miterlimit="10" stroke-linecap="round"/>
<path d="M40.5944 19.8675C40.5944 19.8675 37.2076 16.3597 35.5994 17.6384C33.9911 18.9172 40.2657 22.3018 40.2657 22.3018L40.5944 19.8675Z" fill="#968EDA" stroke="#2C2C4C" stroke-width="1.2" stroke-miterlimit="10" stroke-linecap="round"/>
<path d="M40.9228 11.8254C40.9228 11.8254 39.1502 7.86592 36.8787 9.39106C34.6072 10.9162 40.9228 15.6207 40.9228 15.6207V11.8254Z" fill="#968EDA" stroke="#2C2C4C" stroke-width="1.2" stroke-miterlimit="10" stroke-linecap="round"/>
<path d="M42.7777 8.5232C42.7777 8.5232 41.7857 -0.181828 39.5201 1.01482C37.2544 2.21147 41.5862 8.85169 41.5862 8.85169L42.7777 8.5232Z" fill="#968EDA" stroke="#2C2C4C" stroke-width="1.2" stroke-miterlimit="10" stroke-linecap="round"/>
<path d="M44.9258 11.4504C44.9258 11.4504 45.7534 8.3591 45.8767 5.9658C45.9999 3.5725 48.518 4.60491 48.2714 6.58172C48.0249 8.55854 46.6104 13.6326 46.6104 13.6326L44.9258 11.4504Z" fill="#968EDA" stroke="#2C2C4C" stroke-width="1.2" stroke-miterlimit="10" stroke-linecap="round"/>
<path d="M46.8923 15.4271C46.8923 15.4271 50.3847 11.5204 52.1456 11.9368C53.9065 12.3475 50.8543 16.2248 48.1543 18.753L46.8923 15.4271Z" fill="#968EDA" stroke="#2C2C4C" stroke-width="1.2" stroke-miterlimit="10" stroke-linecap="round"/>
<path d="M48.0483 21.6099C48.0483 21.6099 53.3603 19.6389 54.2525 21.6099C55.1446 23.5808 48.4357 24.4431 48.4357 24.4431L48.0483 21.6099Z" fill="#968EDA" stroke="#2C2C4C" stroke-width="1.2" stroke-miterlimit="10" stroke-linecap="round"/>
<path d="M48.6003 29.2003C48.6003 29.2003 52.0516 26.2204 52.8616 28.2089C53.6716 30.1975 48.6003 31.9807 48.6003 31.9807V29.2003Z" fill="#968EDA" stroke="#2C2C4C" stroke-width="1.2" stroke-miterlimit="10" stroke-linecap="round"/>
<path d="M48.929 37.0376C48.929 37.0376 52.6679 31.0426 54.0472 32.1982C55.4207 33.3538 51.4177 38.3046 50.2261 39.6773C49.0405 41.0499 48.929 37.0376 48.929 37.0376Z" fill="#968EDA" stroke="#2C2C4C" stroke-width="1.2" stroke-miterlimit="10" stroke-linecap="round"/>
<path d="M51.4002 42.0177C51.4002 42.0177 55.0335 39.4485 56.5185 38.3809C58.0035 37.3133 58.4554 40.1172 57.0526 41.8535C55.6498 43.5898 52.3746 45.3906 51.5352 45.6018C50.7017 45.8071 51.4002 42.0177 51.4002 42.0177Z" fill="#968EDA" stroke="#2C2C4C" stroke-width="1.2" stroke-miterlimit="10" stroke-linecap="round"/>
<path d="M51.4707 49.3087C51.4707 49.3087 55.0218 48.8453 56.6066 47.5607C58.1914 46.2761 58.6961 49.1152 57.0937 50.3529C55.4914 51.5906 52.5683 52.2476 52.5683 52.2476L51.4707 49.3087Z" fill="#968EDA" stroke="#2C2C4C" stroke-width="1.2" stroke-miterlimit="10" stroke-linecap="round"/>
<path d="M95.9794 56.2015C95.9794 56.2015 93.5025 52.1598 90.6147 52.242C87.7268 52.3241 94.9405 57.9319 94.9405 57.9319L95.9794 56.2015Z" fill="#968EDA" stroke="#2C2C4C" stroke-width="1.2" stroke-miterlimit="10" stroke-linecap="round"/>
<path d="M98.7854 53.1509C98.7854 53.1509 94.0604 46.7981 92.9569 48.118C91.8534 49.4378 97.3004 55.0867 97.3004 55.0867L98.7854 53.1509Z" fill="#968EDA" stroke="#2C2C4C" stroke-width="1.2" stroke-miterlimit="10" stroke-linecap="round"/>
<path d="M102.495 49.7368C102.495 49.7368 98.0397 44.6569 97.2943 45.6072C96.5489 46.5516 100.681 51.5142 100.681 51.5142L102.495 49.7368Z" fill="#968EDA" stroke="#2C2C4C" stroke-width="1.2" stroke-miterlimit="10" stroke-linecap="round"/>
<path d="M107.695 46.0769C107.695 46.0769 103.733 40.8621 102.495 41.8476C101.256 42.8389 105.852 47.7076 105.852 47.7076L107.695 46.0769Z" fill="#968EDA" stroke="#2C2C4C" stroke-width="1.2" stroke-miterlimit="10" stroke-linecap="round"/>
<path d="M111.469 40.9149C111.469 40.9149 107.865 34.8378 105.717 36.8205C103.569 38.7973 110.007 42.8448 110.007 42.8448L111.469 40.9149Z" fill="#968EDA" stroke="#2C2C4C" stroke-width="1.2" stroke-miterlimit="10" stroke-linecap="round"/>
<path d="M113.365 32.7494C113.365 32.7494 105.993 30.6611 106.046 32.7494C106.099 34.8377 110.777 35.1662 112.761 35.1134L113.365 32.7494Z" fill="#968EDA" stroke="#2C2C4C" stroke-width="1.2" stroke-miterlimit="10" stroke-linecap="round"/>
<path d="M115.731 28.7901C115.731 28.7901 108.769 23.0181 108.37 25.4935C107.971 27.9689 115.396 30.8491 115.396 30.8491L115.731 28.7901Z" fill="#968EDA" stroke="#2C2C4C" stroke-width="1.2" stroke-miterlimit="10" stroke-linecap="round"/>
<path d="M117.439 24.6076C117.439 24.6076 112.925 18.8355 111.469 21.088C110.014 23.3405 117.116 27.3235 117.116 27.3235L117.439 24.6076Z" fill="#968EDA" stroke="#2C2C4C" stroke-width="1.2" stroke-miterlimit="10" stroke-linecap="round"/>
<path d="M119.363 18.6127C119.363 18.6127 114.633 13.8261 113.641 15.3688C112.649 16.9057 118.43 21.7451 118.43 21.7451L119.363 18.6127Z" fill="#968EDA" stroke="#2C2C4C" stroke-width="1.2" stroke-miterlimit="10" stroke-linecap="round"/>
<path d="M121.618 14.2719C121.618 14.2719 118.483 6.90432 117.104 8.3884C115.731 9.87248 119.91 17.1873 119.91 17.1873L121.618 14.2719Z" fill="#968EDA" stroke="#2C2C4C" stroke-width="1.2" stroke-miterlimit="10" stroke-linecap="round"/>
<path d="M124.699 12.6882C124.699 12.6882 123.267 3.87762 121.342 5.086C119.417 6.29438 123.021 13.1164 123.021 13.1164L124.699 12.6882Z" fill="#968EDA" stroke="#2C2C4C" stroke-width="1.2" stroke-miterlimit="10" stroke-linecap="round"/>
<path d="M125.134 13.9082C125.134 13.9082 125.856 7.88391 127.341 8.18894C128.826 8.49397 126.237 15.5917 126.237 15.5917L125.134 13.9082Z" fill="#968EDA" stroke="#2C2C4C" stroke-width="1.2" stroke-miterlimit="10" stroke-linecap="round"/>
<path d="M126.132 17.7914C126.132 17.7914 129.266 13.8847 130.534 14.1604C131.802 14.4361 129.389 19.0526 126.466 21.0353L126.132 17.7914Z" fill="#968EDA" stroke="#2C2C4C" stroke-width="1.2" stroke-miterlimit="10" stroke-linecap="round"/>
<path d="M126.132 23.399C126.132 23.399 130.751 20.2666 131.802 21.7507C132.852 23.2348 126.132 26.5373 126.132 26.5373V23.399Z" fill="#968EDA" stroke="#2C2C4C" stroke-width="1.2" stroke-miterlimit="10" stroke-linecap="round"/>
<path d="M126.131 27.5816C126.131 27.5816 131.578 26.7546 131.578 29.5585C131.578 32.3624 125.638 30.8431 125.638 30.8431L126.131 27.5816Z" fill="#968EDA" stroke="#2C2C4C" stroke-width="1.2" stroke-miterlimit="10" stroke-linecap="round"/>
<path d="M125.133 33.2422C125.133 33.2422 130.369 35.7176 130.31 37.7531C130.252 39.7886 123.32 35.5182 123.32 35.5182L125.133 33.2422Z" fill="#968EDA" stroke="#2C2C4C" stroke-width="1.2" stroke-miterlimit="10" stroke-linecap="round"/>
<path d="M122.504 37.1255C122.504 37.1255 129.266 42.9386 127.998 44.716C126.73 46.4934 120.72 41.9062 120.72 41.9062L122.504 37.1255Z" fill="#968EDA" stroke="#2C2C4C" stroke-width="1.2" stroke-miterlimit="10" stroke-linecap="round"/>
<path d="M120.297 45.1265C120.297 45.1265 127.341 49.1916 125.633 52.0483C123.925 54.905 119.358 48.4994 119.358 48.4994L120.297 45.1265Z" fill="#968EDA" stroke="#2C2C4C" stroke-width="1.2" stroke-miterlimit="10" stroke-linecap="round"/>
<path d="M116.834 52.7876C116.834 52.7876 123.326 55.6267 121.952 57.9379C120.579 60.2491 115.408 54.0957 115.408 54.0957L116.834 52.7876Z" fill="#968EDA" stroke="#2C2C4C" stroke-width="1.2" stroke-miterlimit="10" stroke-linecap="round"/>
<path d="M113.259 56.6885C113.259 56.6885 119.305 59.4807 118.372 61.1818C117.438 62.8888 112.126 58.4541 112.126 58.4541L113.259 56.6885Z" fill="#968EDA" stroke="#2C2C4C" stroke-width="1.2" stroke-miterlimit="10" stroke-linecap="round"/>
<path d="M110.888 61.1641C110.888 61.1641 116.898 62.3314 116.1 64.1498C115.302 65.9683 109.462 64.1498 109.462 64.1498L110.888 61.1641Z" fill="#968EDA" stroke="#2C2C4C" stroke-width="1.2" stroke-miterlimit="10" stroke-linecap="round"/>
<path d="M118.472 69.0417C118.472 69.0417 118.043 62.7417 120.08 63.0584C122.117 63.3752 120.726 69.9216 120.726 69.9216L118.472 69.0417Z" fill="#968EDA" stroke="#2C2C4C" stroke-width="1.2" stroke-miterlimit="10" stroke-linecap="round"/>
<path d="M123.079 71.0185C123.079 71.0185 122.04 62.554 124.441 62.4953C126.841 62.4426 125.902 71.4233 125.902 71.4233L123.079 71.0185Z" fill="#968EDA" stroke="#2C2C4C" stroke-width="1.2" stroke-miterlimit="10" stroke-linecap="round"/>
<path d="M130.991 69.1766C130.991 69.1766 130.586 61.9498 128.608 62.5012C126.63 63.0526 129.395 70.3029 129.395 70.3029L130.991 69.1766Z" fill="#968EDA" stroke="#2C2C4C" stroke-width="1.2" stroke-miterlimit="10" stroke-linecap="round"/>
<path d="M136.397 64.9532C136.397 64.9532 135.599 58.3365 133.233 59.1225C130.868 59.9085 134.167 65.8507 134.167 65.8507L136.397 64.9532Z" fill="#968EDA" stroke="#2C2C4C" stroke-width="1.2" stroke-miterlimit="10" stroke-linecap="round"/>
<path d="M138.815 64.66C138.815 64.66 136.655 58.7061 138.815 58.2134C140.975 57.7206 141.122 64.05 141.122 64.05L138.815 64.66Z" fill="#968EDA" stroke="#2C2C4C" stroke-width="1.2" stroke-miterlimit="10" stroke-linecap="round"/>
<path d="M143.793 61.8383C143.793 61.8383 138.622 55.7319 140.711 54.1422C142.801 52.5467 145.501 60.2956 145.501 60.2956L143.793 61.8383Z" fill="#968EDA" stroke="#2C2C4C" stroke-width="1.2" stroke-miterlimit="10" stroke-linecap="round"/>
<path d="M147.878 58.8526C147.878 58.8526 145.072 52.3942 146.639 51.7724C148.207 51.1506 150.349 56.1367 150.349 56.1367L147.878 58.8526Z" fill="#968EDA" stroke="#2C2C4C" stroke-width="1.2" stroke-miterlimit="10" stroke-linecap="round"/>
<path d="M152.38 55.7085C152.38 55.7085 150.56 46.939 153.149 46.939C155.737 46.939 154.745 56.5063 154.745 56.5063" fill="#968EDA"/>
<path d="M152.38 55.7085C152.38 55.7085 150.56 46.939 153.149 46.939C155.737 46.939 154.745 56.5063 154.745 56.5063" stroke="#2C2C4C" stroke-width="1.2" stroke-miterlimit="10" stroke-linecap="round"/>
<path d="M154.933 58.8529C154.933 58.8529 157.551 52.7758 159.312 53.9255C161.073 55.0752 159.623 59.3632 154.211 62.1143L154.933 58.8529Z" fill="#968EDA" stroke="#2C2C4C" stroke-width="1.2" stroke-miterlimit="10" stroke-linecap="round"/>
<path d="M152.397 63.8389C152.397 63.8389 155.878 64.9593 158.625 63.8037C159.335 63.5046 160.198 63.7099 160.621 64.3551C161.8 66.1501 157.88 67.992 151.335 66.7367" fill="#968EDA"/>
<path d="M152.397 63.8389C152.397 63.8389 155.878 64.9593 158.625 63.8037C159.335 63.5046 160.198 63.7099 160.621 64.3551C161.8 66.1501 157.88 67.992 151.335 66.7367" stroke="#2C2C4C" stroke-width="1.2" stroke-miterlimit="10" stroke-linecap="round"/>
<path d="M150.76 67.7515C150.76 67.7515 153.566 71.2828 154.746 71.576C155.925 71.8693 153.143 75.2129 149.134 69.3177L150.76 67.7515Z" fill="#968EDA" stroke="#2C2C4C" stroke-width="1.2" stroke-miterlimit="10" stroke-linecap="round"/>
<path d="M147.396 71.4233C147.396 71.4233 148.406 74.2097 149.556 75.6409C149.991 76.1806 149.633 77.2306 149.093 77.0018C147.966 76.5208 146.522 74.8666 146.264 74.1862L147.396 71.4233Z" fill="#968EDA" stroke="#2C2C4C" stroke-width="1.2" stroke-miterlimit="10" stroke-linecap="round"/>
<path d="M144.098 76.3452C144.098 76.3452 146.094 79.1843 148.242 80.0877C149.21 80.4983 149.404 81.0556 149.328 81.5483C149.222 82.2522 148.506 82.7039 147.808 82.5807C146.587 82.3637 144.415 81.5366 142.789 78.4394" fill="#968EDA"/>
<path d="M144.098 76.3452C144.098 76.3452 146.094 79.1843 148.242 80.0877C149.21 80.4983 149.404 81.0556 149.328 81.5483C149.222 82.2522 148.506 82.7039 147.808 82.5807C146.587 82.3637 144.415 81.5366 142.789 78.4394" stroke="#2C2C4C" stroke-width="1.2" stroke-miterlimit="10" stroke-linecap="round"/>
<path d="M134.93 80.3105C134.93 80.3105 140.113 82.217 139.162 84.2524C138.211 86.2879 133.474 80.991 133.474 80.991L134.93 80.3105Z" fill="#968EDA" stroke="#2C2C4C" stroke-width="1.2" stroke-miterlimit="10" stroke-linecap="round"/>
<path d="M129.765 81.6948C129.765 81.6948 132.97 84.9973 131.391 86.0825C129.812 87.1677 127.886 81.9764 127.886 81.9764L129.765 81.6948Z" fill="#968EDA" stroke="#2C2C4C" stroke-width="1.2" stroke-miterlimit="10" stroke-linecap="round"/>
<path d="M129.213 91.2092C129.213 91.2092 128.115 85.924 127.264 86.5868C126.413 87.2497 126.742 91.2092 126.742 91.2092H129.213Z" fill="#968EDA" stroke="#2C2C4C" stroke-width="1.2" stroke-miterlimit="10" stroke-linecap="round"/>
<path d="M133.879 91.1503C133.879 91.1503 132.946 85.1554 134.149 84.733C135.352 84.3165 136.826 90.6635 136.826 90.6635L133.879 91.1503Z" fill="#968EDA" stroke="#2C2C4C" stroke-width="1.2" stroke-miterlimit="10" stroke-linecap="round"/>
<path d="M141.457 87.2964C141.457 87.2964 141.251 81.3014 142.267 81.3777C143.282 81.4539 144.133 86.6629 144.133 86.6629L141.457 87.2964Z" fill="#968EDA" stroke="#2C2C4C" stroke-width="1.2" stroke-miterlimit="10" stroke-linecap="round"/>
<path d="M145.501 88.3992C145.501 88.3992 149.516 84.2226 150.508 85.8709C151.5 87.5193 150.948 89.8832 145.114 90.5461L145.501 88.3992Z" fill="#968EDA" stroke="#2C2C4C" stroke-width="1.2" stroke-miterlimit="10" stroke-linecap="round"/>
<path d="M144.069 92.4702C144.069 92.4702 149.569 94.23 148.524 96.1247C147.479 98.0194 141.921 94.2945 141.921 94.2945L144.069 92.4702Z" fill="#968EDA" stroke="#2C2C4C" stroke-width="1.2" stroke-miterlimit="10" stroke-linecap="round"/>
<path d="M138.786 96.6646C138.786 96.6646 143.136 101.598 140.77 102.947C138.405 104.296 135.628 97.3685 135.628 97.3685L138.786 96.6646Z" fill="#968EDA" stroke="#2C2C4C" stroke-width="1.2" stroke-miterlimit="10" stroke-linecap="round"/>
<path d="M128.955 100.999C128.955 100.999 134.824 102.477 134.331 105.616C133.838 108.748 127.258 103.31 127.258 103.31L128.955 100.999Z" fill="#968EDA" stroke="#2C2C4C" stroke-width="1.2" stroke-miterlimit="10" stroke-linecap="round"/>
<path d="M124.371 106.59C124.371 106.59 128.379 109.247 127.945 111.664C127.511 114.081 122.504 109.3 122.169 107.429L124.371 106.59Z" fill="#968EDA" stroke="#2C2C4C" stroke-width="1.2" stroke-miterlimit="10" stroke-linecap="round"/>
<path d="M118.753 107.211C118.753 107.211 122.686 113.318 121.107 114.855C119.528 116.392 116.112 107.933 116.112 107.933L118.753 107.211Z" fill="#968EDA" stroke="#2C2C4C" stroke-width="1.2" stroke-miterlimit="10" stroke-linecap="round"/>
<path d="M114.087 108.197C114.087 108.197 115.854 115.289 114.087 115.676C112.32 116.063 111.933 109.024 111.933 109.024L114.087 108.197Z" fill="#968EDA" stroke="#2C2C4C" stroke-width="1.2" stroke-miterlimit="10" stroke-linecap="round"/>
<path d="M6.95575 78.8845C6.95575 78.8845 4.51988 70.8013 7.38423 70.4728C10.2427 70.1443 8.79879 79.5298 8.79879 79.5298L6.95575 78.8845Z" fill="#574A7D" stroke="#2C2C4C" stroke-width="1.2" stroke-miterlimit="10" stroke-linecap="round"/>
<path d="M22.5979 100.208C22.5979 100.208 24.1475 104.097 21.8701 104.02C19.5927 103.944 21.1716 99.7676 21.1716 99.7676L22.5979 100.208Z" fill="#574A7D" stroke="#2C2C4C" stroke-width="1.2" stroke-miterlimit="10" stroke-linecap="round"/>
<path d="M5.84629 80.8791C5.84629 80.8791 0.933468 79.3305 2.85282 77.2012C4.77216 75.0719 7.41347 79.8526 7.41347 79.8526L5.84629 80.8791Z" fill="#574A7D" stroke="#2C2C4C" stroke-width="1.2" stroke-miterlimit="10" stroke-linecap="round"/>
<path d="M9.67358 81.5653C9.67358 81.5653 11.6223 74.6142 13.8938 75.846C16.1653 77.072 10.3721 83.2723 10.3721 83.2723L9.67358 81.5653Z" fill="#574A7D" stroke="#2C2C4C" stroke-width="1.2" stroke-miterlimit="10" stroke-linecap="round"/>
<path d="M18.466 97.6967C18.466 97.6967 19.3581 102.648 16.799 102.653C14.2458 102.659 17.1629 96.8755 17.1629 96.8755L18.466 97.6967Z" fill="#574A7D" stroke="#2C2C4C" stroke-width="1.2" stroke-miterlimit="10" stroke-linecap="round"/>
<path d="M14.3451 86.1472C14.3451 86.1472 13.4412 79.0846 15.9064 79.2137C18.3658 79.3486 15.6306 86.9215 15.6306 86.9215L14.3451 86.1472Z" fill="#574A7D" stroke="#2C2C4C" stroke-width="1.2" stroke-miterlimit="10" stroke-linecap="round"/>
<path d="M11.6982 93.3855C11.6982 93.3855 12.4026 99.1634 10.313 99.0754C8.22346 98.9874 10.6124 92.7578 10.6124 92.7578L11.6982 93.3855Z" fill="#574A7D" stroke="#2C2C4C" stroke-width="1.2" stroke-miterlimit="10" stroke-linecap="round"/>
<path d="M8.17657 92.3121C8.17657 92.3121 5.57635 95.2216 4.07374 93.8724C2.57113 92.5233 7.707 91.3618 7.707 91.3618L8.17657 92.3121Z" fill="#574A7D" stroke="#2C2C4C" stroke-width="1.2" stroke-miterlimit="10" stroke-linecap="round"/>
<path d="M6.93815 87.3494C6.93815 87.3494 1.32685 87.6251 1.14489 84.6217C0.962935 81.6184 7.41359 85.8653 7.41359 85.8653L6.93815 87.3494Z" fill="#574A7D" stroke="#2C2C4C" stroke-width="1.2" stroke-miterlimit="10" stroke-linecap="round"/>
<path d="M86.4121 136.388C87.6858 140.477 88.9242 144.524 89.8692 148.712C90.0453 149.639 90.2977 150.566 90.1803 151.546C90.0395 152.068 88.9595 154.279 88.7364 154.819C88.7305 154.784 88.7188 154.784 88.6895 154.79C88.6953 154.79 88.666 154.801 88.7129 154.778C89.6462 154.162 91.906 152.672 92.8686 152.038L93.2971 151.757L93.6962 152.074L95.5451 153.546L96.4666 154.285C96.5723 154.367 96.6603 154.455 96.7542 154.496C96.9597 154.561 97.1651 154.361 97.1005 154.156C96.9773 153.393 96.8071 152.338 96.6897 151.575C96.5723 150.777 97.5114 150.161 98.1923 150.572L97.9047 150.484C98.1923 150.507 99.7595 150.625 100.018 150.648C100.241 150.666 100.076 150.648 100.059 150.678C99.9708 150.724 99.9414 150.801 99.9825 150.906C99.4601 150.314 98.339 148.994 97.7168 148.284C97.7051 147.698 97.6581 147.093 97.5877 146.478C97.4116 144.917 97.0771 143.369 96.6134 141.873L98.3214 141.439C98.7381 143.621 99.1021 145.774 99.1549 148.003L98.9788 147.533C99.3427 147.956 100.282 149.053 100.634 149.463L100.91 149.786C101.743 150.525 101.467 151.95 100.223 152.08C100.012 152.085 99.6949 152.05 99.4836 152.033L97.7932 151.898L97.4997 151.81C97.7755 151.974 98.1512 151.733 98.1042 151.405C98.0984 151.364 98.1101 151.434 98.1101 151.446C98.1277 151.54 98.1629 151.786 98.1805 151.886C98.2569 152.42 98.4271 153.399 98.5034 153.927C98.7851 155.605 96.7601 156.579 95.5803 155.388C94.9992 154.924 93.4203 153.657 92.8158 153.171L93.6434 153.212L90.9786 154.96C90.6323 155.159 89.5229 155.974 89.1473 156.109C88.0438 156.52 86.9403 155.271 87.4862 154.221L87.6505 153.857C87.9499 153.194 88.5134 151.956 88.8127 151.293C88.8421 151.17 88.8186 150.801 88.7775 150.507C87.9851 145.868 86.4179 141.327 85.0327 136.828C85.0386 136.828 86.4121 136.388 86.4121 136.388Z" fill="#2C2C4C"/>
<path d="M101.509 173.009H103.739L111.91 166.821C111.91 166.821 115.543 149.992 117.192 146.777L115.543 138.201C115.543 138.201 120.162 125.249 122.557 123.519C124.952 121.788 127.264 119.97 127.264 119.97C127.264 119.97 120.25 121.29 110.589 132.84C110.589 132.84 109.932 137.045 109.844 143.727L101.509 155.03L97.7288 156.79" stroke="#2C2C4C" stroke-width="1.2" stroke-miterlimit="10"/>
<path d="M39.872 104.46C39.872 104.46 38.2226 110.397 48.6763 109.411C55.9605 108.719 57.9561 105.78 58.7661 105.205C59.0009 105.041 59.089 105 59.4587 105.358C60.6913 106.555 63.2798 110.854 71.5676 111.388C81.8042 112.045 88.1844 109.617 84.7742 104.543" stroke="#2C2C4C" stroke-width="1.2" stroke-miterlimit="10"/>
<path d="M103.733 173.009C103.733 173.009 104.291 178.729 105.059 180.447" stroke="#2C2C4C" stroke-width="0.6" stroke-miterlimit="10"/>
<path d="M106.932 170.587L110.119 175.233" stroke="#2C2C4C" stroke-width="0.6" stroke-miterlimit="10"/>
<path d="M110.929 167.566L115.073 170.587" stroke="#2C2C4C" stroke-width="0.6" stroke-miterlimit="10"/>
<path d="M112.878 161.436L117.791 163.524" stroke="#2C2C4C" stroke-width="0.6" stroke-miterlimit="10"/>
<path d="M114.439 155.934C114.439 155.934 117.198 155.441 119.71 155.934" stroke="#2C2C4C" stroke-width="0.6" stroke-miterlimit="10"/>
<path d="M115.865 150.578L120.884 149.892" stroke="#2C2C4C" stroke-width="0.6" stroke-miterlimit="10"/>
<path d="M117.192 146.777L120.08 144.671" stroke="#2C2C4C" stroke-width="0.6" stroke-miterlimit="10"/>
<path d="M116.347 142.571L119.651 139.673" stroke="#2C2C4C" stroke-width="0.6" stroke-miterlimit="10"/>
<path d="M117.791 132.364L124.423 134.488" stroke="#2C2C4C" stroke-width="0.6" stroke-miterlimit="10"/>
<path d="M119.082 129.367C119.082 129.367 125.445 129.332 127.264 129.971" stroke="#2C2C4C" stroke-width="0.6" stroke-miterlimit="10"/>
<path d="M120.884 125.748C122.134 124.146 129.858 122.879 130.492 124.317" stroke="#2C2C4C" stroke-width="0.6" stroke-miterlimit="10"/>
<path d="M127.258 119.97C127.258 119.97 131.484 118.908 133.533 118.732" stroke="#2C2C4C" stroke-width="0.6" stroke-miterlimit="10"/>
<path d="M118.753 124.715C118.753 124.715 119.258 120.838 118.753 119.964" stroke="#2C2C4C" stroke-width="0.6" stroke-miterlimit="10"/>
<path d="M114.028 129.015C114.028 129.015 112.403 123.478 111 122.34" stroke="#2C2C4C" stroke-width="0.6" stroke-miterlimit="10"/>
<path d="M110.589 132.834L108.822 128.223" stroke="#2C2C4C" stroke-width="0.6" stroke-miterlimit="10"/>
<path d="M109.972 139.673C109.972 139.673 106.709 136.031 105.717 136.605" stroke="#2C2C4C" stroke-width="0.6" stroke-miterlimit="10"/>
<path d="M106.128 144.301L109.843 143.727" stroke="#2C2C4C" stroke-width="0.6" stroke-miterlimit="10"/>
<path d="M101.884 146.736L106.973 147.61" stroke="#2C2C4C" stroke-width="0.6" stroke-miterlimit="10"/>
<path d="M100.27 149.006L104.009 151.634" stroke="#2C2C4C" stroke-width="0.6" stroke-miterlimit="10"/>
<path d="M98.0281 151.059L101.262 154.901" stroke="#2C2C4C" stroke-width="0.6" stroke-miterlimit="10"/>
<path d="M80.5601 78.269C83.5301 77.3891 85.291 74.9723 85.6197 73.7581C85.9484 72.5439 85.7312 69.6871 81.2175 71.2299C77.7721 72.4089 74.2562 76.9844 72.7947 79.0844C72.5305 79.4656 72.871 79.9701 73.3229 79.8704L80.5601 78.269Z" stroke="#2C2C4C" stroke-width="1.2" stroke-miterlimit="10"/>
<path d="M41.8035 74.468C40.1131 73.1364 39.5907 71.2066 39.6846 70.3912C39.7785 69.5758 40.6413 67.9216 43.1594 70.0686C45.0846 71.711 46.1881 75.4124 46.5989 77.0666C46.6752 77.3658 46.3289 77.5769 46.0589 77.3951L41.8035 74.468Z" stroke="#2C2C4C" stroke-width="1.2" stroke-miterlimit="10"/>
<path d="M62.74 98.8523C62.74 98.8523 64.6124 96.7054 65.3285 96.5998C66.0446 96.4942 66.0446 98.2423 62.74 98.8523Z" fill="#EA68A1" stroke="#2C2C4C" stroke-width="0.6" stroke-miterlimit="10"/>
<path d="M53.3782 97.9724C53.3782 97.9724 52.5329 96.0191 52.1045 95.849C51.676 95.6788 51.4118 97.0984 53.3782 97.9724Z" fill="#EA68A1" stroke="#2C2C4C" stroke-width="0.6" stroke-miterlimit="10"/>
<path d="M94.7407 101.656C94.7407 101.656 97.1766 101.897 105.717 102.231C113.406 102.536 113.312 96.1891 113.312 96.1891C113.312 96.1891 113.564 90.024 107.988 89.3612C103.991 88.8919 97.0475 91.2618 94.7407 101.656Z" fill="#EA68A1" stroke="#475780" stroke-width="0.6" stroke-miterlimit="10"/>
<path d="M22.1046 84.3282C22.1692 83.3193 23.3372 82.8031 24.1237 83.4425C25.7966 84.8151 31.4255 97.2509 31.1437 97.1746C28.9309 96.5587 28.8135 98.1601 26.9294 97.8551C24.6637 97.4914 22.9087 95.6553 22.6094 93.3794C22.269 90.7573 21.9168 87.1674 22.1046 84.3282Z" fill="#EA68A1" stroke="#475780" stroke-width="0.6" stroke-miterlimit="10"/>
<path d="M94.9343 60.2954C94.9343 60.2954 109.872 69.6222 127.258 83.1608" stroke="#2C2C4C" stroke-width="1.8" stroke-miterlimit="10"/>
<path d="M94.9876 119.471C94.9876 119.471 71.8791 127.337 50.8015 120.738" stroke="#2C2C4C" stroke-width="1.8" stroke-miterlimit="10"/>
<path d="M118.166 96.9517C118.166 96.9517 114.087 103.469 110.013 109.616" stroke="#2C2C4C" stroke-width="1.8" stroke-miterlimit="10"/>
<path d="M18.3897 87.3022C18.3897 87.3022 16.4116 93.3969 16.5173 95.4735" stroke="#2C2C4C" stroke-width="0.6" stroke-miterlimit="10" stroke-linecap="round"/>
<path d="M14.9443 87.3672C14.9443 87.3672 13.2714 89.5904 12.7314 92.5761" stroke="#2C2C4C" stroke-width="0.6" stroke-miterlimit="10" stroke-linecap="round"/>
<path d="M10.6179 84.8271C10.6179 84.8271 9.03315 87.2322 8.92163 89.907" stroke="#2C2C4C" stroke-width="0.6" stroke-miterlimit="10" stroke-linecap="round"/>
<path d="M37.7593 60.9644C37.7593 60.9644 31.9602 63.1406 31.2793 66.6132" stroke="#2C2C4C" stroke-width="0.6" stroke-miterlimit="10" stroke-linecap="round"/>
<path d="M31.2792 57.6914C31.2792 57.6914 26.1434 62.607 25.979 65.2467" stroke="#2C2C4C" stroke-width="0.6" stroke-miterlimit="10" stroke-linecap="round"/>
<path d="M28.0156 54.688C28.0156 54.688 24.0654 56.0489 22.9619 58.8352" stroke="#2C2C4C" stroke-width="0.6" stroke-miterlimit="10" stroke-linecap="round"/>
<path d="M25.4914 49.0801C25.4914 49.0801 21.4708 50.1183 20.7312 53.3387" stroke="#2C2C4C" stroke-width="0.6" stroke-miterlimit="10" stroke-linecap="round"/>
<path d="M23.9365 44.2231C23.9365 44.2231 20.7493 45.543 20.4265 48.3645" stroke="#2C2C4C" stroke-width="0.6" stroke-miterlimit="10" stroke-linecap="round"/>
<path d="M21.4183 39.5068C21.4183 39.5068 18.5539 41.5658 18.8004 43.1261" stroke="#2C2C4C" stroke-width="0.6" stroke-miterlimit="10" stroke-linecap="round"/>
<path d="M21.4475 83.6539C21.4945 88.6458 21.5532 94.2712 23.9773 98.7293C24.7051 99.9318 22.9267 101.046 22.1636 99.8614C20.796 97.2687 20.4556 94.4824 20.2208 91.6726C20.033 88.9626 20.0682 86.2877 20.2736 83.5776C20.3499 82.8327 21.471 82.8913 21.4475 83.6539Z" fill="#2C2C4C"/>
<path d="M41.498 56.7234C41.498 56.7234 50.5783 51.9602 52.9437 52.8284" stroke="#2C2C4C" stroke-width="0.6" stroke-miterlimit="10" stroke-linecap="round"/>
<path d="M41.9031 49.7372C41.9031 49.7372 47.3324 43.2495 50.772 45.0092" stroke="#2C2C4C" stroke-width="0.6" stroke-miterlimit="10" stroke-linecap="round"/>
<path d="M43.1357 40.8973C43.1357 40.8973 45.1842 37.7297 48.5944 38.897" stroke="#2C2C4C" stroke-width="0.6" stroke-miterlimit="10" stroke-linecap="round"/>
<path d="M39.6729 33.5999C39.6729 33.5999 45.9592 31.4823 48.0487 35.0018" stroke="#2C2C4C" stroke-width="0.6" stroke-miterlimit="10" stroke-linecap="round"/>
<path d="M39.8311 27.5231C39.8311 27.5231 45.0902 25.5169 48.0484 28.1801" stroke="#2C2C4C" stroke-width="0.6" stroke-miterlimit="10" stroke-linecap="round"/>
<path d="M41.498 20.7299C41.498 20.7299 45.0198 17.9554 47.7961 22.2962" stroke="#2C2C4C" stroke-width="0.6" stroke-miterlimit="10" stroke-linecap="round"/>
<path d="M97.6814 55.6206C97.6814 55.6206 107.941 59.6212 109.456 64.1497" stroke="#2C2C4C" stroke-width="0.6" stroke-miterlimit="10" stroke-linecap="round"/>
<path d="M103.569 49.7251C103.569 49.7251 112.555 52.6287 113.26 56.6821" stroke="#2C2C4C" stroke-width="0.6" stroke-miterlimit="10" stroke-linecap="round"/>
<path d="M111.099 43.3608C111.099 43.3608 117.409 45.6955 118.166 50.3002" stroke="#2C2C4C" stroke-width="0.6" stroke-miterlimit="10" stroke-linecap="round"/>
<path d="M113.523 38.3047C113.523 38.3047 118.524 39.4427 119.358 44.722" stroke="#2C2C4C" stroke-width="0.6" stroke-miterlimit="10" stroke-linecap="round"/>
<path d="M115.73 31.8169C115.73 31.8169 121.183 33.0194 121.483 38.2987" stroke="#2C2C4C" stroke-width="0.6" stroke-miterlimit="10" stroke-linecap="round"/>
<path d="M117.715 27.3291C117.715 27.3291 123.854 27.4523 124.435 33.4707" stroke="#2C2C4C" stroke-width="0.6" stroke-miterlimit="10" stroke-linecap="round"/>
<path d="M119.364 21.0352C119.364 21.0352 123.872 21.9209 125.58 26.5315" stroke="#2C2C4C" stroke-width="0.6" stroke-miterlimit="10" stroke-linecap="round"/>
<path d="M120.174 70.1797C120.174 70.1797 124.699 75.3945 125.069 81.4716" stroke="#2C2C4C" stroke-width="0.6" stroke-miterlimit="10" stroke-linecap="round"/>
<path d="M127.974 71.0596C127.974 71.0596 133.873 74.8255 132.811 79.4713" stroke="#2C2C4C" stroke-width="0.6" stroke-miterlimit="10" stroke-linecap="round"/>
<path d="M134.36 66.4844C134.36 66.4844 140.964 71.5643 139.144 79.4715" stroke="#2C2C4C" stroke-width="0.6" stroke-miterlimit="10" stroke-linecap="round"/>
<path d="M141.116 64.6602C141.116 64.6602 145.436 68.9306 144.755 75.8289" stroke="#2C2C4C" stroke-width="0.6" stroke-miterlimit="10" stroke-linecap="round"/>
<path d="M144.832 61.1641C144.832 61.1641 149.48 63.4518 148.811 69.6051" stroke="#2C2C4C" stroke-width="0.6" stroke-miterlimit="10" stroke-linecap="round"/>
<path d="M139.221 89.9893C139.221 89.9893 141.833 91.7432 141.07 93.4384" stroke="#2C2C4C" stroke-width="0.6" stroke-miterlimit="10" stroke-linecap="round"/>
<path d="M134.36 91.209C134.36 91.209 137.741 94.4 137.524 96.6643" stroke="#2C2C4C" stroke-width="0.6" stroke-miterlimit="10" stroke-linecap="round"/>
<path d="M127.974 92.083C127.974 92.083 132.647 93.9425 132.048 97.9372" stroke="#2C2C4C" stroke-width="0.6" stroke-miterlimit="10" stroke-linecap="round"/>
<path d="M125.075 94.5703C125.075 94.5703 128.25 98.4418 127.264 102.067" stroke="#2C2C4C" stroke-width="0.6" stroke-miterlimit="10" stroke-linecap="round"/>
<path d="M121.084 97.9434C121.084 97.9434 124.881 99.5037 123.795 105.452" stroke="#2C2C4C" stroke-width="0.6" stroke-miterlimit="10" stroke-linecap="round"/>
<path d="M118.43 98.3184C118.43 98.3184 119.053 105.633 116.511 107.933" stroke="#2C2C4C" stroke-width="0.6" stroke-miterlimit="10" stroke-linecap="round"/>
<path d="M22.3508 98.5181C22.3508 98.5181 30.4391 114.438 49.9202 120.873C49.9202 120.873 47.2789 123.431 46.3984 126.287C45.518 129.144 43.4284 136.078 42.2193 137.503C41.3858 138.488 38.8032 141.31 37.283 142.964C36.8428 143.445 37.1891 144.214 37.8347 144.214H42.2134L42.1313 148.754C42.1195 149.323 42.818 149.604 43.2054 149.188L46.6097 145.533L47.6017 149.604" stroke="#2C2C4C" stroke-width="2.7" stroke-miterlimit="10" stroke-linecap="round"/>
<path d="M52.3091 129.121C51.0237 133.52 49.9671 137.99 49.5798 142.518C49.3567 144.783 49.1865 147.082 48.9341 149.37C48.535 153.992 46.3984 158.356 44.8078 162.638C43.6691 165.777 42.4482 168.833 42.5421 172.147C42.6654 175.884 44.2032 179.562 46.6215 182.377L45.0367 183.064C42.7593 184.049 36.9132 186.571 34.7121 187.528C35.5339 187.217 35.7745 185.973 35.035 185.387C34.8237 185.175 34.3776 185.087 34.5537 185.128C35.7921 185.422 37.4885 185.832 38.7269 186.137C40.0593 186.442 40.6052 188.214 39.6778 189.211C39.0791 189.927 37.8641 191.364 37.2654 192.08C37.0893 192.291 36.5376 192.942 36.3615 193.153L36.2852 193.241C36.2852 193.247 36.2676 193.264 36.2734 193.253C36.3556 193.153 36.4261 193.042 36.473 192.918C36.8311 192.056 36.0856 191.112 35.17 191.241C37.2948 190.93 40.5524 190.466 42.7241 190.161C44.1563 189.798 45.518 190.895 45.3008 192.385C45.0719 193.429 44.6024 195.265 44.3558 196.321L44.2443 196.778L44.215 196.89L44.2032 196.948C44.3441 196.467 44.0506 195.746 43.54 195.517C43.088 195.259 42.3895 195.364 42.0374 195.74C42.0432 195.734 42.0961 195.681 42.1019 195.675C43.7102 194.138 45.4652 192.701 47.5371 191.751C49.4154 190.994 51.1058 190.478 52.9958 189.856C54.3811 189.422 55.8426 188.976 57.3334 188.683C57.4743 188.648 57.6269 188.607 57.7208 188.501C58.3958 187.598 57.9732 185.891 57.3863 184.923C56.9871 184.301 57.1691 183.474 57.7971 183.081C59.3878 182.19 60.2037 184.401 60.5441 185.563C60.9608 187.199 61.0371 188.976 59.7458 190.437C59.2352 191 58.4956 191.335 57.7561 191.481C56.4765 191.757 55.2028 192.179 53.8939 192.613C51.6869 193.44 49.3039 194.009 47.32 195.271C46.2282 195.986 45.16 196.884 44.1915 197.822C43.0587 199.06 40.9339 198.022 41.2508 196.356C41.3565 195.875 41.7439 194.303 41.8613 193.798L42.2956 191.974L42.325 191.863C42.278 191.997 42.3015 192.367 42.4071 192.543C42.5656 192.924 43.0997 193.171 43.4578 193.1C43.2641 193.13 42.8767 193.182 42.6771 193.212C40.6991 193.482 37.5589 193.957 35.5984 194.209C33.9961 194.485 32.8985 192.502 33.9902 191.294C34.0313 191.247 34.3189 190.906 34.3717 190.848C35.2404 189.833 36.5728 188.284 37.4298 187.281C36.8839 187.903 37.3593 188.842 37.9345 188.953C36.7254 188.648 35.0467 188.226 33.8435 187.915C32.4171 187.645 32.0591 185.492 33.5793 184.859C35.7745 183.961 41.7145 181.521 43.9861 180.588L43.4578 182.641C41.3037 179.579 40.2002 175.913 40.1298 172.194C40.2061 166.264 43.5341 160.902 45.6354 155.564C46.5158 153.47 47.2437 151.446 47.5489 149.17C47.9187 146.918 48.2004 144.654 48.5467 142.372C49.3039 137.843 50.6128 133.397 52.3091 129.121Z" fill="#2C2C4C"/>
<path d="M78.7813 171.132C76.7739 163.747 74.7489 156.362 72.3248 149.106C71.5265 146.695 70.6754 144.307 69.7187 141.984C68.7913 139.861 67.8874 137.479 66.285 135.837C63.7435 133.819 60.0867 134.37 58.7426 137.468C58.5606 137.855 58.2437 138.746 58.0559 139.186C56.9054 142.137 55.7491 145.152 54.675 148.126C51.3469 157.74 44.4561 175.08 56.1541 181.233C60.4096 183.521 65.2285 185.116 70.0709 184.847C72.4363 184.706 74.7665 184.113 76.727 182.917L78.1356 185.152C73.3754 188.173 67.4296 188.161 62.188 186.782C57.0052 185.263 51.3704 183.028 48.6998 178.013C42.7715 166.75 51.388 149.217 55.4909 138.177L55.8489 137.286C56.4652 135.532 57.6274 133.872 59.312 132.916C62.0472 131.267 65.6922 131.871 68.0459 133.895C69.1669 134.975 69.7715 136.159 70.4465 137.45C73.2346 143.333 74.8546 149.675 76.4335 155.904C77.6661 160.89 78.7226 165.906 79.6089 170.962C79.603 170.95 78.7813 171.132 78.7813 171.132Z" fill="#2C2C4C"/>
<path d="M82.179 167.818C77.2017 173.197 75.2706 180.823 81.0286 186.395C81.5393 186.917 81.5334 187.756 81.011 188.267C80.4651 188.806 79.5495 188.759 79.0623 188.161C77.8062 186.63 76.7556 184.87 76.1627 182.934C75.5758 180.999 75.4819 178.928 75.881 176.992C76.2567 175.051 77.0549 173.262 78.0703 171.648C79.0917 170.035 80.2949 168.581 81.7095 167.308C81.8504 167.179 82.0734 167.19 82.2025 167.331C82.3258 167.478 82.314 167.689 82.179 167.818Z" fill="#2C2C4C"/>
<path d="M97.9453 154.614C99.3306 158.591 100.141 162.609 101.086 166.674C102.518 172.874 102.835 180.928 96.971 185.064C96.7597 185.204 96.5073 185.351 96.2843 185.474C96.5249 185.345 96.6423 185.046 96.519 184.835L96.5366 184.864L96.566 184.929C97.511 186.788 97.2997 188.9 96.9534 190.783C96.9182 190.929 96.8595 191.176 96.8008 191.27C96.7303 191.41 96.7303 191.428 96.7714 191.317C95.2101 196.332 89.3817 198.86 84.4982 199.781C84.3867 199.805 84.1988 199.822 84.0873 199.834C84.2458 199.816 84.3984 199.74 84.4982 199.617L84.4688 199.652C83.694 200.661 82.0916 202.661 81.2993 203.682L80.7827 204.333C79.5912 205.823 76.9851 205.148 76.6917 203.236C76.6447 202.99 76.3688 199.975 76.3395 199.64C76.3336 199.435 76.2456 198.931 76.3336 199.306C76.4686 199.629 76.8384 199.769 77.1495 199.646L77.1788 199.634L77.1377 199.658L77.0497 199.699L76.3512 200.033C75.0775 200.632 72.718 201.787 71.4619 202.386C69.5425 203.348 67.3532 201.207 68.351 199.253C68.7149 198.573 69.7186 196.731 69.9534 196.326C69.836 196.631 70.0003 197.007 70.3056 197.112C69.1199 196.707 67.9636 196.174 66.8953 195.505C65.246 194.625 65.3106 192.056 67.1301 191.34C69.1786 190.63 71.2564 189.727 72.894 188.448C74.1384 187.551 74.9014 186.119 76.2045 185.187C77.1553 184.477 78.8458 183.368 79.5736 184.94C79.8612 185.633 79.4973 186.401 78.8282 186.677L78.6169 186.788C77.9771 187.146 77.4019 187.639 76.9323 188.196C75.0599 190.877 71.773 192.683 68.8147 193.78L68.4332 193.921L68.2453 193.991C68.2336 193.997 68.2043 194.009 68.2043 194.009C68.3921 193.956 68.5506 193.757 68.5799 193.569C68.6093 193.411 68.5682 193.211 68.4449 193.076C68.398 193.012 68.2688 192.936 68.4332 193.041C69.2197 193.522 70.0825 193.909 70.9571 194.226C72.3306 194.537 73.2403 196.003 72.718 197.353C72.5653 197.728 71.9843 198.737 71.8023 199.083L71.0627 200.444L71.0158 200.526L70.9923 200.567C70.9923 200.567 71.004 200.555 71.004 200.55C71.1508 200.262 71.0158 199.863 70.734 199.728C70.5756 199.64 70.3056 199.646 70.1882 199.722C70.6049 199.517 71.8375 198.931 72.2719 198.714L75.0599 197.364C75.8347 196.965 76.6682 196.526 77.5603 196.825C78.4877 197.024 79.2743 198.133 79.2625 198.983L79.2977 199.371C79.2977 199.447 79.6323 202.79 79.6264 202.738C79.5912 202.227 78.8575 201.987 78.5288 202.403L78.9808 201.846C79.8553 200.749 81.4519 198.778 82.3088 197.71C82.7373 197.206 83.4006 196.96 84.0521 196.919C84.9443 196.778 85.9186 196.531 86.8284 196.238C89.8219 195.223 93.009 193.686 94.1125 190.624C94.1301 190.525 94.3473 190.038 94.3238 190.108C94.2182 190.419 94.3062 190.132 94.3121 190.055C94.3532 189.833 94.3943 189.598 94.4295 189.369C94.5645 188.255 94.629 187.216 94.2593 186.295C93.6547 185.316 93.8073 183.943 94.8286 183.257C96.6482 182.318 97.9629 180.693 98.7143 178.664C100.047 175.05 99.8412 170.827 99.1956 167.038C98.5793 163.553 97.9454 158.286 97.1177 154.907C97.0414 154.666 97.1882 154.402 97.4347 154.35C97.6519 154.291 97.869 154.408 97.9453 154.614Z" fill="#2C2C4C"/>
<path d="M98.0683 147.598C95.9553 138.172 92.3983 128.804 86.6931 120.973C91.3829 119.882 96.0726 118.233 100.352 115.987C104.114 114.022 107.583 111.417 110.148 108.068C111.457 107.153 113.094 107.141 114.615 107.158C115.09 107.164 115.524 107.047 115.624 106.953C115.536 107.053 116.006 106.543 116.334 106.331C116.692 106.079 117.08 105.874 117.479 105.733C118.553 105.34 119.704 105.387 120.807 105.451L121.699 105.539C122.445 105.581 123.196 105.281 123.701 104.736C124.845 103.527 129.224 98.7409 130.292 97.6087C130.926 96.9459 131.789 96.506 132.693 96.3828L136.426 95.9428L136.162 96.0015C137.917 95.3445 139.684 94.2828 141.051 92.9981C142.395 91.7194 143.329 90.1121 143.581 88.2937L143.575 88.54C143.581 88.6398 143.581 88.5811 143.575 88.587C143.575 88.5811 143.569 88.5752 143.569 88.5752C143.569 88.5752 143.581 88.5987 143.61 88.6222C143.669 88.6808 143.704 88.6456 143.569 88.6515C143.041 88.6222 142.114 89.197 141.532 89.5314C140.03 90.4465 138.609 91.4026 136.884 91.9423C134.507 92.5875 132.082 92.5465 129.641 92.5406C128.919 92.5113 128.144 92.4643 127.516 92.8808C127.117 93.133 126.776 93.5378 126.506 93.9308C124.393 96.4708 121.218 101.738 117.309 99.0283L117.221 98.9579L117.103 98.8523L116.334 98.1484C116.469 98.0076 121.682 89.5372 121.981 89.109C122.691 87.9945 124.787 84.5923 125.462 83.5364L125.608 83.2959C125.644 83.2431 125.644 83.1727 125.62 83.1199L125.104 82.0523L124.205 80.2046C125.614 80.1694 127.504 80.1811 128.93 79.8409C130.903 79.5241 132.611 78.3568 134.571 78.1046C135.915 77.8934 137.201 77.8758 138.515 77.952L139.208 77.999C139.625 78.0107 140.042 77.8699 140.364 77.6001C142.09 75.7171 143.81 73.6465 145.447 71.6755C147.842 68.7543 150.343 65.7744 151.64 62.249C152.262 60.7004 152.837 59.1166 152.861 57.4565C152.784 57.1046 152.221 56.8641 151.904 57.1222C151.886 57.1339 151.869 57.1456 151.851 57.1574L151.716 57.2747L151.44 57.5093C150.883 58.0138 146.586 61.6272 145.894 62.2372L143.675 64.1261C142.571 65.1585 141.157 65.8624 139.631 65.9562C138.38 66.0266 137.03 65.9738 135.927 66.5135C134.413 67.804 132.705 69.6459 131.044 70.7839C125.391 75.3652 119.762 70.2736 113.799 70.1914C111.457 70.2266 108.927 69.8805 106.967 68.461L106.215 67.8627L106.579 66.9593C108.111 63.211 109.772 59.5448 112.014 56.1601C112.519 55.4034 113.206 54.5763 113.81 53.9018C115.43 52.0892 116.816 50.3646 117.667 48.2881C118.577 46.1587 119.011 43.8065 119.463 41.5129C120.326 37.7705 122.327 34.8493 123.877 31.5643C124.024 30.5554 124.076 29.1652 124.159 28.1562C124.376 24.5839 124.534 20.9881 124.34 17.4275C124.264 16.3305 124.188 15.0166 123.771 14.0839C123.759 14.0546 123.771 14.1191 123.953 14.2188C124.247 14.342 124.194 14.2833 124.229 14.3009C124.252 14.2951 124.247 14.2951 124.217 14.3068C123.043 15.1691 122.48 16.6532 121.793 18.0258C120.842 20.1551 120.062 22.4194 119.345 24.6953C118.682 26.9713 117.814 29.5289 116.417 31.6817C115.73 32.7669 115.137 33.6409 114.791 34.6263C113.928 36.8906 114.227 39.2898 113.276 41.7417C112.836 43.0322 111.721 44.1819 110.752 45.0618C106.609 48.9861 102.071 52.4588 98.174 56.5825C97 58.0607 95.9611 59.7912 95.1629 61.4864L93.9068 60.6652C86.1355 55.7143 75.6348 51.3149 66.8774 52.6875C62.1172 54.2244 57.3042 55.8375 52.6731 57.7088L52.6613 55.7495C52.6203 54.3065 52.1507 52.7227 51.2174 51.6199L50.9885 51.3208L50.7126 50.9395C49.8322 49.473 49.9496 47.5666 50.1374 46.059C50.2372 44.8213 50.5718 43.7889 50.2607 42.692C49.75 41.7534 48.9987 41.249 48.224 40.1814C47.6311 39.3836 47.1674 38.4333 46.9092 37.4772C46.4103 35.6646 46.5277 33.8814 46.51 32.0571L46.5335 26.9713C46.5042 23.8917 46.5218 19.8266 45.929 17.2691C45.1307 14.8875 43.1996 11.3269 41.8379 10.2828C42.2957 10.5174 42.9707 10.3766 43.2407 9.98948C42.8533 12.0719 42.9355 15.0224 43.047 17.4333C42.8768 19.0465 42.5598 20.6537 42.2546 22.2669C41.6794 25.2526 40.5759 27.9451 40.7344 30.9953C40.6581 34.0456 41.9905 36.3979 43.0998 39.2839C44.8724 43.742 43.0705 48.8336 42.7946 53.3386C42.7359 52.7696 43.2524 61.6682 43.2172 61.5275L43.2583 62.337L42.554 62.7417L40.2061 64.0909L39.5311 64.478L38.8855 64.085C37.9346 63.4925 37.2185 62.7065 36.6668 61.7386C36.2324 60.8353 35.6044 60.0727 34.6418 59.709C33.9903 59.4392 33.2976 59.2808 32.5933 59.2456C32.3879 59.228 32.335 59.2515 31.8948 59.2104C31.5426 59.1752 31.214 59.0814 30.9205 58.9641C28.872 58.0079 27.9563 56.4358 26.847 54.7523C25.9196 53.2037 25.1624 51.6493 24.4816 49.9833C24.0648 48.5227 23.6011 47.0093 23.0318 45.5663C22.0222 43.1319 20.7603 40.0113 18.6237 38.6093C17.5613 38.052 16.4227 37.4009 15.3485 37.1956C15.3485 37.1956 15.4131 37.1898 15.4659 37.1722C15.5305 37.1546 15.5657 37.1428 15.642 37.1018C15.8298 37.0079 15.9824 36.8554 16.0998 36.6736L16.0353 36.7615C16.0587 36.7322 16.0822 36.697 16.0998 36.6618L16.135 36.5973L16.1644 36.5386L16.1996 36.4506C16.2113 36.4213 16.2231 36.3627 16.2231 36.3568C16.229 36.3216 16.229 36.2923 16.229 36.304C16.9685 39.1842 19.7037 41.2196 20.6487 44.0588C21.2827 45.7188 21.0948 47.6252 21.1535 49.256C21.2298 50.7224 21.5879 52.1068 22.1983 53.5322L24.0413 58.0548C24.8983 60.0258 25.7083 62.3898 27.1992 63.7858C27.2813 63.8621 27.3518 63.868 27.434 63.9266C27.4633 63.9266 27.4868 63.9325 27.5103 63.9442C27.5337 63.9501 27.5103 63.956 27.5748 63.9677C29.0774 64.2199 30.3511 64.349 31.7774 65.3344C32.7459 65.9797 33.3622 67.3054 33.374 68.4434L30.7327 68.5372C30.6505 66.9476 28.6607 66.8713 27.34 66.6074C24.0766 66.1263 22.7618 61.5451 21.5937 59.0696C21.0127 57.4624 19.2753 53.7317 18.9055 52.0657C18.4477 50.4467 18.4829 48.5227 18.4829 46.9389C18.5357 43.7889 15.777 41.7476 14.3918 38.9085C13.8635 37.835 13.1474 36.3685 13.9046 35.2071C14.6559 34.1571 16.4461 34.6615 17.6963 35.2305C19.2694 35.911 21.0009 36.8261 21.987 38.1635C23.56 40.0699 24.5931 42.3987 25.4794 44.6453C25.9666 45.8479 26.759 48.335 26.9233 49.0448C27.5279 50.523 28.2674 52.0423 29.0892 53.409C29.7466 54.5236 30.8148 56.0428 31.889 56.5414C32.1355 56.6294 32.0592 56.6118 32.7224 56.6353C34.7592 56.7585 36.925 57.5328 38.1811 59.2398C38.7857 60.0023 39.0792 60.9761 39.8716 61.5861C39.9772 61.6624 40.0887 61.7621 40.1944 61.8325H38.8737L41.2216 60.4833L40.5642 61.6917L40.1416 53.3914C40.1357 53.3621 40.1416 53.3093 40.1416 53.2858C40.3 48.7925 42.1724 44.5574 40.5994 40.199C40.1298 38.8791 39.4196 37.4889 38.8913 35.9344C37.829 32.8255 37.8466 29.3529 38.5803 26.1618C38.9911 24.6191 39.3609 23.2582 39.6485 21.7741C39.942 20.3135 40.1768 18.8236 40.3998 17.3336L40.3881 17.5858C40.3294 16.1311 40.2766 14.6763 40.3 13.1981C40.3763 11.6847 40.2766 10.054 40.9809 8.62272L41.0161 8.55819L41.0807 8.46434C41.1863 8.33529 41.2333 8.2473 41.4857 8.05959C41.5385 8.01853 41.5972 7.98333 41.65 7.954C42.0081 7.75456 42.5246 7.72523 42.9179 7.90708C43.8276 8.43501 44.4792 9.21517 45.0427 9.92495C46.5511 11.9487 47.5724 14.166 48.4294 16.5182C49.6092 22.4252 48.9811 28.649 49.1337 34.597C49.1748 36.0635 49.4389 37.4596 50.3194 38.6269C50.877 39.4188 52.1213 40.4629 52.6203 41.5775C53.7355 44.1526 51.9864 46.9683 52.8668 49.4261C52.9314 49.602 53.0898 49.778 53.2013 49.9305C54.5924 51.5965 55.2205 53.6789 55.2674 55.8141L53.4596 54.5646C55.5492 53.7375 57.6387 53.0043 59.7342 52.2828C61.859 51.5554 63.9837 50.8515 66.1261 50.1593C68.785 49.7018 71.4616 49.7252 74.0677 50.0361C81.745 51.1624 88.8355 54.371 95.3507 58.4889L93.4196 59.011C94.6287 56.6998 96.1548 54.5998 98.08 52.8752C101.625 49.5434 105.364 46.4344 108.904 43.1554C109.696 42.387 110.406 41.8121 110.782 40.7856C111.551 38.6797 111.363 36.0048 112.273 33.7171C112.707 32.497 113.47 31.3473 114.133 30.3032C115.378 28.3674 116.088 26.285 116.786 23.921C117.526 21.5805 118.318 19.2518 119.345 16.9523C120.238 15.1515 121.118 12.9283 123.108 11.9018C126.477 10.5585 126.806 15.0635 126.935 17.2691C127.14 20.9705 126.97 24.6543 126.753 28.3322C126.665 29.4174 126.589 30.8898 126.459 31.9456C126.301 32.7375 125.878 33.4532 125.526 34.1336C124.153 36.6501 122.615 39.4423 121.999 42.0819C121.318 45.7833 120.437 49.6431 118.13 52.7403C116.88 54.5294 115.36 55.902 114.145 57.656C112.038 60.8411 110.43 64.3959 108.986 67.9272L108.592 66.4314L108.751 66.5311C111.075 67.9682 113.963 67.2819 116.516 67.8392C119.968 68.4082 123.278 70.3967 126.671 70.0213C129.905 69.1532 131.889 66.2437 134.507 64.261C135.827 63.5219 137.271 63.4339 138.697 63.3518C139.695 63.34 140.13 63.2755 140.922 62.8649C141.286 62.683 141.556 62.4015 141.867 62.1551L144.109 60.2428C145.007 59.4509 149.239 55.8903 150.143 55.1043C151.863 53.6554 154.774 54.5177 155.349 56.7526C155.66 57.9493 155.273 59.1576 155.032 60.3249C154.528 62.3194 153.641 64.1789 152.784 65.9973C151.294 68.7777 149.327 70.954 147.425 73.359C146.175 74.8783 144.902 76.3741 143.616 77.8582C143.105 78.3803 142.571 79.1604 141.984 79.6414C140.975 80.5096 139.59 80.7677 138.298 80.5858C136.749 80.4979 135.164 80.5448 133.702 80.9906C132.305 81.5596 130.879 82.152 129.4 82.4219C128.355 82.6272 127.369 82.768 126.225 82.7914L127.41 80.8967L127.939 81.9819C128.349 82.8266 128.297 83.8708 127.804 84.6685C127.528 85.1437 126.976 85.9766 126.688 86.4576C125.074 89.0504 120.76 95.9428 119.093 98.6177L118.905 96.987C118.87 96.9576 118.876 96.9635 118.876 96.9635C118.876 96.9635 118.876 96.9635 118.882 96.9694C120.267 97.8727 122.216 94.8224 123.155 93.8546C123.66 93.2445 124.147 92.5934 124.628 91.9599C125.532 90.7163 127.046 89.9303 128.578 89.8892L130.586 89.9244C131.859 89.942 133.086 89.854 134.372 89.7367C136.526 89.6194 138.263 88.411 140.053 87.3141C141.738 86.1995 144.602 85.0733 145.864 87.4138C146.046 87.7833 146.117 88.0649 146.152 88.5107C145.559 93.4263 141.339 96.8931 136.931 98.518L136.813 98.559L136.667 98.5766L132.986 99.0107C132.658 99.0518 132.352 99.2101 132.124 99.4506L130.873 100.8C130.333 101.339 125.467 106.748 124.992 107.07C124.012 107.851 122.738 108.25 121.494 108.185C120.531 108.079 119.797 108.021 118.905 108.091C118.342 108.144 117.808 108.396 117.444 108.819C115.806 110.338 113.945 109.499 112.132 109.998C111.973 110.05 111.838 110.08 111.703 110.162C111.715 110.15 111.674 110.191 111.768 110.109C107.454 116.127 97.3111 121.072 89.1055 123.084L89.8685 121.014C95.1922 128.892 98.532 137.826 100.622 147.047C100.692 147.029 98.0683 147.598 98.0683 147.598Z" fill="#2C2C4C"/>
<path d="M98.9956 180.6L103.427 180.489C104.795 180.453 106.11 179.931 107.125 179.022L115.331 171.678C116.158 170.933 116.733 169.953 116.968 168.868C118.054 163.888 121.188 149.329 121.388 146.537C121.635 143.152 119.017 138.43 119.017 138.43L120.854 138.635C121.681 138.729 122.48 138.319 122.891 137.597L133.11 119.729L136.578 117.583C135.152 117.77 130.421 117.676 128.156 117.618C127.24 117.594 126.318 117.635 125.409 117.747C118.265 118.609 114.069 120.363 112.055 121.448C111.193 121.912 110.547 122.703 110.306 123.654C109.238 127.836 106.11 134.934 104.977 137.45C104.701 138.055 104.613 138.723 104.713 139.38L105.17 142.384C105.305 143.275 104.965 144.167 104.278 144.748L99.4476 148.795" stroke="#2C2C4C" stroke-width="2.7" stroke-miterlimit="10"/>
<path d="M53.841 57.163C46.7388 60.6063 39.8421 64.513 33.3327 68.9007C30.0751 71.0946 26.9349 73.4527 24.0001 76.0161C23.2664 76.6613 22.5444 77.3066 21.8342 77.9694C21.7521 78.0398 21.5642 78.2862 21.5173 78.4094C21.5173 78.4153 21.5173 78.4153 21.529 78.3742C21.5349 78.3566 21.5408 78.3038 21.5466 78.2627C21.5466 78.2686 21.5466 78.3155 21.5466 78.3273C21.4879 80.2865 21.5525 83.0083 21.5055 84.9734C21.6229 86.8622 20.2729 88.2935 18.3594 88.1644C17.391 88.1703 16.4166 88.2759 15.5068 88.5809C15.0431 88.7627 14.5208 88.8977 13.9984 88.8273C10.0129 87.9591 8.98575 83.0435 7.37749 79.9815C7.35401 79.9345 7.31293 79.8993 7.40097 79.9932C7.4538 80.0342 7.55358 80.1516 7.89988 80.2454C8.18749 80.3275 8.61597 80.2572 8.87423 80.0753C8.14641 81.2485 8.43401 83.1139 8.70401 84.5627C9.20293 86.4692 9.3614 88.6924 9.88966 90.1412C10.0188 90.4932 10.189 90.7396 10.2712 90.8041C10.8112 91.115 11.7621 91.2675 12.6836 91.6605C13.3938 91.9949 14.0394 92.5521 14.4268 93.2326C14.9551 94.2474 14.8964 94.875 15.1136 95.6611C15.1488 95.796 15.1899 95.8136 15.1253 95.7491C15.0607 95.6728 14.9257 95.6376 14.961 95.6552C15.1605 95.6728 15.1781 95.6024 15.4775 95.4499C18.1481 93.6432 21.6171 96.0658 22.8614 98.553C23.5247 100.154 21.1944 101.198 20.4431 99.6206C19.8679 98.6527 18.6764 97.72 17.5494 97.5616C17.2794 97.5792 17.2207 97.6613 16.8862 97.8491C16.3579 98.2127 15.3308 98.5764 14.6029 98.4356C13.1414 98.3183 12.3608 96.8812 12.214 95.6259C12.0379 94.7929 12.0614 94.5817 11.4921 94.2884C10.9168 94.0597 9.64901 93.8192 8.94466 93.4027C7.00184 92.2823 6.7964 89.8186 6.43249 88.0295C5.95119 84.815 4.43684 81.1077 6.69662 78.1396C7.70619 76.9312 9.16771 77.2127 9.86619 78.427C11.1105 80.6267 11.674 83.284 13.2705 85.1787C13.5758 85.56 14.0512 85.9236 14.3329 86.0116C14.3153 86.0116 14.3036 86.0116 14.2977 86.0116C14.2801 86.0116 14.286 86.0175 14.3036 86.0116L14.6323 85.9002C15.9412 85.4778 17.3792 85.3488 18.7116 85.3898C18.7527 85.4016 18.7468 85.3429 18.7468 85.2901C18.7997 83.7767 18.8114 81.272 18.829 79.741C18.876 79.0077 18.7644 78.1044 19.0579 77.3946C19.7329 75.9574 21.1768 75.0893 22.3155 74.0393C25.4264 71.47 28.7075 69.1412 32.0942 67.0002C37.1714 63.7974 42.4834 61.0169 47.9597 58.5767C49.7851 57.7672 51.6105 56.9929 53.4947 56.2949C53.7412 56.201 54.017 56.3301 54.1051 56.5764C54.1755 56.7993 54.064 57.0633 53.841 57.163Z" fill="#2C2C4C"/>
</svg>
