<svg width="98" height="98" viewBox="0 0 98 98" fill="none" xmlns="http://www.w3.org/2000/svg">
<g filter="url(#filter0_d_1597_2676)">
<path d="M49 82C71.6437 82 90 63.6437 90 41C90 18.3563 71.6437 0 49 0C26.3563 0 8 18.3563 8 41C8 63.6437 26.3563 82 49 82Z" fill="#844AFF"/>
</g>
<g opacity="0.8">
<path d="M48.9971 37.7607C45.9709 39.5421 42.9256 41.3214 39.9033 43.125L39.9014 43.126C36.3761 45.2069 32.8268 47.2885 29.3018 49.3447H29.3008C27.9643 50.1223 26.6063 50.9373 25.2354 51.7207C24.9551 51.8909 24.7859 52.091 24.708 52.332C24.5107 53.0299 25.0895 53.7969 25.8438 53.7969H71.8809C72.0941 53.7969 72.221 53.791 72.3174 53.7549L72.3389 53.7471L72.3604 53.7412C72.634 53.6657 72.8242 53.5421 72.9551 53.3896C73.0853 53.238 73.1806 53.03 73.2197 52.7461C73.2453 52.4761 73.1947 52.2659 73.0986 52.0967C72.9996 51.9224 72.8352 51.7614 72.5918 51.625L72.5801 51.6182C71.6766 51.0809 70.7664 50.55 69.8545 50.0176C68.9431 49.4854 68.0296 48.9517 67.1221 48.4121V48.4111C64.1002 46.6372 61.0717 44.8581 58.0439 43.0781C55.026 41.3039 52.0088 39.5288 48.9971 37.7607ZM78.4756 53.416H78.3105L78.4873 53.4795C78.4284 53.7348 78.3609 54.1582 78.2578 54.4932L78.2568 54.4922C77.9412 55.6037 77.4106 56.5094 76.666 57.21C75.9206 57.9112 74.9844 58.3859 73.8926 58.6719L73.8916 58.6729C73.1662 58.8609 72.452 58.8838 71.7832 58.8838H25.8193C24.4153 58.8838 23.0774 58.5445 21.9189 57.6562C20.1673 56.329 19.3606 54.5251 19.5195 52.3271L19.5205 52.3203C19.6251 51.1171 19.9938 49.9983 20.7158 49.0088L20.7178 49.0068C21.183 48.3774 21.7771 47.8959 22.4287 47.5049L22.4326 47.5029C28.5003 43.9308 34.5727 40.3312 40.667 36.7578L40.668 36.7568C41.6941 36.1583 42.7143 35.5531 43.7363 34.9473C44.7324 34.3568 45.7307 33.7656 46.7344 33.1797V32.0977C46.7343 31.7075 46.6216 31.4434 46.3965 31.2744L46.3809 31.2627C46.0046 30.957 45.5781 30.6471 45.165 30.3555V30.3564C44.3826 29.8185 43.547 29.2077 42.9736 28.334V28.333C41.5944 26.2249 41.2751 23.9324 42.1377 21.5273C42.6516 20.0886 43.4565 18.8087 44.6631 17.8115L44.874 17.6436C45.9382 16.8245 47.1623 16.3766 48.5107 16.2539L48.5342 16.252H48.5605L48.6094 16.2275H49.8359L49.8662 16.2314C50.0609 16.2558 50.2604 16.2802 50.4619 16.3086L51.0713 16.4072L51.082 16.4092C54.4695 17.1182 56.6362 19.9738 57.0547 22.7725H57.0537C57.1865 23.5768 57.1431 24.4315 56.6035 25.2109L56.6025 25.2139C55.988 26.0916 54.8385 26.5871 53.8027 26.2061V26.207C52.8672 25.8844 52.4739 25.1306 52.2822 24.3916L52.2793 24.3809L52.2773 24.3711C52.236 24.1782 52.2087 23.9818 52.1846 23.8037C52.1604 23.6252 52.1389 23.4623 52.1074 23.3018C51.9675 22.6993 51.7127 22.261 51.3691 21.9443C51.0238 21.6262 50.5584 21.4024 49.9551 21.2812C49.3488 21.174 48.822 21.2223 48.3652 21.4004C47.9078 21.5788 47.4894 21.8991 47.1211 22.3857C46.7502 22.8836 46.5487 23.7248 46.6992 24.5635C46.8461 25.3811 47.3198 26.1524 48.25 26.5762H48.249C49.3138 27.0476 50.2088 27.7598 50.8486 28.7783L50.9727 28.9863L50.9746 28.9883C51.34 29.6347 51.5039 30.3581 51.5039 31.0703V33.1943C56.1211 35.9404 60.7382 38.6866 65.3555 41.4326C67.0571 42.4365 68.7586 43.4471 70.46 44.46L75.5645 47.5039L75.5654 47.5049C77.0118 48.3728 78.0165 49.6084 78.3672 51.3076L78.3691 51.3174L78.3711 51.3262C78.3965 51.4785 78.4156 51.5876 78.4502 51.6914L78.4756 51.7686V53.416Z" fill="white" stroke="white"/>
</g>
<defs>
<filter id="filter0_d_1597_2676" x="0" y="0" width="98" height="98" filterUnits="userSpaceOnUse" color-interpolation-filters="sRGB">
<feFlood flood-opacity="0" result="BackgroundImageFix"/>
<feColorMatrix in="SourceAlpha" type="matrix" values="0 0 0 0 0 0 0 0 0 0 0 0 0 0 0 0 0 0 127 0" result="hardAlpha"/>
<feOffset dy="8"/>
<feGaussianBlur stdDeviation="4"/>
<feComposite in2="hardAlpha" operator="out"/>
<feColorMatrix type="matrix" values="0 0 0 0 0 0 0 0 0 0 0 0 0 0 0 0 0 0 0.25 0"/>
<feBlend mode="normal" in2="BackgroundImageFix" result="effect1_dropShadow_1597_2676"/>
<feBlend mode="normal" in="SourceGraphic" in2="effect1_dropShadow_1597_2676" result="shape"/>
</filter>
</defs>
</svg>
