<svg width="45" height="45" viewBox="0 0 45 45" fill="none" xmlns="http://www.w3.org/2000/svg">
<path d="M38.4916 22.4727C38.4916 23.457 37.6582 24.2281 36.7137 24.2281H34.9358L34.9746 32.9891C34.9746 33.1367 34.9635 33.2844 34.9469 33.432V34.3125C34.9469 35.5211 33.9523 36.5 32.7245 36.5H31.8355C31.7744 36.5 31.7133 36.5 31.6521 36.4945C31.5744 36.5 31.4966 36.5 31.4188 36.5H29.6131H28.2796C27.0517 36.5 26.0572 35.5211 26.0572 34.3125V33V29.5C26.0572 28.532 25.2627 27.75 24.2793 27.75H20.7234C19.74 27.75 18.9455 28.532 18.9455 29.5V33V34.3125C18.9455 35.5211 17.951 36.5 16.7231 36.5H15.3896H13.6173C13.5339 36.5 13.4506 36.4945 13.3673 36.4891C13.3006 36.4945 13.2339 36.5 13.1672 36.5H12.2783C11.0504 36.5 10.0559 35.5211 10.0559 34.3125V28.1875C10.0559 28.1383 10.0559 28.0836 10.0614 28.0344V24.2281H8.27793C7.27784 24.2281 6.5 23.4625 6.5 22.4727C6.5 21.9805 6.66668 21.543 7.0556 21.1602L21.3013 8.9375C21.6902 8.55469 22.1347 8.5 22.5236 8.5C22.9125 8.5 23.357 8.60938 23.6904 8.88281L37.8804 21.1602C38.3249 21.543 38.5472 21.9805 38.4916 22.4727Z" fill="white"/>
</svg>
