<svg width="721" height="361" viewBox="0 0 721 361" fill="none" xmlns="http://www.w3.org/2000/svg">
<g clip-path="url(#clip0_1303_30929)">
<path d="M721.02 218H0.00976562V308.959H721.02V218Z" fill="#27A36A"/>
<path d="M721.031 -0.0410156H0.03125V224.077H721.031V-0.0410156Z" fill="#844AFF"/>
<path d="M721.031 308.959C704.737 280.665 688.442 252.381 672.147 224.087C672.147 149.381 672.147 74.6649 672.147 -0.0410156H721.031V308.959Z" fill="#411393"/>
<path d="M0.03125 308.959C16.3259 280.665 32.6205 252.381 48.9151 224.087C48.9151 149.381 48.9151 74.6649 48.9151 -0.0410156C32.6205 -0.0410156 16.3259 -0.0410156 0.03125 -0.0410156V308.959Z" fill="#411393"/>
<path d="M672.148 210.779H48.9053V224.097H672.148V210.779Z" fill="#231F20"/>
<path d="M721.031 295.92C704.685 267.42 688.349 238.909 672.003 210.409L672.209 223.779C688.483 251.63 704.757 279.471 721.031 307.322V295.93V295.92Z" fill="#231F20"/>
<path d="M672.148 218H48.9053V224.087H672.148V218Z" fill="#F1F2F2"/>
<path d="M721.031 302.872C704.737 274.578 688.442 246.294 672.147 218C672.147 220.029 672.147 222.058 672.147 224.087C688.442 252.381 704.737 280.665 721.031 308.959V302.872Z" fill="#D1D3D4"/>
<path d="M672.148 210.038H48.9053V213.087H672.148V210.038Z" fill="#F1F2F2"/>
<path d="M672.158 214.065H48.9053V217.114H672.158V214.065Z" fill="#F1F2F2"/>
<path d="M721.031 294.745L672.147 210.038V213.087C688.442 241.319 704.737 269.562 721.031 297.794V294.745Z" fill="#D1D3D4"/>
<path d="M721.031 298.773C704.737 270.54 688.442 242.298 672.147 214.065V217.114L721.031 301.821V298.773Z" fill="#D1D3D4"/>
<path d="M0.0303656 295.909C16.325 267.419 32.6093 238.94 48.9039 210.45V223.768C32.6093 251.619 16.3147 279.47 0.00976562 307.322C0.00976562 303.521 0.0200656 299.71 0.0303656 295.909Z" fill="#231F20"/>
<path d="M0.03125 302.893C16.3259 274.599 32.6205 246.294 48.9151 218V224.087C32.6102 252.381 16.3156 280.665 0.03125 308.959V302.893Z" fill="#D1D3D4"/>
<path d="M0.03125 294.745C16.3259 266.513 32.6205 238.27 48.9151 210.038V213.087C32.6102 241.319 16.3156 269.551 0.03125 297.784V294.735V294.745Z" fill="#D1D3D4"/>
<path d="M0.03125 298.773C16.3259 270.54 32.6205 242.298 48.9151 214.065V217.114C32.6102 245.347 16.3156 273.589 0.03125 301.821V298.773Z" fill="#D1D3D4"/>
<path d="M721.031 308.959H0.03125V360.541H721.031V308.959Z" fill="url(#paint0_linear_1303_30929)"/>
<path d="M51.3868 295.424C51.0263 295.239 49.883 294.611 49.986 293.766C50.0684 293.076 50.9439 292.468 51.222 292.509C51.4795 292.551 51.0057 293.158 51.3971 293.89C51.7267 294.528 52.561 294.981 53.3129 295.29C53.0554 293.745 52.4065 292.592 51.8606 291.819C51.2941 291.016 50.6246 290.326 51.0469 290.171C51.4383 290.017 52.6331 290.408 53.4056 290.789C55.9085 292.015 55.7437 293.982 55.7025 294.528C55.6819 294.817 55.6201 295.053 55.5789 295.208C55.5583 294.909 55.5789 293.859 57.0209 293.313C57.7213 293.045 58.6895 292.921 58.8337 293.024C58.9985 293.148 57.9891 293.457 57.4741 294.106C57.1033 294.569 57.1445 295.023 57.2475 295.352" fill="#22B573"/>
<path d="M155.427 272.116C155.066 271.93 153.923 271.302 154.026 270.457C154.108 269.767 154.984 269.16 155.262 269.201C155.52 269.242 155.046 269.85 155.437 270.581C155.767 271.22 156.601 271.673 157.353 271.982C157.095 270.437 156.447 269.283 155.901 268.511C155.334 267.707 154.665 267.017 155.087 266.863C155.478 266.708 156.673 267.1 157.446 267.481C159.949 268.706 159.784 270.674 159.743 271.22C159.722 271.508 159.66 271.745 159.619 271.899C159.598 271.601 159.619 270.55 161.061 270.004C161.761 269.736 162.73 269.613 162.874 269.716C163.039 269.839 162.029 270.148 161.514 270.797C161.143 271.261 161.185 271.714 161.288 272.044" fill="#22B573"/>
<path d="M340.702 275.381C340.342 275.196 339.198 274.568 339.301 273.723C339.384 273.033 340.259 272.425 340.537 272.466C340.795 272.508 340.321 273.115 340.713 273.847C341.042 274.485 341.876 274.938 342.628 275.247C342.371 273.702 341.722 272.549 341.176 271.776C340.61 270.973 339.94 270.283 340.362 270.128C340.754 269.974 341.949 270.365 342.721 270.746C345.224 271.972 345.059 273.939 345.018 274.485C344.997 274.774 344.936 275.011 344.894 275.165C344.874 274.866 344.894 273.816 346.336 273.27C347.037 273.002 348.005 272.878 348.149 272.981C348.314 273.105 347.305 273.414 346.79 274.063C346.419 274.526 346.46 274.98 346.563 275.309" fill="#22B573"/>
<path d="M464.159 248.354C463.655 248.21 462.089 247.705 462.223 247.025C462.336 246.469 463.552 245.985 463.922 246.026C464.283 246.057 463.624 246.541 464.159 247.128C464.623 247.633 465.766 248.004 466.806 248.251C466.446 247.015 465.55 246.098 464.798 245.47C464.015 244.831 463.098 244.275 463.675 244.151C464.221 244.028 465.869 244.347 466.93 244.646C470.391 245.624 470.164 247.2 470.102 247.633C470.072 247.859 469.989 248.045 469.927 248.179C469.907 247.942 469.927 247.097 471.926 246.665C472.894 246.448 474.233 246.356 474.428 246.438C474.655 246.531 473.254 246.788 472.544 247.303C472.039 247.674 472.08 248.034 472.235 248.302" fill="#22B573"/>
<path d="M609.574 275.381C609.214 275.196 608.071 274.568 608.174 273.723C608.256 273.033 609.131 272.425 609.409 272.466C609.667 272.508 609.193 273.115 609.585 273.847C609.914 274.485 610.749 274.938 611.5 275.247C611.243 273.702 610.594 272.549 610.048 271.776C609.482 270.973 608.812 270.283 609.234 270.128C609.626 269.974 610.821 270.365 611.593 270.746C614.096 271.972 613.931 273.939 613.89 274.485C613.869 274.774 613.808 275.011 613.766 275.165C613.746 274.866 613.766 273.816 615.208 273.27C615.909 273.002 616.877 272.878 617.021 272.981C617.186 273.105 616.177 273.414 615.662 274.063C615.291 274.526 615.332 274.98 615.435 275.309" fill="#22B573"/>
<path d="M668.974 287.289C668.613 287.103 667.47 286.475 667.573 285.63C667.655 284.94 668.531 284.332 668.809 284.374C669.066 284.415 668.593 285.023 668.984 285.754C669.314 286.392 670.148 286.846 670.9 287.155C670.642 285.61 669.993 284.456 669.448 283.684C668.881 282.88 668.212 282.19 668.634 282.036C669.025 281.881 670.22 282.272 670.993 282.654C673.495 283.879 673.331 285.847 673.289 286.392C673.269 286.681 673.207 286.918 673.166 287.072C673.145 286.774 673.166 285.723 674.608 285.177C675.308 284.909 676.276 284.786 676.421 284.889C676.585 285.012 675.576 285.321 675.061 285.97C674.69 286.434 674.731 286.887 674.834 287.216" fill="#22B573"/>
<path d="M82.7914 238.826C83.1931 238.64 84.4394 238.012 84.3364 237.167C84.254 236.477 83.2858 235.87 82.9871 235.911C82.6987 235.952 83.224 236.56 82.8017 237.291C82.4309 237.93 81.5245 238.383 80.7005 238.692C80.9889 237.147 81.6996 235.993 82.297 235.221C82.915 234.417 83.6463 233.727 83.1931 233.573C82.7605 233.418 81.4524 233.81 80.6078 234.191C77.8577 235.416 78.0328 237.384 78.0843 237.93C78.1152 238.218 78.177 238.455 78.2285 238.609C78.2491 238.311 78.2285 237.26 76.6423 236.714C75.8698 236.446 74.8089 236.323 74.6544 236.426C74.4793 236.549 75.5814 236.858 76.1479 237.507C76.5496 237.971 76.5187 238.424 76.3951 238.754" fill="#22B573"/>
<path d="M247.591 248.354C247.993 248.169 249.239 247.54 249.136 246.696C249.054 246.006 248.086 245.398 247.787 245.439C247.498 245.48 248.024 246.088 247.601 246.819C247.231 247.458 246.324 247.911 245.5 248.22C245.789 246.675 246.499 245.521 247.097 244.749C247.715 243.946 248.446 243.255 247.993 243.101C247.56 242.946 246.252 243.338 245.408 243.719C242.657 244.945 242.833 246.912 242.884 247.458C242.915 247.746 242.977 247.983 243.028 248.138C243.049 247.839 243.028 246.788 241.442 246.242C240.67 245.975 239.609 245.851 239.454 245.954C239.279 246.078 240.381 246.387 240.948 247.036C241.349 247.499 241.318 247.952 241.195 248.282" fill="#22B573"/>
<path d="M531.779 295.424C532.18 295.239 533.427 294.611 533.324 293.766C533.241 293.076 532.273 292.468 531.974 292.509C531.686 292.551 532.211 293.158 531.789 293.89C531.418 294.528 530.512 294.981 529.688 295.29C529.976 293.745 530.687 292.592 531.284 291.819C531.902 291.016 532.634 290.326 532.18 290.171C531.748 290.017 530.44 290.408 529.595 290.789C526.845 292.015 527.02 293.982 527.072 294.528C527.102 294.817 527.164 295.053 527.216 295.208C527.236 294.909 527.216 293.859 525.63 293.313C524.857 293.045 523.796 292.921 523.642 293.024C523.467 293.148 524.569 293.457 525.135 294.106C525.537 294.569 525.506 295.023 525.382 295.352" fill="#22B573"/>
<path d="M459.699 279.007C460.101 278.884 461.347 278.451 461.234 277.874C461.151 277.401 460.183 276.989 459.885 277.009C459.596 277.04 460.121 277.452 459.699 277.957C459.339 278.389 458.422 278.709 457.598 278.915C457.886 277.854 458.597 277.061 459.194 276.535C459.812 275.99 460.544 275.516 460.091 275.402C459.658 275.299 458.35 275.567 457.505 275.825C454.755 276.669 454.941 278.019 454.982 278.389C455.013 278.585 455.074 278.75 455.126 278.853C455.147 278.647 455.126 277.926 453.54 277.545C452.767 277.359 451.706 277.277 451.552 277.349C451.377 277.432 452.479 277.648 453.045 278.091C453.447 278.41 453.416 278.719 453.293 278.946" fill="#22B573"/>
<path d="M92.2266 264.423C92.4429 264.145 92.7828 263.753 93.339 263.352C94.0806 262.806 95.0591 262.322 95.2342 262.414C95.3578 262.476 94.9767 262.723 94.9149 263.135C94.8531 263.589 95.2342 263.99 95.6359 264.299C96.0067 263.826 96.3775 263.156 96.3054 262.363C96.1715 260.828 94.4411 259.839 94.781 259.654C95.0385 259.52 96.2848 259.932 97.0058 260.612C97.6032 261.178 97.6444 261.796 97.768 263.002C97.8195 263.527 97.8092 263.959 97.7886 264.238C98.1697 264.032 98.7156 263.661 98.8495 263.146C99.0761 262.26 97.9122 261.508 98.1079 261.415C98.2624 261.343 99.1276 261.745 99.7044 262.332C100.508 263.146 100.467 264.001 100.384 264.433" fill="#22B573"/>
<path d="M231.204 281.282C231.42 281.004 231.76 280.613 232.317 280.211C233.058 279.665 234.037 279.181 234.212 279.274C234.335 279.336 233.954 279.583 233.892 279.995C233.831 280.448 234.212 280.85 234.613 281.159C234.984 280.685 235.355 280.015 235.283 279.222C235.149 277.688 233.419 276.699 233.758 276.513C234.016 276.38 235.262 276.792 235.983 277.471C236.581 278.038 236.622 278.656 236.746 279.861C236.797 280.386 236.787 280.819 236.766 281.097C237.147 280.891 237.693 280.52 237.827 280.005C238.054 279.119 236.89 278.367 237.085 278.275C237.24 278.203 238.105 278.604 238.682 279.191C239.485 280.005 239.444 280.86 239.362 281.293" fill="#22B573"/>
<path d="M299.04 254.163C298.824 253.885 298.463 253.494 297.887 253.092C297.114 252.546 296.105 252.062 295.919 252.155C295.796 252.217 296.187 252.464 296.249 252.876C296.311 253.329 295.919 253.731 295.497 254.04C295.116 253.566 294.724 252.896 294.807 252.103C294.951 250.569 296.733 249.58 296.383 249.394C296.115 249.26 294.817 249.672 294.076 250.352C293.458 250.919 293.406 251.537 293.293 252.742C293.241 253.267 293.252 253.7 293.272 253.978C292.881 253.772 292.304 253.401 292.17 252.886C291.933 252 293.138 251.248 292.932 251.156C292.767 251.084 291.882 251.485 291.274 252.072C290.44 252.886 290.491 253.741 290.563 254.174" fill="#22B573"/>
<path d="M186.625 241.227C186.409 240.949 186.048 240.557 185.472 240.155C184.699 239.61 183.69 239.125 183.504 239.218C183.381 239.28 183.772 239.527 183.834 239.939C183.896 240.392 183.504 240.794 183.082 241.103C182.701 240.629 182.309 239.96 182.392 239.167C182.536 237.632 184.318 236.643 183.968 236.458C183.7 236.324 182.402 236.736 181.66 237.416C181.042 237.982 180.991 238.6 180.878 239.805C180.826 240.331 180.836 240.763 180.857 241.041C180.466 240.835 179.889 240.464 179.755 239.949C179.518 239.064 180.723 238.312 180.517 238.219C180.352 238.147 179.467 238.549 178.859 239.136C178.025 239.949 178.076 240.804 178.148 241.237" fill="#22B573"/>
<path d="M389.484 247.86C389.268 247.736 388.908 247.572 388.331 247.396C387.558 247.16 386.549 246.954 386.364 246.995C386.24 247.026 386.631 247.129 386.693 247.304C386.755 247.499 386.364 247.675 385.941 247.798C385.56 247.592 385.169 247.304 385.251 246.964C385.395 246.305 387.177 245.882 386.827 245.8C386.559 245.738 385.261 245.924 384.52 246.212C383.902 246.459 383.85 246.717 383.737 247.242C383.686 247.469 383.696 247.654 383.716 247.778C383.325 247.685 382.748 247.53 382.614 247.304C382.377 246.923 383.583 246.603 383.377 246.562C383.212 246.531 382.326 246.706 381.718 246.954C380.884 247.304 380.935 247.675 381.008 247.86" fill="#22B573"/>
<path d="M552.656 251.671C552.532 251.454 552.316 251.156 551.986 250.836C551.533 250.414 550.946 250.043 550.843 250.115C550.771 250.167 550.997 250.352 551.028 250.672C551.059 251.022 550.833 251.341 550.585 251.568C550.359 251.197 550.132 250.682 550.184 250.064C550.266 248.879 551.306 248.107 551.1 247.963C550.946 247.86 550.184 248.179 549.751 248.704C549.391 249.137 549.36 249.621 549.288 250.558C549.257 250.96 549.267 251.3 549.277 251.516C549.051 251.351 548.711 251.063 548.639 250.672C548.505 249.981 549.205 249.405 549.082 249.333C548.989 249.281 548.464 249.59 548.113 250.043C547.629 250.672 547.65 251.331 547.701 251.671" fill="#22B573"/>
<path d="M644.481 236.478C644.357 236.262 644.141 235.963 643.811 235.644C643.358 235.222 642.771 234.851 642.668 234.923C642.596 234.974 642.823 235.16 642.853 235.479C642.884 235.829 642.658 236.149 642.411 236.375C642.184 236.004 641.957 235.489 642.009 234.871C642.091 233.687 643.132 232.914 642.926 232.77C642.771 232.667 642.009 232.987 641.576 233.512C641.216 233.944 641.185 234.429 641.113 235.366C641.082 235.768 641.092 236.107 641.102 236.324C640.876 236.159 640.536 235.871 640.464 235.479C640.33 234.789 641.03 234.212 640.907 234.14C640.814 234.089 640.289 234.398 639.939 234.851C639.454 235.479 639.475 236.138 639.527 236.478" fill="#22B573"/>
</g>
<defs>
<linearGradient id="paint0_linear_1303_30929" x1="360.521" y1="308.959" x2="360.521" y2="360.541" gradientUnits="userSpaceOnUse">
<stop stop-color="#22B573"/>
<stop offset="1" stop-color="#22B573" stop-opacity="0"/>
</linearGradient>
<clipPath id="clip0_1303_30929">
<rect width="721" height="360.5" fill="white"/>
</clipPath>
</defs>
</svg>
