<svg width="98" height="98" viewBox="0 0 98 98" fill="none" xmlns="http://www.w3.org/2000/svg">
<g filter="url(#filter0_d_1597_3987)">
<path d="M49 82C71.6437 82 90 63.6437 90 41C90 18.3563 71.6437 0 49 0C26.3563 0 8 18.3563 8 41C8 63.6437 26.3563 82 49 82Z" fill="#844AFF"/>
</g>
<g opacity="0.8">
<path d="M49 64C62.8071 64 74 52.8071 74 39C74 25.1929 62.8071 14 49 14C35.1929 14 24 25.1929 24 39C24 52.8071 35.1929 64 49 64Z" stroke="white" stroke-width="5" stroke-linecap="round" stroke-linejoin="round"/>
<path fill-rule="evenodd" clip-rule="evenodd" d="M38.7822 31.5007C36.2965 31.5007 34.2609 33.511 34.2609 36.0219C34.2609 36.8986 33.5502 37.6094 32.6734 37.6094C31.7967 37.6094 31.0859 36.8986 31.0859 36.0219C31.0859 31.7446 34.5559 28.3257 38.7822 28.3257C43.0149 28.3257 46.4784 31.7892 46.4784 36.0219C46.4784 36.8986 45.7676 37.6094 44.8909 37.6094C44.0141 37.6094 43.3034 36.8986 43.3034 36.0219C43.3034 33.5427 41.2614 31.5007 38.7822 31.5007ZM59.1816 31.5007C56.6959 31.5007 54.6604 33.511 54.6604 36.0219C54.6604 36.8986 53.9496 37.6094 53.0729 37.6094C52.1961 37.6094 51.4854 36.8986 51.4854 36.0219C51.4854 31.7446 54.9553 28.3257 59.1816 28.3257C63.4143 28.3257 66.8778 31.7892 66.8778 36.0219C66.8778 36.8986 66.167 37.6094 65.2903 37.6094C64.4135 37.6094 63.7028 36.8986 63.7028 36.0219C63.7028 33.5427 61.6608 31.5007 59.1816 31.5007ZM38.8171 43.899C39.6938 43.899 40.4046 44.6098 40.4046 45.4865C40.4046 46.3859 41.0264 47.4818 42.6185 48.4387C44.1767 49.3752 46.4298 50.0077 48.9993 50.0077C51.5731 50.0077 53.8263 49.3828 55.3827 48.4514C56.9686 47.5024 57.5941 46.4079 57.5941 45.4865C57.5941 44.6098 58.3048 43.899 59.1816 43.899C60.0583 43.899 60.7691 44.6098 60.7691 45.4865C60.7691 47.9593 59.1133 49.9191 57.013 51.1759C54.8832 52.4504 52.0453 53.1827 48.9993 53.1827C45.9491 53.1827 43.111 52.439 40.983 51.1601C38.889 49.9016 37.2296 47.9432 37.2296 45.4865C37.2296 44.6098 37.9403 43.899 38.8171 43.899Z" fill="white"/>
</g>
<defs>
<filter id="filter0_d_1597_3987" x="0" y="0" width="98" height="98" filterUnits="userSpaceOnUse" color-interpolation-filters="sRGB">
<feFlood flood-opacity="0" result="BackgroundImageFix"/>
<feColorMatrix in="SourceAlpha" type="matrix" values="0 0 0 0 0 0 0 0 0 0 0 0 0 0 0 0 0 0 127 0" result="hardAlpha"/>
<feOffset dy="8"/>
<feGaussianBlur stdDeviation="4"/>
<feComposite in2="hardAlpha" operator="out"/>
<feColorMatrix type="matrix" values="0 0 0 0 0 0 0 0 0 0 0 0 0 0 0 0 0 0 0.25 0"/>
<feBlend mode="normal" in2="BackgroundImageFix" result="effect1_dropShadow_1597_3987"/>
<feBlend mode="normal" in="SourceGraphic" in2="effect1_dropShadow_1597_3987" result="shape"/>
</filter>
</defs>
</svg>
