<svg width="98" height="98" viewBox="0 0 98 98" fill="none" xmlns="http://www.w3.org/2000/svg">
<g filter="url(#filter0_d_1597_3980)">
<path d="M49 82C71.6437 82 90 63.6437 90 41C90 18.3563 71.6437 0 49 0C26.3563 0 8 18.3563 8 41C8 63.6437 26.3563 82 49 82Z" fill="#844AFF"/>
</g>
<g opacity="0.8">
<path d="M59.8761 20H37.1186C31.2487 20 26.4902 24.7585 26.4902 30.6284V53.8535C26.4902 59.7234 31.2487 64.4819 37.1186 64.4819H59.8761C65.746 64.4819 70.5045 59.7234 70.5045 53.8535V30.6284C70.5045 24.7585 65.746 20 59.8761 20Z" stroke="white" stroke-width="5" stroke-miterlimit="10" stroke-linecap="round"/>
<path d="M26 49.3576L37.0044 38.3532C37.1686 38.1889 37.4498 38.1889 37.6362 38.3532L50.1856 50.9025C50.5141 51.2311 51.0291 51.2058 51.3577 50.9025L59.3638 42.4289C59.5502 42.2425 59.8566 42.2172 60.0652 42.3815L71 51.1616" stroke="white" stroke-width="4" stroke-miterlimit="10"/>
<path d="M55.006 36.0848C57.5658 36.0848 59.6409 34.0096 59.6409 31.4499C59.6409 28.8901 57.5658 26.8149 55.006 26.8149C52.4462 26.8149 50.3711 28.8901 50.3711 31.4499C50.3711 34.0096 52.4462 36.0848 55.006 36.0848Z" stroke="white" stroke-width="4" stroke-miterlimit="10"/>
</g>
<defs>
<filter id="filter0_d_1597_3980" x="0" y="0" width="98" height="98" filterUnits="userSpaceOnUse" color-interpolation-filters="sRGB">
<feFlood flood-opacity="0" result="BackgroundImageFix"/>
<feColorMatrix in="SourceAlpha" type="matrix" values="0 0 0 0 0 0 0 0 0 0 0 0 0 0 0 0 0 0 127 0" result="hardAlpha"/>
<feOffset dy="8"/>
<feGaussianBlur stdDeviation="4"/>
<feComposite in2="hardAlpha" operator="out"/>
<feColorMatrix type="matrix" values="0 0 0 0 0 0 0 0 0 0 0 0 0 0 0 0 0 0 0.25 0"/>
<feBlend mode="normal" in2="BackgroundImageFix" result="effect1_dropShadow_1597_3980"/>
<feBlend mode="normal" in="SourceGraphic" in2="effect1_dropShadow_1597_3980" result="shape"/>
</filter>
</defs>
</svg>
