<svg width="301" height="332" viewBox="0 0 301 332" fill="none" xmlns="http://www.w3.org/2000/svg">
<g filter="url(#filter0_f_1329_40952)">
<path d="M239.399 303.275C185.26 312.166 205.185 325.683 156.72 325.683C108.256 325.683 84.6572 318.093 84.6572 308.731C84.6572 299.369 108.256 291.779 156.72 291.779C186.057 291.779 208.45 300.254 224.302 287.417C224.302 287.417 216.84 299.333 239.399 303.275Z" fill="black" fill-opacity="0.38"/>
</g>
<path d="M86.6377 300.115C86.6377 300.115 94.585 311.902 100.844 310.43C107.103 308.948 111.344 304.851 111.344 304.851L129.422 303.646L130.564 296.389L127.939 293.65L128.361 286.722C128.361 286.722 137.235 290.953 143.402 288.565C149.568 286.166 159.636 284.571 159.636 284.571L169.992 293.794L155.405 296.162L147.447 307.599C147.447 307.599 153.14 315.526 166.513 316.772C166.513 316.772 172.36 318.892 181.574 311.748C190.797 304.604 195.564 299.158 195.564 299.158C195.564 299.158 196.037 294.659 194.74 293.794C193.443 292.93 191.178 289.358 191.611 286.218C191.611 286.218 200.865 285.137 203.604 281.451C206.342 277.766 207.145 276.922 207.145 276.922L211.891 291.159L214.011 281.523C214.011 281.523 220.034 286.527 229.494 283.829C238.955 281.132 238.986 276.273 238.986 276.273C238.986 276.273 228.197 277.169 226.149 274.328C226.149 274.328 236.351 275.378 238.986 269.695C241.621 264.012 243.999 263.467 243.999 263.467C243.999 263.467 237.627 264.342 235.723 262.159C233.818 259.967 234.322 258.783 234.322 258.783L241.971 254.922L231.625 248.046C231.625 248.046 237.586 246.893 238.656 238.637C239.727 230.38 239.058 220.992 239.058 220.992L227.178 229.794C227.178 229.794 229.474 223.38 225.191 216.092C220.919 208.803 220.188 207.3 220.188 207.3C220.188 207.3 214.042 219.736 212.694 219.746C211.345 219.756 205.796 187.483 205.796 187.483L209.945 189.182L209.801 182.408L222.031 188.327L218.582 179.309L226.015 176.324C226.015 176.324 216.173 166.544 215.597 163.528C215.02 160.512 222.741 160.12 222.741 160.12L221.732 155.498C221.732 155.498 228.465 155.632 233.139 149.867C233.139 149.867 223.853 143.865 220.837 140.314C220.837 140.314 230.627 142.527 232.48 138.677C232.48 138.677 220.744 128.836 220.147 124.213C219.54 119.601 219.9 117.192 224.007 112.354C228.115 107.516 234.693 100.979 233.839 97.53C232.984 94.0813 231.831 91.1989 233.17 87.3384C234.508 83.478 236.762 81.9956 236.412 72.8747C236.062 63.764 233.355 19.1683 231.625 16.9035C229.896 14.6387 228.661 12.2195 227.868 9.81061C227.075 7.4017 221.959 -2.21336 214.629 5.70311C207.299 13.6196 198.765 28.1245 198.765 28.1245C198.765 28.1245 197.077 42.1868 194.575 46.0472C192.074 49.9077 179.216 57.1961 179.216 57.1961C179.216 57.1961 159.42 51.5342 145.532 51.1121C131.645 50.69 122.226 55.7652 122.226 55.7652C122.226 55.7652 118.726 51.4518 114.278 48.9297C109.831 46.4075 106.65 32.3658 103.706 30.0908C100.762 27.8157 99.9691 20.5581 95.8101 17.2123C91.6511 13.8666 83.3846 9.8312 83.3846 9.8312C83.3846 9.8312 70.1665 32.9732 70.2386 39.0984C70.3106 45.234 72.3592 60.5213 74.8608 64.5773C77.3727 68.6333 82.0052 77.5072 82.0052 77.5072L74.4799 77.7645L81.8199 87.3487C81.8199 87.3487 75.705 92.6813 82.5199 100.34C89.3452 107.999 91.4143 109.925 91.4143 109.925L88.7789 123.328L86.2877 119.375L87.5951 134.889C87.5951 134.889 81.0684 144.37 79.8022 149.249C78.5359 154.129 77.6815 164.053 81.4802 166.905C85.2788 169.756 87.4098 174.317 87.4098 176.386C87.4098 178.455 96.0983 179.814 96.0983 179.814C96.0983 179.814 90.879 185.105 90.7864 189.017C90.6937 192.929 96.7572 185.023 100.196 184.055C103.634 183.087 97.7455 188.986 96.7057 192.466C95.6557 195.945 93.6585 204.85 93.6585 204.85L101.935 200.65C101.935 200.65 93.8747 213.868 91.5173 224.821L86.1127 225.841C86.1127 225.841 82.1802 232.244 83.3846 234.591C84.5891 236.938 91.5173 244.082 91.5173 244.082L93.8747 245.05C93.8747 245.05 89.6231 262.365 95.666 270.21C101.709 278.054 106.331 281.544 106.331 281.544L109.08 288.812H99.5779C99.5779 288.822 84.6612 296.955 86.6377 300.115Z" fill="#946443"/>
<path opacity="0.9" d="M104.006 81.6974C107.455 85.9387 109.339 91.4154 109.256 96.8818C109.215 99.2598 108.824 101.658 109.236 103.995C109.524 105.632 110.214 107.176 110.574 108.803C111.552 113.116 110.244 117.677 108.041 121.506C104.088 128.352 97.1705 133.407 89.4496 135.085C88.3687 132.254 87.4628 129.351 86.7422 126.406C86.6186 125.912 86.5054 125.398 86.6495 124.903C86.7936 124.43 87.1642 124.059 87.4628 123.668C87.9878 122.978 88.3275 122.175 88.6569 121.372C90.9835 115.741 93.3512 109.904 93.1248 103.82C93.0424 101.7 92.6512 99.5995 92.6306 97.4788C92.5894 93.9478 93.691 88.6771 96.4911 86.2167C99.5794 83.4989 101.525 85.1975 103.687 87.555C104.119 88.0182 104.891 87.6579 104.809 87.0299C104.562 85.249 104.263 83.468 104.006 81.6974Z" fill="#DEA25D"/>
<path opacity="0.17" d="M94.391 123.925C95.1322 125.933 96.4808 127.806 98.4161 128.733C95.3587 132.007 92.1365 135.116 88.7496 138.06C87.8951 137.123 87.679 135.795 87.504 134.549C87.1436 132.038 86.773 129.495 86.9481 126.962C86.9892 126.406 87.0819 125.789 87.5245 125.459C87.8025 125.253 88.1628 125.202 88.4613 125.017C89.0481 124.646 89.2025 123.884 89.3467 123.215C89.7996 121.084 90.8497 117.059 92.96 116.297C93.5674 118.789 93.4748 121.444 94.391 123.925Z" fill="#55311C"/>
<path opacity="0.9" d="M174.954 135.085C172.556 137.885 171.681 141.683 170.281 145.101C169.437 147.16 168.016 148.982 166.225 150.3C168.15 150.763 170.116 151.247 171.794 152.297C172.916 152.997 173.863 153.924 174.8 154.85C178.084 158.062 181.306 162.365 184.209 165.927C188.883 171.671 190.983 173.998 194.545 180.494C193.999 176.571 194.226 176.077 193.804 172.145C193.289 167.296 193.382 158.772 193.371 159.174C194.74 161.006 197.232 161.912 199.466 161.408C198.189 159.534 196.913 157.65 196.017 155.56C195.121 153.481 194.967 151.154 195.338 148.92C195.729 150.568 197.036 151.854 198.457 152.781C199.023 153.151 199.641 153.491 200.31 153.615C201.267 153.79 202.235 153.512 203.161 153.234C205.879 152.431 208.659 151.257 210.285 148.931C206.641 146.717 203.882 143.083 202.719 138.986C202.173 137.051 202.008 134.838 203.079 133.129C204.736 130.473 208.895 129.721 209.667 126.684C205.117 126.612 199.569 127.199 195.863 124.553C194.442 120.168 195.451 115.072 198.446 111.562C190.252 113.94 181.8 115.463 173.287 116.091C171.835 116.194 170.178 116.205 169.159 115.165C167.419 113.374 169.004 110.47 170.353 108.36C174.203 102.338 175.706 94.8537 174.491 87.802C170.795 88.6461 166.739 89.1094 163.342 87.4211C159.945 85.7328 157.773 81.1621 159.822 77.9708C150.917 76.7972 145.749 89.9124 136.782 90.3139C136.741 89.3256 136.71 88.327 136.669 87.3387C133.313 91.2815 131.44 96.4494 131.491 101.628C131.532 106.167 123.43 106.764 121.845 111.016C121.289 112.519 121.402 114.187 121.598 115.782C121.938 118.541 122.535 121.383 124.264 123.555C126.045 125.789 128.773 127.003 130.987 128.815C133.2 130.627 133.478 132.326 135.074 136.763C135.763 138.667 136.824 140.201 137.678 142.044C138.327 143.423 139.027 144.864 140.303 145.698C141.044 146.182 141.919 146.409 142.794 146.563C146.284 147.201 149.949 146.872 153.264 145.626C153.81 145.42 154.355 145.183 154.932 145.153C157.917 144.957 160.419 143.042 162.951 141.447C164.341 140.572 165.7 139.604 167.172 138.873C169.704 137.607 172.793 136.938 174.954 135.085Z" fill="#DEA25D"/>
<path opacity="0.83" d="M112.385 277.169L121.094 290.665L128.362 284.539C128.362 284.539 116.029 279.073 112.385 277.169Z" fill="#55311C"/>
<path d="M108.71 210.409L111.346 214.619L116.174 200.475C116.174 200.475 120.518 206.456 121.959 205.972C123.4 205.488 132.768 194.967 132.768 194.967C132.768 194.967 139.326 196.902 141.354 199.208C143.382 201.525 142.322 202.389 142.322 202.389C142.322 202.389 140.201 191.487 141.457 190.427C142.713 189.367 152.544 184.127 153.615 184.281C154.685 184.446 158.062 203.161 158.062 203.161C158.062 203.161 155.653 210.491 155.365 214.063C155.077 217.635 155.488 214.599 155.488 214.599L161.058 208.947C161.058 208.947 154.974 223.812 154.593 230.174L160.378 223.606C160.378 223.606 151.968 250.825 153.615 264.136L157.671 260.275C157.671 260.275 159.503 281.214 161.531 284.21C161.531 284.21 151.659 288.204 143.403 288.534C135.147 288.863 130.895 285.425 128.362 284.385C125.83 283.345 113.374 277.652 113.374 277.652C113.374 277.652 116.483 277.055 116.462 276.685C116.441 276.314 108.648 270.415 106.518 262.211L110.182 262.015C110.182 262.015 103.81 261.047 101.309 253.615C101.309 253.615 99.6717 240.005 101.309 234.796C101.309 234.796 103.913 239.336 104.49 238.369C104.49 238.369 103.337 232.48 105.55 223.411C107.784 214.362 108.71 210.409 108.71 210.409Z" fill="#FEF7F3"/>
<path d="M166.501 289.543C166.501 289.543 168.9 285.95 168.766 283.84L176.25 292.312L175.097 285.199L181.418 293.476L183.281 286.918C183.281 286.918 187.193 292.168 189.592 293.795L191.074 290.171L195.367 295.638C195.367 295.638 195.614 301.207 194.307 302.298C192.999 303.389 177.805 315.825 172.194 316.628C166.584 317.431 147.735 310.266 147.426 308.526C147.117 306.787 155.136 296.348 155.136 296.348L170.135 294.052L166.501 289.543Z" fill="#FEF7F3"/>
<path d="M86.4932 299.158C86.4932 299.158 95.1714 309.885 100.844 310.431C106.516 310.976 113.856 304.707 113.856 304.707L129.421 303.657L131.058 296.173L127.98 292.92L128.361 285.436L121.144 290.573L115.204 282.028L115.493 289.697L108.77 282.605L108.112 290.665L97.9612 288.822L86.4932 299.158Z" fill="#FEF7F3"/>
<path d="M216.101 242.476C215.216 244.031 213.425 245.029 211.633 244.947C211.345 244.936 211.026 244.906 210.8 245.081C210.522 245.297 210.522 245.698 210.542 246.038C211.026 254.14 213.456 261.634 213.456 269.756C213.456 269.818 213.528 269.726 213.528 269.787C212.241 269.19 210.82 269.026 209.997 267.862C209.153 271.424 208.792 274.06 206.507 276.911C206.877 281.76 208.442 286.506 211.036 290.613C211.901 287.288 213.003 284.014 214.331 280.844C218.047 283.273 222.669 284.272 227.055 283.592C231.44 282.913 235.548 280.555 238.348 277.117C234.652 277.333 230.894 276.561 227.59 274.883C233.983 274.029 239.902 270.086 243.155 264.517C239.336 265.433 235.609 263.261 233.9 259.719C235.908 258.381 237.915 257.043 239.923 255.715C240.304 255.468 240.726 255.118 240.674 254.665C240.633 254.346 240.365 254.119 240.108 253.924C237.349 251.762 234.59 249.6 231.821 247.438C235.455 244.442 237.998 240.16 238.893 235.538C239.686 231.42 239.202 227.178 238.718 223.02C238.615 222.103 238.399 221.033 237.555 220.662C234.518 224.615 230.812 228.064 226.653 230.812C227.333 222.371 224.388 213.703 218.706 207.423C217.882 211.85 215.916 216.071 213.034 219.54C212.766 221.846 211.881 223.997 212.931 226.067C213.744 227.673 215.267 228.867 215.926 230.534C216.359 231.626 216.4 232.83 216.4 234.004C216.42 236.855 217.512 239.995 216.101 242.476Z" fill="#FEF7F3"/>
<path d="M216.081 231.863C214.547 229.546 212.982 227.138 212.519 224.389C212.303 223.102 212.344 221.784 212.262 220.477C212.035 216.689 210.862 213.024 209.688 209.41C208.34 213.528 206.826 217.42 205.962 221.661C205.364 220.395 204.397 219.355 203.625 218.192C201.741 215.319 201.144 211.685 199.116 208.916C199.291 212.046 199.157 215.186 198.725 218.284C196.511 216.833 194.195 215.525 191.817 214.362C192.507 218.861 192.949 223.03 193.649 227.518C193.752 228.157 193.845 228.815 193.649 229.423C193.34 230.38 192.404 230.967 191.776 231.76C190.86 232.913 190.633 234.488 190.839 235.939C191.045 237.391 191.632 238.76 192.218 240.109C193.464 242.981 194.813 245.976 197.283 247.901C199.198 247.356 201.36 247.006 203.347 246.851C206.775 246.584 210.151 245.698 213.26 244.247C214.032 243.887 214.825 243.465 215.288 242.754C215.7 242.116 215.803 241.334 215.875 240.582C216.133 237.947 217.533 234.066 216.081 231.863Z" fill="#FEF7F3"/>
<path d="M97.6839 219.849C98.5383 218.078 99.3825 216.307 100.237 214.547C99.9281 216.38 101.688 217.965 101.812 219.818C101.874 220.744 102.172 221.887 101.822 222.742C98.9913 229.68 95.5015 236.371 92.6705 243.31C92.5881 243.516 92.4955 243.742 92.2999 243.866C91.9293 244.113 91.4454 243.866 91.0954 243.608C88.3468 241.663 85.9688 238.997 85.1246 235.733C84.2805 232.47 85.2584 228.63 88.038 226.725C88.7277 226.252 89.5101 225.902 90.1586 225.367C92.9484 223.071 91.8984 217.893 94.7706 215.978C95.625 217.316 96.8295 218.459 97.6839 219.849Z" fill="#FEF7F3"/>
<path d="M193.937 179.175C190.983 180.544 188.347 182.13 185.393 183.499C184.775 180.915 184.199 178.043 183.591 175.459C180.647 177.147 178.042 179.422 175.973 182.109C174.038 182.5 172.041 182.644 170.064 182.541C168.777 182.469 167.223 182.572 166.152 183.283C165.174 185.939 164.474 188.698 164.073 191.487C162.24 190.201 160.377 188.955 158.493 187.75C157.484 187.102 156.465 186.464 155.333 186.083C153.181 185.362 150.803 185.64 148.683 186.412C146.552 187.184 144.627 188.42 142.732 189.645C142.279 189.943 141.796 190.262 141.569 190.746C141.363 191.199 141.394 191.714 141.435 192.208C141.682 195.399 141.847 198.426 142.094 201.617C141.116 199.805 140.107 197.963 138.594 196.552C137.091 195.152 134.847 194.071 132.829 194.524C129.638 198.282 126.272 201.885 122.74 205.333C122.514 205.56 122.257 205.797 121.938 205.817C121.649 205.848 121.382 205.694 121.135 205.55C119.24 204.438 117.48 203.089 115.905 201.545C115.318 205.838 113.62 210.316 111.993 214.331C108.565 210.079 105.497 205.539 102.852 200.763C99.7426 201.195 96.7469 202.41 94.2145 204.253C93.4732 197.51 96.7572 191.055 99.9485 185.064C98.0543 185.002 96.1395 185.599 94.6056 186.721C94.1424 187.061 93.6894 187.462 93.1232 187.606C92.557 187.74 91.8467 187.483 91.7232 186.917C91.6614 186.628 91.7644 186.34 91.8673 186.072C92.4747 184.518 93.4321 183.087 94.6365 181.934C94.9248 181.656 95.2233 181.388 95.3777 181.028C95.6866 180.297 95.2439 179.422 94.5748 178.98C93.9056 178.537 93.0306 177.816 92.2379 177.857C90.8482 177.919 89.6025 176.952 88.7584 175.85C87.9142 174.738 87.3171 173.451 86.3906 172.412C85.0009 170.837 82.9523 169.9 81.7993 168.15C80.8831 166.76 80.6669 165.031 80.4816 163.373C79.9978 158.946 79.586 154.407 80.7596 150.114C82.3449 144.328 86.6068 139.675 91.0335 135.629C95.6866 131.378 100.566 127.847 105.847 124.408C107.34 121.382 108.853 118.335 109.687 115.071C110.521 111.808 110.644 108.256 109.399 105.127C108.719 103.408 107.618 101.74 107.762 99.8973C107.844 98.8781 108.308 97.931 108.812 97.0354C113.496 88.8101 122.493 82.9834 124.696 73.7802C126.127 67.8196 124.274 61.3135 126.199 55.4971C130.945 53.0985 136.082 51.4926 141.343 50.7514C142.321 50.6176 143.607 50.6896 143.896 51.6367C144.122 52.3882 143.494 53.1191 142.918 53.6544C137.39 58.7399 131.11 63.7327 128.876 70.908C127.301 75.9626 127.98 81.4084 128.835 86.6277C129.463 90.4675 130.173 94.2868 130.966 98.0957C131.182 99.1561 131.408 100.268 131.058 101.297C130.739 102.224 129.998 102.934 129.288 103.614C126.704 106.043 124.12 108.462 121.536 110.892C121.557 115.648 122.071 120.764 125.149 124.378C127.198 126.786 130.276 128.145 132.273 130.585C135.578 134.621 135.362 140.838 139.016 144.565C139.644 145.214 139.726 145.78 140.601 146.006C146.449 147.489 152.646 145.718 158.112 143.175C163.579 140.633 168.705 137.297 174.419 135.372C172.082 137.225 171.495 140.2 170.764 143.093C170.033 145.986 169.045 149.115 166.533 150.721C169.745 151.215 172.813 152.842 175.067 155.467C181.481 162.879 188.975 170.734 193.937 179.175Z" fill="#FEF7F3"/>
<path d="M136.607 99.8663C136.669 101.163 137.008 102.666 138.192 103.212C139.15 103.655 140.313 103.243 141.126 102.563C141.939 101.884 142.495 100.958 143.185 100.155C145.131 97.8898 148.003 96.6441 150.885 95.8309C153.758 95.0176 156.743 94.575 159.543 93.5352C160.645 93.1234 161.89 92.3822 161.9 91.1984C161.911 89.7365 160.13 89.088 158.75 88.6042C157.567 88.1924 156.444 87.6159 155.425 86.9056C154.787 86.4629 154.149 85.9482 153.387 85.8349C151.616 85.5673 150.36 87.3997 149.053 88.6247C146.665 90.8689 143.298 91.3116 140.313 92.3102C136.535 93.5661 136.422 96.0471 136.607 99.8663Z" fill="#C8AA98"/>
<path d="M101.102 88.7793C102.482 89.5823 103.851 90.5191 104.716 91.8573C105.58 93.1956 105.838 95.0486 104.963 96.3869C104.088 97.7252 101.916 98.137 100.855 96.9531C100.114 96.1193 99.9802 94.7192 98.9611 94.256C97.911 93.7721 96.4595 94.606 95.6051 93.8236C95.1933 93.4427 95.1212 92.8353 95.0698 92.2897C94.9874 91.3941 94.9051 90.5088 94.8227 89.6131C94.7403 88.7484 94.6683 87.8425 95.0183 87.0498C96.2022 84.3527 99.6096 87.9043 101.102 88.7793Z" fill="#C8AA98"/>
<path d="M97.0968 110.49C95.9953 110.377 94.9144 111.015 94.2144 111.88C92.5261 113.98 92.7731 116.986 93.2673 119.632C93.4114 120.414 93.5761 121.186 93.7511 121.969C93.9467 122.833 94.1732 123.719 94.6879 124.439C95.2026 125.16 96.0674 125.706 96.9424 125.582C97.9719 125.438 98.6719 124.491 99.1454 123.564C100.535 120.816 102.193 111.036 97.0968 110.49Z" fill="#FEF7F3"/>
<path d="M136.814 126.056C136.989 127.291 137.246 128.516 137.761 129.649C139.017 132.387 141.837 134.343 144.843 134.559C145.235 134.59 145.626 134.59 145.986 134.446C146.377 134.292 146.686 133.983 146.964 133.674C149.558 130.74 150.248 126.622 150.598 122.731C150.948 118.891 150.979 114.711 148.735 111.582C147.602 109.997 145.863 108.772 143.917 108.607C136.484 107.969 136.165 121.341 136.814 126.056Z" fill="#FEF7F3"/>
<path d="M82.0874 149.908C81.758 151.421 81.8712 153.089 82.736 154.376C83.4257 155.395 84.5066 156.064 85.5978 156.641C86.7611 157.248 87.9862 157.783 89.2833 157.989C91.3113 158.319 93.504 157.783 95.0276 156.394C95.9026 155.591 96.5306 154.561 97.138 153.542C98.2704 151.648 99.4028 149.754 100.525 147.87C98.1468 147.633 97.3027 144.38 95.1203 143.392C93.9982 142.887 92.7113 143.062 91.4966 143.237C90.1995 143.433 88.9024 143.629 87.6053 143.824C84.2699 144.318 82.7874 146.717 82.0874 149.908Z" fill="#4C434A"/>
<path d="M107.33 216.133C107.33 216.133 111.438 222.659 112.024 222.083C112.601 221.507 117.233 207.177 117.233 207.177L123.317 210.409L135.403 199.795L143.876 210.409L145.183 191.107L155.354 187.071L151.257 181.121L110.871 196.614L107.33 216.133Z" fill="#C8AA98"/>
<path d="M136.969 178.095C140.984 179.917 150.99 177.199 155.005 175.984C155.489 175.84 155.87 176.417 155.53 176.808L152.082 180.781L155.19 180.071C155.499 179.999 155.798 179.917 156.107 179.803C156.93 179.515 158.536 178.99 158.32 179.248L153.955 184.724L141.571 190.747L142.086 201.618C142.086 201.618 138.081 193.629 132.831 194.535L121.939 205.828L115.608 200.269L111.799 215.134L104.027 203.172L103.255 198.344L94.1339 205.107C94.1339 205.107 93.5574 192.291 99.9503 185.095C99.9503 185.095 96.5119 183.283 93.125 187.638L96.7384 178.836C96.7384 178.836 103.831 181.656 110.584 179.968C117.338 178.28 120.93 175.706 126.181 175.449C131.421 175.181 136.969 178.095 136.969 178.095Z" fill="#E6D1C7"/>
<path d="M125.819 287.422C125.819 287.422 121.474 297.191 122.349 299.158C123.214 301.124 119.065 303.08 119.065 303.08L129.185 303.914L131.048 296.162L128.351 292.538V285.425L125.819 287.422Z" fill="#E6D1C7"/>
<path d="M114.124 277.518C114.124 277.518 148.981 289.398 159.234 277.745L161.53 284.241C161.53 284.241 150.525 289.244 138.8 288.822C127.074 288.389 129.967 285.208 129.967 285.208C129.967 285.208 115.442 279.248 114.124 277.518Z" fill="#E6D1C7"/>
<path opacity="0.83" d="M156.126 191.735L164.814 198.148L167.512 185.414L176.684 186.114L181.8 182.902L183.252 191.302L193.083 183.489L197.633 190.53L201.01 186.114L204.932 190.293V186.114C204.932 186.114 200.042 179.927 198.117 174.656C198.117 174.656 196.233 181.45 196.696 183.386L193.948 179.175L185.403 183.499L183.602 175.459C183.602 175.459 177.487 180.339 175.984 182.109L166.276 182.233L164.207 190.726L154.798 185.228L156.126 191.735Z" fill="#55311C"/>
<path opacity="0.4" d="M101.926 201.617L91.2715 225.747L85.6816 226.746L83.3447 235.188L93.8657 244.957C93.8657 244.957 101.937 224.945 102.585 218.984C103.234 213.023 107.825 209.04 107.825 209.04L104.016 203.172L101.926 201.617Z" fill="#4B2611"/>
<path d="M197.457 74.6039C197.293 70.7023 199.321 66.7698 202.605 64.6594C203.397 64.1447 204.293 63.702 204.797 62.8888C205.096 62.4049 205.22 61.8284 205.415 61.2931C206.095 59.3887 207.649 57.9577 208.977 56.4238C210.974 54.1076 212.529 51.4516 214.062 48.8059C214.938 47.3029 215.823 45.769 216.204 44.0704C216.513 42.7219 216.482 41.3218 216.564 39.9424C216.739 36.8334 218.129 35.279 219.385 32.4274C220.26 30.4405 222.535 27.5581 223.75 25.7668C224.985 26.5389 225.407 28.114 225.634 29.5552C226.076 32.3759 226.138 35.2378 226.2 38.0894C226.364 46.1602 226.467 54.2311 226.498 62.3123C226.509 63.4756 226.509 64.6491 226.148 65.7609C225.809 66.8316 225.16 67.7787 224.8 68.839C224.45 69.8993 224.46 71.2273 225.294 71.9685C228.022 74.4186 227.239 79.2364 225.767 82.6027C224.295 85.969 222.051 88.9338 220.589 92.3001C218.479 97.1694 218.077 102.759 215.267 107.268C214.608 108.329 213.64 109.41 212.384 109.41C210.851 109.41 209.852 107.855 209.152 106.496C207.268 102.831 205.333 98.9401 205.631 94.8326C205.806 92.331 206.671 89.3868 204.87 87.6367C204.303 87.0808 203.531 86.7514 203.006 86.1543C201.534 84.4352 202.79 81.4703 201.39 79.6894C200.721 78.835 199.609 78.4952 198.713 77.8776C197.818 77.2599 196.799 75.4687 197.457 74.6039Z" fill="#FBE6D8"/>
<path d="M79.4621 60.2639C78.6694 58.277 78.3194 56.1358 78.1444 54.0048C77.3826 44.7295 80.1312 35.2174 85.7211 27.7745C86.5138 26.7141 87.7697 25.5817 88.9948 26.0861C89.7772 26.4053 90.1581 27.27 90.4669 28.0627C92.9582 34.435 95.4494 40.797 97.9407 47.1693C100.103 52.6974 102.306 58.4932 101.708 64.4022C101.657 64.9273 101.575 65.4729 101.328 65.9361C100.936 66.6773 100.195 67.1509 99.526 67.6553C98.8569 68.1597 98.2083 68.8186 98.1363 69.6524C98.0642 70.4863 98.9495 71.3716 99.701 71.001C98.8054 72.5555 97.7657 74.0379 96.6024 75.4071C96.0774 76.0247 95.5112 76.6321 94.7803 76.9821C90.1272 79.2366 88.0477 73.2246 86.2153 70.476C83.9505 67.0788 80.9857 64.1037 79.4621 60.2639Z" fill="#FBE6D8"/>
<path d="M89.912 37.8526C90.6944 40.488 90.7768 43.2675 90.7356 46.0162C90.6841 49.1663 90.8179 52.3267 91.1474 55.4562C91.4253 58.1534 91.8783 60.9123 93.3195 63.208C94.7607 65.5036 97.427 67.2125 100.104 66.7801C102.78 66.3478 104.87 63.1771 103.635 60.7682C103.254 60.027 102.636 59.4402 102.224 58.7196C101.483 57.4225 101.483 55.8474 101.164 54.3856C100.577 51.709 98.9094 49.4236 97.7049 46.9633C94.7401 40.9204 94.4828 33.6628 90.6532 28.1243C90.0973 27.3214 89.4179 26.5184 88.4811 26.2301C82.3764 24.3463 88.6561 33.6319 89.912 37.8526Z" fill="#C8AA98"/>
<path d="M224.318 26.6521C223.412 29.2154 223.082 32.242 223.288 34.9495C223.782 41.332 222.609 48.0955 218.697 53.1604C217.369 54.8796 215.763 56.3723 214.589 58.1944C213.261 60.2739 212.561 62.6828 211.398 64.8653C210.008 67.4801 207.96 69.7345 205.489 71.3714C207.28 73.1008 208.33 75.5818 208.31 78.0731C208.31 78.8452 208.135 79.7305 207.476 80.1423C206.982 80.4511 206.343 80.3996 205.767 80.307C202.617 79.8026 199.467 78.2069 197.912 75.4171C196.358 72.6273 196.924 68.5919 199.652 66.9242C201.227 65.9668 203.44 65.73 204.284 64.0829C204.717 63.2284 204.645 62.2093 204.902 61.2828C205.489 59.1724 207.62 57.9679 209.236 56.4855C213.313 52.7692 214.991 49.0323 215.629 43.5557C216.051 39.932 218.594 30.1934 223.412 27.5168C223.37 28.5566 221.785 28.083 221.466 29.0816" fill="#C8AA98"/>
<path d="M198.56 73.914C199.507 72.2977 201.381 71.258 203.265 71.3301C205.138 71.3918 206.94 72.5551 207.774 74.2434C208.34 75.3964 209.03 77.0847 210.265 76.7244C210.79 76.57 211.171 76.0449 211.716 75.9729C212.406 75.8905 212.952 76.6214 213.003 77.3112C213.055 78.0009 212.777 78.67 212.633 79.3495C211.984 82.4893 214.228 85.4438 214.784 88.6042C215.319 91.672 214.228 94.8118 212.746 97.5501C212.303 98.3737 211.819 99.1972 211.655 100.113C211.521 100.834 211.603 101.575 211.541 102.296C211.418 103.717 210.738 105.096 209.688 106.053C209.431 106.29 209.091 106.517 208.752 106.414C208.515 106.342 208.36 106.125 208.227 105.92C205.354 101.534 204.644 95.8001 206.353 90.8484C204.572 93.8956 201.968 96.181 199.085 98.2193C198.797 94.7912 198.787 90.5396 198.498 87.1012C197.335 90.3131 195.523 93.2985 193.217 95.8207C191.024 94.3691 189.861 91.5176 190.427 88.9542C190.963 86.5144 192.795 84.6202 194.123 82.5099C195.657 80.0289 197.088 76.4361 198.56 73.914Z" fill="#F5B2D3"/>
<path d="M89.2422 72.4316C90.5393 72.6272 91.7643 71.5566 92.207 70.3213C92.6497 69.0859 92.5055 67.727 92.3408 66.4196C92.1761 65.1122 92.0217 63.7534 92.4541 62.5077C92.2996 62.9504 96.0057 67.8712 96.6439 68.2212C97.9101 68.9109 99.4646 68.5609 100.906 68.5197C101.966 68.4888 103.14 68.5918 103.943 67.9021C104.766 67.1917 104.818 65.9461 104.807 64.8652C104.787 63.496 104.777 62.1268 104.756 60.7577C103.984 60.1915 102.728 60.2327 102.316 59.3679C102.172 59.0694 102.172 58.7297 102.151 58.4105C102.028 56.084 100.968 53.8295 99.2484 52.2441C98.8264 51.8632 98.3219 51.4926 97.7557 51.5441C96.8807 51.6162 96.3763 52.625 96.4072 53.5001C96.438 54.3751 96.8498 55.1987 97.0042 56.0531C97.2513 57.4429 96.8498 58.8841 97.1175 60.2635C97.3748 61.5504 98.1984 62.6622 99.2073 63.496C99.3514 63.6093 99.5058 63.7431 99.5264 63.9181C99.5676 64.1857 99.2896 64.4019 99.022 64.4225C98.7543 64.4431 98.4969 64.3402 98.2396 64.2681C96.3248 63.7843 95.0895 65.2667 95.7689 66.8623C96.3763 68.2932 98.7543 69.858 99.9485 70.8051C100.278 71.0625 100.618 71.3404 100.741 71.7419C100.926 72.3596 100.463 73.0081 99.897 73.3478C99.3308 73.6876 98.6822 73.8111 98.116 74.1302C96.6954 74.9126 96.0777 76.5906 95.5733 78.1348C94.9042 80.1731 94.4203 82.5305 93.432 84.4041C91.4864 83.2614 90.0143 72.5552 89.2422 72.4316Z" fill="#F5B2D3"/>
<path opacity="0.83" d="M200.288 157.68C199.557 157.701 198.795 157.65 198.147 157.31C197.323 156.877 196.798 156.044 196.356 155.22C195.903 154.376 195.553 153.171 196.314 152.585C197.087 151.988 198.147 152.636 199.012 153.079C200.937 154.046 203.284 153.871 205.302 153.099C205.95 152.852 209.512 150.351 209.852 150.515C211.211 151.174 208.987 153.377 208.421 153.964C206.31 156.157 203.356 157.577 200.288 157.68Z" fill="#55311C"/>
<path opacity="0.83" d="M200.556 164.094C200.721 164.084 200.906 164.063 200.999 163.94C201.122 163.775 201.04 163.549 200.958 163.363C200.659 162.704 200.299 161.994 199.64 161.706C199.074 161.459 198.425 161.582 197.818 161.582C196.099 161.593 194.863 160.501 193.34 160.059C194.555 162.612 197.797 164.187 200.556 164.094Z" fill="#55311C"/>
<path opacity="0.83" d="M193.588 249.342C193.774 249.929 193.98 250.537 194.36 251.02C195.184 252.091 196.646 252.39 197.994 252.503C200.702 252.74 203.45 252.544 206.086 251.916C207.28 251.628 208.484 251.237 209.421 250.454C210.358 249.672 210.986 248.406 210.729 247.211C210.595 246.594 210.152 245.986 209.535 245.904C209.287 245.873 209.03 245.925 208.783 245.966C205.314 246.645 201.752 246.872 198.221 246.666C197.902 246.645 197.572 246.625 197.274 246.522C196.224 246.172 195.699 245.029 195.256 244.01C194.844 243.063 190.696 232.604 189.121 234.971C188.204 236.34 193.063 247.726 193.588 249.342Z" fill="#55311C"/>
<path d="M216.575 262.88C216.76 264.455 216.956 266.03 217.141 267.605C218.314 266.092 219.478 264.579 220.651 263.055C220.342 264.301 221.115 265.618 222.175 266.329C223.245 267.039 224.553 267.276 225.819 267.461C230.966 268.213 236.742 268.243 240.756 264.929C240.746 267.235 239.511 269.396 237.874 271.013C236.237 272.629 234.209 273.792 232.202 274.935C232.521 276.088 234.086 276.211 235.28 276.088C236.474 275.975 238.049 276.108 238.337 277.272C238.45 277.714 238.317 278.178 238.142 278.61C236.721 282.172 232.809 284.282 228.969 284.529C225.14 284.776 221.382 283.479 217.872 281.915C217.1 281.575 216.235 281.215 215.453 281.534C214.639 281.873 214.289 282.81 214.032 283.654C213.466 285.487 212.889 287.319 212.323 289.152C212.22 289.481 212.107 289.831 211.839 290.047C211.232 290.541 210.336 290.068 209.78 289.522C208.236 287.988 207.392 285.899 206.805 283.809C206.455 282.563 206.188 281.266 206.27 279.979C206.352 278.631 206.805 277.333 207.258 276.057C208.102 273.669 208.946 271.27 209.791 268.882C209.873 268.666 209.955 268.429 210.13 268.274C211.067 267.451 212.436 269.551 213.157 269.911C213.908 268.367 216.76 264.414 216.575 262.88Z" fill="#E6D1C7"/>
<path d="M217.913 44.2559C218.757 42.9897 219.344 41.497 219.272 39.9734C219.21 38.5939 218.633 37.2865 218.52 35.9174C218.448 35.0217 218.572 34.1261 218.685 33.2408C218.736 32.8084 218.767 32.304 218.458 31.9952C217.995 31.5319 217.213 31.8716 216.729 32.304C214.691 34.1158 214.176 37.0703 213.888 39.7881C213.599 42.5058 213.321 45.4295 211.54 47.4987C210.727 48.4458 209.667 49.1355 208.73 49.959C207.804 50.7826 206.959 51.8429 206.856 53.0886C207.515 53.3871 208.257 52.9444 208.843 52.5224C212.127 50.1443 215.627 47.684 217.913 44.2559Z" fill="#A77A46"/>
<path d="M200.825 73.8831C200.228 81.2642 198.56 88.6763 194.803 95.0588C194.525 95.5324 194.195 96.0265 193.681 96.1809C193.197 96.3354 192.661 96.1295 192.25 95.8309C190.788 94.7397 190.664 92.5882 189.563 91.1264C189.192 90.6425 188.708 90.2204 188.472 89.6645C188.225 89.0983 188.348 88.3057 188.914 88.0792C189.172 87.9762 189.47 88.0071 189.727 87.9145C190.036 87.8012 190.253 87.5336 190.438 87.2659C192.023 85.0629 193.114 82.5099 194.792 80.3686C195.812 79.0715 197.088 77.8465 197.407 76.2199C197.582 75.3243 197.438 74.3669 197.757 73.5125C198.128 72.4933 199.065 71.7933 199.95 71.1653C200.722 70.6197 201.741 69.93 202.719 70.2903C202.688 71.1653 201.834 70.805 201.391 71.2374C200.835 71.783 200.876 73.183 200.825 73.8831Z" fill="#B8869E"/>
<path d="M96.6867 50.9885C96.3161 51.9973 95.5955 52.9856 95.8425 54.0254C95.9455 54.4577 96.2028 54.8386 96.3778 55.2607C96.6558 55.9195 96.6867 56.6505 96.7279 57.3608C96.7793 58.349 96.8205 59.3373 96.872 60.3256C96.9029 60.9227 96.9235 61.5506 96.6558 62.0757C96.3367 62.7139 95.6366 63.1154 95.3278 63.7639C94.9366 64.5669 95.2352 65.5243 95.6572 66.3067C96.4705 67.8303 97.7676 69.0965 99.3015 69.8789C99.6 69.8171 99.3941 69.3539 99.5074 69.0759C99.5794 68.8906 99.7956 68.8083 99.9912 68.7671C100.866 68.5715 101.772 68.6435 102.647 68.52C103.533 68.3965 104.459 68.0053 104.861 67.2126C105.097 66.7493 105.118 66.214 105.118 65.6993C105.118 64.2066 104.994 62.7242 104.727 61.2521C104.675 60.9844 104.613 60.6962 104.387 60.5521C104.16 60.4079 103.872 60.4491 103.605 60.4182C102.946 60.3359 102.462 59.7182 102.277 59.0697C102.091 58.4314 102.143 57.7417 102.091 57.0828C101.916 54.8386 100.671 52.8415 99.4662 50.937C98.7044 49.7326 97.9426 47.9619 96.9029 47.0354C96.419 48.2193 97.1705 49.6811 96.6867 50.9885Z" fill="#B8869E"/>
<path d="M194.967 84.4966C193.567 86.0922 191.735 87.2967 189.707 87.9349C189.161 88.1099 188.595 88.2438 188.101 88.532C187.606 88.8203 187.184 89.3041 187.143 89.8806C187.112 90.2512 187.246 90.6012 187.359 90.9615C187.823 92.3822 187.998 93.8852 188.554 95.2749C189.109 96.6544 190.17 97.9721 191.632 98.2603C192.28 98.3941 193.032 98.2706 193.474 97.7765C194.236 96.9426 193.371 96.5103 193.196 95.7896C192.939 94.7499 193.433 93.0616 193.567 92.0013C193.917 89.4791 194.38 86.9776 194.967 84.4966Z" fill="#946443"/>
<path opacity="0.83" d="M93.0613 85.7322C94.5849 87.4514 94.7496 89.9942 94.3996 92.2692C94.0496 94.5443 93.2775 96.7576 93.226 99.0533C93.1436 102.677 94.8011 106.64 92.8863 109.718C92.5363 110.285 92.0421 110.799 91.3936 110.974C90.8583 111.118 90.2715 111.005 89.7465 110.84C86.6684 109.832 84.6198 106.97 82.983 104.17C81.7682 102.09 80.6358 99.918 80.1005 97.5606C79.5652 95.2032 79.6784 92.6398 80.8314 90.5192C81.1506 89.9324 81.552 89.3662 81.6138 88.697C81.6962 87.7191 80.9961 86.8646 80.3476 86.1337C78.8858 84.4866 77.424 82.8395 75.9621 81.1924C75.6945 80.8938 75.4062 80.5438 75.4268 80.1423C75.4474 79.6276 75.9518 79.2673 76.4357 79.1026C77.9181 78.5879 79.6064 79.1438 80.8417 80.132C82.0771 81.1203 82.9315 82.4792 83.7654 83.8072C83.1168 83.1071 82.458 82.3865 82.1697 81.4806C81.8712 80.5747 82.0565 79.4526 82.8389 78.9173C84.4963 77.7849 85.9581 81.5012 87.214 82.3248C89.1082 83.5704 91.5068 83.9822 93.0613 85.7322Z" fill="#55311C"/>
<path d="M100.701 71.2478C99.4655 71.9375 97.8595 71.8964 96.6654 71.1449C96.8095 71.917 97.0463 72.6685 97.386 73.3685C96.5006 73.5744 95.5535 73.492 94.73 73.1214C94.2256 75.4583 93.8138 77.826 93.5152 80.1937C93.3402 81.5732 93.1961 82.9938 93.5667 84.3424C93.7108 84.8777 93.8858 85.5572 93.4535 85.8866C93.2476 86.041 92.9285 86.0822 92.8152 86.319C92.7226 86.5145 92.8152 86.741 92.9285 86.9366C93.2476 87.5131 93.6594 88.0484 94.1432 88.5117C94.3697 88.7382 94.6888 88.9543 94.9874 88.8308C95.2344 88.7279 95.3374 88.4499 95.4094 88.1925C95.5844 87.5852 95.7697 86.9881 95.9447 86.3807C95.9962 86.1954 96.058 85.9998 96.2227 85.8969C96.4183 85.7631 96.686 85.8248 96.933 85.7939C97.4169 85.7425 97.7772 85.3101 97.9316 84.8468C98.086 84.3836 98.0654 83.8894 98.086 83.4056C98.1992 80.5746 99.5684 77.9495 101.185 75.623C101.596 75.0259 102.039 74.4288 102.296 73.7494C102.554 73.0699 102.605 72.2773 102.245 71.639C101.813 70.8566 100.886 70.4963 100.021 70.2801C99.7846 70.2184 99.5066 70.1772 99.311 70.3213C99.1052 70.4757 99.0846 70.7949 99.1978 71.0213C99.311 71.2581 99.5169 71.4228 99.7125 71.5875" fill="#946443"/>
<path d="M100.042 70.5373C100.279 70.7329 100.526 70.9388 100.629 71.227C100.721 71.4638 100.701 71.7315 100.649 71.9888C100.33 73.8727 98.961 75.3654 97.9418 76.9714C97.0977 78.2994 96.4594 79.7509 96.0476 81.2642C95.8006 82.201 95.6359 83.1687 95.255 84.054C94.8741 84.9496 94.2461 85.7835 93.3402 86.1438C91.8475 84.6511 91.9092 82.2627 91.2504 80.2656C90.9519 79.37 90.5092 78.5464 90.1695 77.6714C89.6445 76.3331 89.3871 74.9125 89.1297 73.4918C89.068 73.1315 88.9959 72.7403 89.1606 72.4109C89.6033 71.5153 91.0445 71.9374 91.8681 71.3609C92.3004 71.052 92.4857 70.4961 92.4857 69.9608C92.4857 69.4358 92.3313 68.9211 92.2078 68.4063C91.8269 66.8931 91.6828 65.318 91.7754 63.7635C91.8063 63.2694 91.7548 62.1988 92.4446 62.3635C92.8872 62.4664 93.5049 63.6812 93.7623 64.0209C95.605 66.4092 97.7153 68.6122 100.042 70.5373Z" fill="#946443"/>
<path d="M99.4034 65.6577C100.011 66.1107 100.701 66.4298 101.442 66.6151C101.442 64.2989 101.781 61.9929 102.42 59.7693C103.295 60.4075 104.509 60.3767 105.405 60.984C106.27 61.5708 106.661 62.662 106.682 63.7018C106.692 64.7415 106.373 65.7504 106.064 66.749C105.704 67.9019 105.343 69.0755 104.643 70.0535C103.943 71.0418 102.852 71.8138 101.648 71.8138C98.4048 71.7727 99.0534 67.6858 99.4034 65.6577Z" fill="#946443"/>
<path opacity="0.64" d="M193.279 277.374C197.427 278.136 201.772 277.148 205.879 278.095C203.758 281.492 200.155 283.726 196.419 285.167C194.782 285.795 192.713 286.217 191.457 285.003C190.571 284.138 190.448 282.779 190.386 281.544C190.304 279.794 190.149 277.714 191.076 276.16C191.652 276.808 192.404 277.21 193.279 277.374Z" fill="#55311C"/>
<path d="M87.4092 139.284C87.4092 139.284 98.311 128.568 106.032 124.903C106.032 124.903 108.348 117.944 110.376 113.177C111.323 110.954 111.344 108.463 110.459 106.208L108.636 101.565C107.854 99.5784 108.173 97.3137 109.481 95.6254L124.655 75.8702C124.655 75.8702 127.681 55.621 126.116 54.7871L145.491 51.1017C145.491 51.1017 128.319 63.4139 128.227 75.8702C128.155 84.7441 130.152 93.7106 131.295 98.1372C131.758 99.9079 131.181 101.781 129.833 103.007L122.359 109.77C121.7 110.367 121.381 111.242 121.505 112.117L122.658 120.301C122.935 122.257 124.016 123.997 125.643 125.098C128.402 126.972 132.54 130.071 133.426 132.336C134.774 135.815 137.667 145.842 141.146 146.037C144.616 146.233 151.091 147.098 154.467 145.461C157.298 144.082 170.753 137.061 174.995 134.837C175.283 134.683 175.581 135.033 175.376 135.29C174.058 137.009 171.628 140.458 170.506 143.845C169.971 145.471 169.292 147.057 168.303 148.457C167.644 149.383 167.089 149.96 166.656 150.31C166.389 150.526 166.522 150.948 166.852 150.989C168.571 151.226 171.67 151.813 172.895 153.172C174.583 155.045 190.436 170.631 196.273 183.921C196.376 184.158 196.726 184.096 196.737 183.839C196.768 181.893 196.984 177.899 198.085 174.656C198.157 174.44 198.476 174.471 198.497 174.697C198.662 176.869 199.629 181.976 204.9 186.104" stroke="#3D2A46" stroke-width="2.0589" stroke-miterlimit="10"/>
<path d="M206.322 190.726C206.394 190.808 212.931 213.003 213.065 218.325" stroke="#3D2A46" stroke-width="3.08835" stroke-miterlimit="10"/>
<path d="M96.3666 177.363C101.73 178.465 107.485 179.783 112.9 178.475C121.629 175.706 129.247 172.628 138.193 177.168C139.068 177.6 139.809 178.033 140.684 177.806C140.839 177.765 141.003 177.858 141.045 178.012C141.086 178.166 140.993 178.321 140.849 178.362C140.355 178.516 139.768 178.558 139.253 178.413C132.397 175.356 125.778 175.418 118.798 178.197C116.091 179.144 113.332 180.328 110.419 180.719C105.539 181.224 100.68 180.668 95.8416 180.05C93.9577 179.762 94.4827 176.931 96.3666 177.363Z" fill="#3D2A46"/>
<path d="M95.2744 202.492L103.047 198.138C103.109 197.922 103.417 197.952 103.438 198.169L103.911 203.161C103.911 203.161 109.862 211.469 111.179 215.155C111.282 215.443 111.694 215.422 111.776 215.134L116.069 200.372L120.568 205.364C121.217 206.075 122.328 206.085 122.987 205.385L132.345 195.369C132.952 194.71 133.92 194.535 134.723 194.926C136.792 195.955 140.601 198.138 141.847 200.753L141.373 191.796C141.311 190.612 141.96 189.511 143.02 188.996L152.182 184.559C153.078 184.127 154.128 184.189 154.962 184.734C157.772 186.556 164.011 190.633 164.237 191.004L166.553 182.315H176.014L183.735 175.428L185.084 183.664L193.803 179.041" stroke="#3D2A46" stroke-width="2.0589" stroke-miterlimit="10"/>
<path d="M109.686 210.728C107.74 217.471 106.001 224.43 105.424 231.43C105.125 234.477 105.342 237.401 106.145 240.222C105.177 239.944 103.417 239.46 102.644 238.883C101.306 238.019 100.431 236.505 100.287 234.92C100.287 234.899 100.277 234.879 100.297 234.951C100.308 234.982 100.318 235.002 100.328 235.033C100.699 235.939 102.037 235.949 102.439 235.116C101.594 239.769 101.481 245.039 101.986 249.795C102.264 253.234 103.756 255.88 106.248 258.072C107.648 259.328 109.274 260.378 111.035 261.068C111.312 261.13 111.765 261.521 111.817 261.943C112.002 262.653 111.292 263.405 110.674 263.343C110.479 263.343 109.284 263.343 109.068 263.343L106.464 263.333L106.062 263.261C106.814 263.6 107.802 262.705 107.349 261.819C107.401 261.943 107.514 262.139 107.565 262.252C109.151 265.35 110.911 268.459 112.939 271.28C114.071 272.814 115.317 274.43 116.913 275.418L117.077 275.521C117.149 275.573 117.232 275.635 117.304 275.707C118.055 276.448 117.757 277.776 116.789 278.136C115.821 278.445 114.607 278.497 113.721 278.002C113.238 277.796 112.795 277.58 112.332 277.446L112.527 276.921C119.929 280.35 127.588 284.282 135.638 285.713C136.966 285.847 136.802 287.895 135.422 287.772C127.279 285.198 119.98 280.977 112.28 277.426L112.476 276.901C113.361 277.148 114.452 276.932 115.018 276.582C115.255 276.438 115.719 276.242 116.079 276.191C116.223 276.17 116.12 276.18 116.038 276.211C115.605 276.366 115.523 276.963 115.914 277.23C112.517 275.12 110.18 271.126 108.029 267.687C107.102 266.133 106.176 264.445 105.342 262.828C104.796 261.799 105.959 260.739 106.855 261.14L106.453 261.068C107.318 261.047 109.532 261.058 110.365 261.037C110.437 261.037 110.582 261.037 110.654 261.037C109.387 261.068 109.192 262.828 110.252 263.209C106.464 261.758 103.211 259.019 101.131 255.53C98.6811 250.413 99.2473 244.813 99.4429 239.429C99.6385 237.617 99.6488 235.754 100.277 234.004C100.411 233.726 100.709 233.448 101.028 233.345C101.327 233.201 102.068 233.324 102.325 233.685C102.5 233.89 102.572 234.045 102.634 234.241C102.747 234.683 102.737 235.043 102.881 235.455C103.159 236.289 104.003 237.02 104.806 237.277L103.314 238.729C102.747 236.155 102.84 233.674 103.036 231.245C103.736 224.018 105.548 217.008 107.72 210.1C108.152 208.854 110.077 209.4 109.686 210.728Z" fill="#3D2A46"/>
<path d="M154.962 184.734L158.061 203.357C158.061 203.357 154.571 210.955 154.962 215.361C154.962 215.361 157.865 210.883 160.953 208.762C160.953 208.762 155.467 222.855 154.931 229.608L160.181 224.204C160.181 224.204 152.265 249.291 153.809 264.352C153.809 264.352 154.962 261.84 157.278 260.111C157.278 260.111 156.99 279.989 163.126 285.198" stroke="#3D2A46" stroke-width="3.08835" stroke-miterlimit="10" stroke-linecap="round"/>
<path d="M189.109 206.806L194.596 227.745C194.679 228.064 194.607 228.404 194.39 228.661C193.248 229.999 189.676 234.364 190.489 235.991C191.457 237.926 196.429 247.799 197.582 247.572C198.735 247.346 214.804 244.196 215.577 243.279C216.349 242.363 216.349 231.358 216.349 231.358L213.065 226.026" stroke="#3D2A46" stroke-width="3.08835" stroke-miterlimit="10" stroke-linecap="round"/>
<path d="M198.766 238.647C198.766 238.647 202.317 239.265 203.583 244.474" stroke="#3D2A46" stroke-width="3.08835" stroke-miterlimit="10" stroke-linecap="round"/>
<path d="M93.8652 233.808L96.0991 235.836" stroke="#3D2A46" stroke-width="2.0589" stroke-miterlimit="10" stroke-linecap="round"/>
<path d="M209.79 244.988C209.79 244.988 213.455 263.395 213.074 269.767L209.996 267.873" stroke="#3D2A46" stroke-width="2.0589" stroke-miterlimit="10" stroke-linecap="round"/>
<path d="M93.0722 85.6806C91.4045 81.8614 90.0148 77.9186 88.9133 73.8935C88.8309 73.6052 88.7588 73.3067 88.8 73.0081C88.8927 72.3905 89.4692 71.9684 90.056 71.7728C90.6427 71.5772 91.281 71.536 91.8575 71.3095C92.084 71.2169 92.3207 71.0831 92.4237 70.8669C92.5266 70.661 92.4957 70.4139 92.4649 70.1771C92.156 67.6653 92.1148 65.1123 92.3413 62.5901C92.3825 62.1269 93.0002 61.993 93.2061 62.4151C94.8326 65.6784 97.1489 68.6021 99.9798 70.8978" stroke="#3D2A46" stroke-width="2.0589" stroke-miterlimit="10" stroke-linecap="round"/>
<path d="M99.3816 63.424C98.7846 62.549 97.7654 62.0137 97.2301 61.0975C95.9948 58.9665 97.961 55.9914 96.7051 53.8707" stroke="#3D2A46" stroke-width="2.0589" stroke-miterlimit="10" stroke-linecap="round"/>
<path d="M103.675 60.5211C102.604 60.2843 101.945 59.1828 101.709 58.1225C101.472 57.0622 101.523 55.9401 101.235 54.8797C100.957 53.8503 100.37 52.9444 99.8452 52.0179C95.5524 44.5441 94.4715 35.5673 90.261 28.042C89.7566 27.1464 89.1081 26.189 88.1095 25.9625C87.1006 25.736 85.8962 26.8375 86.4315 27.7229" stroke="#3D2A46" stroke-width="2.0589" stroke-miterlimit="10" stroke-linecap="round"/>
<path d="M79.2452 60.9641C77.7525 55.2507 77.7834 49.249 78.0614 43.3812C78.1128 42.4649 79.5129 42.537 79.4614 43.4635C78.8128 49.2387 78.3908 55.1581 79.5026 60.9024C79.5438 61.0568 79.2967 61.1289 79.2452 60.9641Z" fill="#3D2A46"/>
<path d="M205.726 53.233C211.1 51.0196 215.753 46.9636 218.707 41.8781C219.201 41.0237 220.529 41.7546 220.056 42.6296C217.081 48.096 212.273 52.5535 206.539 55.1169C205.273 55.6522 204.46 53.7786 205.726 53.233Z" fill="#3D2A46"/>
<path d="M217.306 36.2981C219.201 32.4377 221.486 28.7729 224.142 25.386C225.748 28.4126 225.851 31.9848 225.913 35.4128C226.088 44.6676 226.263 53.9223 226.438 63.1771C226.468 64.6389 226.108 66.1007 225.264 67.2949C224.43 68.4787 224.06 70.2082 224.636 71.3303C224.976 71.9789 225.511 72.5039 225.913 73.1112C227.313 75.2319 226.901 78.0629 226.036 80.4512C224.43 84.9293 221.507 88.8618 219.983 93.3708C218.336 98.2607 218.305 103.871 214.681 107.773C213.837 108.679 212.653 109.245 211.428 109.101C209.503 108.874 208.968 107.237 208.412 105.786C207.413 103.192 205.993 100.731 205.416 98.0033C204.84 95.2753 205.313 92.084 207.485 90.3545C204.819 92.8355 202.307 95.3782 199.857 98.0651C199.291 94.2047 198.972 90.3133 198.9 86.422C197.675 89.7266 195.873 92.8046 193.588 95.4812" stroke="#3D2A46" stroke-width="2.0589" stroke-miterlimit="10" stroke-linecap="round"/>
<path d="M201.391 71.3612C205.2 69.2199 207.794 73.6157 208.35 77.0437" stroke="#3D2A46" stroke-width="2.0589" stroke-miterlimit="10" stroke-linecap="round"/>
<path d="M211.047 99.0224C213.343 98.1577 214.032 95.3061 214.341 92.8766C214.64 90.5295 214.866 88.0279 213.857 85.8866C213.518 85.166 213.054 84.5175 212.766 83.7763C212.138 82.1189 212.519 80.2659 212.9 78.5364" stroke="#3D2A46" stroke-width="2.0589" stroke-miterlimit="10" stroke-linecap="round"/>
<path d="M203.028 69.7961C206.312 69.3638 209.688 70.1564 212.107 72.4624C212.334 72.6992 212.334 73.0698 212.097 73.2963C211.881 73.5124 211.541 73.5227 211.304 73.3272C209.235 71.6389 205.982 71.1756 203.45 71.8139C202.081 72.1536 201.628 70.0638 203.028 69.7961Z" fill="#3D2A46"/>
<path d="M189.191 88.7279C192.959 84.5586 196.892 79.9879 197.54 74.3979C197.705 72.9464 197.643 71.4537 198.065 70.0537C199.064 66.6565 202.482 64.68 205.611 63.0328" stroke="#3D2A46" stroke-width="2.0589" stroke-miterlimit="10" stroke-linecap="round"/>
<path d="M203.841 60.3253C208.082 58.6576 211.562 55.1575 213.209 50.9161" stroke="#3D2A46" stroke-width="2.0589" stroke-miterlimit="10" stroke-linecap="round"/>
<path d="M183.406 55.7546C181.811 57.2679 180.246 58.8121 178.722 60.3974C176.983 62.199 177.343 65.0711 179.309 66.6153C180.122 67.2536 180.833 68.0463 181.368 68.911C182.871 71.3302 183.417 74.2024 184.24 76.9201C185.115 79.7923 187.637 86.144 189.182 88.7176" stroke="#3D2A46" stroke-width="2.0589" stroke-miterlimit="10" stroke-linecap="round"/>
<path d="M144.441 98.3017C146.263 96.4796 149.053 96.1707 151.595 95.759C153.685 95.4192 155.765 94.9457 157.793 94.3383C158.76 94.0501 159.759 93.7104 160.521 93.0412C161.283 92.3721 161.746 91.2706 161.406 90.3132C161.066 89.3661 160.078 88.8411 159.172 88.3984C157.762 87.719 156.352 87.0292 154.941 86.3498C154.416 86.0924 153.881 85.8454 153.304 85.7939C151.729 85.6703 150.525 87.0498 149.31 88.0587C147.529 89.5411 145.306 90.3646 143.082 90.9926C141.517 91.4353 139.849 91.8265 138.707 92.9691C137.389 94.2765 137.049 96.2531 136.782 98.0958C136.607 99.2591 136.442 100.474 136.843 101.586C138.696 106.815 143.041 99.7017 144.441 98.3017Z" stroke="#3D2A46" stroke-width="2.0589" stroke-miterlimit="10" stroke-linecap="round"/>
<path d="M103.808 91.2705C102.48 89.9425 100.751 89.0572 99.402 87.7498C98.6299 86.9983 97.7549 86.0306 96.7048 86.2673C95.7165 86.4938 95.2945 87.6571 95.1298 88.666C94.9445 89.7881 94.8724 90.941 94.9136 92.0734C94.9445 92.9794 95.3048 94.1426 96.2107 94.1426C96.6842 94.1426 97.0754 93.7926 97.5078 93.6073C98.5475 93.1749 99.7829 93.772 100.431 94.6882C101.605 96.3251 101.399 99.1355 104.127 97.4677C106.485 96.0162 105.342 92.8146 103.808 91.2705Z" stroke="#3D2A46" stroke-width="2.0589" stroke-miterlimit="10" stroke-linecap="round"/>
<path d="M91.6396 113.466C92.247 111.963 92.8544 110.47 93.4618 108.967C93.9456 107.763 94.4398 106.517 94.3986 105.22C94.3677 104.376 94.1103 103.552 93.925 102.729C93.1529 99.3829 93.4927 95.8005 94.8824 92.6606" stroke="#3D2A46" stroke-width="2.0589" stroke-miterlimit="10" stroke-linecap="round"/>
<path d="M97.6935 84.7954C97.1273 81.9747 98.9185 79.2673 100.669 76.9716C103.407 73.3582 106.248 69.8375 109.203 66.3889C111.159 64.1035 113.197 61.8181 115.76 60.2431C119.055 58.215 123.121 57.4121 125.942 54.7561" stroke="#3D2A46" stroke-width="2.0589" stroke-miterlimit="10" stroke-linecap="round"/>
<path d="M202.1 134.961C202.451 140.53 205.662 145.832 210.377 148.796C210.974 149.167 210.995 150.021 210.429 150.423C208.555 151.751 206.599 152.986 204.396 153.604C201.709 154.366 198.528 154.026 196.552 152.049" stroke="#3D2A46" stroke-width="2.0589" stroke-miterlimit="10" stroke-linecap="round"/>
<path d="M195.306 148.827C195.358 153.398 197.159 157.917 200.258 161.273C200.309 161.325 200.268 161.407 200.196 161.397C197.633 161.17 194.864 160.81 193.072 158.978" stroke="#3D2A46" stroke-width="2.0589" stroke-miterlimit="10" stroke-linecap="round"/>
<path d="M90.7556 158.195C91.6409 158.02 92.5262 157.845 93.4115 157.67C94.0086 157.557 94.6057 157.433 95.1307 157.114C95.7999 156.713 96.2425 156.033 96.6749 155.375C97.6426 153.882 98.6103 152.389 99.578 150.896C100.082 150.114 100.607 149.105 100.134 148.302C99.8456 147.818 99.3 147.582 98.847 147.252C97.5293 146.284 97.0146 144.39 95.5425 143.68C94.8528 143.34 94.0498 143.33 93.288 143.32C92.238 143.309 91.1776 143.289 90.1276 143.278C89.0776 143.268 87.9658 143.268 87.0701 143.804C84.7024 145.224 81.6244 150.629 82.7979 153.305C83.8788 155.817 88.182 158.586 90.7556 158.195Z" stroke="#3D2A46" stroke-width="2.0589" stroke-miterlimit="10"/>
<path d="M146.17 128.568C148.609 128.568 150.587 124.941 150.587 120.466C150.587 115.992 148.609 112.364 146.17 112.364C143.731 112.364 141.754 115.992 141.754 120.466C141.754 124.941 143.731 128.568 146.17 128.568Z" fill="#1C7025" stroke="#6FAD78" stroke-width="1.02945" stroke-miterlimit="10"/>
<path d="M97.8171 123.338C99.2215 123.338 100.36 120.946 100.36 117.995C100.36 115.045 99.2215 112.653 97.8171 112.653C96.4128 112.653 95.2744 115.045 95.2744 117.995C95.2744 120.946 96.4128 123.338 97.8171 123.338Z" fill="#1C7025" stroke="#6FAD78" stroke-width="1.02945" stroke-miterlimit="10"/>
<path d="M83.8467 168.232C84.9276 168.778 88.2527 169.365 89.4675 169.385C89.941 166.4 89.3439 160.872 88.5924 157.948C88.7469 160.1 89.3542 164.681 89.5086 166.832C89.5704 167.697 89.6425 168.582 90.0337 169.354C90.8161 170.909 92.6485 171.568 94.3059 172.093C98.506 173.421 103.077 174.738 107.205 173.235C109.912 172.247 112.136 170.127 114.926 169.426C117.057 168.891 119.291 169.231 121.473 169.313C123.666 169.385 126.044 169.118 127.66 167.635C129.276 166.153 129.544 163.126 127.701 161.942" stroke="#3D2A46" stroke-width="2.0589" stroke-miterlimit="10"/>
<path d="M143.949 134.909C147.69 134.909 150.722 128.904 150.722 121.495C150.722 114.087 147.69 108.082 143.949 108.082C140.208 108.082 137.175 114.087 137.175 121.495C137.175 128.904 140.208 134.909 143.949 134.909Z" stroke="#3D2A46" stroke-width="2.0589" stroke-miterlimit="10"/>
<path d="M96.7059 126.056C98.7299 126.056 100.371 122.447 100.371 117.995C100.371 113.543 98.7299 109.935 96.7059 109.935C94.6818 109.935 93.041 113.543 93.041 117.995C93.041 122.447 94.6818 126.056 96.7059 126.056Z" stroke="#3D2A46" stroke-width="1.54417" stroke-miterlimit="10"/>
<path opacity="0.88" d="M145.285 120.455C146.678 120.455 147.807 118.644 147.807 116.41C147.807 114.175 146.678 112.364 145.285 112.364C143.892 112.364 142.763 114.175 142.763 116.41C142.763 118.644 143.892 120.455 145.285 120.455Z" fill="#FFFCFA" stroke="#3D2A46" stroke-width="0.772087" stroke-miterlimit="10"/>
<path opacity="0.88" d="M142.763 122.607C143.417 122.607 143.947 121.957 143.947 121.155C143.947 120.354 143.417 119.704 142.763 119.704C142.109 119.704 141.579 120.354 141.579 121.155C141.579 121.957 142.109 122.607 142.763 122.607Z" fill="#FFFCFA" stroke="#3D2A46" stroke-width="0.514725" stroke-miterlimit="10"/>
<path opacity="0.88" d="M96.0882 120.023C96.5431 120.023 96.9118 119.571 96.9118 119.014C96.9118 118.457 96.5431 118.005 96.0882 118.005C95.6334 118.005 95.2646 118.457 95.2646 119.014C95.2646 119.571 95.6334 120.023 96.0882 120.023Z" fill="#FFFCFA" stroke="#3D2A46" stroke-width="0.514725" stroke-miterlimit="10"/>
<path opacity="0.9" d="M97.4271 117.439C98.3652 117.439 99.1257 116.328 99.1257 114.958C99.1257 113.588 98.3652 112.477 97.4271 112.477C96.489 112.477 95.7285 113.588 95.7285 114.958C95.7285 116.328 96.489 117.439 97.4271 117.439Z" fill="#FFFCFA" stroke="#3D2A46" stroke-width="0.772087" stroke-miterlimit="10"/>
<path d="M171.836 296.583C168.511 295.431 165.721 292.744 163.559 290.16L162.005 288.358C161.202 287.349 160.1 286.443 158.793 287.082C150.259 291.323 140.139 292.013 131.059 289.213C130.967 289.202 130.854 289.285 130.833 289.388C130.833 289.418 130.833 289.377 130.823 289.46C130.596 291.344 130.514 291.807 130.318 293.444L130.277 293.753L130.256 293.907C130.329 293.361 130.071 292.62 129.577 292.229C129.515 292.177 129.186 291.961 129.402 292.095C129.896 292.373 130.39 292.754 130.802 293.052L131.348 293.485L131.615 293.711C131.77 293.835 131.945 294 132.089 294.164C132.748 294.885 132.984 295.935 132.923 296.882C132.912 298.663 132.768 300.444 132.429 302.225C132.315 302.709 132.315 302.987 132.007 303.851C131.44 305.293 130.164 306.435 128.671 306.837C128.064 307.022 127.415 307.022 126.797 307.012C122.711 306.981 118.613 306.909 114.557 307.022C113.981 307.022 113.528 307.146 112.921 307.393C110.594 308.35 107.887 309.915 105.663 311.263L105.148 311.583L104.881 311.747C102.698 313.116 99.7642 313.116 97.5611 311.809C93.0316 309.369 82.5415 302.904 85.8872 296.594C86.4019 295.533 87.3387 294.761 88.2755 294.082L92.1977 291.076C93.0624 290.448 94.5551 289.243 95.389 288.636C96.6552 287.668 98.1994 287.071 99.7847 286.948C100.341 286.896 100.989 286.927 101.473 286.989C103.45 287.205 107.485 287.679 109.451 287.895L109.76 287.926L109.832 287.936C110.12 287.998 109.719 287.792 108.7 288.111C107.959 288.42 107.351 289.161 107.289 290.088C107.361 291.323 107.588 291.272 107.464 291.148C106.764 289.532 106.178 287.936 105.642 286.258L105.272 285.002C105.076 284.148 104.757 283.324 104.16 282.686C103.892 282.305 102.966 281.739 102.595 281.43C96.9641 277.189 92.0124 271.125 90.9521 263.898C89.7682 256.878 90.0976 249.702 91.508 242.754C90.9521 244.174 92.9389 246.007 93.7522 245.667H93.6698H93.5154H93.2066H92.5889C90.4888 245.739 88.3682 244.915 86.9269 243.371C86.4019 242.764 84.971 241.137 84.4254 240.489L82.8091 238.625L81.9959 237.689C81.0282 236.7 80.6267 235.197 81.0591 233.869C81.6356 231.893 82.4282 229.196 83.015 227.199L83.365 226.015C83.715 224.316 85.321 223.009 87.0711 223.132C88.2343 223.225 89.6859 223.348 90.8491 223.441L91.158 223.462L91.23 223.472C91.158 223.472 91.5183 223.482 91.0241 223.472C90.1182 223.41 89.027 224.378 88.9035 225.171L88.9241 225.088L88.9652 224.924L89.0476 224.604C91.3433 216.451 94.7919 208.658 99.0641 201.359L99.1465 201.226C98.3641 202.461 99.445 204.252 100.969 204.077C101.061 204.067 101.144 204.057 101.216 204.036C101.288 204.026 101.411 203.985 101.339 204.005C99.5686 204.582 97.7979 205.333 96.3361 206.465C95.7493 206.97 95.2346 207.516 94.3801 207.639C92.5374 208.01 90.7977 206.146 91.2506 204.365L91.2815 204.211L91.3947 203.583C92.7227 197.18 93.9684 191.116 97.1596 185.166C97.5405 184.497 98.0038 183.807 98.4979 183.19C98.3538 183.375 98.22 183.601 98.1376 183.869C97.5714 185.485 99.3112 187.04 100.814 186.432L100.279 186.638C97.7773 187.668 95.2552 188.913 93.4433 190.88C93.186 191.168 92.9183 191.436 92.5374 191.631C91.1477 192.383 89.377 191.858 88.6358 190.437C88.3476 189.881 88.2549 189.284 88.3373 188.687C88.9241 184.435 91.5595 181.1 94.4213 178.269C93.0419 179.473 93.7728 182.315 96.089 182.325C90.1388 182.428 83.9415 178.825 82.8503 172.628L82.9121 172.854L82.6753 172.082C82.5415 171.68 82.2738 171.33 81.9238 171.083C78.4443 168.808 77.8472 164.279 77.5898 160.562C77.0648 158.349 76.3854 151.75 77.5281 148.085C78.609 144.544 80.4723 142.331 82.5209 139.675C83.1283 138.903 83.9621 138.007 84.2607 137.554C85.321 136.072 85.5475 134.126 85.146 132.376C84.9401 131.151 84.6313 129.195 84.4357 128.021L83.4886 122.215L83.365 121.495L83.3033 121.134L83.2621 120.887C82.7268 117.418 87.1843 115.195 89.6344 117.799C90.077 118.252 90.4682 118.643 90.9727 119.364L86.3401 120.558C86.5049 118.87 86.7313 117.315 87.0711 115.678C87.349 114.278 87.7711 112.858 88.2858 111.509C88.2858 111.416 88.2652 111.386 88.2446 111.365L87.4828 110.593C83.2724 106.063 78.9384 101.276 77.5075 94.9041C76.8074 91.8569 77.8884 88.1921 80.4311 86.2259L80.1532 89.901L73.5235 82.4684L72.6896 81.5419L72.4838 81.3051L72.3293 81.1198C70.2087 78.7418 72.2367 74.6445 75.4897 74.9946C77.5486 75.1284 79.5561 75.3343 81.8003 76.1578C81.3267 75.9622 80.7502 75.9828 80.2664 76.1887C79.2781 76.5799 78.7531 77.877 79.2369 78.8653L79.2164 78.8344L79.0825 78.5565L78.8252 78.0005C77.456 75.1387 75.9633 72.0606 74.3779 69.312C73.122 67.2428 71.722 64.6074 70.8572 62.322C68.2836 55.7953 67.9336 48.8054 67.6865 41.836C67.7277 39.0668 67.6762 36.2152 68.8189 33.446C71.794 27.2796 75.1294 18.9513 78.6296 12.9908C80.4002 10.1393 82.9224 5.67146 87.0608 8.14213C89.4594 9.3363 91.5595 10.8908 93.6904 12.3938C96.192 14.1335 98.6112 16.0277 99.4347 19.1058C100.145 21.3294 100.938 24.2427 102.194 25.9516C102.214 25.9825 102.441 26.1369 102.822 26.3428C103.182 26.5384 103.717 26.8781 104.17 27.2384L104.829 27.8355C108.556 32.2209 109.647 37.9859 111.243 43.1949L111.572 44.4096C111.716 45.0582 111.922 45.7273 112.632 45.9023C115.463 46.7774 118.325 47.8789 120.26 50.3393C121.65 52.2437 122.989 54.1173 124.255 56.1042L120.353 58.5954C119.169 56.7527 117.852 54.8894 116.534 53.1291C115.309 51.6981 113.147 50.9569 111.325 50.3907C109.101 49.8142 107.464 47.8068 107.032 45.6038C105.642 40.8374 104.469 35.4637 101.73 31.4797C100.989 30.5841 100.104 30.4194 99.023 29.4929C97.1288 27.5473 96.4493 25.1383 95.6258 22.9353C94.9772 21.0205 94.6581 18.9102 92.8463 17.7469C90.1182 15.8424 87.2872 13.485 84.2504 12.1982C84.3018 12.2188 84.3533 12.229 84.4048 12.2393C84.8371 12.3217 85.1151 12.2188 85.1975 12.1776C85.3004 12.1261 85.2592 12.1467 85.218 12.1776C82.2326 15.5233 80.5032 20.022 78.4854 24.1295L74.4088 33.2092L73.3691 35.4328C72.6793 37.3579 72.6896 39.5918 72.6896 41.7742C72.947 49.526 73.5338 57.7925 77.5692 64.6589C79.8134 68.4164 81.8826 72.4209 83.7356 76.3843C84.0239 76.9505 84.2092 77.5064 84.1783 78.155C84.1268 80.0183 82.3253 81.4286 80.5341 81.0889C78.9384 80.5639 77.2707 80.2345 75.3147 80.1315L75.1706 80.1212C75.15 80.1212 75.0986 80.1212 75.1191 80.1212C76.3957 80.2345 76.9927 78.5873 76.2618 77.8358C78.2384 80.0389 83.7562 86.2567 85.6916 88.4186C84.5592 89.5613 82.5003 90.6525 82.4488 92.4128C82.3356 93.3393 82.5724 94.5438 83.0459 95.7483C84.5077 99.4954 87.5137 103.171 90.3653 106.228L91.9918 107.906C93.4125 109.419 93.7316 111.694 92.9595 113.547C91.3639 117.573 91.1888 124.017 90.6947 128.32L86.7622 122.164C86.6799 122.02 86.3298 121.639 86.0622 121.371C86.5151 121.814 87.5652 121.896 88.0284 121.196C88.2034 120.97 88.3064 120.64 88.3064 120.373C88.3064 120.311 88.3064 120.249 88.2961 120.198C88.2858 120.146 88.2961 120.198 88.2961 120.229C88.3373 120.486 88.4402 121.134 88.4917 121.402C88.8211 123.451 89.5829 128.155 89.902 130.101L90.1388 131.552C90.7668 134.589 90.2109 137.853 88.4093 140.416C86.1342 143.309 83.4062 146.14 82.3665 149.434C81.5738 152.481 81.9341 156.609 82.5827 160.14C82.7474 162.312 82.9121 164.865 84.2298 166.543C84.5489 166.873 84.9607 167.048 85.2901 167.357C86.5872 168.396 87.3696 169.982 87.7505 171.577C88.3682 175.397 92.2801 177.301 95.9243 177.332C97.8082 177.178 99.2597 179.247 98.5082 180.925C98.3744 181.388 97.7361 181.995 97.8803 181.841C95.8934 183.766 93.8963 186.216 93.3404 188.831C93.3095 188.975 93.2889 189.16 93.2683 189.274C93.4948 187.297 90.88 186.175 89.6138 187.699L89.7373 187.565C92.2698 184.785 95.6772 183.087 99.0744 181.769C99.2494 181.697 99.6921 181.573 100.032 181.584C101.957 181.522 103.46 183.468 102.853 185.331C102.544 186.247 101.864 186.782 101.432 187.627C100.011 190.128 98.9921 193.206 98.1273 196.253C97.3861 198.878 96.7376 201.782 96.2229 204.468L96.1096 205.065L96.0787 205.21L96.0684 205.282C96.4493 203.285 93.9684 201.905 92.4757 203.264C94.3801 201.473 97.6847 199.774 100.516 199.156C103.017 198.889 104.675 201.843 103.285 203.84C99.1568 210.892 95.7905 218.459 93.6286 226.344C93.6286 226.344 93.433 227.003 93.2066 227.24C92.7124 228.012 91.5492 228.424 90.8182 228.3L90.7462 228.29L90.4373 228.259C89.552 228.197 88.2446 228.063 87.3593 228.002L86.824 227.96C87.3593 227.991 87.8946 227.662 88.1005 227.157L88.1314 227.075C88.1417 227.034 88.152 227.013 88.1314 227.065C87.8123 228.146 87.3078 229.865 86.999 230.915C86.7313 231.811 86.0519 234.127 85.7739 235.064L85.7328 235.208L85.7122 235.27L85.7225 235.208C85.7945 234.878 85.7122 234.528 85.496 234.271L85.6607 234.467C86.8137 235.825 88.5432 237.781 89.7064 239.14C90.3447 239.923 91.1065 240.829 92.2698 240.777H92.5786H93.1963H93.9478C94.9875 240.489 96.789 242.476 96.2023 243.855L96.1714 243.989L96.1096 244.267C94.8125 251.772 94.2154 259.976 96.8611 267.234C98.6009 271.29 101.895 274.852 105.467 277.559C107.207 278.681 108.741 280.318 109.441 282.295C110.151 284.59 110.82 286.989 111.809 289.182C111.706 289.099 111.963 289.099 112.025 290.386C111.963 291.364 111.315 292.157 110.532 292.486C109.472 292.826 109.009 292.6 109.245 292.661L109.173 292.651C108.669 292.6 107.557 292.466 107.022 292.404L102.111 291.838C100.855 291.663 99.4553 291.467 98.395 292.28C96.3052 293.886 93.2066 296.233 91.1271 297.829L90.6329 298.2L90.3859 298.385C89.902 298.735 89.7785 299.384 90.1491 299.867C92.5065 303.275 95.9861 305.581 99.7024 307.588C100.114 307.804 100.248 307.866 100.444 307.928C100.639 307.99 100.835 308.021 101.041 308.031C101.792 308.288 103.635 306.847 104.242 306.549C106.517 305.262 108.648 303.954 111.17 302.966C112.087 302.606 113.25 302.266 114.331 302.287C118.665 302.173 122.958 302.256 127.271 302.297C127.364 302.287 127.456 302.276 127.518 302.215C127.611 302.081 127.57 302.318 127.775 301.319C128.074 299.775 128.208 298.159 128.198 296.553V296.408C128.208 296.758 128.362 297.108 128.63 297.335C128.177 296.944 127.58 296.46 127.096 296.161C126.087 295.678 125.397 294.411 125.593 293.3L125.614 293.145L125.655 292.836L125.964 290.386L126.118 289.161C126.242 286.433 128.826 284.199 131.554 284.56C133.767 285.054 135.949 285.754 138.224 285.97C144.35 286.752 150.64 285.785 156.209 283.139C158.33 281.976 161.006 281.883 163.086 283.159C165.999 285.136 167.636 288.574 169.87 291.096C170.837 292.27 171.887 293.32 173.061 294.36C173.092 294.38 171.836 296.583 171.836 296.583Z" fill="#3D2A46"/>
<path d="M171.301 295.997C168.542 296.316 159.473 297.325 156.848 297.654C156.086 297.798 155.685 298.807 155.129 299.487L153.585 301.679L150.486 306.055L149.714 307.146C149.559 307.372 149.549 307.424 149.508 307.578C149.446 307.928 149.58 308.299 149.879 308.505C155.613 312.293 162.479 314.033 169.304 314.558C171.981 314.321 174.719 313.055 177.179 311.706C183.109 308.381 188.452 303.728 193.445 298.828L192.817 299.909C192.992 298.787 193.229 297.263 193.054 296.162C193.012 295.904 192.961 295.842 193.074 295.904C188.946 292.054 188.72 283.788 189.595 277.92L190.006 275.459L191.571 275.603C191.592 277.94 191.777 280.473 192.076 282.768C192.621 285.97 193.321 289.398 195.463 291.869C195.565 291.982 195.658 292.054 195.751 292.147C195.813 292.198 195.998 292.332 195.864 292.219L195.74 292.116C196.78 292.847 197.47 294.051 197.696 294.937C198.335 297.345 197.964 299.559 197.213 301.854L196.801 302.246C189.451 309.03 180.01 317.729 169.531 318.954C161.769 318.449 153.832 316.246 147.356 311.778C145.195 310.214 144.772 306.816 146.399 304.768L147.192 303.687C148.664 301.659 151.268 298.076 152.709 296.09C153.585 294.741 155.252 293.763 156.899 293.701L157.568 293.629C159.236 293.464 169.006 292.466 170.91 292.27C170.9 292.291 171.301 295.997 171.301 295.997Z" fill="#3D2A46"/>
<path d="M191.621 283.9C197.561 284.055 203.439 280.925 206.363 275.685C206.61 275.16 207.238 273.915 207.464 273.4L207.732 272.587C208.339 271.012 208.679 269.21 209.008 267.563L210.552 267.707C210.398 269.467 210.233 271.475 209.77 273.204L209.564 274.12C207.866 280.132 203.398 285.084 197.478 287.205C195.522 287.894 193.69 288.389 191.569 288.522C191.58 288.533 191.621 283.9 191.621 283.9Z" fill="#3D2A46"/>
<path d="M206.322 277.775L210.996 291.22C211.15 291.652 211.768 291.611 211.861 291.168L213.981 281.533C214.136 280.822 215.021 280.586 215.515 281.121C217.358 283.087 221.527 285.321 230.226 283.272C235.301 282.078 238.245 279.412 239.676 277.703C240.16 277.116 239.707 276.241 238.945 276.283C235.867 276.458 229.639 276.612 225.882 275.335C225.305 275.14 225.501 274.285 226.108 274.337C229.361 274.656 234.714 274.337 238.729 269.951C244.906 263.198 243.969 263.486 243.969 263.486C243.969 263.486 237.443 266.359 233.386 259.338C233.356 259.286 233.376 259.214 233.428 259.194L241.159 255.642C242.116 255.457 242.332 254.17 241.478 253.686L231.595 248.065C231.081 247.767 231.142 247.005 231.708 246.82C234.467 245.873 239.697 242.475 239.697 230.39C239.697 230.39 238.915 223.667 239.038 220.075C239.048 219.786 238.678 219.653 238.513 219.889C236.99 222.061 232.769 227.62 228.301 229.618" stroke="#3D2A46" stroke-width="4.63252" stroke-miterlimit="10"/>
<path d="M211.995 218.798C214.178 215.102 215.403 210.779 216.401 206.599C217.389 203.789 221.353 203.851 222.382 206.507C222.475 206.702 222.753 207.248 222.846 207.443C224.05 209.883 225.481 212.529 226.83 214.897C229.259 219.498 230.144 224.985 229.321 230.101C228.816 232.377 228.116 238.8 224.421 237.246C223.299 236.69 222.825 235.352 223.329 234.23C225.44 228.846 225.1 222.319 222.475 217.13C220.972 214.361 219.469 211.366 218.172 208.524C218.131 208.432 218.017 208.215 218.162 208.473C218.357 208.782 218.769 209.06 219.129 209.101C219.809 209.245 220.581 208.73 220.735 208.04C220.746 208.009 220.725 208.082 220.715 208.102L220.509 208.812C219.541 212.158 218.151 215.422 216.154 218.294C215.269 219.354 213.828 222.206 212.108 220.703C211.583 220.167 211.583 219.375 211.995 218.798Z" fill="#3D2A46"/>
<path d="M204.603 184.425C206.662 191.332 208.536 198.26 210.214 205.271C211.82 212.364 213.529 219.364 213.745 226.714H211.624C211.418 219.704 209.709 212.621 208.155 205.755C206.497 198.806 204.614 191.878 202.575 185.032C202.575 185.042 204.603 184.425 204.603 184.425Z" fill="#3D2A46"/>
<path d="M204.819 184.929C206.569 186.123 208.134 187.523 209.647 188.964L209.442 188.789C209.256 188.635 208.855 188.748 208.814 188.964C208.752 189.16 208.803 189.304 208.783 189.397C208.793 189.531 208.711 189.222 208.67 189.098L208.515 188.614C207.959 186.906 207.311 185.248 206.353 183.663C206.559 180.842 209.812 179.133 212.221 180.605C212.592 180.801 214.908 182.685 215.289 182.963C216.205 183.663 220.889 187.214 221.713 187.842L221.795 187.904C221.352 187.564 220.611 187.729 220.354 188.223C220.199 188.47 220.179 188.892 220.292 189.109C220.127 188.707 219.53 187.41 219.355 186.988C218.48 185.094 217.605 183.086 216.535 181.295C214.795 176.868 222.598 175.715 225.522 175.89C225.377 175.88 225.192 175.911 225.017 175.993C224.482 176.261 224.286 176.879 224.533 177.404C224.595 177.527 224.667 177.63 224.77 177.723C224.801 177.743 224.729 177.692 224.719 177.682C221.249 174.573 217.801 171.371 214.846 167.737C214.764 167.624 214.249 166.975 214.177 166.872C212.633 164.865 213.683 161.663 216.02 160.871C217.482 160.315 220.076 159.285 221.466 158.74C221.424 158.76 221.414 158.812 221.414 158.802C221.414 158.781 221.393 158.812 221.445 158.853C221.455 158.884 221.496 158.874 221.466 158.884C221.126 158.802 220.436 158.688 220.035 158.596C217.615 158.04 217.636 154.498 220.076 153.963C223.761 153.006 227.488 151.935 230.967 150.432C231.039 150.391 231.039 150.391 231.05 150.37C231.101 150.339 231.091 150.175 231.05 150.175L228.929 148.939C226.263 147.333 211.542 138.264 216.514 134.815C217.626 134.095 219.139 134.476 219.788 135.629C222.907 140.302 228.456 143.617 233.212 146.633C235.538 148.034 235.857 151.575 233.829 153.356C232.81 154.282 231.441 154.581 230.206 155.085C227.344 156.104 224.43 156.907 221.496 157.628L221.095 157.721C221.064 157.731 220.982 157.752 220.941 157.762C222.454 157.401 222.454 155.168 220.93 154.818C220.848 154.797 220.899 154.818 220.91 154.818C221.218 154.869 221.641 154.982 221.949 155.034C225.748 155.538 226.448 160.891 222.835 162.291C221.383 162.827 218.84 163.825 217.368 164.391C217.214 164.443 217.162 164.536 217.183 164.659C217.183 164.68 217.286 164.814 217.307 164.844C219.685 167.964 222.516 170.671 225.388 173.348C225.81 173.749 226.829 174.655 227.251 175.046C228.589 176.22 228.27 178.557 226.633 179.318C226.098 179.586 225.552 179.607 224.997 179.576C223.627 179.555 222.145 179.761 220.879 180.204C220.457 180.327 219.808 180.698 219.715 180.77C219.932 180.523 219.911 179.771 219.685 179.535C219.757 179.658 219.839 179.771 219.901 179.885C220.776 181.388 221.929 183.879 222.691 185.464C222.917 185.928 223.545 187.276 223.761 187.739C224.708 189.778 222.505 192.217 220.343 191.445C220.014 191.353 219.726 191.167 219.458 190.982C217.018 189.314 212.283 186.02 209.987 184.538C210.337 184.785 210.842 184.641 211.027 184.229L211.109 183.014C210.862 184.775 210.893 186.453 211.017 188.161C211.171 189.335 211.223 190.622 210.121 191.445C209.38 192.063 208.072 192.042 207.372 191.353C205.88 189.891 204.428 188.378 203.162 186.679C202.771 186.144 202.884 185.403 203.409 185.001C203.852 184.641 204.408 184.641 204.819 184.929Z" fill="#3D2A46"/>
<path d="M119.808 56.351L135.816 52.4185C140.252 50.9979 144.967 50.7096 149.548 51.5847L179.197 57.2055C179.197 57.2055 190.572 50.9258 193.176 47.1683C195.781 43.4005 198.9 27.3823 198.9 27.3823C198.9 27.3823 216.854 2.47994 219.747 3.06673C222.639 3.64322 225.686 1.83139 227.848 9.83021C230.02 17.829 231.76 13.9171 231.616 17.829C231.472 21.7409 238.132 69.9397 235.96 78.4842C233.788 87.0286 231.76 88.7581 232.635 92.9582C233.5 97.1584 237.988 97.1069 221.486 115.153C214.99 122.256 226.139 132.438 231.678 136.792C233.129 137.935 232.532 140.292 230.71 140.55C226.572 141.147 220.827 140.323 220.827 140.323" stroke="#3D2A46" stroke-width="4.63252" stroke-miterlimit="10"/>
<path d="M91.7754 242.28C95.2755 235.485 98.858 228.495 100.999 221.135C102.018 216.42 103.861 211.726 107.485 208.38L108.175 209.142C106.188 211.345 104.849 214.207 104.077 217.089C103.707 218.345 103.439 220.291 103.254 221.598C101.802 229.453 98.8889 236.844 95.9755 244.256C95.9653 244.266 91.7754 242.28 91.7754 242.28Z" fill="#3D2A46"/>
<path d="M91.5078 303.358C93.3711 300.198 95.7594 297.346 98.5492 294.968" stroke="#3D2A46" stroke-width="2.0589" stroke-miterlimit="10" stroke-linecap="round"/>
<path d="M97.9619 308.289C99.1149 304.562 100.896 301.021 103.192 297.871" stroke="#3D2A46" stroke-width="2.0589" stroke-miterlimit="10" stroke-linecap="round"/>
<path d="M153.615 311.748C154.851 308.289 157.373 303.008 159.648 300.115" stroke="#3D2A46" stroke-width="2.0589" stroke-miterlimit="10" stroke-linecap="round"/>
<path d="M164.938 316.082C165.474 311.758 166.791 307.527 168.789 303.656" stroke="#3D2A46" stroke-width="2.0589" stroke-miterlimit="10" stroke-linecap="round"/>
<defs>
<filter id="filter0_f_1329_40952" x="78.6962" y="281.456" width="166.663" height="50.1874" filterUnits="userSpaceOnUse" color-interpolation-filters="sRGB">
<feFlood flood-opacity="0" result="BackgroundImageFix"/>
<feBlend mode="normal" in="SourceGraphic" in2="BackgroundImageFix" result="shape"/>
<feGaussianBlur stdDeviation="2.98053" result="effect1_foregroundBlur_1329_40952"/>
</filter>
</defs>
</svg>
