<svg width="164" height="164" viewBox="0 0 164 164" fill="none" xmlns="http://www.w3.org/2000/svg">
<g clip-path="url(#clip0_1411_31502)">
<rect x="9.0625" y="9.0625" width="145" height="145" rx="72.5" fill="white"/>
<rect x="7.55208" y="7.55208" width="148.021" height="148.021" stroke="white" stroke-width="3.02083"/>
<circle cx="81.5625" cy="81.5625" r="72.5" fill="#7ACFFF"/>
<g clip-path="url(#clip1_1411_31502)">
<path d="M34.7452 215.667C34.7452 215.667 40.7697 224.602 45.5145 223.486C50.2592 222.363 53.4743 219.257 53.4743 219.257L67.1778 218.344L68.0441 212.842L66.0541 210.766L66.3741 205.514C66.3741 205.514 73.1009 208.722 77.7754 206.911C82.4499 205.093 90.0821 203.883 90.0821 203.883L97.9327 210.875L86.8747 212.67L80.8423 221.34C80.8423 221.34 85.1579 227.349 95.295 228.294C95.295 228.294 99.7276 229.901 106.712 224.485C113.704 219.069 117.317 214.941 117.317 214.941C117.317 214.941 117.676 211.531 116.693 210.875C115.71 210.22 113.993 207.512 114.321 205.132C114.321 205.132 121.336 204.312 123.412 201.519C125.488 198.725 126.097 198.085 126.097 198.085L129.694 208.878L131.302 201.573C131.302 201.573 135.867 205.366 143.039 203.321C150.21 201.277 150.234 197.593 150.234 197.593C150.234 197.593 142.055 198.272 140.503 196.118C140.503 196.118 148.236 196.914 150.234 192.607C152.232 188.299 154.034 187.885 154.034 187.885C154.034 187.885 149.204 188.549 147.76 186.894C146.316 185.232 146.699 184.335 146.699 184.335L152.497 181.408L144.654 176.195C144.654 176.195 149.173 175.321 149.984 169.063C150.796 162.804 150.289 155.687 150.289 155.687L141.283 162.359C141.283 162.359 143.023 157.497 139.777 151.972C136.538 146.447 135.984 145.308 135.984 145.308C135.984 145.308 131.325 154.735 130.303 154.743C129.281 154.75 125.074 130.285 125.074 130.285L128.219 131.573L128.11 126.438L137.381 130.925L134.767 124.089L140.401 121.826C140.401 121.826 132.941 114.412 132.504 112.126C132.067 109.839 137.919 109.543 137.919 109.543L137.155 106.039C137.155 106.039 142.258 106.14 145.801 101.77C145.801 101.77 138.762 97.2207 136.476 94.5283C136.476 94.5283 143.897 96.2062 145.302 93.2875C145.302 93.2875 136.406 85.8271 135.953 82.3232C135.492 78.8271 135.766 77.001 138.879 73.3332C141.993 69.6654 146.98 64.7099 146.332 62.0957C145.684 59.4814 144.81 57.2963 145.825 54.3699C146.839 51.4434 148.548 50.3197 148.283 43.4055C148.018 36.4991 145.965 2.69299 144.654 0.97615C143.343 -0.740691 142.407 -2.57459 141.806 -4.40068C141.205 -6.22678 137.326 -13.5155 131.77 -7.5144C126.214 -1.51327 119.744 9.48232 119.744 9.48232C119.744 9.48232 118.465 20.1423 116.568 23.0688C114.672 25.9952 104.925 31.5203 104.925 31.5203C104.925 31.5203 89.9182 27.2282 79.3908 26.9082C68.8635 26.5883 61.723 30.4356 61.723 30.4356C61.723 30.4356 59.0697 27.1658 55.6984 25.2538C52.3272 23.3419 49.9158 12.6975 47.6839 10.9728C45.452 9.2482 44.8511 3.74651 41.6984 1.21027C38.5456 -1.32597 32.2792 -4.38507 32.2792 -4.38507C32.2792 -4.38507 22.2591 13.1579 22.3137 17.8012C22.3683 22.4523 23.9213 34.0409 25.8176 37.1156C27.7217 40.1903 31.2335 46.9172 31.2335 46.9172L25.5289 47.1123L31.093 54.3777C31.093 54.3777 26.4575 58.4201 31.6237 64.2261C36.7976 70.0322 38.3662 71.4915 38.3662 71.4915L36.3684 81.652L34.4798 78.6554L35.4709 90.4157C35.4709 90.4157 30.5233 97.603 29.5634 101.302C28.6036 105.001 27.9559 112.524 30.8355 114.686C33.7151 116.847 35.3305 120.304 35.3305 121.873C35.3305 123.441 41.9169 124.472 41.9169 124.472C41.9169 124.472 37.9604 128.483 37.8901 131.448C37.8199 134.414 42.4163 128.42 45.0228 127.687C47.6293 126.953 43.1655 131.425 42.3773 134.062C41.5813 136.7 40.0674 143.45 40.0674 143.45L46.3417 140.267C46.3417 140.267 40.2313 150.287 38.4442 158.59L34.3472 159.362C34.3472 159.362 31.3661 164.216 32.2792 165.996C33.1922 167.775 38.4442 173.191 38.4442 173.191L40.2313 173.924C40.2313 173.924 37.0083 187.05 41.5891 192.997C46.17 198.943 49.6739 201.589 49.6739 201.589L51.7575 207.098H44.5546C44.5546 207.106 33.2468 213.271 34.7452 215.667Z" fill="#946443"/>
<path opacity="0.9" d="M47.9115 50.0928C50.5258 53.3079 51.9539 57.4596 51.8915 61.6034C51.8603 63.4061 51.5637 65.2244 51.8759 66.9958C52.0944 68.2367 52.6172 69.4072 52.8904 70.6402C53.6317 73.91 52.6406 77.3671 50.9706 80.2701C47.974 85.4597 42.7298 89.2914 36.8769 90.5634C36.0575 88.4173 35.3708 86.2166 34.8245 83.9848C34.7309 83.6102 34.645 83.22 34.7543 82.8454C34.8635 82.4864 35.1445 82.2055 35.3708 81.9089C35.7688 81.3861 36.0263 80.7774 36.276 80.1687C38.0397 75.9 39.8346 71.4752 39.6629 66.8632C39.6005 65.2556 39.3039 63.6636 39.2883 62.056C39.2571 59.3793 40.0921 55.3838 42.2147 53.5186C44.5559 51.4584 46.0308 52.7461 47.6696 54.5331C47.9974 54.8843 48.5826 54.6112 48.5202 54.1352C48.3329 52.7851 48.1066 51.435 47.9115 50.0928Z" fill="#DEA25D"/>
<path opacity="0.17" d="M40.6243 82.1029C41.1862 83.6247 42.2085 85.045 43.6756 85.7473C41.3579 88.2289 38.9153 90.5857 36.3478 92.8176C35.7001 92.1074 35.5362 91.1007 35.4036 90.1565C35.1304 88.2523 34.8495 86.3248 34.9822 84.4051C35.0134 83.9837 35.0836 83.5154 35.4192 83.2657C35.6299 83.1096 35.903 83.0706 36.1293 82.9301C36.5741 82.6492 36.6912 82.0717 36.8004 81.5645C37.1438 79.9491 37.9398 76.8978 39.5396 76.3203C40 78.2088 39.9298 80.2222 40.6243 82.1029Z" fill="#55311C"/>
<path opacity="0.9" d="M101.697 90.5623C99.8786 92.685 99.2152 95.5646 98.1539 98.1555C97.514 99.7162 96.4371 101.097 95.0792 102.096C96.5385 102.448 98.029 102.814 99.3011 103.61C100.152 104.141 100.87 104.843 101.58 105.546C104.069 107.98 106.512 111.242 108.712 113.943C112.255 118.297 113.847 120.061 116.548 124.985C116.134 122.012 116.306 121.637 115.986 118.656C115.595 114.98 115.666 108.519 115.658 108.823C116.696 110.212 118.584 110.899 120.278 110.517C119.31 109.096 118.342 107.668 117.663 106.084C116.985 104.508 116.867 102.744 117.148 101.051C117.445 102.299 118.436 103.275 119.513 103.977C119.942 104.258 120.41 104.516 120.918 104.609C121.643 104.742 122.377 104.531 123.079 104.32C125.14 103.712 127.247 102.822 128.48 101.058C125.717 99.3807 123.626 96.6259 122.744 93.52C122.33 92.0529 122.205 90.3751 123.017 89.0796C124.273 87.0662 127.426 86.4966 128.011 84.1944C124.562 84.1398 120.356 84.5846 117.546 82.579C116.469 79.2546 117.234 75.3917 119.505 72.7306C113.293 74.5333 106.886 75.6883 100.433 76.1643C99.3323 76.2423 98.0759 76.2501 97.3033 75.462C95.9845 74.1041 97.1862 71.9034 98.2085 70.3036C101.127 65.7384 102.267 60.065 101.346 54.7194C98.5441 55.3593 95.4694 55.7105 92.8941 54.4307C90.3189 53.1508 88.6723 49.6859 90.2252 47.2668C83.4749 46.3771 79.5574 56.3192 72.7603 56.6235C72.7291 55.8744 72.7057 55.1174 72.6744 54.3682C70.1304 57.3571 68.7101 61.2746 68.7491 65.1999C68.7803 68.6414 62.6387 69.094 61.4369 72.317C61.0155 73.4564 61.1014 74.7206 61.2497 75.9302C61.5072 78.0216 61.9598 80.1755 63.2708 81.8221C64.6209 83.5155 66.6889 84.4364 68.3667 85.8098C70.0446 87.1833 70.2553 88.4709 71.4648 91.8344C71.9877 93.2781 72.7915 94.4408 73.4392 95.8377C73.9309 96.8834 74.4615 97.976 75.4292 98.6081C75.9911 98.9749 76.6544 99.1465 77.3177 99.2636C79.9632 99.7474 82.7414 99.4977 85.2542 98.5535C85.6678 98.3974 86.0814 98.2179 86.5184 98.1945C88.7815 98.0462 90.6779 96.5947 92.5976 95.3851C93.6511 94.7218 94.6812 93.9882 95.7972 93.4341C97.7169 92.4743 100.058 91.967 101.697 90.5623Z" fill="#DEA25D"/>
<path d="M51.4778 147.663L53.4756 150.854L57.1356 140.132C57.1356 140.132 60.4288 144.666 61.5214 144.299C62.6139 143.932 69.7154 135.957 69.7154 135.957C69.7154 135.957 74.6864 137.424 76.2238 139.172C77.7611 140.928 76.9573 141.583 76.9573 141.583C76.9573 141.583 75.3497 133.319 76.3018 132.515C77.2539 131.712 84.7065 127.739 85.5181 127.857C86.3297 127.981 88.8893 142.169 88.8893 142.169C88.8893 142.169 87.0633 147.725 86.8447 150.433C86.6262 153.141 86.9384 150.839 86.9384 150.839L91.1603 146.554C91.1603 146.554 86.5482 157.823 86.2595 162.646L90.6452 157.667C90.6452 157.667 84.2695 178.3 85.5181 188.391L88.5928 185.464C88.5928 185.464 89.9819 201.337 91.5192 203.608C91.5192 203.608 84.0354 206.636 77.7767 206.886C71.518 207.136 68.2951 204.529 66.3753 203.741C64.4556 202.953 55.013 198.637 55.013 198.637C55.013 198.637 57.3697 198.185 57.3541 197.904C57.3385 197.623 51.431 193.151 49.8156 186.931L52.5938 186.783C52.5938 186.783 47.7632 186.05 45.8669 180.415C45.8669 180.415 44.6261 170.099 45.8669 166.15C45.8669 166.15 47.8413 169.591 48.2783 168.858C48.2783 168.858 47.4042 164.394 49.0821 157.519C50.7755 150.659 51.4778 147.663 51.4778 147.663Z" fill="#FEF7F3"/>
<path d="M132.884 171.972C132.213 173.151 130.855 173.908 129.498 173.845C129.279 173.838 129.037 173.814 128.866 173.947C128.655 174.111 128.655 174.415 128.67 174.673C129.037 180.814 130.879 186.495 130.879 192.653C130.879 192.699 130.934 192.629 130.934 192.676C129.958 192.223 128.881 192.098 128.257 191.217C127.617 193.917 127.344 195.914 125.611 198.076C125.892 201.752 127.078 205.349 129.045 208.463C129.701 205.942 130.536 203.461 131.542 201.057C134.359 202.899 137.863 203.656 141.188 203.141C144.512 202.626 147.626 200.839 149.749 198.232C146.947 198.396 144.099 197.811 141.594 196.539C146.44 195.891 150.927 192.902 153.393 188.68C150.498 189.375 147.673 187.728 146.377 185.044C147.899 184.029 149.421 183.015 150.943 182.008C151.231 181.821 151.551 181.555 151.512 181.212C151.481 180.97 151.278 180.799 151.083 180.65C148.992 179.011 146.9 177.373 144.801 175.734C147.556 173.463 149.483 170.217 150.162 166.713C150.763 163.591 150.396 160.376 150.029 157.223C149.951 156.529 149.788 155.717 149.148 155.436C146.846 158.433 144.036 161.047 140.883 163.131C141.398 156.732 139.167 150.161 134.859 145.4C134.235 148.756 132.744 151.956 130.559 154.585C130.356 156.334 129.685 157.965 130.481 159.533C131.097 160.751 132.252 161.656 132.752 162.92C133.08 163.747 133.111 164.66 133.111 165.55C133.126 167.712 133.954 170.092 132.884 171.972Z" fill="#FEF7F3"/>
<path d="M132.87 163.926C131.707 162.171 130.521 160.344 130.17 158.261C130.006 157.285 130.037 156.287 129.975 155.295C129.803 152.424 128.913 149.645 128.024 146.906C127.001 150.028 125.854 152.978 125.199 156.193C124.746 155.233 124.013 154.445 123.427 153.563C121.999 151.386 121.547 148.631 120.009 146.532C120.142 148.904 120.04 151.284 119.713 153.633C118.035 152.533 116.279 151.542 114.476 150.66C114.999 154.07 115.335 157.231 115.865 160.633C115.943 161.117 116.014 161.617 115.865 162.077C115.631 162.803 114.921 163.248 114.445 163.848C113.751 164.722 113.579 165.916 113.735 167.017C113.891 168.117 114.336 169.155 114.781 170.177C115.725 172.355 116.747 174.625 118.62 176.085C120.072 175.671 121.711 175.406 123.217 175.289C125.815 175.086 128.375 174.415 130.732 173.314C131.317 173.041 131.918 172.721 132.269 172.183C132.581 171.699 132.659 171.106 132.714 170.536C132.909 168.539 133.97 165.596 132.87 163.926Z" fill="#FEF7F3"/>
<path d="M43.1201 154.819C43.7679 153.477 44.4078 152.135 45.0555 150.8C44.8214 152.189 46.1558 153.391 46.2495 154.796C46.2963 155.498 46.5226 156.364 46.2573 157.012C44.1112 162.272 41.4657 167.344 39.3197 172.604C39.2573 172.76 39.187 172.932 39.0388 173.026C38.7578 173.213 38.391 173.026 38.1257 172.83C36.0421 171.356 34.2394 169.334 33.5995 166.861C32.9596 164.387 33.7009 161.476 35.808 160.032C36.3308 159.673 36.9239 159.408 37.4156 159.002C39.5304 157.262 38.7344 153.337 40.9117 151.885C41.5594 152.9 42.4724 153.766 43.1201 154.819Z" fill="#FEF7F3"/>
<path d="M116.084 123.985C113.845 125.023 111.847 126.225 109.607 127.263C109.139 125.304 108.702 123.127 108.242 121.168C106.01 122.448 104.035 124.173 102.467 126.21C101 126.506 99.4856 126.615 97.9873 126.537C97.0118 126.483 95.8335 126.561 95.0219 127.099C94.2805 129.113 93.7498 131.204 93.4455 133.319C92.0564 132.343 90.6439 131.399 89.2158 130.486C88.451 129.994 87.6785 129.511 86.82 129.222C85.189 128.676 83.3864 128.886 81.7788 129.472C80.1634 130.057 78.7041 130.993 77.2682 131.922C76.9248 132.148 76.558 132.39 76.3863 132.757C76.2303 133.1 76.2537 133.491 76.2849 133.865C76.4722 136.284 76.597 138.579 76.7843 140.998C76.043 139.624 75.2782 138.227 74.131 137.158C72.9917 136.097 71.2904 135.278 69.7609 135.621C67.3417 138.469 64.7899 141.201 62.1132 143.815C61.9415 143.987 61.7464 144.166 61.5045 144.182C61.2859 144.205 61.083 144.088 60.8958 143.979C59.4599 143.136 58.1254 142.114 56.9314 140.943C56.4866 144.197 55.199 147.592 53.966 150.635C51.3673 147.413 49.0418 143.971 47.0362 140.35C44.6794 140.678 42.4085 141.599 40.4888 142.996C39.9269 137.884 42.4163 132.991 44.8355 128.449C43.3996 128.402 41.9481 128.855 40.7853 129.706C40.4341 129.963 40.0908 130.268 39.6616 130.377C39.2324 130.478 38.6939 130.283 38.6002 129.854C38.5534 129.635 38.6315 129.417 38.7095 129.214C39.1699 128.036 39.8957 126.951 40.8087 126.077C41.0272 125.866 41.2535 125.663 41.3706 125.39C41.6047 124.836 41.2692 124.173 40.7619 123.837C40.2547 123.502 39.5913 122.955 38.9904 122.987C37.9369 123.033 36.9927 122.3 36.3527 121.465C35.7128 120.622 35.2602 119.647 34.5579 118.858C33.5044 117.664 31.9514 116.954 31.0774 115.628C30.3828 114.574 30.2189 113.263 30.0785 112.007C29.7117 108.651 29.3995 105.209 30.2892 101.955C31.491 97.5695 34.7217 94.0422 38.0774 90.9753C41.6047 87.7523 45.3037 85.0756 49.3071 82.4692C50.4386 80.1748 51.5858 77.8649 52.2179 75.3911C52.85 72.9173 52.9437 70.225 51.9994 67.8526C51.4843 66.5494 50.6493 65.2851 50.7586 63.8883C50.821 63.1157 51.1722 62.3977 51.5546 61.7188C55.1053 55.4835 61.9259 51.0666 63.5959 44.09C64.6806 39.5716 63.2759 34.6395 64.7352 30.2304C68.3328 28.4121 72.2269 27.1947 76.2146 26.6328C76.956 26.5314 77.9315 26.586 78.15 27.304C78.3217 27.8736 77.8456 28.4277 77.4086 28.8335C73.218 32.6886 68.4576 36.4734 66.7642 41.9127C65.5702 45.7444 66.0853 49.8726 66.733 53.8291C67.209 56.74 67.7475 59.6352 68.3484 62.5226C68.5123 63.3264 68.684 64.1692 68.4186 64.9496C68.1767 65.6519 67.6148 66.1904 67.0764 66.7054C65.1176 68.5471 63.1589 70.381 61.2001 72.2227C61.2157 75.8281 61.6059 79.7066 63.9392 82.4457C65.4922 84.2718 67.8255 85.3019 69.3395 87.1514C71.8445 90.2105 71.6806 94.924 74.451 97.749C74.927 98.2407 74.9894 98.6699 75.6528 98.8416C80.0853 99.9653 84.7832 98.6231 88.9271 96.6955C93.0709 94.768 96.9572 92.2395 101.288 90.7802C99.5169 92.1849 99.072 94.4402 98.518 96.6331C97.9639 98.826 97.2147 101.198 95.3106 102.416C97.7454 102.79 100.071 104.023 101.78 106.013C106.642 111.632 112.323 117.586 116.084 123.985Z" fill="#FEF7F3"/>
<path d="M72.6236 63.866C72.6704 64.8493 72.9279 65.9887 73.8254 66.4023C74.5511 66.7378 75.433 66.4257 76.0495 65.9106C76.666 65.3956 77.0874 64.6932 77.6102 64.0845C79.0851 62.3677 81.2624 61.4234 83.4475 60.8069C85.6247 60.1904 87.8879 59.8549 90.0105 59.0667C90.8455 58.7545 91.7898 58.1927 91.7976 57.2952C91.8054 56.1871 90.4553 55.6954 89.4096 55.3287C88.5122 55.0165 87.6615 54.5795 86.889 54.041C86.4051 53.7055 85.9213 53.3153 85.3438 53.2294C84.0016 53.0265 83.0495 54.4156 82.0584 55.3443C80.2479 57.0455 77.6961 57.3811 75.433 58.138C72.569 59.0901 72.4831 60.9708 72.6236 63.866Z" fill="#C8AA98"/>
<path d="M45.7102 55.4619C46.7559 56.0706 47.7938 56.7808 48.4493 57.7953C49.1048 58.8098 49.2999 60.2145 48.6366 61.229C47.9733 62.2435 46.3267 62.5556 45.5229 61.6582C44.961 61.0261 44.8596 59.9647 44.087 59.6136C43.291 59.2468 42.1907 59.8789 41.5429 59.2858C41.2308 58.9971 41.1762 58.5366 41.1371 58.123C41.0747 57.4441 41.0123 56.773 40.9498 56.0941C40.8874 55.4385 40.8328 54.7518 41.0981 54.1509C41.9956 52.1063 44.5786 54.7986 45.7102 55.4619Z" fill="#C8AA98"/>
<path d="M42.6743 71.9191C41.8393 71.8332 41.0199 72.317 40.4892 72.9726C39.2094 74.5645 39.3967 76.8433 39.7713 78.8489C39.8805 79.4419 40.0054 80.0272 40.1381 80.6203C40.2863 81.2758 40.458 81.947 40.8482 82.4932C41.2384 83.0395 41.8939 83.4531 42.5572 83.3595C43.3376 83.2502 43.8683 82.5322 44.2273 81.8299C45.2808 79.7463 46.5372 72.3327 42.6743 71.9191Z" fill="#FEF7F3"/>
<path d="M72.7811 83.7198C72.9137 84.6563 73.1088 85.5849 73.499 86.4433C74.4511 88.5191 76.5893 90.0019 78.8681 90.1658C79.1646 90.1892 79.4611 90.1892 79.7343 90.0799C80.0308 89.9629 80.2649 89.7287 80.4756 89.4946C82.4422 87.2705 82.9651 84.149 83.2304 81.1992C83.4957 78.2883 83.5191 75.12 81.8179 72.7476C80.9595 71.5458 79.6406 70.6172 78.1657 70.4923C72.5314 70.0085 72.2894 80.1456 72.7811 83.7198Z" fill="#FEF7F3"/>
<path d="M31.2952 101.8C31.0455 102.948 31.1313 104.212 31.7869 105.187C32.3097 105.96 33.1291 106.467 33.9563 106.904C34.8381 107.365 35.7668 107.77 36.7501 107.926C38.2874 108.176 39.9496 107.77 41.1046 106.717C41.7679 106.108 42.244 105.328 42.7044 104.555C43.5628 103.119 44.4212 101.683 45.2719 100.255C43.4692 100.076 42.8293 97.6098 41.1748 96.8606C40.3242 96.4782 39.3488 96.6109 38.4279 96.7435C37.4446 96.8918 36.4613 97.0401 35.4781 97.1884C32.9496 97.563 31.8259 99.3812 31.2952 101.8Z" fill="#4C434A"/>
<path d="M50.4316 152.003C50.4316 152.003 53.5454 156.95 53.9902 156.513C54.4272 156.076 57.9389 145.213 57.9389 145.213L62.551 147.664L71.7127 139.618L78.1352 147.664L79.1263 133.032L86.8364 129.973L83.7305 125.462L53.1162 137.207L50.4316 152.003Z" fill="#C8AA98"/>
<path d="M72.8986 123.167C75.9421 124.548 83.5274 122.488 86.5709 121.567C86.9376 121.458 87.2264 121.895 86.9689 122.192L84.3546 125.204L86.7113 124.666C86.9455 124.611 87.1718 124.548 87.4059 124.463C88.0302 124.244 89.2476 123.846 89.0837 124.041L85.7749 128.193L76.3869 132.758L76.7771 140.999C76.7771 140.999 73.7414 134.943 69.7614 135.63L61.505 144.191L56.7056 139.977L53.8182 151.245L47.9264 142.177L47.3411 138.517L40.4269 143.644C40.4269 143.644 39.9899 133.929 44.836 128.474C44.836 128.474 42.2296 127.1 39.6621 130.401L42.4013 123.729C42.4013 123.729 47.7781 125.867 52.8974 124.587C58.0167 123.308 60.7402 121.357 64.7202 121.162C68.6923 120.959 72.8986 123.167 72.8986 123.167Z" fill="#E6D1C7"/>
<path opacity="0.83" d="M87.4217 133.507L94.0082 138.368L96.0527 128.715L103.006 129.246L106.884 126.811L107.985 133.179L115.437 127.256L118.887 132.594L121.446 129.246L124.42 132.414V129.246C124.42 129.246 120.713 124.556 119.254 120.56C119.254 120.56 117.825 125.711 118.177 127.178L116.093 123.986L109.616 127.264L108.25 121.169C108.25 121.169 103.615 124.868 102.475 126.21L95.1163 126.304L93.5477 132.742L86.415 128.575L87.4217 133.507Z" fill="#55311C"/>
<path opacity="0.4" d="M46.3359 140.999L38.2589 159.291L34.0215 160.048L32.25 166.447L40.2255 173.853C40.2255 173.853 46.3437 158.682 46.8353 154.164C47.327 149.645 50.8075 146.625 50.8075 146.625L47.9201 142.177L46.3359 140.999Z" fill="#4B2611"/>
<path d="M118.753 44.7157C118.628 41.758 120.166 38.7769 122.655 37.1772C123.256 36.787 123.935 36.4514 124.317 35.8349C124.544 35.4681 124.637 35.0311 124.786 34.6253C125.301 33.1816 126.479 32.0969 127.486 30.9341C129 29.1782 130.178 27.1649 131.341 25.1593C132.004 24.0199 132.675 22.8572 132.964 21.5695C133.198 20.5472 133.175 19.4859 133.237 18.4402C133.37 16.0834 134.423 14.9051 135.375 12.7434C136.039 11.2373 137.763 9.0522 138.684 7.69434C139.621 8.27962 139.941 9.47361 140.112 10.5661C140.448 12.7044 140.495 14.8739 140.542 17.0355C140.666 23.1537 140.744 29.2719 140.768 35.3979C140.776 36.2797 140.776 37.1694 140.502 38.0122C140.245 38.8238 139.753 39.5417 139.48 40.3455C139.215 41.1493 139.223 42.156 139.855 42.7179C141.923 44.5752 141.33 48.2274 140.214 50.7792C139.098 53.3311 137.397 55.5786 136.288 58.1304C134.689 61.8216 134.384 66.0591 132.254 69.4772C131.754 70.281 131.021 71.1004 130.069 71.1004C128.906 71.1004 128.149 69.922 127.618 68.8919C126.19 66.1137 124.723 63.1639 124.949 60.0502C125.082 58.1538 125.738 55.9219 124.372 54.5953C123.943 54.1739 123.358 53.9242 122.96 53.4715C121.844 52.1683 122.796 49.9208 121.734 48.5707C121.227 47.923 120.384 47.6655 119.705 47.1973C119.026 46.729 118.254 45.3712 118.753 44.7157Z" fill="#FBE6D8"/>
<path d="M29.3074 33.8453C28.7065 32.3391 28.4412 30.7159 28.3085 29.1005C27.731 22.0693 29.8146 14.8586 34.0521 9.21641C34.653 8.41262 35.6051 7.55419 36.5337 7.93658C37.1268 8.1785 37.4156 8.83402 37.6497 9.43492C39.5382 14.2655 41.4267 19.0882 43.3153 23.9188C44.9541 28.1095 46.6241 32.503 46.1715 36.9824C46.1324 37.3804 46.07 37.794 45.8827 38.1452C45.5862 38.707 45.0243 39.066 44.517 39.4484C44.0098 39.8308 43.5182 40.3302 43.4635 40.9623C43.4089 41.5945 44.08 42.2656 44.6497 41.9846C43.9708 43.163 43.1826 44.2868 42.3008 45.3247C41.9028 45.7929 41.4736 46.2533 40.9195 46.5187C37.3922 48.2277 35.8158 43.6703 34.4267 41.5867C32.7099 39.0114 30.4624 36.7561 29.3074 33.8453Z" fill="#FBE6D8"/>
<path d="M37.2292 16.8553C37.8223 18.853 37.8847 20.9601 37.8535 23.0437C37.8144 25.4317 37.9159 27.8274 38.1656 30.1998C38.3763 32.2444 38.7197 34.3358 39.8122 36.0761C40.9048 37.8163 42.9259 39.1118 44.9549 38.784C46.9839 38.4562 48.5681 36.0527 47.6316 34.2266C47.3429 33.6647 46.8747 33.2199 46.5625 32.6736C46.0007 31.6903 46.0006 30.4963 45.7587 29.3882C45.3139 27.3592 44.0497 25.6268 43.1367 23.7617C40.8892 19.1808 40.6941 13.6791 37.791 9.48066C37.3696 8.87197 36.8546 8.26327 36.1444 8.04477C31.5168 6.61667 36.2771 13.6557 37.2292 16.8553Z" fill="#C8AA98"/>
<path d="M139.115 8.36523C138.428 10.3084 138.179 12.6027 138.335 14.6551C138.709 19.4935 137.82 24.6206 134.854 28.4601C133.848 29.7633 132.63 30.8949 131.741 32.2761C130.734 33.8525 130.203 35.6786 129.321 37.333C128.268 39.3152 126.715 41.0242 124.842 42.265C126.2 43.5761 126.996 45.4568 126.98 47.3453C126.98 47.9306 126.848 48.6017 126.348 48.9139C125.974 49.148 125.49 49.109 125.053 49.0387C122.665 48.6563 120.277 47.4468 119.098 45.3319C117.92 43.2171 118.349 40.158 120.417 38.8938C121.611 38.168 123.289 37.9885 123.929 36.7399C124.257 36.0922 124.202 35.3196 124.397 34.6173C124.842 33.0175 126.457 32.1045 127.683 30.9807C130.773 28.1635 132.045 25.3307 132.529 21.1791C132.849 18.4322 134.776 11.0498 138.428 9.02076C138.397 9.80894 137.195 9.44997 136.954 10.2069" fill="#C8AA98"/>
<path d="M119.589 44.1929C120.307 42.9677 121.728 42.1795 123.156 42.2341C124.576 42.2809 125.942 43.1628 126.574 44.4426C127.003 45.3166 127.526 46.5964 128.462 46.3233C128.86 46.2063 129.149 45.8083 129.563 45.7536C130.085 45.6912 130.499 46.2453 130.538 46.7681C130.577 47.291 130.366 47.7982 130.257 48.3133C129.765 50.6935 131.467 52.9332 131.888 55.3289C132.294 57.6545 131.467 60.0346 130.343 62.1104C130.007 62.7347 129.641 63.3591 129.516 64.0536C129.414 64.5999 129.477 65.1617 129.43 65.708C129.336 66.7849 128.821 67.8306 128.025 68.5564C127.83 68.7359 127.573 68.9076 127.315 68.8295C127.136 68.7749 127.018 68.611 126.917 68.4549C124.74 65.1305 124.201 60.7838 125.497 57.0302C124.147 59.3401 122.172 61.0725 119.987 62.6177C119.769 60.019 119.761 56.796 119.542 54.1896C118.661 56.6244 117.287 58.8875 115.539 60.7994C113.877 59.6991 112.995 57.5374 113.424 55.5943C113.83 53.7447 115.219 52.3088 116.226 50.7091C117.389 48.8283 118.473 46.1048 119.589 44.1929Z" fill="#F5B2D3"/>
<path d="M36.7207 43.0685C37.704 43.2168 38.6326 42.4052 38.9682 41.4688C39.3038 40.5323 39.1945 39.5022 39.0696 38.5111C38.9448 37.52 38.8277 36.4899 39.1555 35.5457C39.0384 35.8812 41.8478 39.6115 42.3316 39.8768C43.2915 40.3996 44.4699 40.1343 45.5624 40.1031C46.3662 40.0797 47.2559 40.1577 47.8646 39.6349C48.4889 39.0964 48.5279 38.1521 48.5201 37.3327C48.5045 36.2948 48.4967 35.2569 48.4811 34.219C47.8958 33.7898 46.9437 33.821 46.6316 33.1655C46.5223 32.9392 46.5223 32.6817 46.5067 32.4397C46.413 30.6761 45.6093 28.967 44.306 27.7653C43.9861 27.4765 43.6037 27.1956 43.1745 27.2346C42.5111 27.2892 42.1287 28.054 42.1522 28.7173C42.1756 29.3807 42.4877 30.005 42.6048 30.6527C42.7921 31.7062 42.4877 32.7987 42.6906 33.8444C42.8857 34.8199 43.51 35.6627 44.2748 36.2948C44.3841 36.3807 44.5011 36.4821 44.5167 36.6148C44.5479 36.8177 44.3372 36.9816 44.1343 36.9972C43.9314 37.0128 43.7363 36.9347 43.5412 36.8801C42.0897 36.5133 41.1533 37.6371 41.6683 38.8467C42.1287 39.9314 43.9314 41.1176 44.8367 41.8355C45.0864 42.0306 45.3439 42.2413 45.4376 42.5457C45.578 43.0139 45.2269 43.5056 44.7977 43.7631C44.3684 44.0206 43.8768 44.1143 43.4476 44.3562C42.3707 44.9493 41.9024 46.2213 41.5201 47.3919C41.0128 48.937 40.646 50.7241 39.8969 52.1444C38.4219 51.2782 37.306 43.1622 36.7207 43.0685Z" fill="#F5B2D3"/>
<path opacity="0.83" d="M120.901 107.693C120.347 107.708 119.77 107.669 119.278 107.412C118.654 107.084 118.256 106.452 117.92 105.828C117.577 105.188 117.312 104.275 117.889 103.83C118.474 103.377 119.278 103.869 119.934 104.204C121.393 104.938 123.172 104.805 124.702 104.22C125.193 104.033 127.894 102.136 128.151 102.261C129.181 102.761 127.496 104.431 127.066 104.876C125.467 106.538 123.227 107.615 120.901 107.693Z" fill="#55311C"/>
<path opacity="0.83" d="M121.101 112.554C121.226 112.546 121.367 112.53 121.437 112.437C121.531 112.312 121.468 112.14 121.406 112C121.179 111.5 120.906 110.962 120.407 110.743C119.978 110.556 119.486 110.65 119.026 110.65C117.722 110.657 116.786 109.83 115.631 109.495C116.552 111.43 119.01 112.624 121.101 112.554Z" fill="#55311C"/>
<path d="M134.259 21.7097C134.899 20.7498 135.344 19.6183 135.289 18.4633C135.243 17.4176 134.806 16.4265 134.72 15.3886C134.665 14.7097 134.759 14.0307 134.845 13.3596C134.884 13.0318 134.907 12.6494 134.673 12.4153C134.322 12.0642 133.729 12.3217 133.362 12.6494C131.817 14.0229 131.426 16.2626 131.208 18.3228C130.989 20.383 130.779 22.5993 129.429 24.1679C128.812 24.8858 128.008 25.4087 127.298 26.033C126.596 26.6573 125.956 27.4611 125.878 28.4054C126.377 28.6317 126.939 28.2961 127.384 27.9761C129.873 26.1735 132.527 24.3084 134.259 21.7097Z" fill="#A77A46"/>
<path d="M121.308 44.1698C120.855 49.7652 119.591 55.3839 116.743 60.2223C116.532 60.5813 116.282 60.9559 115.892 61.0729C115.525 61.19 115.119 61.0339 114.807 60.8076C113.699 59.9804 113.605 58.3494 112.77 57.2412C112.49 56.8745 112.123 56.5545 111.943 56.1331C111.756 55.7039 111.85 55.103 112.279 54.9313C112.474 54.8533 112.7 54.8767 112.895 54.8064C113.129 54.7206 113.293 54.5177 113.434 54.3148C114.636 52.6448 115.463 50.7094 116.735 49.0862C117.507 48.103 118.475 47.1743 118.717 45.9413C118.85 45.2624 118.74 44.5366 118.982 43.8889C119.263 43.1163 119.973 42.5857 120.645 42.1096C121.23 41.696 122.002 41.1732 122.744 41.4463C122.72 42.1096 122.073 41.8365 121.737 42.1643C121.316 42.5779 121.347 43.6392 121.308 44.1698Z" fill="#B8869E"/>
<path d="M42.3636 26.8145C42.0827 27.5793 41.5364 28.3285 41.7237 29.1167C41.8017 29.4444 41.9968 29.7332 42.1295 30.0531C42.3402 30.5526 42.3636 31.1066 42.3948 31.6451C42.4338 32.3943 42.4651 33.1434 42.5041 33.8926C42.5275 34.3452 42.5431 34.8213 42.3402 35.2193C42.0983 35.7031 41.5676 36.0074 41.3335 36.4991C41.037 37.1078 41.2633 37.8335 41.5832 38.4266C42.1997 39.5816 43.183 40.5415 44.3458 41.1345C44.5721 41.0877 44.416 40.7365 44.5019 40.5258C44.5565 40.3854 44.7204 40.3229 44.8686 40.2917C45.532 40.1435 46.2187 40.1981 46.882 40.1044C47.5531 40.0108 48.2555 39.7142 48.5598 39.1134C48.7393 38.7622 48.7549 38.3564 48.7549 37.9662C48.7549 36.8346 48.6613 35.7109 48.4584 34.5949C48.4194 34.392 48.3726 34.1735 48.2009 34.0643C48.0292 33.955 47.8107 33.9862 47.6078 33.9628C47.1083 33.9004 46.7416 33.4322 46.6011 32.9405C46.4606 32.4567 46.4996 31.9338 46.4606 31.4344C46.3279 29.7332 45.3837 28.2192 44.4706 26.7755C43.8932 25.8625 43.3157 24.5202 42.5275 23.8179C42.1607 24.7153 42.7304 25.8234 42.3636 26.8145Z" fill="#B8869E"/>
<path d="M116.866 52.2144C115.805 53.4239 114.416 54.337 112.878 54.8208C112.465 54.9535 112.035 55.0549 111.661 55.2735C111.286 55.492 110.966 55.8587 110.935 56.2957C110.912 56.5767 111.013 56.842 111.099 57.1152C111.45 58.1921 111.583 59.3314 112.004 60.385C112.426 61.4307 113.229 62.4296 114.338 62.6481C114.829 62.7495 115.399 62.6559 115.734 62.2813C116.312 61.6492 115.656 61.3214 115.524 60.7751C115.329 59.987 115.703 58.7071 115.805 57.9033C116.07 55.9914 116.421 54.0951 116.866 52.2144Z" fill="#946443"/>
<path opacity="0.83" d="M39.6139 53.1507C40.7688 54.4539 40.8937 56.3815 40.6283 58.1061C40.363 59.8308 39.7777 61.5086 39.7387 63.2488C39.6763 65.9958 40.9327 69.0002 39.4812 71.3336C39.2159 71.7628 38.8413 72.153 38.3496 72.2857C37.9438 72.3949 37.499 72.3091 37.101 72.1842C34.7677 71.4194 33.2147 69.25 31.9739 67.1273C31.0531 65.551 30.1946 63.9044 29.7888 62.1173C29.383 60.3302 29.4689 58.387 30.3429 56.7795C30.5848 56.3346 30.8892 55.9054 30.936 55.3982C30.9984 54.6568 30.4678 54.0091 29.9761 53.455C28.868 52.2064 27.7599 50.9578 26.6517 49.7092C26.4488 49.4829 26.2303 49.2176 26.2459 48.9132C26.2615 48.523 26.6439 48.2499 27.0107 48.125C28.1344 47.7348 29.4143 48.1562 30.3507 48.9054C31.2872 49.6546 31.9349 50.6847 32.567 51.6914C32.0754 51.1607 31.5759 50.6145 31.3574 49.9277C31.1311 49.241 31.2716 48.3904 31.8647 47.9846C33.1211 47.1261 34.2292 49.9433 35.1813 50.5676C36.6172 51.5119 38.4355 51.824 39.6139 53.1507Z" fill="#55311C"/>
<path d="M45.4068 42.172C44.4704 42.6948 43.253 42.6636 42.3477 42.094C42.457 42.6792 42.6365 43.2489 42.894 43.7796C42.2229 43.9357 41.5049 43.8732 40.8806 43.5923C40.4982 45.3638 40.1861 47.1586 39.9598 48.9535C39.8271 49.9992 39.7178 51.0761 39.9988 52.0984C40.108 52.5042 40.2407 53.0193 39.9129 53.269C39.7569 53.3861 39.5149 53.4173 39.4291 53.5968C39.3589 53.7451 39.4291 53.9167 39.5149 54.065C39.7569 54.502 40.069 54.9078 40.4358 55.259C40.6075 55.4307 40.8494 55.5946 41.0757 55.5009C41.263 55.4229 41.341 55.2122 41.3957 55.0171C41.5283 54.5567 41.6688 54.104 41.8015 53.6436C41.8405 53.5031 41.8873 53.3549 42.0122 53.2768C42.1604 53.1754 42.3633 53.2222 42.5506 53.1988C42.9174 53.1598 43.1905 52.832 43.3076 52.4808C43.4247 52.1297 43.409 51.7551 43.4247 51.3883C43.5105 49.2422 44.5484 47.2523 45.7736 45.4886C46.0858 45.036 46.4213 44.5834 46.6164 44.0683C46.8115 43.5533 46.8505 42.9524 46.5774 42.4685C46.2496 41.8754 45.5473 41.6023 44.8918 41.4384C44.7123 41.3916 44.5016 41.3604 44.3533 41.4696C44.1972 41.5867 44.1816 41.8286 44.2675 42.0003C44.3533 42.1798 44.5094 42.3047 44.6577 42.4295" fill="#946443"/>
<path d="M44.9043 41.6325C45.0838 41.7808 45.2711 41.9368 45.3492 42.1554C45.4194 42.3348 45.4038 42.5377 45.3648 42.7328C45.1228 44.1609 44.0849 45.2925 43.3124 46.5099C42.6724 47.5166 42.1886 48.6169 41.8765 49.7641C41.6892 50.4742 41.5643 51.2078 41.2756 51.8789C40.9868 52.5578 40.5108 53.19 39.8241 53.4631C38.6925 52.3315 38.7393 50.521 38.2399 49.0071C38.0136 48.3282 37.678 47.7039 37.4205 47.0405C37.0225 46.026 36.8274 44.9491 36.6323 43.8722C36.5855 43.5991 36.5308 43.3025 36.6557 43.0528C36.9913 42.3739 38.0838 42.6938 38.7081 42.2568C39.0359 42.0227 39.1763 41.6013 39.1763 41.1955C39.1763 40.7975 39.0593 40.4073 38.9656 40.0171C38.6769 38.8699 38.5676 37.676 38.6379 36.4976C38.6613 36.123 38.6223 35.3114 39.1451 35.4363C39.4807 35.5143 39.9489 36.4352 40.144 36.6927C41.5409 38.5032 43.1407 40.1732 44.9043 41.6325Z" fill="#946443"/>
<path d="M44.4199 37.9335C44.8804 38.2769 45.4032 38.5188 45.9651 38.6593C45.9651 36.9034 46.2226 35.1554 46.7065 33.4697C47.3698 33.9536 48.2906 33.9302 48.9696 34.3906C49.6251 34.8354 49.9216 35.6626 49.9372 36.4508C49.945 37.239 49.7031 38.0037 49.469 38.7607C49.1959 39.6347 48.9227 40.5244 48.3921 41.2657C47.8614 42.0149 47.0342 42.6002 46.1212 42.6002C43.663 42.569 44.1546 39.4709 44.4199 37.9335Z" fill="#946443"/>
<path d="M35.3291 93.7464C35.3291 93.7464 43.5933 85.6227 49.4462 82.8445C49.4462 82.8445 51.2021 77.5691 52.7394 73.956C53.4574 72.2703 53.473 70.3818 52.8018 68.6728L51.4206 65.1532C50.8275 63.6471 51.0694 61.9303 52.0605 60.6504L63.5633 45.6749C63.5633 45.6749 65.8576 30.3248 64.6715 29.6927L79.3582 26.8989C79.3582 26.8989 66.3415 36.2323 66.2712 45.6749C66.2166 52.4018 67.7306 59.1989 68.5968 62.5546C68.9479 63.8968 68.5109 65.3171 67.4886 66.2458L61.8231 71.3729C61.3236 71.8255 61.0817 72.4888 61.1754 73.1522L62.0494 79.3562C62.2601 80.8389 63.0795 82.1578 64.3125 82.9928C66.4039 84.4131 69.541 86.762 70.2122 88.4789C71.2345 91.1166 73.4273 98.7175 76.065 98.8657C78.6949 99.014 83.6035 99.6695 86.1632 98.4287C88.3092 97.383 98.5088 92.0608 101.724 90.3752C101.942 90.2581 102.169 90.5235 102.013 90.7186C101.014 92.0218 99.1721 94.6361 98.3215 97.2035C97.9157 98.4365 97.4007 99.6383 96.6515 100.7C96.1521 101.402 95.7307 101.839 95.4029 102.104C95.2 102.268 95.3014 102.588 95.5512 102.619C96.8544 102.799 99.2034 103.244 100.132 104.274C101.412 105.694 113.43 117.509 117.854 127.584C117.933 127.763 118.198 127.716 118.206 127.521C118.229 126.046 118.393 123.019 119.228 120.56C119.283 120.396 119.524 120.42 119.54 120.592C119.665 122.238 120.399 126.109 124.394 129.238" stroke="#3D2A46" stroke-width="1.56076" stroke-miterlimit="10"/>
<path d="M125.473 132.742C125.527 132.804 130.483 149.629 130.584 153.664" stroke="#3D2A46" stroke-width="2.34115" stroke-miterlimit="10"/>
<path d="M42.1207 122.612C46.1865 123.447 50.5488 124.446 54.6536 123.455C61.2713 121.356 67.0461 119.023 73.8276 122.464C74.4909 122.792 75.0528 123.12 75.7161 122.948C75.8332 122.917 75.958 122.987 75.9893 123.104C76.0205 123.221 75.9502 123.338 75.841 123.369C75.4664 123.486 75.0216 123.518 74.6314 123.408C69.434 121.091 64.4162 121.137 59.1252 123.245C57.0728 123.962 54.9814 124.86 52.7729 125.156C49.0739 125.539 45.3905 125.117 41.7227 124.649C40.2946 124.431 40.6926 122.285 42.1207 122.612Z" fill="#3D2A46"/>
<path d="M41.29 141.662L47.1819 138.361C47.2287 138.197 47.4629 138.22 47.4785 138.384L47.8374 142.169C47.8374 142.169 52.3481 148.467 53.3469 151.26C53.425 151.479 53.7371 151.463 53.7996 151.245L57.0538 140.054L60.464 143.839C60.9557 144.377 61.7985 144.385 62.2979 143.855L69.3916 136.262C69.852 135.762 70.5856 135.629 71.1943 135.926C72.7628 136.706 75.6503 138.361 76.5945 140.343L76.2355 133.554C76.1887 132.656 76.6804 131.821 77.4841 131.431L84.4295 128.067C85.1085 127.74 85.9045 127.787 86.5366 128.2C88.667 129.581 93.3961 132.672 93.5678 132.953L95.3237 126.366H102.495L108.348 121.146L109.371 127.389L115.98 123.885" stroke="#3D2A46" stroke-width="1.56076" stroke-miterlimit="10"/>
<path d="M52.2165 147.905C50.7416 153.016 49.4227 158.291 48.9857 163.598C48.7594 165.908 48.9233 168.124 49.532 170.262C48.7984 170.052 47.464 169.685 46.8787 169.248C45.8642 168.592 45.2009 167.445 45.0916 166.244C45.0916 166.228 45.0838 166.212 45.0994 166.267C45.1072 166.29 45.115 166.306 45.1228 166.329C45.4038 167.016 46.4183 167.024 46.7226 166.392C46.0827 169.919 45.9969 173.915 46.3792 177.52C46.5899 180.127 47.7215 182.132 49.61 183.794C50.6713 184.746 51.9043 185.542 53.2388 186.065C53.4495 186.112 53.7929 186.409 53.8319 186.729C53.9724 187.267 53.4339 187.837 52.9657 187.79C52.8174 187.79 51.9122 187.79 51.7483 187.79L49.7739 187.782L49.4696 187.727C50.0392 187.985 50.7884 187.306 50.445 186.635C50.4841 186.729 50.5699 186.877 50.6089 186.963C51.8107 189.312 53.1452 191.668 54.6825 193.807C55.5409 194.969 56.4852 196.195 57.6948 196.944L57.8196 197.022C57.8743 197.061 57.9367 197.108 57.9913 197.162C58.561 197.724 58.3347 198.731 57.6011 199.004C56.8676 199.238 55.9467 199.277 55.2756 198.902C54.9088 198.746 54.5733 198.583 54.2221 198.481L54.3704 198.083C59.9813 200.682 65.7873 203.663 71.8899 204.748C72.8966 204.849 72.7717 206.402 71.726 206.308C65.5532 204.357 60.0203 201.158 54.1831 198.465L54.3313 198.068C55.0025 198.255 55.8297 198.091 56.2589 197.826C56.4384 197.716 56.7895 197.568 57.0627 197.529C57.1719 197.513 57.0939 197.521 57.0314 197.545C56.7037 197.662 56.6413 198.114 56.9378 198.317C54.3625 196.717 52.5911 193.69 50.9601 191.083C50.2577 189.905 49.5554 188.625 48.9233 187.4C48.5097 186.619 49.3915 185.816 50.0704 186.12L49.7661 186.065C50.4216 186.05 52.0994 186.057 52.7315 186.042C52.7862 186.042 52.8954 186.042 52.9501 186.042C51.9902 186.065 51.8419 187.4 52.6457 187.688C49.7739 186.588 47.3079 184.512 45.7315 181.867C43.8742 177.988 44.3034 173.743 44.4517 169.662C44.6 168.288 44.6078 166.876 45.0838 165.549C45.1853 165.338 45.4116 165.128 45.6535 165.05C45.8798 164.94 46.4417 165.034 46.6368 165.307C46.7694 165.463 46.8241 165.58 46.8709 165.728C46.9567 166.064 46.9489 166.337 47.0582 166.649C47.2689 167.281 47.9088 167.835 48.5175 168.031L47.3859 169.131C46.9567 167.18 47.027 165.299 47.1752 163.458C47.7059 157.979 49.0794 152.665 50.726 147.429C51.0537 146.484 52.513 146.898 52.2165 147.905Z" fill="#3D2A46"/>
<path d="M86.5391 128.2L88.8881 142.317C88.8881 142.317 86.2426 148.076 86.5391 151.416C86.5391 151.416 88.7398 148.021 91.0809 146.414C91.0809 146.414 86.9215 157.097 86.5157 162.217L90.4956 158.12C90.4956 158.12 84.4945 177.137 85.6651 188.554C85.6651 188.554 86.5391 186.65 88.295 185.339C88.295 185.339 88.0765 200.408 92.7275 204.357" stroke="#3D2A46" stroke-width="2.34115" stroke-miterlimit="10" stroke-linecap="round"/>
<path d="M112.426 144.932L116.585 160.805C116.648 161.047 116.593 161.305 116.429 161.5C115.563 162.514 112.855 165.823 113.471 167.056C114.205 168.523 117.974 176.007 118.848 175.835C119.722 175.664 131.904 173.276 132.489 172.581C133.075 171.887 133.075 163.544 133.075 163.544L130.585 159.502" stroke="#3D2A46" stroke-width="2.34115" stroke-miterlimit="10" stroke-linecap="round"/>
<path d="M39.6256 53.1113C38.3613 50.216 37.3078 47.2272 36.4728 44.1759C36.4104 43.9574 36.3558 43.7311 36.387 43.5048C36.4572 43.0365 36.8942 42.7166 37.339 42.5683C37.7839 42.42 38.2677 42.3888 38.7047 42.2171C38.8764 42.1469 39.0559 42.0454 39.1339 41.8816C39.212 41.7255 39.1886 41.5382 39.1651 41.3587C38.931 39.4546 38.8998 37.5192 39.0715 35.6073C39.1027 35.2561 39.5709 35.1547 39.727 35.4746C40.96 37.9484 42.7159 40.1647 44.8619 41.905" stroke="#3D2A46" stroke-width="1.56076" stroke-miterlimit="10" stroke-linecap="round"/>
<path d="M44.4059 36.2405C43.9533 35.5772 43.1807 35.1714 42.7749 34.4768C41.8385 32.8614 43.329 30.6061 42.377 28.9985" stroke="#3D2A46" stroke-width="1.56076" stroke-miterlimit="10" stroke-linecap="round"/>
<path d="M47.6595 34.0395C46.8479 33.86 46.3485 33.025 46.169 32.2212C45.9895 31.4174 46.0285 30.5668 45.81 29.763C45.5993 28.9826 45.1545 28.2959 44.7565 27.5935C41.5023 21.928 40.6829 15.123 37.4911 9.41845C37.1087 8.73952 36.6171 8.01377 35.8601 7.84208C35.0954 7.6704 34.1823 8.50541 34.5881 9.17653" stroke="#3D2A46" stroke-width="1.56076" stroke-miterlimit="10" stroke-linecap="round"/>
<path d="M29.1434 34.3767C28.0118 30.0455 28.0352 25.4959 28.2459 21.0477C28.285 20.3532 29.3463 20.4078 29.3073 21.1102C28.8156 25.4881 28.4957 29.9753 29.3385 34.3298C29.3697 34.4469 29.1824 34.5015 29.1434 34.3767Z" fill="#3D2A46"/>
<path d="M125.022 28.5133C129.096 26.8355 132.623 23.7608 134.863 19.9057C135.238 19.258 136.244 19.812 135.885 20.4754C133.63 24.6192 129.986 27.9982 125.639 29.9414C124.679 30.3472 124.063 28.9269 125.022 28.5133Z" fill="#3D2A46"/>
<path d="M133.802 15.6773C135.238 12.7509 136.971 9.97273 138.984 7.40527C140.201 9.6996 140.279 12.4075 140.326 15.0062C140.459 22.0218 140.592 29.0375 140.724 36.0531C140.748 37.1612 140.475 38.2694 139.835 39.1746C139.203 40.0721 138.922 41.3831 139.359 42.2337C139.616 42.7254 140.022 43.1233 140.326 43.5838C141.388 45.1914 141.075 47.3374 140.42 49.1479C139.203 52.5426 136.986 55.5236 135.831 58.9417C134.583 62.6485 134.559 66.9016 131.812 69.8592C131.172 70.546 130.275 70.9752 129.346 70.8659C127.887 70.6942 127.481 69.4534 127.06 68.3531C126.303 66.3865 125.226 64.5214 124.789 62.4534C124.352 60.3854 124.711 57.9662 126.357 56.6552C124.336 58.5359 122.432 60.4634 120.575 62.5002C120.146 59.5738 119.904 56.624 119.849 53.6741C118.92 56.1791 117.555 58.5125 115.822 60.5415" stroke="#3D2A46" stroke-width="1.56076" stroke-miterlimit="10" stroke-linecap="round"/>
<path d="M121.736 42.2563C124.624 40.6331 126.59 43.9653 127.012 46.564" stroke="#3D2A46" stroke-width="1.56076" stroke-miterlimit="10" stroke-linecap="round"/>
<path d="M129.057 63.2264C130.797 62.5709 131.32 60.4092 131.554 58.5675C131.78 56.7882 131.952 54.8919 131.187 53.2687C130.93 52.7224 130.578 52.2308 130.36 51.6689C129.884 50.4125 130.173 49.0078 130.461 47.6968" stroke="#3D2A46" stroke-width="1.56076" stroke-miterlimit="10" stroke-linecap="round"/>
<path d="M122.98 41.0709C125.469 40.7432 128.029 41.3441 129.863 43.0921C130.034 43.2716 130.034 43.5526 129.855 43.7242C129.691 43.8881 129.433 43.8959 129.254 43.7477C127.685 42.4678 125.219 42.1167 123.3 42.6005C122.262 42.858 121.918 41.2738 122.98 41.0709Z" fill="#3D2A46"/>
<path d="M112.489 55.4222C115.345 52.2616 118.327 48.7967 118.818 44.5593C118.943 43.4589 118.896 42.3274 119.216 41.2661C119.973 38.6908 122.564 37.1925 124.936 35.9438" stroke="#3D2A46" stroke-width="1.56076" stroke-miterlimit="10" stroke-linecap="round"/>
<path d="M123.591 33.8915C126.806 32.6273 129.444 29.974 130.692 26.7588" stroke="#3D2A46" stroke-width="1.56076" stroke-miterlimit="10" stroke-linecap="round"/>
<path d="M108.1 30.4268C106.891 31.5739 105.704 32.7445 104.549 33.9463C103.231 35.3119 103.504 37.4892 104.994 38.6598C105.611 39.1436 106.149 39.7445 106.555 40.4C107.694 42.2339 108.108 44.4112 108.732 46.4714C109.396 48.6487 111.307 53.4636 112.478 55.4146" stroke="#3D2A46" stroke-width="1.56076" stroke-miterlimit="10" stroke-linecap="round"/>
<path d="M78.565 62.6794C79.9462 61.2981 82.0611 61.064 83.9886 60.7519C85.5728 60.4943 87.1492 60.1354 88.6865 59.6749C89.4201 59.4564 90.1771 59.1989 90.7545 58.6917C91.332 58.1844 91.6832 57.3494 91.4257 56.6236C91.1681 55.9057 90.419 55.5077 89.7322 55.1721C88.6631 54.6571 87.594 54.1342 86.5249 53.6192C86.1269 53.4241 85.7211 53.2368 85.2841 53.1978C84.0901 53.1041 83.177 54.1498 82.2562 54.9146C80.9061 56.0384 79.2205 56.6627 77.5349 57.1387C76.3487 57.4743 75.0845 57.7708 74.2182 58.637C73.2194 59.6281 72.9618 61.1264 72.7589 62.5233C72.6263 63.4052 72.5014 64.326 72.8057 65.1688C74.2104 69.1332 77.5037 63.7407 78.565 62.6794Z" stroke="#3D2A46" stroke-width="1.56076" stroke-miterlimit="10" stroke-linecap="round"/>
<path d="M47.7608 57.3495C46.7541 56.3428 45.443 55.6717 44.4207 54.6806C43.8355 54.111 43.1721 53.3774 42.3761 53.5569C41.627 53.7286 41.307 54.6104 41.1822 55.3752C41.0417 56.2258 40.9871 57.0998 41.0183 57.9582C41.0417 58.645 41.3148 59.5268 42.0016 59.5268C42.3605 59.5268 42.6571 59.2615 42.9848 59.121C43.773 58.7932 44.7095 59.2459 45.2011 59.9404C46.0908 61.1812 45.9347 63.3116 48.0027 62.0474C49.7898 60.9471 48.9236 58.5201 47.7608 57.3495Z" stroke="#3D2A46" stroke-width="1.56076" stroke-miterlimit="10" stroke-linecap="round"/>
<path d="M38.54 74.1753C39.0005 73.036 39.4609 71.9044 39.9213 70.7651C40.2881 69.852 40.6627 68.9078 40.6315 67.9245C40.6081 67.2846 40.413 66.6602 40.2725 66.0359C39.6872 63.4997 39.9447 60.784 40.9982 58.4038" stroke="#3D2A46" stroke-width="1.56076" stroke-miterlimit="10" stroke-linecap="round"/>
<path d="M43.1247 52.44C42.6955 50.3018 44.0534 48.2493 45.38 46.5091C47.4559 43.77 49.6097 41.101 51.8494 38.4868C53.3321 36.7543 54.8773 35.0219 56.8204 33.8279C59.3177 32.2905 62.4002 31.6818 64.5384 29.6685" stroke="#3D2A46" stroke-width="1.56076" stroke-miterlimit="10" stroke-linecap="round"/>
<path d="M122.272 90.4683C122.537 94.6901 124.972 98.7091 128.546 100.957C128.999 101.238 129.014 101.885 128.585 102.19C127.165 103.196 125.682 104.133 124.012 104.601C121.975 105.178 119.564 104.921 118.065 103.423" stroke="#3D2A46" stroke-width="1.56076" stroke-miterlimit="10" stroke-linecap="round"/>
<path d="M117.123 100.981C117.162 104.446 118.528 107.872 120.877 110.416C120.916 110.455 120.885 110.517 120.83 110.509C118.887 110.338 116.788 110.065 115.43 108.676" stroke="#3D2A46" stroke-width="1.56076" stroke-miterlimit="10" stroke-linecap="round"/>
<path d="M37.8675 108.082C38.5386 107.949 39.2098 107.817 39.8809 107.684C40.3335 107.598 40.7861 107.504 41.1841 107.263C41.6914 106.958 42.0269 106.443 42.3547 105.944C43.0883 104.812 43.8218 103.681 44.5554 102.549C44.9378 101.956 45.3357 101.191 44.9768 100.583C44.7583 100.216 44.3447 100.036 44.0013 99.7865C43.0024 99.053 42.6122 97.6171 41.4963 97.0786C40.9734 96.8211 40.3647 96.8133 39.7872 96.8055C38.9912 96.7977 38.1875 96.782 37.3915 96.7742C36.5955 96.7664 35.7527 96.7664 35.0737 97.1722C33.2789 98.2492 30.9455 102.346 31.8351 104.375C32.6545 106.279 35.9165 108.379 37.8675 108.082Z" stroke="#3D2A46" stroke-width="1.56076" stroke-miterlimit="10"/>
<path d="M79.8752 85.6245C81.7241 85.6245 83.223 82.8748 83.223 79.4829C83.223 76.091 81.7241 73.3413 79.8752 73.3413C78.0262 73.3413 76.5273 76.091 76.5273 79.4829C76.5273 82.8748 78.0262 85.6245 79.8752 85.6245Z" fill="#1C7025" stroke="#6FAD78" stroke-width="0.780382" stroke-miterlimit="10"/>
<path d="M43.2176 81.6585C44.2821 81.6585 45.1451 79.8451 45.1451 77.6083C45.1451 75.3714 44.2821 73.5581 43.2176 73.5581C42.153 73.5581 41.29 75.3714 41.29 77.6083C41.29 79.8451 42.153 81.6585 43.2176 81.6585Z" fill="#1C7025" stroke="#6FAD78" stroke-width="0.780382" stroke-miterlimit="10"/>
<path d="M32.6309 115.691C33.4503 116.105 35.9709 116.549 36.8917 116.565C37.2507 114.302 36.7981 110.111 36.2284 107.895C36.3455 109.526 36.8059 112.999 36.923 114.63C36.9698 115.285 37.0244 115.956 37.321 116.542C37.914 117.72 39.3031 118.219 40.5595 118.617C43.7435 119.624 47.2084 120.623 50.3377 119.484C52.3901 118.735 54.0758 117.127 56.1906 116.596C57.806 116.19 59.4994 116.448 61.1538 116.51C62.816 116.565 64.6187 116.362 65.8439 115.238C67.0691 114.115 67.272 111.82 65.8751 110.923" stroke="#3D2A46" stroke-width="1.56076" stroke-miterlimit="10"/>
<path d="M78.1906 90.431C81.0265 90.431 83.3255 85.8785 83.3255 80.2626C83.3255 74.6468 81.0265 70.0942 78.1906 70.0942C75.3546 70.0942 73.0557 74.6468 73.0557 80.2626C73.0557 85.8785 75.3546 90.431 78.1906 90.431Z" stroke="#3D2A46" stroke-width="1.56076" stroke-miterlimit="10"/>
<path d="M42.3778 83.7188C43.9121 83.7188 45.1559 80.9831 45.1559 77.6084C45.1559 74.2338 43.9121 71.498 42.3778 71.498C40.8434 71.498 39.5996 74.2338 39.5996 77.6084C39.5996 80.9831 40.8434 83.7188 42.3778 83.7188Z" stroke="#3D2A46" stroke-width="1.17057" stroke-miterlimit="10"/>
<path opacity="0.88" d="M79.202 79.4736C80.2579 79.4736 81.1139 78.1006 81.1139 76.4068C81.1139 74.7129 80.2579 73.3398 79.202 73.3398C78.146 73.3398 77.29 74.7129 77.29 76.4068C77.29 78.1006 78.146 79.4736 79.202 79.4736Z" fill="#FFFCFA" stroke="#3D2A46" stroke-width="0.585286" stroke-miterlimit="10"/>
<path opacity="0.88" d="M77.2939 81.104C77.7896 81.104 78.1914 80.6114 78.1914 80.0037C78.1914 79.396 77.7896 78.9033 77.2939 78.9033C76.7983 78.9033 76.3965 79.396 76.3965 80.0037C76.3965 80.6114 76.7983 81.104 77.2939 81.104Z" fill="#FFFCFA" stroke="#3D2A46" stroke-width="0.390191" stroke-miterlimit="10"/>
<path opacity="0.88" d="M41.9095 79.1462C42.2543 79.1462 42.5338 78.8038 42.5338 78.3815C42.5338 77.9591 42.2543 77.6167 41.9095 77.6167C41.5647 77.6167 41.2852 77.9591 41.2852 78.3815C41.2852 78.8038 41.5647 79.1462 41.9095 79.1462Z" fill="#FFFCFA" stroke="#3D2A46" stroke-width="0.390191" stroke-miterlimit="10"/>
<path opacity="0.9" d="M42.9244 77.1872C43.6355 77.1872 44.212 76.3452 44.212 75.3065C44.212 74.2678 43.6355 73.4258 42.9244 73.4258C42.2132 73.4258 41.6367 74.2678 41.6367 75.3065C41.6367 76.3452 42.2132 77.1872 42.9244 77.1872Z" fill="#FFFCFA" stroke="#3D2A46" stroke-width="0.585286" stroke-miterlimit="10"/>
<path d="M99.3341 212.99C96.8134 212.116 94.6986 210.079 93.0598 208.12L91.8814 206.755C91.2727 205.99 90.4377 205.303 89.4466 205.787C82.9772 209.002 75.3061 209.525 68.4231 207.402C68.3529 207.395 68.267 207.457 68.2514 207.535C68.2514 207.558 68.2514 207.527 68.2436 207.59C68.0719 209.018 68.0095 209.369 67.8612 210.61L67.83 210.844L67.8144 210.961C67.8691 210.547 67.674 209.985 67.2994 209.689C67.2525 209.65 67.0028 209.486 67.1667 209.587C67.5413 209.798 67.9159 210.087 68.228 210.313L68.6416 210.641L68.8445 210.813C68.9616 210.906 69.0943 211.031 69.2035 211.156C69.7029 211.702 69.8824 212.498 69.8356 213.216C69.8278 214.566 69.7186 215.916 69.461 217.266C69.3752 217.633 69.3752 217.844 69.1411 218.499C68.7119 219.592 67.7442 220.458 66.6126 220.762C66.1522 220.903 65.6606 220.903 65.1923 220.895C62.0942 220.872 58.9883 220.817 55.9136 220.903C55.4766 220.903 55.1332 220.997 54.6728 221.184C52.9091 221.91 50.8567 223.096 49.1711 224.118L48.7809 224.36L48.578 224.485C46.9236 225.523 44.6995 225.523 43.0295 224.532C39.5958 222.682 31.6437 217.781 34.18 212.998C34.5702 212.194 35.2803 211.609 35.9904 211.094L38.9637 208.815C39.6192 208.339 40.7508 207.426 41.3829 206.965C42.3428 206.232 43.5133 205.779 44.7151 205.685C45.1365 205.646 45.6282 205.67 45.9949 205.717C47.4933 205.881 50.5524 206.24 52.0429 206.403L52.277 206.427L52.3316 206.435C52.5501 206.481 52.2458 206.325 51.4732 206.567C50.9114 206.801 50.4509 207.363 50.4041 208.066C50.4587 209.002 50.6304 208.963 50.5368 208.869C50.0061 207.644 49.5613 206.435 49.1555 205.163L48.8746 204.211C48.7263 203.563 48.4844 202.939 48.0317 202.455C47.8288 202.166 47.1265 201.737 46.8456 201.503C42.5769 198.287 38.8232 193.691 38.0194 188.213C37.122 182.891 37.3717 177.451 38.4408 172.184C38.0194 173.261 39.5256 174.65 40.1421 174.392H40.0796H39.9626H39.7285H39.2603C37.6683 174.447 36.0607 173.822 34.9682 172.652C34.5702 172.191 33.4854 170.958 33.0718 170.467L31.8466 169.054L31.2301 168.344C30.4966 167.595 30.1922 166.456 30.52 165.449C30.957 163.951 31.5579 161.906 32.0027 160.392L32.268 159.495C32.5334 158.207 33.7508 157.216 35.0774 157.31C35.9592 157.38 37.0596 157.473 37.9414 157.544L38.1755 157.559L38.2301 157.567C38.1755 157.567 38.4487 157.575 38.0741 157.567C37.3873 157.52 36.5601 158.254 36.4665 158.855L36.4821 158.792L36.5133 158.667L36.5757 158.426C38.316 152.245 40.9303 146.337 44.1689 140.805L44.2313 140.703C43.6382 141.64 44.4576 142.997 45.6126 142.865C45.6828 142.857 45.7452 142.849 45.7998 142.834C45.8545 142.826 45.9481 142.794 45.8935 142.81C44.5512 143.247 43.209 143.817 42.1008 144.675C41.656 145.058 41.2658 145.471 40.6181 145.565C39.2212 145.846 37.9024 144.433 38.2458 143.083L38.2692 142.966L38.355 142.49C39.3617 137.636 40.306 133.04 42.7251 128.529C43.0139 128.022 43.3651 127.499 43.7396 127.031C43.6304 127.171 43.5289 127.343 43.4665 127.546C43.0373 128.771 44.3561 129.949 45.4955 129.489L45.0897 129.645C43.1934 130.425 41.2814 131.37 39.908 132.86C39.7129 133.079 39.51 133.282 39.2212 133.43C38.1677 134 36.8255 133.602 36.2636 132.525C36.0451 132.103 35.9748 131.651 36.0373 131.198C36.4821 127.975 38.4799 125.447 40.6493 123.301C39.6036 124.214 40.1577 126.367 41.9136 126.375C37.4029 126.453 32.705 123.722 31.8778 119.024L31.9247 119.196L31.7452 118.61C31.6437 118.306 31.4408 118.041 31.1755 117.854C28.5378 116.129 28.0852 112.695 27.8901 109.878C27.4921 108.2 26.977 103.198 27.8433 100.42C28.6627 97.7353 30.0752 96.0574 31.6281 94.044C32.0885 93.4587 32.7206 92.7798 32.947 92.4365C33.7508 91.3127 33.9224 89.8378 33.6181 88.5111C33.462 87.5825 33.2279 86.0998 33.0796 85.2101L32.3617 80.8088L32.268 80.2625L32.2212 79.9894L32.19 79.8021C31.7842 77.1722 35.1632 75.4866 37.0206 77.4609C37.3561 77.8043 37.6527 78.1008 38.0351 78.6471L34.5233 79.5524C34.6482 78.2725 34.8199 77.0942 35.0774 75.8533C35.2881 74.792 35.6081 73.7151 35.9983 72.6928C35.9983 72.6226 35.9826 72.5992 35.967 72.5835L35.3896 71.9983C32.1978 68.5646 28.9124 64.9358 27.8277 60.1052C27.297 57.7953 28.1164 55.0172 30.0439 53.5266L29.8332 56.3126L24.8076 50.6782L24.1755 49.9759L24.0194 49.7964L23.9023 49.6559C22.2947 47.8532 23.8321 44.7473 26.2981 45.0127C27.8589 45.1141 29.3806 45.2702 31.0818 45.8945C30.7229 45.7462 30.2859 45.7618 29.9191 45.9179C29.1699 46.2144 28.7719 47.1977 29.1387 47.9469L29.1231 47.9235L29.0216 47.7128L28.8265 47.2914C27.7886 45.1219 26.6571 42.7886 25.4553 40.7049C24.5032 39.1364 23.4419 37.1386 22.7864 35.4062C20.8354 30.4585 20.5701 25.1597 20.3828 19.8765C20.414 17.7773 20.375 15.6157 21.2412 13.5164C23.4965 8.84195 26.025 2.52866 28.6783 -1.98975C30.0205 -4.15141 31.9325 -7.53827 35.0696 -5.66535C36.8879 -4.76011 38.4799 -3.58173 40.0953 -2.44237C41.9916 -1.12353 43.8255 0.312376 44.4498 2.64572C44.9883 4.33134 45.5891 6.53982 46.5412 7.83526C46.5568 7.85867 46.7285 7.97572 47.0172 8.1318C47.2904 8.28007 47.6962 8.5376 48.0395 8.81073L48.539 9.26336C51.364 12.5878 52.1912 16.9579 53.4008 20.9067L53.6505 21.8275C53.7597 22.3191 53.9158 22.8264 54.4543 22.9591C56.6003 23.6224 58.7698 24.4574 60.2369 26.3225C61.2904 27.7662 62.3049 29.1865 63.2648 30.6926L60.3071 32.5812C59.4097 31.1843 58.4108 29.7718 57.4119 28.4373C56.4833 27.3526 54.8445 26.7907 53.4632 26.3615C51.7776 25.9245 50.5368 24.4028 50.209 22.7327C49.1555 19.1196 48.2659 15.046 46.19 12.0259C45.6282 11.347 44.957 11.2221 44.1376 10.5198C42.7017 9.04485 42.1867 7.21875 41.5624 5.54874C41.0707 4.09723 40.8288 2.49745 39.4553 1.61561C37.3873 0.171907 35.2413 -1.61517 32.9392 -2.59065C32.9782 -2.57504 33.0172 -2.56724 33.0562 -2.55943C33.384 -2.497 33.5947 -2.57504 33.6571 -2.60625C33.7351 -2.64527 33.7039 -2.62966 33.6727 -2.60625C31.4096 -0.0700111 30.0986 3.34026 28.569 6.45398L25.4787 13.337L24.6905 15.0226C24.1677 16.4819 24.1755 18.1753 24.1755 19.8297C24.3706 25.706 24.8154 31.9725 27.8745 37.1776C29.5757 40.026 31.1443 43.0617 32.549 46.0662C32.7675 46.4954 32.9079 46.9168 32.8845 47.4084C32.8455 48.8209 31.4798 49.89 30.122 49.6325C28.9124 49.2345 27.6482 48.9848 26.1654 48.9068L26.0562 48.899C26.0406 48.899 26.0016 48.899 26.0172 48.899C26.9848 48.9848 27.4375 47.7362 26.8834 47.1665C28.3817 48.8365 32.5646 53.55 34.0317 55.1888C33.1733 56.0551 31.6125 56.8823 31.5735 58.2167C31.4876 58.9191 31.6671 59.8321 32.0261 60.7451C33.1343 63.5857 35.413 66.3717 37.5746 68.6894L38.8076 69.9615C39.8846 71.1086 40.1265 72.8333 39.5412 74.238C38.3316 77.2893 38.1989 82.1744 37.8243 85.4364L34.8433 80.7698C34.7809 80.6605 34.5155 80.3717 34.3126 80.1689C34.656 80.5044 35.452 80.5668 35.8032 80.0362C35.9358 79.8645 36.0139 79.6148 36.0139 79.4119C36.0139 79.3651 36.0139 79.3182 36.0061 79.2792C35.9983 79.2402 36.0061 79.2792 36.0061 79.3026C36.0373 79.4977 36.1153 79.9894 36.1543 80.1923C36.4041 81.7452 36.9815 85.3116 37.2235 86.7865L37.4029 87.8868C37.879 90.189 37.4576 92.6628 36.0919 94.6059C34.3673 96.7988 32.2992 98.9448 31.5111 101.442C30.9102 103.752 31.1833 106.881 31.6749 109.558C31.7998 111.205 31.9247 113.14 32.9235 114.412C33.1655 114.662 33.4776 114.794 33.7273 115.029C34.7106 115.817 35.3037 117.018 35.5925 118.228C36.0607 121.123 39.0261 122.567 41.7887 122.59C43.2168 122.473 44.3171 124.042 43.7474 125.314C43.646 125.665 43.1622 126.126 43.2714 126.008C41.7653 127.468 40.2513 129.325 39.8299 131.307C39.8065 131.417 39.7909 131.557 39.7753 131.643C39.947 130.145 37.9648 129.294 37.0049 130.449L37.0986 130.347C39.0183 128.24 41.6014 126.953 44.1767 125.954C44.3093 125.899 44.6449 125.806 44.9024 125.813C46.3617 125.767 47.5011 127.241 47.0407 128.654C46.8065 129.349 46.2915 129.754 45.9637 130.394C44.8868 132.291 44.1142 134.624 43.4587 136.934C42.8968 138.924 42.4052 141.124 42.015 143.161L41.9292 143.614L41.9057 143.723L41.8979 143.778C42.1867 142.264 40.306 141.218 39.1744 142.248C40.6181 140.89 43.1231 139.603 45.2692 139.135C47.1655 138.932 48.4219 141.171 47.3684 142.685C44.2391 148.031 41.6872 153.767 40.0484 159.744C40.0484 159.744 39.9002 160.244 39.7285 160.423C39.3539 161.009 38.4721 161.321 37.918 161.227L37.8634 161.219L37.6292 161.196C36.9581 161.149 35.967 161.048 35.2959 161.001L34.8901 160.97C35.2959 160.993 35.7017 160.743 35.8578 160.361L35.8812 160.298C35.889 160.267 35.8968 160.252 35.8812 160.291C35.6393 161.11 35.2569 162.413 35.0228 163.209C34.8199 163.888 34.3048 165.644 34.0941 166.354L34.0629 166.464L34.0473 166.51L34.0551 166.464C34.1097 166.214 34.0473 165.948 33.8834 165.753L34.0083 165.902C34.8823 166.932 36.1933 168.414 37.0752 169.445C37.559 170.038 38.1365 170.724 39.0183 170.685H39.2524H39.7207H40.2904C41.0785 170.467 42.4442 171.973 41.9994 173.019L41.976 173.12L41.9292 173.331C40.9459 179.02 40.4933 185.239 42.4988 190.741C43.8177 193.816 46.3149 196.516 49.0228 198.568C50.3417 199.419 51.5044 200.66 52.0351 202.158C52.5736 203.898 53.0808 205.717 53.83 207.379C53.7519 207.316 53.947 207.316 53.9939 208.292C53.947 209.033 53.4554 209.634 52.8623 209.884C52.0585 210.141 51.7073 209.97 51.8868 210.017L51.8322 210.009C51.4498 209.97 50.607 209.868 50.2012 209.822L46.4788 209.392C45.5267 209.26 44.4654 209.111 43.6616 209.728C42.0774 210.945 39.7285 212.725 38.1521 213.934L37.7775 214.215L37.5902 214.356C37.2235 214.621 37.1298 215.113 37.4107 215.479C39.1978 218.062 41.8355 219.81 44.6527 221.332C44.9648 221.496 45.0663 221.543 45.2146 221.59C45.3628 221.636 45.5111 221.66 45.6672 221.668C46.2369 221.863 47.6337 220.77 48.0942 220.544C49.8188 219.568 51.4342 218.577 53.3461 217.828C54.0407 217.555 54.9225 217.298 55.7419 217.313C59.0273 217.227 62.2815 217.29 65.5513 217.321C65.6215 217.313 65.6918 217.305 65.7386 217.259C65.8088 217.157 65.7776 217.337 65.9337 216.58C66.16 215.409 66.2615 214.184 66.2537 212.966V212.857C66.2615 213.123 66.3785 213.388 66.5814 213.56C66.2381 213.263 65.7854 212.896 65.4186 212.67C64.6539 212.303 64.131 211.343 64.2793 210.5L64.2949 210.383L64.3261 210.149L64.5602 208.292L64.6773 207.363C64.7709 205.295 66.7297 203.602 68.7977 203.875C70.4755 204.25 72.1299 204.78 73.8546 204.944C78.4978 205.537 83.266 204.804 87.4878 202.798C89.0954 201.916 91.1244 201.846 92.7008 202.814C94.9093 204.312 96.1501 206.918 97.8435 208.83C98.5771 209.72 99.3731 210.516 100.263 211.304C100.286 211.32 99.3341 212.99 99.3341 212.99Z" fill="#3D2A46"/>
<path d="M125.473 198.731L129.016 208.923C129.133 209.251 129.601 209.22 129.671 208.884L131.279 201.58C131.396 201.041 132.067 200.862 132.441 201.268C133.838 202.758 136.999 204.452 143.593 202.899C147.44 201.993 149.672 199.972 150.757 198.677C151.124 198.232 150.78 197.569 150.203 197.6C147.87 197.733 143.148 197.85 140.3 196.882C139.863 196.734 140.011 196.086 140.472 196.125C142.938 196.367 146.996 196.125 150.039 192.801C154.721 187.681 154.011 187.9 154.011 187.9C154.011 187.9 149.064 190.077 145.989 184.755C145.965 184.716 145.981 184.661 146.02 184.646L151.881 181.953C152.607 181.813 152.77 180.837 152.123 180.471L144.631 176.21C144.241 175.983 144.288 175.406 144.717 175.265C146.808 174.547 150.773 171.972 150.773 162.81C150.773 162.81 150.18 157.715 150.273 154.991C150.281 154.773 150 154.671 149.875 154.851C148.72 156.497 145.521 160.711 142.134 162.225" stroke="#3D2A46" stroke-width="3.51172" stroke-miterlimit="10"/>
<path d="M129.77 154.025C131.425 151.223 132.353 147.945 133.11 144.777C133.859 142.647 136.864 142.693 137.644 144.707C137.715 144.855 137.925 145.269 137.995 145.417C138.909 147.266 139.993 149.272 141.016 151.067C142.857 154.555 143.528 158.715 142.904 162.593C142.522 164.318 141.991 169.187 139.189 168.009C138.339 167.588 137.98 166.573 138.362 165.722C139.962 161.641 139.705 156.693 137.715 152.76C136.575 150.661 135.436 148.39 134.453 146.236C134.421 146.166 134.335 146.002 134.445 146.197C134.593 146.431 134.905 146.642 135.178 146.673C135.693 146.783 136.279 146.392 136.396 145.87C136.404 145.846 136.388 145.901 136.38 145.916L136.224 146.455C135.49 148.991 134.437 151.465 132.923 153.642C132.252 154.446 131.159 156.608 129.856 155.468C129.458 155.062 129.458 154.462 129.77 154.025Z" fill="#3D2A46"/>
<path d="M124.17 127.966C125.731 133.202 127.151 138.454 128.423 143.769C129.641 149.145 130.936 154.452 131.1 160.024H129.492C129.336 154.71 128.041 149.34 126.862 144.135C125.606 138.868 124.178 133.616 122.633 128.426C122.633 128.434 124.17 127.966 124.17 127.966Z" fill="#3D2A46"/>
<path d="M124.338 128.349C125.664 129.255 126.85 130.316 127.998 131.409L127.841 131.276C127.701 131.159 127.397 131.245 127.365 131.409C127.319 131.557 127.358 131.666 127.342 131.736C127.35 131.838 127.287 131.604 127.256 131.51L127.139 131.143C126.718 129.848 126.226 128.591 125.5 127.39C125.656 125.251 128.122 123.956 129.948 125.072C130.229 125.22 131.985 126.648 132.274 126.859C132.969 127.39 136.519 130.082 137.144 130.558L137.206 130.605C136.87 130.347 136.309 130.472 136.113 130.847C135.996 131.034 135.981 131.354 136.067 131.518C135.942 131.213 135.489 130.23 135.357 129.91C134.693 128.474 134.03 126.953 133.218 125.595C131.899 122.239 137.815 121.365 140.031 121.498C139.922 121.49 139.781 121.513 139.649 121.576C139.243 121.779 139.095 122.247 139.282 122.645C139.329 122.739 139.383 122.817 139.461 122.887C139.485 122.902 139.43 122.863 139.422 122.856C136.792 120.499 134.178 118.072 131.938 115.317C131.876 115.231 131.486 114.74 131.431 114.662C130.261 113.14 131.057 110.713 132.828 110.112C133.936 109.691 135.903 108.91 136.956 108.497C136.925 108.512 136.917 108.551 136.917 108.543C136.917 108.528 136.902 108.551 136.941 108.582C136.948 108.606 136.98 108.598 136.956 108.606C136.699 108.543 136.176 108.458 135.872 108.387C134.038 107.966 134.053 105.281 135.903 104.876C138.697 104.15 141.522 103.338 144.159 102.199C144.214 102.168 144.214 102.168 144.222 102.152C144.261 102.129 144.253 102.004 144.222 102.004L142.614 101.067C140.593 99.8499 129.433 92.9748 133.203 90.3605C134.045 89.8142 135.193 90.103 135.684 90.977C138.049 94.5199 142.255 97.0328 145.86 99.3193C147.624 100.381 147.866 103.065 146.329 104.415C145.556 105.118 144.518 105.344 143.582 105.726C141.412 106.499 139.204 107.107 136.98 107.654L136.675 107.724C136.652 107.732 136.59 107.747 136.558 107.755C137.705 107.482 137.705 105.789 136.55 105.523C136.488 105.508 136.527 105.523 136.535 105.523C136.769 105.562 137.089 105.648 137.323 105.687C140.203 106.07 140.733 110.128 137.994 111.189C136.894 111.595 134.966 112.352 133.85 112.781C133.733 112.82 133.694 112.89 133.71 112.984C133.71 112.999 133.788 113.101 133.804 113.124C135.606 115.489 137.752 117.541 139.93 119.57C140.25 119.875 141.022 120.561 141.342 120.858C142.357 121.747 142.115 123.519 140.874 124.096C140.468 124.299 140.054 124.315 139.633 124.291C138.595 124.276 137.471 124.432 136.511 124.768C136.192 124.861 135.7 125.142 135.63 125.197C135.794 125.009 135.778 124.44 135.606 124.26C135.661 124.354 135.723 124.44 135.77 124.526C136.433 125.665 137.307 127.553 137.885 128.755C138.057 129.106 138.533 130.129 138.697 130.48C139.414 132.025 137.744 133.875 136.106 133.289C135.856 133.219 135.637 133.079 135.435 132.938C133.585 131.674 129.995 129.177 128.255 128.053C128.52 128.24 128.903 128.131 129.043 127.819L129.106 126.898C128.918 128.232 128.942 129.504 129.035 130.8C129.152 131.69 129.191 132.665 128.356 133.289C127.795 133.758 126.804 133.742 126.273 133.219C125.141 132.111 124.041 130.964 123.081 129.676C122.785 129.27 122.87 128.708 123.268 128.404C123.604 128.131 124.025 128.131 124.338 128.349Z" fill="#3D2A46"/>
<path d="M59.8916 30.8788L72.0265 27.8978C75.39 26.8208 78.9641 26.6023 82.4368 27.2657L104.912 31.5265C104.912 31.5265 113.535 26.7662 115.509 23.9178C117.484 21.0616 119.848 8.91888 119.848 8.91888C119.848 8.91888 133.458 -9.95856 135.651 -9.51374C137.844 -9.07673 140.154 -10.4502 141.793 -4.38664C143.439 1.67693 144.758 -1.28852 144.649 1.67693C144.54 4.64238 149.589 41.1799 147.942 47.657C146.295 54.1342 144.758 55.4452 145.421 58.6292C146.077 61.8132 149.479 61.7741 136.97 75.4542C132.046 80.8389 140.497 88.5569 144.696 91.8579C145.796 92.7241 145.343 94.5112 143.962 94.7063C140.825 95.1589 136.47 94.5346 136.47 94.5346" stroke="#3D2A46" stroke-width="3.51172" stroke-miterlimit="10"/>
<path d="M38.6377 171.824C41.291 166.673 44.0067 161.375 45.6299 155.795C46.4025 152.221 47.7994 148.662 50.5463 146.126L51.0692 146.703C49.563 148.373 48.5485 150.543 47.9633 152.728C47.6823 153.68 47.4794 155.155 47.339 156.146C46.2386 162.1 44.0301 167.704 41.8217 173.322C41.8139 173.33 38.6377 171.824 38.6377 171.824Z" fill="#3D2A46"/>
</g>
</g>
<rect x="4.53125" y="4.53125" width="154.062" height="154.062" rx="77.0312" stroke="white" stroke-width="9.0625"/>
<defs>
<clipPath id="clip0_1411_31502">
<rect x="9.0625" y="9.0625" width="145" height="145" rx="72.5" fill="white"/>
</clipPath>
<clipPath id="clip1_1411_31502">
<rect width="152.955" height="248.161" fill="white" transform="translate(7.05859 -11.8389)"/>
</clipPath>
</defs>
</svg>
