<svg width="45" height="45" viewBox="0 0 45 45" fill="none" xmlns="http://www.w3.org/2000/svg">
<path d="M18.6652 14.625C18.6652 12.6945 20.3847 11.125 22.4997 11.125C24.6146 11.125 26.3341 12.6945 26.3341 14.625V17.25H18.6652V14.625ZM15.7894 17.25H11.9549C10.3672 17.25 9.0791 18.4258 9.0791 19.875V31.25C9.0791 34.1484 11.6554 36.5 14.8308 36.5H30.1685C33.3439 36.5 35.9202 34.1484 35.9202 31.25V19.875C35.9202 18.4258 34.6321 17.25 33.0444 17.25H29.2099V14.625C29.2099 11.2398 26.2083 8.5 22.4997 8.5C18.791 8.5 15.7894 11.2398 15.7894 14.625V17.25ZM17.2273 19.875C17.6087 19.875 17.9744 20.0133 18.2441 20.2594C18.5137 20.5056 18.6652 20.8394 18.6652 21.1875C18.6652 21.5356 18.5137 21.8694 18.2441 22.1156C17.9744 22.3617 17.6087 22.5 17.2273 22.5C16.8459 22.5 16.4802 22.3617 16.2105 22.1156C15.9409 21.8694 15.7894 21.5356 15.7894 21.1875C15.7894 20.8394 15.9409 20.5056 16.2105 20.2594C16.4802 20.0133 16.8459 19.875 17.2273 19.875ZM26.3341 21.1875C26.3341 20.8394 26.4856 20.5056 26.7553 20.2594C27.0249 20.0133 27.3907 19.875 27.772 19.875C28.1534 19.875 28.5191 20.0133 28.7888 20.2594C29.0584 20.5056 29.2099 20.8394 29.2099 21.1875C29.2099 21.5356 29.0584 21.8694 28.7888 22.1156C28.5191 22.3617 28.1534 22.5 27.772 22.5C27.3907 22.5 27.0249 22.3617 26.7553 22.1156C26.4856 21.8694 26.3341 21.5356 26.3341 21.1875Z" fill="white"/>
</svg>
