<svg width="60" height="60" viewBox="0 0 60 60" fill="none" xmlns="http://www.w3.org/2000/svg">
<g clip-path="url(#clip0_342_61633)">
<rect x="4" y="4" width="52" height="52" rx="26" fill="white"/>
<rect x="3.45833" y="3.45833" width="53.0833" height="53.0833" stroke="white" stroke-width="1.08333"/>
<circle cx="30" cy="30" r="26" fill="#7ACFFF"/>
<g clip-path="url(#clip1_342_61633)">
<path d="M13.2102 78.0927C13.2102 78.0927 15.3707 81.2971 17.0723 80.8969C18.7739 80.4939 19.9269 79.38 19.9269 79.38L24.8412 79.0526L25.1519 77.0796L24.4382 76.3351L24.553 74.4517C24.553 74.4517 26.9654 75.6019 28.6418 74.9526C30.3181 74.3005 33.0552 73.8667 33.0552 73.8667L35.8706 76.3743L31.9049 77.018L29.7416 80.1272C29.7416 80.1272 31.2892 82.2822 34.9246 82.6208C34.9246 82.6208 36.5143 83.1973 39.019 81.2551C41.5266 79.3128 42.8223 77.8324 42.8223 77.8324C42.8223 77.8324 42.9511 76.6094 42.5984 76.3743C42.2458 76.1392 41.6301 75.1681 41.7477 74.3145C41.7477 74.3145 44.2636 74.0207 45.008 73.0188C45.7525 72.0169 45.9708 71.7874 45.9708 71.7874L47.2609 75.6579L47.8374 73.0384C47.8374 73.0384 49.4746 74.3985 52.0465 73.6652C54.6185 72.932 54.6269 71.6111 54.6269 71.6111C54.6269 71.6111 51.6939 71.8546 51.137 71.0821C51.137 71.0821 53.9104 71.3676 54.6269 69.8228C55.3433 68.2779 55.9898 68.1296 55.9898 68.1296C55.9898 68.1296 54.2574 68.3675 53.7397 67.7742C53.222 67.1781 53.3591 66.8562 53.3591 66.8562L55.4385 65.8068L52.6259 63.9373C52.6259 63.9373 54.2463 63.6238 54.5373 61.3793C54.8284 59.1349 54.6465 56.5825 54.6465 56.5825L51.4169 58.9753C51.4169 58.9753 52.041 57.2318 50.8767 55.2504C49.7153 53.269 49.5166 52.8604 49.5166 52.8604C49.5166 52.8604 47.8458 56.2411 47.4792 56.2439C47.1126 56.2467 45.6041 47.4731 45.6041 47.4731L46.732 47.9348L46.6928 46.0933L50.0176 47.7025L49.08 45.251L51.1006 44.4394C51.1006 44.4394 48.4251 41.7807 48.2684 40.9607C48.1117 40.1407 50.2107 40.0343 50.2107 40.0343L49.9364 38.7778C49.9364 38.7778 51.7667 38.8142 53.0373 37.2469C53.0373 37.2469 50.5129 35.6153 49.6929 34.6498C49.6929 34.6498 52.3544 35.2515 52.8581 34.2048C52.8581 34.2048 49.6677 31.5294 49.5054 30.2728C49.3403 29.019 49.4382 28.3641 50.5549 27.0488C51.6715 25.7334 53.4598 23.9563 53.2276 23.0188C52.9953 22.0813 52.6818 21.2976 53.0457 20.2482C53.4095 19.1987 54.0224 18.7957 53.9272 16.3161C53.8321 13.8393 53.096 1.71576 52.6259 1.10007C52.1557 0.484373 51.8199 -0.173301 51.6044 -0.828176C51.3889 -1.48305 49.998 -4.09695 48.0053 -1.94482C46.0127 0.207311 43.6927 4.15055 43.6927 4.15055C43.6927 4.15055 43.2337 7.97346 42.5537 9.02294C41.8736 10.0724 38.3781 12.0538 38.3781 12.0538C38.3781 12.0538 32.9964 10.5146 29.2211 10.3999C25.4457 10.2851 22.885 11.6648 22.885 11.6648C22.885 11.6648 21.9335 10.4922 20.7245 9.80655C19.5155 9.12089 18.6507 5.30358 17.8503 4.68509C17.0499 4.0666 16.8344 2.09358 15.7038 1.18403C14.5731 0.274478 12.3259 -0.822578 12.3259 -0.822578C12.3259 -0.822578 8.73244 5.4687 8.75203 7.13387C8.77162 8.80185 9.32855 12.9578 10.0086 14.0604C10.6915 15.1631 11.9508 17.5755 11.9508 17.5755L9.90506 17.6455L11.9005 20.251C11.9005 20.251 10.2381 21.7006 12.0908 23.7828C13.9463 25.865 14.5088 26.3883 14.5088 26.3883L13.7923 30.0321L13.1151 28.9574L13.4705 33.1749C13.4705 33.1749 11.6962 35.7525 11.3519 37.079C11.0077 38.4056 10.7754 41.1034 11.8081 41.8786C12.8408 42.6538 13.4201 43.8936 13.4201 44.4562C13.4201 45.0187 15.7821 45.3881 15.7821 45.3881C15.7821 45.3881 14.3632 46.8266 14.3381 47.89C14.3129 48.9535 15.9613 46.8042 16.896 46.5411C17.8307 46.278 16.2299 47.8817 15.9473 48.8276C15.6618 49.7735 15.1189 52.1943 15.1189 52.1943L17.369 51.0525C17.369 51.0525 15.1776 54.6459 14.5368 57.6236L13.0675 57.9007C13.0675 57.9007 11.9984 59.6414 12.3259 60.2795C12.6533 60.9176 14.5368 62.8598 14.5368 62.8598L15.1776 63.1229C15.1776 63.1229 14.0218 67.8301 15.6646 69.9627C17.3074 72.0952 18.564 73.044 18.564 73.044L19.3112 75.0198H16.7281C16.7281 75.0226 12.6729 77.2335 13.2102 78.0927Z" fill="#FF9700"/>
<path d="M19.2119 53.7051L19.9284 54.8497L21.2409 51.0044C21.2409 51.0044 22.4219 52.6304 22.8137 52.4989C23.2055 52.3674 25.7523 49.5072 25.7523 49.5072C25.7523 49.5072 27.535 50.0333 28.0863 50.6602C28.6376 51.2899 28.3494 51.525 28.3494 51.525C28.3494 51.525 27.7729 48.5613 28.1143 48.273C28.4557 47.9847 31.1284 46.5602 31.4195 46.6022C31.7105 46.647 32.6285 51.7349 32.6285 51.7349C32.6285 51.7349 31.9736 53.7275 31.8952 54.6986C31.8169 55.6697 31.9288 54.8441 31.9288 54.8441L33.4429 53.3077C33.4429 53.3077 31.7889 57.3489 31.6853 59.0784L33.2582 57.2929C33.2582 57.2929 30.9717 64.6924 31.4195 68.3111L32.5221 67.2616C32.5221 67.2616 33.0203 72.9539 33.5716 73.7683C33.5716 73.7683 30.8877 74.8542 28.6432 74.9438C26.3988 75.0333 25.2429 74.0986 24.5545 73.8159C23.866 73.5333 20.4797 71.9856 20.4797 71.9856C20.4797 71.9856 21.3249 71.8233 21.3193 71.7226C21.3137 71.6218 19.1951 70.0182 18.6158 67.7877L19.6121 67.7345C19.6121 67.7345 17.8798 67.4715 17.1997 65.4509C17.1997 65.4509 16.7547 61.7511 17.1997 60.335C17.1997 60.335 17.9078 61.5692 18.0645 61.3061C18.0645 61.3061 17.751 59.7053 18.3527 57.2397C18.96 54.7798 19.2119 53.7051 19.2119 53.7051Z" fill="#FEF7F3"/>
<path d="M48.4062 62.4231C48.1655 62.8457 47.6785 63.1171 47.1916 63.0947C47.1132 63.0919 47.0264 63.0835 46.9649 63.1311C46.8893 63.1899 46.8893 63.299 46.8949 63.3914C47.0264 65.5939 47.6869 67.6313 47.6869 69.8394C47.6869 69.8562 47.7065 69.831 47.7065 69.8478C47.3567 69.6855 46.9705 69.6407 46.7466 69.3244C46.5171 70.2928 46.4191 71.0092 45.7979 71.7844C45.8986 73.1026 46.324 74.3927 47.0292 75.5094C47.2643 74.6054 47.5638 73.7155 47.9248 72.8535C48.9351 73.514 50.1917 73.7854 51.3839 73.6007C52.5761 73.416 53.6927 72.7751 54.454 71.8404C53.4493 71.8992 52.4278 71.6893 51.5294 71.2331C53.2673 71.0008 54.8765 69.9289 55.7609 68.4149C54.7226 68.664 53.7095 68.0735 53.245 67.1107C53.7907 66.7469 54.3364 66.3831 54.8821 66.0221C54.9857 65.9549 55.1004 65.8598 55.0864 65.7366C55.0752 65.6499 55.0025 65.5883 54.9325 65.5351C54.1825 64.9474 53.4325 64.3597 52.6796 63.772C53.6675 62.9576 54.3588 61.7934 54.6023 60.5368C54.8178 59.4174 54.6862 58.2643 54.5547 57.1337C54.5267 56.8846 54.4679 56.5936 54.2385 56.4928C53.4129 57.5675 52.4054 58.505 51.2747 59.2522C51.4594 56.9574 50.659 54.601 49.1142 52.8938C48.8903 54.0972 48.3558 55.2446 47.5722 56.1878C47.4994 56.8147 47.2587 57.3996 47.5442 57.9621C47.7653 58.3987 48.1795 58.7233 48.3586 59.1767C48.4761 59.4733 48.4873 59.8008 48.4873 60.1198C48.4929 60.895 48.7896 61.7486 48.4062 62.4231Z" fill="#FEF7F3"/>
<path d="M48.4009 59.5377C47.9839 58.908 47.5585 58.2531 47.4325 57.5059C47.3738 57.156 47.385 56.7978 47.3626 56.4424C47.301 55.4125 46.982 54.4162 46.6629 53.4339C46.2963 54.5533 45.8849 55.6112 45.6498 56.7642C45.4875 56.42 45.2244 56.1374 45.0145 55.8211C44.5024 55.0403 44.3401 54.0524 43.7888 53.2996C43.8363 54.1503 43.7999 55.0039 43.6824 55.8463C43.0807 55.4517 42.451 55.0963 41.8045 54.78C41.992 56.003 42.1124 57.1365 42.3027 58.3567C42.3307 58.5302 42.3559 58.7093 42.3027 58.8744C42.2187 59.1347 41.9641 59.2942 41.7933 59.5097C41.5443 59.8231 41.4827 60.2513 41.5387 60.6459C41.5946 61.0405 41.7542 61.4127 41.9137 61.7793C42.2523 62.5602 42.6189 63.3746 43.2906 63.8979C43.8111 63.7496 44.3988 63.6544 44.939 63.6124C45.8709 63.5397 46.7889 63.299 47.634 62.9044C47.8439 62.8064 48.0594 62.6917 48.1854 62.4986C48.2973 62.3251 48.3253 62.1124 48.3449 61.9081C48.4149 61.1916 48.7955 60.1366 48.4009 59.5377Z" fill="#FEF7F3"/>
<path d="M16.2138 56.2716C16.4461 55.7902 16.6756 55.3089 16.9079 54.8303C16.8239 55.3285 17.3025 55.7595 17.3361 56.2632C17.3529 56.5151 17.434 56.8257 17.3389 57.058C16.5693 58.9443 15.6205 60.7634 14.8509 62.6496C14.8285 62.7056 14.8033 62.7672 14.7502 62.8008C14.6494 62.8679 14.5179 62.8008 14.4227 62.7308C13.6755 62.2019 13.029 61.477 12.7995 60.5899C12.57 59.7027 12.8359 58.6588 13.5915 58.1411C13.779 58.0123 13.9917 57.9172 14.1681 57.7717C14.9265 57.1476 14.641 55.7399 15.4218 55.2193C15.6541 55.5831 15.9816 55.8938 16.2138 56.2716Z" fill="#FEF7F3"/>
<path d="M42.3812 45.2143C41.578 45.5865 40.8616 46.0175 40.0583 46.3897C39.8904 45.6872 39.7337 44.9064 39.5686 44.204C38.7682 44.663 38.0601 45.2814 37.4976 46.0119C36.9715 46.1182 36.4286 46.1574 35.8912 46.1294C35.5414 46.1098 35.1188 46.1378 34.8277 46.3309C34.5619 47.053 34.3716 47.803 34.2624 48.5614C33.7643 48.2116 33.2577 47.873 32.7456 47.5455C32.4713 47.3692 32.1943 47.1957 31.8864 47.0921C31.3015 46.8962 30.655 46.9718 30.0785 47.1817C29.4992 47.3916 28.9759 47.7274 28.4609 48.0605C28.3378 48.1416 28.2062 48.2284 28.1447 48.3599C28.0887 48.4831 28.0971 48.623 28.1083 48.7573C28.1754 49.6249 28.2202 50.4477 28.2874 51.3153C28.0215 50.8227 27.7473 50.3217 27.3359 49.9383C26.9273 49.5577 26.3172 49.2639 25.7686 49.387C24.9011 50.4085 23.9859 51.388 23.026 52.3256C22.9644 52.3871 22.8945 52.4515 22.8077 52.4571C22.7294 52.4655 22.6566 52.4235 22.5894 52.3843C22.0745 52.0821 21.5959 51.7155 21.1677 51.2957C21.0082 52.4627 20.5464 53.6801 20.1043 54.7715C19.1723 53.6157 18.3383 52.3815 17.6191 51.083C16.7739 51.2005 15.9595 51.5307 15.2711 52.0317C15.0696 50.1986 15.9623 48.4439 16.8299 46.8151C16.3149 46.7983 15.7944 46.9606 15.3774 47.2657C15.2515 47.358 15.1283 47.4672 14.9744 47.5063C14.8205 47.5427 14.6274 47.4728 14.5938 47.3188C14.577 47.2405 14.605 47.1621 14.633 47.0893C14.7981 46.6668 15.0584 46.2778 15.3858 45.9643C15.4642 45.8887 15.5453 45.816 15.5873 45.718C15.6713 45.5193 15.5509 45.2814 15.369 45.1611C15.1871 45.0408 14.9492 44.8449 14.7337 44.8561C14.3559 44.8728 14.0173 44.6098 13.7878 44.3103C13.5583 44.0081 13.396 43.6583 13.1441 43.3756C12.7663 42.9474 12.2094 42.6927 11.8959 42.217C11.6469 41.8392 11.5881 41.369 11.5377 40.9184C11.4062 39.715 11.2942 38.4808 11.6133 37.3138C12.0443 35.741 13.2029 34.476 14.4063 33.3762C15.6713 32.2203 16.9978 31.2604 18.4335 30.3257C18.8393 29.5029 19.2507 28.6745 19.4774 27.7873C19.7041 26.9002 19.7376 25.9346 19.399 25.0839C19.2143 24.6165 18.9148 24.1631 18.954 23.6622C18.9764 23.3851 19.1024 23.1276 19.2395 22.8842C20.5129 20.6481 22.9588 19.0641 23.5577 16.5621C23.9467 14.9417 23.443 13.173 23.9663 11.5918C25.2565 10.9397 26.653 10.5031 28.0831 10.3016C28.349 10.2652 28.6988 10.2848 28.7772 10.5423C28.8387 10.7466 28.668 10.9453 28.5113 11.0908C27.0084 12.4733 25.3013 13.8307 24.694 15.7813C24.2658 17.1554 24.4505 18.6359 24.6828 20.0548C24.8535 21.0987 25.0466 22.1369 25.2621 23.1724C25.3209 23.4607 25.3824 23.7629 25.2873 24.0428C25.2005 24.2947 24.999 24.4878 24.8059 24.6725C24.1035 25.3329 23.401 25.9906 22.6986 26.6511C22.7042 27.9441 22.8441 29.335 23.6809 30.3173C24.2378 30.9722 25.0746 31.3416 25.6175 32.0048C26.5159 33.1019 26.4571 34.7923 27.4506 35.8053C27.6213 35.9817 27.6437 36.1356 27.8816 36.1972C29.4712 36.6002 31.156 36.1188 32.642 35.4275C34.1281 34.7363 35.5218 33.8295 37.075 33.3062C36.4397 33.8099 36.2802 34.6187 36.0815 35.4051C35.8828 36.1916 35.6142 37.0423 34.9313 37.4789C35.8045 37.6133 36.6384 38.0554 37.2513 38.7691C38.9949 40.7841 41.0323 42.9194 42.3812 45.2143Z" fill="#FEF7F3"/>
<path d="M26.7955 23.6539C26.8122 24.0066 26.9046 24.4152 27.2264 24.5635C27.4867 24.6838 27.803 24.5719 28.024 24.3872C28.2451 24.2025 28.3963 23.9506 28.5838 23.7323C29.1127 23.1166 29.8935 22.778 30.6771 22.5569C31.4579 22.3358 32.2695 22.2155 33.0308 21.9328C33.3302 21.8209 33.6688 21.6194 33.6716 21.2975C33.6744 20.9001 33.1903 20.7238 32.8153 20.5923C32.4934 20.4803 32.1884 20.3236 31.9113 20.1305C31.7378 20.0101 31.5643 19.8702 31.3572 19.8394C30.8758 19.7667 30.5344 20.2648 30.179 20.5979C29.5297 21.208 28.6145 21.3283 27.8029 21.5998C26.7759 21.9412 26.7451 22.6157 26.7955 23.6539Z" fill="#C8AA98"/>
<path d="M17.1436 20.6398C17.5186 20.8581 17.8908 21.1127 18.1259 21.4766C18.361 21.8404 18.4309 22.3441 18.193 22.708C17.9552 23.0718 17.3646 23.1837 17.0764 22.8619C16.8749 22.6352 16.8385 22.2546 16.5614 22.1286C16.276 21.9971 15.8814 22.2238 15.6491 22.0111C15.5372 21.9076 15.5176 21.7424 15.5036 21.5941C15.4812 21.3506 15.4588 21.1099 15.4364 20.8665C15.414 20.6314 15.3944 20.3851 15.4896 20.1696C15.8114 19.4364 16.7378 20.4019 17.1436 20.6398Z" fill="#C8AA98"/>
<path d="M16.0539 26.5419C15.7545 26.5111 15.4606 26.6846 15.2703 26.9197C14.8113 27.4906 14.8785 28.3078 15.0128 29.027C15.052 29.2397 15.0968 29.4496 15.1444 29.6623C15.1975 29.8974 15.2591 30.1381 15.399 30.334C15.539 30.5299 15.774 30.6782 16.0119 30.6446C16.2918 30.6055 16.4821 30.348 16.6108 30.0961C16.9886 29.3489 17.4392 26.6902 16.0539 26.5419Z" fill="#FEF7F3"/>
<path d="M26.8519 30.7736C26.8995 31.1094 26.9694 31.4424 27.1094 31.7503C27.4508 32.4947 28.2176 33.0265 29.0348 33.0852C29.1412 33.0936 29.2475 33.0936 29.3455 33.0544C29.4518 33.0125 29.5358 32.9285 29.6113 32.8445C30.3166 32.0469 30.5041 30.9275 30.5992 29.8696C30.6944 28.8257 30.7028 27.6895 30.0927 26.8387C29.7848 26.4077 29.3119 26.0747 28.7829 26.0299C26.7623 25.8564 26.6756 29.4918 26.8519 30.7736Z" fill="#FEF7F3"/>
<path d="M11.9741 37.258C11.8845 37.6694 11.9153 38.1228 12.1504 38.4726C12.3379 38.7497 12.6317 38.9316 12.9284 39.0883C13.2446 39.2534 13.5777 39.399 13.9303 39.4549C14.4816 39.5445 15.0777 39.399 15.4919 39.0212C15.7298 38.8029 15.9005 38.523 16.0656 38.2459C16.3735 37.731 16.6813 37.2161 16.9864 36.7039C16.3399 36.6395 16.1104 35.7552 15.5171 35.4865C15.2121 35.3494 14.8622 35.397 14.532 35.4445C14.1794 35.4977 13.8267 35.5509 13.4741 35.6041C12.5674 35.7384 12.1644 36.3905 11.9741 37.258Z" fill="#4C434A"/>
<path d="M18.8359 55.2612C18.8359 55.2612 19.9526 57.0356 20.1121 56.8788C20.2688 56.7221 21.5282 52.8264 21.5282 52.8264L23.1822 53.7052L26.4678 50.8198L28.771 53.7052L29.1264 48.4578L31.8915 47.3608L30.7776 45.7432L19.7987 49.9551L18.8359 55.2612Z" fill="#C8AA98"/>
<path d="M26.8939 44.9207C27.9853 45.4161 30.7056 44.6773 31.7971 44.347C31.9286 44.3078 32.0321 44.4646 31.9398 44.5709L31.0023 45.6512L31.8474 45.4581C31.9314 45.4385 32.0126 45.4161 32.0965 45.3853C32.3204 45.307 32.757 45.1642 32.6982 45.2342L31.5116 46.7231L28.1449 48.3602L28.2848 51.3156C28.2848 51.3156 27.1961 49.1439 25.7689 49.3901L22.8079 52.4602L21.0868 50.949L20.0513 54.9901L17.9383 51.7382L17.7284 50.4256L15.2489 52.2643C15.2489 52.2643 15.0922 48.78 16.8301 46.8238C16.8301 46.8238 15.8954 46.3312 14.9746 47.5151L15.9569 45.1222C15.9569 45.1222 17.8852 45.8891 19.7211 45.4301C21.5569 44.9711 22.5337 44.2715 23.9609 44.2015C25.3854 44.1287 26.8939 44.9207 26.8939 44.9207Z" fill="#E6D1C7"/>
<path d="M32.1022 48.6285L34.4643 50.372L35.1975 46.9101L37.6911 47.1004L39.082 46.2273L39.4766 48.5109L42.1492 46.3868L43.3862 48.3011L44.3042 47.1004L45.3704 48.2367V47.1004C45.3704 47.1004 44.0411 45.4185 43.5178 43.9856C43.5178 43.9856 43.0056 45.8327 43.1316 46.3588L42.3843 45.2142L40.0615 46.3896L39.5717 44.2039C39.5717 44.2039 37.9093 45.5304 37.5008 46.0118L34.8617 46.0454L34.2991 48.3542L31.7412 46.8598L32.1022 48.6285Z" fill="#AA6138"/>
<path opacity="0.4" d="M17.3679 51.3152L14.4713 57.8751L12.9517 58.1466L12.3164 60.4415L15.1766 63.0973C15.1766 63.0973 17.3707 57.6568 17.547 56.0364C17.7233 54.416 18.9715 53.333 18.9715 53.333L17.936 51.7378L17.3679 51.3152Z" fill="#4B2611"/>
<path d="M43.3385 16.7861C43.2937 15.7255 43.845 14.6564 44.7378 14.0827C44.9532 13.9427 45.1967 13.8224 45.3339 13.6013C45.415 13.4698 45.4486 13.3131 45.5018 13.1675C45.6865 12.6498 46.1091 12.2608 46.4701 11.8438C47.013 11.2141 47.4356 10.4921 47.8526 9.77281C48.0905 9.36422 48.3312 8.94722 48.4347 8.48545C48.5187 8.11883 48.5103 7.73822 48.5327 7.36321C48.5802 6.51803 48.9581 6.09544 49.2995 5.32022C49.5374 4.78009 50.1559 3.99648 50.4861 3.50952C50.8219 3.71942 50.9367 4.1476 50.9982 4.53941C51.1186 5.30623 51.1354 6.08424 51.1522 6.85946C51.1969 9.05357 51.2249 11.2477 51.2333 13.4446C51.2361 13.7608 51.2361 14.0799 51.1382 14.3821C51.0458 14.6732 50.8695 14.9307 50.7716 15.2189C50.6764 15.5072 50.6792 15.8682 50.9059 16.0697C51.6475 16.7358 51.4348 18.0455 51.0346 18.9607C50.6344 19.8758 50.0243 20.6818 49.6269 21.5969C49.0532 22.9207 48.9441 24.4403 48.18 25.6661C48.0009 25.9544 47.7379 26.2482 47.3964 26.2482C46.9794 26.2482 46.708 25.8256 46.5177 25.4562C46.0055 24.4599 45.4794 23.402 45.5605 22.2854C45.6081 21.6053 45.8432 20.8049 45.3535 20.3292C45.1995 20.178 44.9896 20.0885 44.8469 19.9262C44.4467 19.4588 44.7881 18.6528 44.4075 18.1686C44.2256 17.9364 43.9234 17.844 43.6799 17.6761C43.4364 17.5082 43.1593 17.0212 43.3385 16.7861Z" fill="#FBE6D8"/>
<path d="M11.2613 12.8878C11.0458 12.3476 10.9507 11.7655 10.9031 11.1862C10.696 8.66467 11.4432 6.07876 12.9629 4.05536C13.1784 3.7671 13.5198 3.45925 13.8528 3.59639C14.0655 3.68314 14.1691 3.91823 14.253 4.13372C14.9303 5.86606 15.6075 7.5956 16.2848 9.32794C16.8725 10.8308 17.4714 12.4064 17.3091 14.0128C17.2951 14.1555 17.2727 14.3039 17.2056 14.4298C17.0992 14.6313 16.8977 14.76 16.7158 14.8972C16.5339 15.0343 16.3576 15.2134 16.338 15.4401C16.3184 15.6668 16.5591 15.9075 16.7634 15.8067C16.5199 16.2293 16.2372 16.6323 15.921 17.0045C15.7783 17.1724 15.6243 17.3376 15.4256 17.4327C14.1607 18.0456 13.5953 16.4112 13.0972 15.664C12.4815 14.7405 11.6755 13.9317 11.2613 12.8878Z" fill="#FBE6D8"/>
<path d="M14.1011 6.79472C14.3138 7.51117 14.3362 8.26679 14.325 9.01402C14.311 9.8704 14.3474 10.7296 14.4369 11.5803C14.5125 12.3136 14.6356 13.0636 15.0274 13.6877C15.4193 14.3118 16.1441 14.7764 16.8717 14.6588C17.5994 14.5413 18.1675 13.6793 17.8317 13.0244C17.7281 12.8229 17.5602 12.6634 17.4482 12.4675C17.2467 12.1149 17.2467 11.6867 17.16 11.2893C17.0005 10.5617 16.5471 9.94036 16.2197 9.27149C15.4137 7.62871 15.3437 5.65569 14.3026 4.15004C14.1515 3.93175 13.9668 3.71345 13.7121 3.63509C12.0525 3.12295 13.7597 5.64729 14.1011 6.79472Z" fill="#C8AA98"/>
<path d="M50.6407 3.75024C50.3944 4.4471 50.3048 5.26989 50.3608 6.00592C50.4952 7.74106 50.1761 9.57975 49.1126 10.9567C48.7516 11.424 48.315 11.8298 47.996 12.3252C47.635 12.8905 47.4447 13.5454 47.1284 14.1387C46.7506 14.8495 46.1937 15.4624 45.522 15.9074C46.009 16.3776 46.2944 17.052 46.2888 17.7293C46.2888 17.9392 46.2413 18.1799 46.0622 18.2918C45.9278 18.3758 45.7543 18.3618 45.5976 18.3366C44.7412 18.1995 43.8848 17.7657 43.4622 17.0073C43.0397 16.2488 43.1936 15.1518 43.9352 14.6984C44.3634 14.4381 44.9651 14.3738 45.1946 13.926C45.3121 13.6937 45.2925 13.4166 45.3625 13.1648C45.522 12.5911 46.1013 12.2636 46.5407 11.8606C47.649 10.8503 48.1051 9.83442 48.2787 8.34556C48.3934 7.36045 49.0847 4.71297 50.3944 3.98533C50.3832 4.26799 49.9522 4.13925 49.8655 4.41072" fill="#C8AA98"/>
<path d="M43.6382 16.5984C43.8957 16.159 44.4051 15.8764 44.9172 15.896C45.4266 15.9128 45.9163 16.229 46.143 16.688C46.2969 17.0014 46.4844 17.4604 46.8203 17.3624C46.963 17.3205 47.0665 17.1777 47.2149 17.1582C47.4024 17.1358 47.5507 17.3345 47.5647 17.522C47.5787 17.7095 47.5031 17.8914 47.4639 18.0761C47.2876 18.9297 47.8977 19.7329 48.0489 20.592C48.1944 21.426 47.8977 22.2796 47.4947 23.024C47.3744 23.2479 47.2429 23.4718 47.1981 23.7209C47.1617 23.9168 47.1841 24.1183 47.1673 24.3142C47.1337 24.7004 46.949 25.0754 46.6635 25.3357C46.5936 25.4001 46.5012 25.4616 46.4089 25.4336C46.3445 25.4141 46.3025 25.3553 46.2661 25.2993C45.4853 24.1071 45.2922 22.5483 45.7568 21.2021C45.2726 22.0305 44.5646 22.6518 43.781 23.2059C43.7026 22.274 43.6998 21.1182 43.6215 20.1834C43.3052 21.0566 42.8127 21.8682 42.1858 22.5539C41.5897 22.1593 41.2734 21.3841 41.4273 20.6872C41.5729 20.0239 42.071 19.509 42.432 18.9353C42.849 18.2608 43.238 17.2841 43.6382 16.5984Z" fill="#F5B2D3"/>
<path d="M13.9199 16.1953C14.2725 16.2485 14.6056 15.9574 14.7259 15.6216C14.8463 15.2858 14.8071 14.9163 14.7623 14.5609C14.7175 14.2055 14.6755 13.8361 14.7931 13.4975C14.7511 13.6178 15.7586 14.9555 15.9321 15.0507C16.2764 15.2382 16.6989 15.143 17.0907 15.1318C17.379 15.1234 17.698 15.1514 17.9163 14.9639C18.1402 14.7708 18.1542 14.4322 18.1514 14.1383C18.1458 13.7661 18.143 13.3939 18.1374 13.0217C17.9275 12.8678 17.5861 12.879 17.4742 12.6439C17.435 12.5627 17.435 12.4704 17.4294 12.3836C17.3958 11.7511 17.1075 11.1382 16.6402 10.7072C16.5254 10.6037 16.3883 10.5029 16.2344 10.5169C15.9965 10.5365 15.8594 10.8108 15.8678 11.0487C15.8762 11.2865 15.9881 11.5104 16.0301 11.7427C16.0972 12.1205 15.9881 12.5123 16.0609 12.8874C16.1308 13.2372 16.3547 13.5394 16.629 13.7661C16.6682 13.7969 16.7101 13.8333 16.7157 13.8809C16.7269 13.9536 16.6514 14.0124 16.5786 14.018C16.5058 14.0236 16.4359 13.9956 16.3659 13.976C15.8454 13.8445 15.5095 14.2475 15.6942 14.6813C15.8594 15.0703 16.5058 15.4957 16.8305 15.7531C16.92 15.8231 17.0124 15.8987 17.046 16.0078C17.0963 16.1757 16.9704 16.352 16.8165 16.4444C16.6626 16.5367 16.4862 16.5703 16.3323 16.6571C15.9461 16.8698 15.7782 17.326 15.6411 17.7457C15.4592 18.2999 15.3276 18.9407 15.059 19.4501C14.53 19.1395 14.1298 16.2289 13.9199 16.1953Z" fill="#F5B2D3"/>
<path d="M44.1078 39.3708C43.9091 39.3764 43.702 39.3624 43.5257 39.2701C43.3018 39.1526 43.1591 38.9259 43.0388 38.702C42.9156 38.4725 42.8205 38.1451 43.0276 37.9855C43.2375 37.8232 43.5257 37.9995 43.7608 38.1199C44.2841 38.3829 44.9222 38.3354 45.4708 38.1255C45.6471 38.0583 46.6154 37.3782 46.7077 37.423C47.0772 37.6021 46.4727 38.201 46.3187 38.3605C45.745 38.9567 44.9418 39.3429 44.1078 39.3708Z" fill="#AA6138"/>
<path d="M44.1806 41.1144C44.2254 41.1116 44.2757 41.106 44.3009 41.0724C44.3345 41.0276 44.3121 40.9661 44.2897 40.9157C44.2086 40.7366 44.1106 40.5435 43.9315 40.4651C43.7776 40.3979 43.6013 40.4315 43.4361 40.4315C42.9688 40.4343 42.6329 40.1377 42.2188 40.0173C42.549 40.7114 43.4305 41.1396 44.1806 41.1144Z" fill="#AA6138"/>
<path d="M48.8983 8.53558C49.1278 8.19135 49.2873 7.78555 49.2677 7.37136C49.2509 6.99634 49.0942 6.64092 49.0634 6.2687C49.0438 6.02522 49.0774 5.78175 49.1082 5.54106C49.1222 5.42352 49.1306 5.28639 49.0466 5.20243C48.9207 5.0765 48.708 5.16885 48.5764 5.28639C48.0223 5.77895 47.8824 6.58215 47.804 7.32098C47.7257 8.05981 47.6501 8.85462 47.1659 9.41714C46.9449 9.67461 46.6566 9.86212 46.4019 10.086C46.1501 10.3099 45.9206 10.5982 45.8926 10.9368C46.0717 11.0179 46.2732 10.8976 46.4327 10.7829C47.3255 10.1364 48.277 9.46751 48.8983 8.53558Z" fill="#FF9700"/>
<path d="M44.2535 16.5903C44.0912 18.5969 43.6378 20.6119 42.6163 22.347C42.5408 22.4758 42.4512 22.6101 42.3113 22.6521C42.1798 22.6941 42.0342 22.6381 41.9223 22.5569C41.5249 22.2603 41.4913 21.6754 41.1919 21.278C41.0911 21.1464 40.9596 21.0317 40.8952 20.8806C40.828 20.7266 40.8616 20.5111 41.0155 20.4496C41.0855 20.4216 41.1667 20.43 41.2366 20.4048C41.3206 20.374 41.3794 20.3012 41.4297 20.2285C41.8607 19.6296 42.1574 18.9355 42.6135 18.3534C42.8906 18.0008 43.2376 17.6678 43.3244 17.2256C43.372 16.9821 43.3328 16.7218 43.4195 16.4895C43.5203 16.2125 43.775 16.0222 44.0156 15.8515C44.2255 15.7031 44.5026 15.5156 44.7685 15.6136C44.7601 15.8515 44.5278 15.7535 44.4075 15.871C44.2563 16.0194 44.2675 16.4 44.2535 16.5903Z" fill="#B8869E"/>
<path d="M15.9424 10.3662C15.8417 10.6404 15.6458 10.9091 15.7129 11.1918C15.7409 11.3093 15.8109 11.4129 15.8585 11.5276C15.934 11.7067 15.9424 11.9054 15.9536 12.0985C15.9676 12.3672 15.9788 12.6358 15.9928 12.9045C16.0012 13.0668 16.0068 13.2375 15.934 13.3803C15.8473 13.5538 15.657 13.6629 15.573 13.8392C15.4666 14.0575 15.5478 14.3178 15.6626 14.5305C15.8836 14.9447 16.2363 15.2889 16.6533 15.5016C16.7344 15.4848 16.6784 15.3589 16.7092 15.2833C16.7288 15.233 16.7876 15.2106 16.8408 15.1994C17.0786 15.1462 17.3249 15.1658 17.5628 15.1322C17.8035 15.0986 18.0554 14.9923 18.1645 14.7768C18.2289 14.6508 18.2345 14.5053 18.2345 14.3654C18.2345 13.9596 18.2009 13.5566 18.1281 13.1564C18.1141 13.0836 18.0973 13.0053 18.0358 12.9661C17.9742 12.9269 17.8958 12.9381 17.8231 12.9297C17.644 12.9073 17.5124 12.7394 17.4621 12.5631C17.4117 12.3896 17.4257 12.2021 17.4117 12.0229C17.3641 11.4128 17.0255 10.8699 16.698 10.3522C16.4909 10.0247 16.2838 9.54338 16.0012 9.2915C15.8696 9.61334 16.0739 10.0107 15.9424 10.3662Z" fill="#B8869E"/>
<path d="M42.6604 19.4753C42.2798 19.9091 41.7816 20.2366 41.2303 20.4101C41.082 20.4577 40.9281 20.494 40.7937 20.5724C40.6594 20.6508 40.5446 20.7823 40.5335 20.939C40.5251 21.0398 40.5614 21.1349 40.5922 21.2329C40.7182 21.6191 40.7657 22.0277 40.9169 22.4055C41.068 22.7805 41.3562 23.1387 41.7536 23.2171C41.93 23.2535 42.1343 23.2199 42.2546 23.0855C42.4617 22.8589 42.2266 22.7413 42.179 22.5454C42.1091 22.2628 42.2434 21.8038 42.2798 21.5155C42.3749 20.8299 42.5009 20.1498 42.6604 19.4753Z" fill="#FF9700"/>
<path d="M14.9574 19.8112C15.3716 20.2785 15.4164 20.9698 15.3212 21.5883C15.2261 22.2068 15.0162 22.8085 15.0022 23.4326C14.9798 24.4177 15.4304 25.4951 14.9098 26.3319C14.8147 26.4859 14.6803 26.6258 14.504 26.6734C14.3585 26.7125 14.199 26.6818 14.0562 26.637C13.2195 26.3627 12.6625 25.5847 12.2176 24.8235C11.8873 24.2582 11.5795 23.6677 11.4339 23.0268C11.2884 22.3859 11.3192 21.689 11.6326 21.1125C11.7194 20.953 11.8285 20.7991 11.8453 20.6172C11.8677 20.3513 11.6774 20.119 11.5011 19.9203C11.1037 19.4725 10.7063 19.0248 10.3089 18.577C10.2361 18.4958 10.1578 18.4007 10.1634 18.2915C10.169 18.1516 10.3061 18.0536 10.4376 18.0089C10.8406 17.8689 11.2996 18.0201 11.6354 18.2887C11.9713 18.5574 12.2036 18.9268 12.4302 19.2878C12.2539 19.0975 12.0748 18.9016 11.9965 18.6553C11.9153 18.4091 11.9657 18.104 12.1784 17.9585C12.6289 17.6506 13.0263 18.6609 13.3678 18.8848C13.8827 19.2235 14.5348 19.3354 14.9574 19.8112Z" fill="#AA6138"/>
<path d="M17.0349 15.8739C16.6991 16.0614 16.2625 16.0502 15.9378 15.8459C15.977 16.0558 16.0414 16.2601 16.1337 16.4504C15.8931 16.5064 15.6356 16.484 15.4117 16.3833C15.2746 17.0186 15.1626 17.6622 15.0815 18.3059C15.0339 18.6809 14.9947 19.0671 15.0955 19.4338C15.1346 19.5793 15.1822 19.764 15.0647 19.8535C15.0087 19.8955 14.9219 19.9067 14.8912 19.9711C14.866 20.0243 14.8912 20.0858 14.9219 20.139C15.0087 20.2957 15.1206 20.4413 15.2522 20.5672C15.3137 20.6288 15.4005 20.6875 15.4817 20.6539C15.5488 20.626 15.5768 20.5504 15.5964 20.4804C15.644 20.3153 15.6944 20.153 15.7419 19.9879C15.7559 19.9375 15.7727 19.8843 15.8175 19.8563C15.8707 19.82 15.9434 19.8368 16.0106 19.8284C16.1421 19.8144 16.2401 19.6968 16.2821 19.5709C16.324 19.4449 16.3184 19.3106 16.324 19.1791C16.3548 18.4095 16.727 17.6958 17.1664 17.0633C17.2784 16.901 17.3987 16.7387 17.4687 16.554C17.5386 16.3693 17.5526 16.1538 17.4547 15.9803C17.3371 15.7676 17.0853 15.6696 16.8502 15.6109C16.7858 15.5941 16.7103 15.5829 16.6571 15.622C16.6011 15.664 16.5955 15.7508 16.6263 15.8124C16.6571 15.8767 16.7131 15.9215 16.7662 15.9663" fill="#FF9700"/>
<path d="M16.8547 15.6803C16.9191 15.7335 16.9863 15.7895 17.0143 15.8679C17.0395 15.9322 17.0339 16.005 17.0199 16.0749C16.9331 16.5871 16.5609 16.9929 16.2838 17.4295C16.0543 17.7905 15.8808 18.1851 15.7689 18.5965C15.7017 18.8512 15.6569 19.1142 15.5534 19.3549C15.4498 19.5984 15.2791 19.8251 15.0328 19.923C14.627 19.5172 14.6438 18.868 14.4647 18.325C14.3836 18.0816 14.2632 17.8577 14.1709 17.6198C14.0281 17.256 13.9582 16.8698 13.8882 16.4835C13.8714 16.3856 13.8518 16.2792 13.8966 16.1897C14.017 15.9462 14.4088 16.061 14.6326 15.9042C14.7502 15.8203 14.8006 15.6692 14.8006 15.5236C14.8006 15.3809 14.7586 15.241 14.725 15.101C14.6215 14.6896 14.5823 14.2615 14.6075 13.8389C14.6159 13.7045 14.6019 13.4135 14.7894 13.4582C14.9097 13.4862 15.0776 13.8165 15.1476 13.9088C15.6485 14.5581 16.2223 15.157 16.8547 15.6803Z" fill="#FF9700"/>
<path d="M16.6809 14.3537C16.846 14.4769 17.0335 14.5636 17.235 14.614C17.235 13.9843 17.3273 13.3574 17.5009 12.7529C17.7387 12.9264 18.069 12.918 18.3125 13.0832C18.5475 13.2427 18.6539 13.5393 18.6595 13.822C18.6623 14.1047 18.5755 14.3789 18.4916 14.6504C18.3936 14.9638 18.2957 15.2829 18.1054 15.5487C17.9151 15.8174 17.6184 16.0273 17.291 16.0273C16.4094 16.0161 16.5857 14.9051 16.6809 14.3537Z" fill="#FF9700"/>
<path d="M13.4199 34.3696C13.4199 34.3696 16.3837 31.4563 18.4826 30.46C18.4826 30.46 19.1123 28.5681 19.6636 27.2724C19.9211 26.6679 19.9267 25.9906 19.686 25.3777L19.1907 24.1155C18.978 23.5754 19.0647 22.9597 19.4201 22.5007L23.5453 17.1302C23.5453 17.1302 24.3681 11.6253 23.9427 11.3986L29.2097 10.3967C29.2097 10.3967 24.5416 13.7439 24.5164 17.1302C24.4968 19.5426 25.0398 21.9802 25.3504 23.1836C25.4763 23.6649 25.3196 24.1743 24.953 24.5073L22.9212 26.346C22.7421 26.5083 22.6553 26.7462 22.6889 26.9841L23.0024 29.209C23.0779 29.7407 23.3718 30.2137 23.814 30.5131C24.564 31.0225 25.689 31.8649 25.9297 32.4806C26.2963 33.4265 27.0827 36.1523 28.0287 36.2055C28.9718 36.2587 30.7321 36.4938 31.6501 36.0488C32.4197 35.6738 36.0775 33.7651 37.2305 33.1606C37.3089 33.1186 37.39 33.2138 37.334 33.2838C36.9758 33.7511 36.3154 34.6887 36.0103 35.6094C35.8648 36.0516 35.6801 36.4826 35.4114 36.8632C35.2323 37.1151 35.0812 37.2718 34.9636 37.3669C34.8909 37.4257 34.9272 37.5405 35.0168 37.5516C35.4842 37.616 36.3266 37.7755 36.6596 38.145C37.1186 38.6543 41.4284 42.8914 43.0152 46.5044C43.0432 46.5688 43.1384 46.552 43.1412 46.482C43.1496 45.9531 43.2083 44.8672 43.5078 43.9857C43.5274 43.9269 43.6141 43.9353 43.6197 43.9969C43.6645 44.5874 43.9276 45.9755 45.3605 47.0977" stroke="#3D2A46" stroke-width="0.559722" stroke-miterlimit="10"/>
<path d="M45.7471 48.3542C45.7667 48.3766 47.5438 54.4104 47.5802 55.8573" stroke="#3D2A46" stroke-width="0.839583" stroke-miterlimit="10"/>
<path d="M15.8554 44.7215C17.3135 45.021 18.8779 45.3792 20.35 45.0238C22.7232 44.2709 24.7942 43.4342 27.2262 44.6684C27.4641 44.7859 27.6656 44.9034 27.9034 44.8419C27.9454 44.8307 27.9902 44.8559 28.0014 44.8978C28.0126 44.9398 27.9874 44.9818 27.9482 44.993C27.8139 45.035 27.6544 45.0462 27.5144 45.007C25.6506 44.1758 23.851 44.1926 21.9536 44.9482C21.2176 45.2057 20.4675 45.5275 19.6755 45.6339C18.349 45.771 17.028 45.6199 15.7127 45.452C15.2005 45.3736 15.3433 44.604 15.8554 44.7215Z" fill="#3D2A46"/>
<path d="M15.5576 51.5533L17.6706 50.3695C17.6874 50.3108 17.7713 50.3192 17.7769 50.3779L17.9057 51.7353C17.9057 51.7353 19.5233 53.9937 19.8815 54.9956C19.9095 55.074 20.0214 55.0684 20.0438 54.99L21.2108 50.9768L22.4338 52.3342C22.6101 52.5273 22.9124 52.5301 23.0915 52.3398L25.6354 49.6167C25.8005 49.4376 26.0636 49.39 26.2819 49.4964C26.8444 49.7762 27.8799 50.3695 28.2185 51.0804L28.0898 48.6456C28.073 48.3238 28.2493 48.0243 28.5376 47.8844L31.0283 46.6782C31.2718 46.5606 31.5573 46.5774 31.784 46.7257C32.548 47.2211 34.2439 48.3293 34.3055 48.4301L34.9352 46.0681H37.5071L39.6061 44.1958L39.9727 46.4347L42.3431 45.1781" stroke="#3D2A46" stroke-width="0.559722" stroke-miterlimit="10"/>
<path d="M19.4771 53.7919C18.9481 55.625 18.4752 57.5168 18.3184 59.4199C18.2373 60.2483 18.296 61.0431 18.5143 61.8099C18.2513 61.7344 17.7727 61.6028 17.5628 61.4461C17.199 61.211 16.9611 60.7996 16.9219 60.3686C16.9219 60.363 16.9191 60.3574 16.9247 60.377C16.9275 60.3854 16.9303 60.391 16.9331 60.3994C17.0339 60.6457 17.3977 60.6485 17.5068 60.4218C17.2774 61.6868 17.2466 63.1197 17.3837 64.4126C17.4593 65.3474 17.8651 66.0666 18.5423 66.6627C18.9229 67.0041 19.3651 67.2896 19.8437 67.4771C19.9192 67.4939 20.0424 67.6002 20.0564 67.715C20.1067 67.9081 19.9136 68.1124 19.7457 68.0956C19.6926 68.0956 19.3679 68.0956 19.3091 68.0956L18.6011 68.0928L18.492 68.0732C18.6963 68.1656 18.9649 67.9221 18.8418 67.6814C18.8558 67.715 18.8866 67.7682 18.9005 67.7989C19.3315 68.6413 19.8101 69.4865 20.3614 70.2533C20.6693 70.6703 21.0079 71.1097 21.4417 71.3784L21.4865 71.4064C21.5061 71.4203 21.5284 71.4371 21.548 71.4567C21.7523 71.6582 21.6712 72.0192 21.4081 72.1172C21.145 72.2012 20.8148 72.2151 20.5741 72.0808C20.4426 72.0248 20.3222 71.9661 20.1963 71.9297L20.2495 71.787C22.2617 72.7189 24.3438 73.788 26.5324 74.177C26.8934 74.2134 26.8486 74.7703 26.4736 74.7367C24.2599 74.0371 22.2757 72.8896 20.1823 71.9241L20.2355 71.7814C20.4762 71.8485 20.7728 71.7898 20.9267 71.6946C20.9911 71.6554 21.117 71.6023 21.215 71.5883C21.2542 71.5827 21.2262 71.5855 21.2038 71.5939C21.0863 71.6358 21.0639 71.7982 21.1702 71.8709C20.2467 71.2972 19.6114 70.2113 19.0265 69.2766C18.7746 68.854 18.5227 68.395 18.296 67.9557C18.1477 67.6758 18.464 67.3876 18.7074 67.4967L18.5983 67.4771C18.8334 67.4715 19.4351 67.4743 19.6618 67.4687C19.6814 67.4687 19.7205 67.4687 19.7401 67.4687C19.3959 67.4771 19.3427 67.9557 19.631 68.0592C18.6011 67.6646 17.7167 66.9202 17.1514 65.9714C16.4853 64.5805 16.6393 63.0581 16.6924 61.5944C16.7456 61.1019 16.7484 60.5953 16.9191 60.1196C16.9555 60.044 17.0367 59.9684 17.1234 59.9404C17.2046 59.9013 17.4061 59.9348 17.4761 60.0328C17.5236 60.0888 17.5432 60.1308 17.56 60.1839C17.5908 60.3043 17.588 60.4022 17.6272 60.5142C17.7027 60.7408 17.9322 60.9395 18.1505 61.0095L17.7447 61.4041C17.5908 60.7045 17.616 60.03 17.6692 59.3695C17.8595 57.4049 18.352 55.499 18.9425 53.6212C19.0601 53.2825 19.5834 53.4309 19.4771 53.7919Z" fill="#3D2A46"/>
<path d="M31.7838 46.7256L32.6261 51.7883C32.6261 51.7883 31.6774 53.8536 31.7838 55.0515C31.7838 55.0515 32.573 53.8341 33.4126 53.2575C33.4126 53.2575 31.9209 57.0888 31.7754 58.9247L33.2027 57.4555C33.2027 57.4555 31.0505 64.2757 31.4703 68.37C31.4703 68.37 31.7838 67.6872 32.4134 67.217C32.4134 67.217 32.3351 72.6211 34.0031 74.0372" stroke="#3D2A46" stroke-width="0.839583" stroke-miterlimit="10" stroke-linecap="round"/>
<path d="M41.0684 52.7256L42.56 58.418C42.5824 58.5047 42.5628 58.5971 42.504 58.667C42.1934 59.0309 41.2223 60.2175 41.4434 60.6596C41.7064 61.1858 43.0582 63.8697 43.3716 63.8081C43.6851 63.7465 48.0537 62.8901 48.2636 62.6411C48.4735 62.392 48.4735 59.4003 48.4735 59.4003L47.5807 57.9506" stroke="#3D2A46" stroke-width="0.839583" stroke-miterlimit="10" stroke-linecap="round"/>
<path d="M14.9596 19.7974C14.5062 18.7591 14.1284 17.6872 13.829 16.5929C13.8066 16.5146 13.787 16.4334 13.7982 16.3523C13.8234 16.1843 13.9801 16.0696 14.1396 16.0164C14.2991 15.9633 14.4726 15.9521 14.6294 15.8905C14.6909 15.8653 14.7553 15.8289 14.7833 15.7702C14.8113 15.7142 14.8029 15.647 14.7945 15.5826C14.7105 14.8998 14.6993 14.2057 14.7609 13.5201C14.7721 13.3941 14.94 13.3577 14.996 13.4725C15.4382 14.3597 16.0678 15.1545 16.8375 15.7786" stroke="#3D2A46" stroke-width="0.559722" stroke-miterlimit="10" stroke-linecap="round"/>
<path d="M16.6749 13.747C16.5126 13.5091 16.2355 13.3636 16.09 13.1145C15.7542 12.5352 16.2887 11.7264 15.9473 11.1499" stroke="#3D2A46" stroke-width="0.559722" stroke-miterlimit="10" stroke-linecap="round"/>
<path d="M17.8416 12.9578C17.5506 12.8934 17.3715 12.594 17.3071 12.3057C17.2427 12.0174 17.2567 11.7124 17.1784 11.4241C17.1028 11.1443 16.9433 10.898 16.8006 10.6461C15.6335 8.61434 15.3397 6.17395 14.195 4.12816C14.0579 3.88468 13.8816 3.62441 13.6101 3.56284C13.3359 3.50128 13.0084 3.80073 13.154 4.04141" stroke="#3D2A46" stroke-width="0.559722" stroke-miterlimit="10" stroke-linecap="round"/>
<path d="M11.2003 13.0784C10.7945 11.5251 10.8029 9.89354 10.8785 8.29833C10.8925 8.04925 11.2731 8.06884 11.2591 8.32072C11.0828 9.89074 10.968 11.4999 11.2703 13.0616C11.2815 13.1035 11.2143 13.1231 11.2003 13.0784Z" fill="#3D2A46"/>
<path d="M45.5857 10.976C47.0466 10.3743 48.3116 9.27162 49.1148 7.88911C49.2491 7.65682 49.6101 7.85552 49.4814 8.09341C48.6726 9.57947 47.3657 10.7913 45.8068 11.4881C45.4626 11.6336 45.2415 11.1243 45.5857 10.976Z" fill="#3D2A46"/>
<path d="M48.7332 6.37253C49.2481 5.32305 49.8694 4.32675 50.5914 3.40601C51.028 4.2288 51.056 5.19992 51.0728 6.13185C51.1204 8.6478 51.1679 11.1638 51.2155 13.6797C51.2239 14.0771 51.126 14.4745 50.8965 14.7992C50.6698 15.121 50.569 15.5912 50.7258 15.8962C50.8181 16.0725 50.9637 16.2152 51.0728 16.3804C51.4534 16.9569 51.3415 17.7265 51.1064 18.3758C50.6698 19.5932 49.875 20.6622 49.4608 21.888C49.013 23.2174 49.0046 24.7426 48.0195 25.8033C47.79 26.0496 47.4682 26.2035 47.1352 26.1643C46.6118 26.1027 46.4663 25.6578 46.3152 25.2632C46.0437 24.5579 45.6575 23.889 45.5008 23.1474C45.344 22.4058 45.4728 21.5382 46.0633 21.068C45.3384 21.7425 44.6556 22.4338 43.9895 23.1642C43.8356 22.1147 43.7488 21.0568 43.7292 19.999C43.3962 20.8973 42.9064 21.7341 42.2852 22.4617" stroke="#3D2A46" stroke-width="0.559722" stroke-miterlimit="10" stroke-linecap="round"/>
<path d="M44.4062 15.9045C45.4417 15.3224 46.147 16.5174 46.2981 17.4493" stroke="#3D2A46" stroke-width="0.559722" stroke-miterlimit="10" stroke-linecap="round"/>
<path d="M47.0312 23.4245C47.6553 23.1894 47.8428 22.4142 47.9268 21.7537C48.008 21.1156 48.0695 20.4355 47.7953 19.8534C47.7029 19.6575 47.577 19.4812 47.4986 19.2797C47.3279 18.8291 47.4315 18.3254 47.535 17.8552" stroke="#3D2A46" stroke-width="0.559722" stroke-miterlimit="10" stroke-linecap="round"/>
<path d="M44.852 15.4792C45.7447 15.3616 46.6627 15.5771 47.3204 16.204C47.3819 16.2684 47.3819 16.3691 47.3176 16.4307C47.2588 16.4895 47.1664 16.4923 47.1021 16.4391C46.5395 15.9801 45.6552 15.8542 44.9667 16.0277C44.5945 16.1201 44.4714 15.5519 44.852 15.4792Z" fill="#3D2A46"/>
<path d="M41.0898 20.626C42.1141 19.4925 43.1832 18.2499 43.3595 16.7303C43.4043 16.3357 43.3875 15.9299 43.5022 15.5493C43.7737 14.6257 44.7028 14.0884 45.5536 13.6406" stroke="#3D2A46" stroke-width="0.559722" stroke-miterlimit="10" stroke-linecap="round"/>
<path d="M45.0723 12.9044C46.2253 12.451 47.1712 11.4995 47.619 10.3464" stroke="#3D2A46" stroke-width="0.559722" stroke-miterlimit="10" stroke-linecap="round"/>
<path d="M39.517 11.6619C39.0832 12.0733 38.6578 12.4931 38.2436 12.924C37.7707 13.4138 37.8686 14.1946 38.4032 14.6144C38.6243 14.7879 38.8174 15.0034 38.9629 15.2385C39.3715 15.8962 39.5198 16.677 39.7437 17.4158C39.9816 18.1966 40.6672 19.9234 41.087 20.623" stroke="#3D2A46" stroke-width="0.559722" stroke-miterlimit="10" stroke-linecap="round"/>
<path d="M28.925 23.2286C29.4203 22.7332 30.1788 22.6493 30.87 22.5373C31.4381 22.445 32.0035 22.3162 32.5548 22.1511C32.8179 22.0728 33.0893 21.9804 33.2964 21.7985C33.5035 21.6166 33.6295 21.3171 33.5371 21.0569C33.4447 20.7994 33.1761 20.6567 32.9298 20.5363C32.5464 20.3516 32.163 20.1641 31.7796 19.9794C31.6368 19.9094 31.4913 19.8423 31.3346 19.8283C30.9064 19.7947 30.579 20.1697 30.2487 20.444C29.7646 20.847 29.1601 21.0709 28.5556 21.2416C28.1302 21.3619 27.6768 21.4683 27.3662 21.7789C27.0079 22.1343 26.9156 22.6717 26.8428 23.1726C26.7952 23.4889 26.7505 23.8191 26.8596 24.1213C27.3634 25.543 28.5444 23.6092 28.925 23.2286Z" stroke="#3D2A46" stroke-width="0.559722" stroke-miterlimit="10" stroke-linecap="round"/>
<path d="M17.8781 21.3173C17.5171 20.9563 17.0469 20.7156 16.6803 20.3602C16.4704 20.1559 16.2325 19.8928 15.947 19.9572C15.6784 20.0187 15.5636 20.335 15.5189 20.6092C15.4685 20.9143 15.4489 21.2277 15.4601 21.5356C15.4685 21.7819 15.5664 22.0981 15.8127 22.0981C15.9414 22.0981 16.0478 22.0029 16.1653 21.9526C16.448 21.835 16.7838 21.9973 16.9601 22.2464C17.2792 22.6914 17.2232 23.4554 17.9648 23.002C18.6057 22.6074 18.2951 21.7371 17.8781 21.3173Z" stroke="#3D2A46" stroke-width="0.559722" stroke-miterlimit="10" stroke-linecap="round"/>
<path d="M14.5703 27.3508C14.7354 26.9422 14.9005 26.5364 15.0657 26.1278C15.1972 25.8004 15.3315 25.4618 15.3203 25.1091C15.3119 24.8796 15.242 24.6558 15.1916 24.4319C14.9817 23.5223 15.0741 22.5484 15.4519 21.6948" stroke="#3D2A46" stroke-width="0.559722" stroke-miterlimit="10" stroke-linecap="round"/>
<path d="M16.2155 19.5565C16.0616 18.7897 16.5485 18.0536 17.0243 17.4295C17.7687 16.4472 18.5411 15.4901 19.3443 14.5526C19.8761 13.9313 20.4302 13.31 21.1271 12.8818C22.0226 12.3305 23.1281 12.1122 23.8949 11.3901" stroke="#3D2A46" stroke-width="0.559722" stroke-miterlimit="10" stroke-linecap="round"/>
<path d="M44.5993 33.1943C44.6944 34.7084 45.5676 36.1497 46.8494 36.9557C47.0117 37.0564 47.0173 37.2887 46.8633 37.3978C46.354 37.7589 45.8223 38.0947 45.2234 38.2626C44.4929 38.4697 43.6282 38.3774 43.0908 37.84" stroke="#3D2A46" stroke-width="0.559722" stroke-miterlimit="10" stroke-linecap="round"/>
<path d="M42.7518 36.9641C42.7658 38.2067 43.2556 39.4353 44.098 40.3476C44.112 40.3616 44.1008 40.384 44.0812 40.3812C43.3843 40.3196 42.6315 40.2217 42.1445 39.7235" stroke="#3D2A46" stroke-width="0.559722" stroke-miterlimit="10" stroke-linecap="round"/>
<path d="M14.3291 39.5107C14.5698 39.4631 14.8105 39.4155 15.0512 39.3679C15.2135 39.3372 15.3758 39.3036 15.5185 39.2168C15.7005 39.1077 15.8208 38.923 15.9383 38.7438C16.2014 38.338 16.4645 37.9322 16.7275 37.5264C16.8647 37.3138 17.0074 37.0395 16.8787 36.8212C16.8003 36.6897 16.652 36.6253 16.5288 36.5357C16.1706 36.2727 16.0307 35.7577 15.6305 35.5646C15.443 35.4723 15.2247 35.4695 15.0176 35.4667C14.7321 35.4639 14.4439 35.4583 14.1584 35.4555C13.873 35.4527 13.5707 35.4527 13.3272 35.5982C12.6836 35.9844 11.8468 37.4537 12.1658 38.1813C12.4597 38.8642 13.6295 39.617 14.3291 39.5107Z" stroke="#3D2A46" stroke-width="0.559722" stroke-miterlimit="10"/>
<path d="M29.394 31.4568C30.057 31.4568 30.5946 30.4707 30.5946 29.2543C30.5946 28.0379 30.057 27.0518 29.394 27.0518C28.7309 27.0518 28.1934 28.0379 28.1934 29.2543C28.1934 30.4707 28.7309 31.4568 29.394 31.4568Z" fill="#3D2A46" stroke="#494054" stroke-width="0.279861" stroke-miterlimit="10"/>
<path d="M16.2489 30.0348C16.6306 30.0348 16.9401 29.3845 16.9401 28.5824C16.9401 27.7802 16.6306 27.1299 16.2489 27.1299C15.8671 27.1299 15.5576 27.7802 15.5576 28.5824C15.5576 29.3845 15.8671 30.0348 16.2489 30.0348Z" fill="#3D2A46" stroke="#494054" stroke-width="0.279861" stroke-miterlimit="10"/>
<path d="M12.4512 42.2397C12.745 42.388 13.649 42.5475 13.9792 42.5531C14.108 41.7415 13.9456 40.2387 13.7413 39.4438C13.7833 40.0288 13.9484 41.2741 13.9904 41.8591C14.0072 42.0941 14.0268 42.3348 14.1331 42.5447C14.3458 42.9673 14.844 43.1464 15.2946 43.2891C16.4364 43.6502 17.679 44.0084 18.8012 43.5998C19.5373 43.3311 20.1418 42.7546 20.9002 42.5643C21.4795 42.4188 22.0868 42.5111 22.6801 42.5335C23.2762 42.5531 23.9227 42.4803 24.3621 42.0773C24.8014 41.6743 24.8742 40.8516 24.3733 40.5297" stroke="#3D2A46" stroke-width="0.559722" stroke-miterlimit="10"/>
<path d="M28.7897 33.1804C29.8067 33.1804 30.6312 31.5478 30.6312 29.5338C30.6312 27.5198 29.8067 25.8872 28.7897 25.8872C27.7727 25.8872 26.9482 27.5198 26.9482 29.5338C26.9482 31.5478 27.7727 33.1804 28.7897 33.1804Z" stroke="#3D2A46" stroke-width="0.559722" stroke-miterlimit="10"/>
<path d="M15.9465 30.7735C16.4967 30.7735 16.9428 29.7924 16.9428 28.5822C16.9428 27.372 16.4967 26.3909 15.9465 26.3909C15.3963 26.3909 14.9502 27.372 14.9502 28.5822C14.9502 29.7924 15.3963 30.7735 15.9465 30.7735Z" stroke="#3D2A46" stroke-width="0.419792" stroke-miterlimit="10"/>
<path opacity="0.88" d="M29.1534 29.2512C29.5321 29.2512 29.8391 28.7588 29.8391 28.1514C29.8391 27.5439 29.5321 27.0515 29.1534 27.0515C28.7748 27.0515 28.4678 27.5439 28.4678 28.1514C28.4678 28.7588 28.7748 29.2512 29.1534 29.2512Z" fill="#FFFCFA" stroke="#3D2A46" stroke-width="0.209896" stroke-miterlimit="10"/>
<path opacity="0.88" d="M28.4693 29.8361C28.647 29.8361 28.7911 29.6594 28.7911 29.4415C28.7911 29.2235 28.647 29.0469 28.4693 29.0469C28.2916 29.0469 28.1475 29.2235 28.1475 29.4415C28.1475 29.6594 28.2916 29.8361 28.4693 29.8361Z" fill="#FFFCFA" stroke="#3D2A46" stroke-width="0.139931" stroke-miterlimit="10"/>
<path opacity="0.88" d="M15.7796 29.1337C15.9032 29.1337 16.0034 29.0109 16.0034 28.8595C16.0034 28.708 15.9032 28.5852 15.7796 28.5852C15.6559 28.5852 15.5557 28.708 15.5557 28.8595C15.5557 29.0109 15.6559 29.1337 15.7796 29.1337Z" fill="#FFFCFA" stroke="#3D2A46" stroke-width="0.139931" stroke-miterlimit="10"/>
<path opacity="0.9" d="M16.1434 28.4312C16.3984 28.4312 16.6052 28.1292 16.6052 27.7567C16.6052 27.3842 16.3984 27.0823 16.1434 27.0823C15.8884 27.0823 15.6816 27.3842 15.6816 27.7567C15.6816 28.1292 15.8884 28.4312 16.1434 28.4312Z" fill="#FFFCFA" stroke="#3D2A46" stroke-width="0.209896" stroke-miterlimit="10"/>
<path d="M36.3721 77.1323C35.4682 76.8188 34.7098 76.0884 34.1221 75.386L33.6995 74.8962C33.4812 74.6219 33.1817 74.3757 32.8263 74.5492C30.5063 75.7022 27.7552 75.8897 25.2868 75.1285C25.2617 75.1257 25.2309 75.1481 25.2253 75.1761C25.2253 75.1845 25.2253 75.1733 25.2225 75.1956C25.1609 75.7078 25.1385 75.8337 25.0853 76.2787L25.0741 76.3627L25.0686 76.4047C25.0881 76.2563 25.0182 76.0548 24.8838 75.9485C24.8671 75.9345 24.7775 75.8757 24.8363 75.9121C24.9706 75.9877 25.1049 76.0912 25.2169 76.1724L25.3652 76.2899L25.438 76.3515C25.4799 76.3851 25.5275 76.4298 25.5667 76.4746C25.7458 76.6705 25.8102 76.956 25.7934 77.2135C25.7906 77.6976 25.7514 78.1818 25.6591 78.6659C25.6283 78.7975 25.6283 78.873 25.5443 79.1081C25.3904 79.4999 25.0434 79.8106 24.6376 79.9197C24.4724 79.9701 24.2961 79.9701 24.1282 79.9673C23.0172 79.9589 21.9033 79.9393 20.8007 79.9701C20.6439 79.9701 20.5208 80.0037 20.3557 80.0708C19.7232 80.3311 18.9872 80.7565 18.3827 81.1231L18.2427 81.2099L18.17 81.2546C17.5767 81.6269 16.7791 81.6269 16.1802 81.2714C14.9488 80.6082 12.097 78.8506 13.0065 77.1351C13.1465 76.8468 13.4011 76.6369 13.6558 76.4522L14.7221 75.635C14.9572 75.4643 15.363 75.1369 15.5897 74.9718C15.9339 74.7087 16.3537 74.5464 16.7847 74.5128C16.9358 74.4988 17.1121 74.5072 17.2436 74.524C17.781 74.5828 18.878 74.7115 19.4126 74.7703L19.4965 74.7787L19.5161 74.7815C19.5945 74.7983 19.4853 74.7423 19.2083 74.829C19.0068 74.913 18.8416 75.1145 18.8248 75.3664C18.8444 75.7022 18.906 75.6882 18.8724 75.6546C18.6821 75.2152 18.5226 74.7815 18.3771 74.3253L18.2763 73.9839C18.2231 73.7516 18.1364 73.5277 17.9741 73.3542C17.9013 73.2506 17.6494 73.0967 17.5487 73.0127C16.0178 71.8597 14.6717 70.2113 14.3835 68.2467C14.0616 66.3381 14.1512 64.3874 14.5346 62.4984C14.3835 62.8846 14.9236 63.3827 15.1447 63.2904H15.1223H15.0803H14.9964H14.8284C14.2575 63.31 13.681 63.0861 13.2892 62.6663C13.1465 62.5012 12.7575 62.059 12.6091 61.8827L12.1698 61.3761L11.9487 61.1214C11.6856 60.8528 11.5764 60.4442 11.694 60.0832C11.8507 59.5458 12.0662 58.8126 12.2257 58.2697L12.3209 57.9478C12.416 57.486 12.8526 57.1306 13.3284 57.1642C13.6446 57.1894 14.0392 57.223 14.3555 57.2482L14.4394 57.2538L14.459 57.2566C14.4394 57.2566 14.5374 57.2594 14.403 57.2566C14.1568 57.2398 13.8601 57.5028 13.8265 57.7183L13.8321 57.6959L13.8433 57.6512L13.8657 57.5644C14.4898 55.3479 15.4273 53.2294 16.5888 51.2451L16.6111 51.2088C16.3985 51.5446 16.6923 52.0316 17.1065 51.984C17.1317 51.9812 17.1541 51.9784 17.1737 51.9728C17.1933 51.97 17.2268 51.9588 17.2073 51.9644C16.7259 52.1211 16.2445 52.3254 15.8471 52.6333C15.6876 52.7704 15.5477 52.9187 15.3154 52.9523C14.8144 53.053 14.3415 52.5465 14.4646 52.0623L14.473 52.0204L14.5038 51.8496C14.8648 50.1089 15.2034 48.4605 16.071 46.8429C16.1746 46.661 16.3005 46.4735 16.4348 46.3056C16.3957 46.356 16.3593 46.4175 16.3369 46.4903C16.183 46.9297 16.6559 47.3523 17.0645 47.1872L16.919 47.2431C16.2389 47.523 15.5533 47.8616 15.0607 48.3962C14.9908 48.4745 14.918 48.5473 14.8144 48.6005C14.4366 48.8047 13.9553 48.662 13.7538 48.2758C13.6754 48.1247 13.6502 47.9624 13.6726 47.8C13.8321 46.6442 14.5486 45.7375 15.3266 44.9679C14.9516 45.2953 15.1503 46.0677 15.78 46.0705C14.1624 46.0985 12.4776 45.119 12.1809 43.4342L12.1977 43.4958L12.1334 43.2859C12.097 43.1767 12.0242 43.0816 11.9291 43.0144C10.9831 42.3959 10.8208 41.1645 10.7509 40.1542C10.6081 39.5525 10.4234 37.7586 10.7341 36.7623C11.0279 35.7996 11.5345 35.1979 12.0914 34.4759C12.2565 34.266 12.4832 34.0225 12.5644 33.8993C12.8526 33.4963 12.9142 32.9674 12.805 32.4916C12.7491 32.1586 12.6651 31.6269 12.6119 31.3078L12.3545 29.7294L12.3209 29.5335L12.3041 29.4356L12.2929 29.3684C12.1474 28.4253 13.3592 27.8208 14.0252 28.5288C14.1456 28.652 14.2519 28.7583 14.3891 28.9542L13.1297 29.2788C13.1745 28.8199 13.236 28.3973 13.3284 27.9523C13.4039 27.5717 13.5187 27.1855 13.6586 26.8189C13.6586 26.7937 13.653 26.7853 13.6474 26.7797L13.4403 26.5698C12.2957 25.3384 11.1175 24.037 10.7285 22.3047C10.5382 21.4763 10.832 20.48 11.5233 19.9455L11.4477 20.9446L9.64541 18.924L9.41872 18.6721L9.36275 18.6077L9.32077 18.5574C8.74425 17.9109 9.29558 16.797 10.1799 16.8922C10.7397 16.9286 11.2854 16.9845 11.8955 17.2084C11.7668 17.1553 11.61 17.1609 11.4785 17.2168C11.2098 17.3232 11.0671 17.6758 11.1986 17.9445L11.193 17.9361L11.1567 17.8605L11.0867 17.7094C10.7145 16.9314 10.3087 16.0946 9.87769 15.3474C9.53626 14.7848 9.15565 14.0684 8.92057 13.4471C8.22091 11.6728 8.12576 9.77253 8.05859 7.87787C8.06979 7.12504 8.05579 6.34982 8.36644 5.597C9.17524 3.92063 10.082 1.65655 11.0335 0.0361589C11.5149 -0.739056 12.2005 -1.95365 13.3256 -1.28199C13.9777 -0.957348 14.5486 -0.534757 15.1279 -0.12616C15.8079 0.346805 16.4656 0.86175 16.6895 1.69853C16.8826 2.30303 17.0981 3.09504 17.4395 3.55961C17.4451 3.56801 17.5067 3.60998 17.6103 3.66596C17.7082 3.71913 17.8537 3.81149 17.9769 3.90944L18.156 4.07176C19.1691 5.26396 19.4657 6.83119 19.8995 8.24728L19.9891 8.57752C20.0283 8.75383 20.0842 8.93574 20.2773 8.98332C21.0469 9.2212 21.825 9.52065 22.3511 10.1895C22.7289 10.7073 23.0927 11.2166 23.437 11.7567L22.3763 12.434C22.0544 11.9331 21.6962 11.4265 21.338 10.9479C21.005 10.5589 20.4173 10.3574 19.9219 10.2035C19.3174 10.0468 18.8724 9.50106 18.7549 8.90216C18.3771 7.6064 18.058 6.14553 17.3136 5.06246C17.1121 4.81899 16.8714 4.77421 16.5776 4.52233C16.0626 3.9934 15.8779 3.33852 15.654 2.73962C15.4777 2.21908 15.391 1.64536 14.8984 1.32912C14.1568 0.811375 13.3872 0.170492 12.5616 -0.179334C12.5756 -0.173737 12.5895 -0.170938 12.6035 -0.16814C12.7211 -0.145751 12.7966 -0.173736 12.819 -0.184931C12.847 -0.198924 12.8358 -0.193326 12.8246 -0.184931C12.013 0.724618 11.5429 1.94761 10.9943 3.06426L9.88609 5.53263L9.60343 6.13713C9.41592 6.66047 9.41872 7.26777 9.41872 7.86108C9.48868 9.96843 9.6482 12.2157 10.7453 14.0824C11.3554 15.1039 11.9179 16.1925 12.4216 17.27C12.5 17.4239 12.5504 17.5751 12.542 17.7514C12.528 18.2579 12.0382 18.6413 11.5513 18.549C11.1175 18.4062 10.6641 18.3167 10.1324 18.2887L10.0932 18.2859C10.0876 18.2859 10.0736 18.2859 10.0792 18.2859C10.4262 18.3167 10.5885 17.8689 10.3898 17.6646C10.9272 18.2635 12.4272 19.9539 12.9534 20.5416C12.6455 20.8522 12.0858 21.1489 12.0718 21.6274C12.041 21.8793 12.1054 22.2068 12.2341 22.5342C12.6315 23.5529 13.4487 24.552 14.2239 25.3832L14.6661 25.8394C15.0523 26.2508 15.1391 26.8692 14.9292 27.373C14.4954 28.4672 14.4478 30.2192 14.3135 31.389L13.2444 29.7154C13.222 29.6762 13.1269 29.5727 13.0541 29.4999C13.1773 29.6203 13.4627 29.6427 13.5886 29.4524C13.6362 29.3908 13.6642 29.3012 13.6642 29.2285C13.6642 29.2117 13.6642 29.1949 13.6614 29.1809C13.6586 29.1669 13.6614 29.1809 13.6614 29.1893C13.6726 29.2593 13.7006 29.4356 13.7146 29.5083C13.8041 30.0653 14.0112 31.3442 14.098 31.8732L14.1624 32.2678C14.3331 33.0933 14.182 33.9805 13.6922 34.6774C13.0737 35.4638 12.3321 36.2334 12.0494 37.1289C11.8339 37.9573 11.9319 39.0796 12.1082 40.0395C12.153 40.63 12.1977 41.3241 12.556 41.7802C12.6427 41.8698 12.7547 41.9174 12.8442 42.0013C13.1968 42.284 13.4095 42.715 13.5131 43.1488C13.681 44.187 14.7445 44.7048 15.7352 44.7132C16.2473 44.6712 16.6419 45.2337 16.4376 45.6899C16.4013 45.8158 16.2277 45.981 16.2669 45.939C15.7268 46.4623 15.1839 47.1284 15.0327 47.8392C15.0243 47.8784 15.0187 47.9288 15.0131 47.9596C15.0747 47.4222 14.3639 47.1172 14.0196 47.5314L14.0532 47.495C14.7417 46.7394 15.668 46.2776 16.5916 45.9194C16.6391 45.8998 16.7595 45.8662 16.8518 45.869C17.3752 45.8522 17.7838 46.3812 17.6186 46.8877C17.5347 47.1368 17.35 47.2823 17.2324 47.5118C16.8462 48.1919 16.5692 49.0286 16.3341 49.857C16.1326 50.5707 15.9563 51.3599 15.8163 52.0903L15.7856 52.2526L15.7772 52.2918L15.7744 52.3114C15.8779 51.7685 15.2034 51.3935 14.7976 51.7629C15.3154 51.2759 16.2137 50.8142 16.9834 50.6462C17.6634 50.5735 18.114 51.3767 17.7362 51.9196C16.6139 53.8367 15.6988 55.8936 15.1111 58.0374C15.1111 58.0374 15.0579 58.2165 14.9964 58.2808C14.862 58.4907 14.5458 58.6027 14.3471 58.5691L14.3275 58.5663L14.2435 58.5579C14.0028 58.5411 13.6474 58.5047 13.4067 58.4879L13.2612 58.4768C13.4067 58.4851 13.5523 58.3956 13.6082 58.2585L13.6166 58.2361C13.6194 58.2249 13.6222 58.2193 13.6166 58.2333C13.5299 58.5271 13.3927 58.9945 13.3088 59.28C13.236 59.5234 13.0513 60.1531 12.9758 60.4078L12.9646 60.447L12.959 60.4638L12.9618 60.447C12.9813 60.3574 12.959 60.2623 12.9002 60.1923L12.945 60.2455C13.2584 60.6149 13.7286 61.1466 14.0448 61.516C14.2183 61.7287 14.4254 61.975 14.7417 61.961H14.8256H14.9936H15.1979C15.4805 61.8827 15.9703 62.4228 15.8107 62.7978L15.8023 62.8342L15.7856 62.9098C15.4329 64.9499 15.2706 67.1804 15.9899 69.1535C16.4628 70.2561 17.3584 71.2244 18.3295 71.9605C18.8025 72.2655 19.2195 72.7105 19.4098 73.2478C19.6029 73.8719 19.7848 74.524 20.0534 75.1201C20.0255 75.0977 20.0954 75.0977 20.1122 75.4475C20.0954 75.7134 19.9191 75.9289 19.7064 76.0184C19.4182 76.1108 19.2922 76.0492 19.3566 76.066L19.337 76.0632C19.1999 76.0492 18.8976 76.0128 18.7521 75.9961L17.4171 75.8421C17.0757 75.7946 16.6951 75.7414 16.4069 75.9625C15.8387 76.3991 14.9963 77.0371 14.431 77.4709L14.2967 77.5717L14.2295 77.622C14.098 77.7172 14.0644 77.8935 14.1652 78.0251C14.806 78.9514 15.752 79.5783 16.7623 80.124C16.8742 80.1828 16.9106 80.1996 16.9638 80.2164C17.0169 80.2332 17.0701 80.2415 17.1261 80.2443C17.3304 80.3143 17.8313 79.9225 17.9965 79.8413C18.615 79.4915 19.1943 79.1361 19.8799 78.8674C20.129 78.7695 20.4452 78.6771 20.7391 78.6827C21.9173 78.6519 23.0843 78.6743 24.257 78.6855C24.2821 78.6827 24.3073 78.6799 24.3241 78.6631C24.3493 78.6268 24.3381 78.6911 24.3941 78.4197C24.4752 77.9999 24.5116 77.5605 24.5088 77.1239V77.0847C24.5116 77.1799 24.5536 77.275 24.6264 77.3366C24.5032 77.2302 24.3409 77.0987 24.2094 77.0175C23.9351 76.886 23.7476 76.5418 23.8008 76.2395L23.8064 76.1976L23.8176 76.1136L23.9015 75.4475L23.9435 75.1145C23.9771 74.3729 24.6795 73.7656 25.4212 73.8635C26.0229 73.9978 26.6162 74.1882 27.2347 74.2469C28.8998 74.4596 30.6098 74.1965 32.1238 73.4773C32.7004 73.1611 33.428 73.1359 33.9933 73.4829C34.7853 74.0202 35.2303 74.955 35.8376 75.6406C36.1007 75.9597 36.3861 76.2451 36.7052 76.5278L36.3721 77.1323Z" fill="#3D2A46"/>
<path d="M45.7471 72.0192L47.0176 75.6742C47.0596 75.7917 47.2275 75.7805 47.2527 75.6602L47.8292 73.0407C47.8712 72.8476 48.1119 72.7832 48.2462 72.9287C48.7472 73.4633 49.8806 74.0706 52.2454 73.5137C53.6252 73.189 54.4256 72.4642 54.8146 71.9996C54.9461 71.8401 54.823 71.6022 54.6159 71.6134C53.7791 71.661 52.0859 71.7029 51.0644 71.3559C50.9077 71.3027 50.9609 71.0705 51.126 71.0845C52.0104 71.1712 53.4656 71.0845 54.5571 69.8923C56.2363 68.0564 55.9816 68.1347 55.9816 68.1347C55.9816 68.1347 54.2073 68.9155 53.1046 67.0069C53.0962 66.9929 53.1018 66.9733 53.1158 66.9677L55.2176 66.0022C55.4778 65.9518 55.5366 65.602 55.3043 65.4704L52.6177 63.9424C52.4777 63.8612 52.4945 63.6541 52.6484 63.6038C53.3985 63.3463 54.8202 62.4228 54.8202 59.1372C54.8202 59.1372 54.6075 57.3097 54.6411 56.333C54.6438 56.2546 54.5431 56.2182 54.4983 56.2826C54.0841 56.8731 52.9367 58.3844 51.7221 58.9273" stroke="#3D2A46" stroke-width="1.25937" stroke-miterlimit="10"/>
<path d="M47.2885 55.9861C47.8818 54.9814 48.2148 53.806 48.4863 52.6697C48.7549 51.9057 49.8324 51.9225 50.1123 52.6445C50.1375 52.6977 50.213 52.846 50.2382 52.8992C50.5656 53.5625 50.9546 54.2817 51.3213 54.9254C51.9817 56.1764 52.2224 57.668 51.9985 59.0589C51.8614 59.6774 51.6711 61.4238 50.6664 61.0012C50.3613 60.8501 50.2326 60.4862 50.3697 60.1812C50.9435 58.7175 50.8511 56.9432 50.1375 55.5327C49.7289 54.7799 49.3203 53.9655 48.9676 53.1931C48.9564 53.1679 48.9257 53.1091 48.9648 53.1791C49.018 53.263 49.13 53.3386 49.2279 53.3498C49.4126 53.389 49.6225 53.249 49.6645 53.0615C49.6673 53.0531 49.6617 53.0727 49.6589 53.0783L49.6029 53.2714C49.3399 54.181 48.962 55.0681 48.4191 55.8489C48.1784 56.1372 47.7866 56.9124 47.3193 56.5038C47.1765 56.3583 47.1765 56.1428 47.2885 55.9861Z" fill="#3D2A46"/>
<path d="M45.2798 46.6411C45.8396 48.519 46.3489 50.4024 46.8051 52.3083C47.2417 54.2365 47.7062 56.1396 47.765 58.1378H47.1885C47.1325 56.232 46.668 54.3065 46.2454 52.4398C45.7948 50.5508 45.2826 48.6673 44.7285 46.8062L45.2798 46.6411Z" fill="#3D2A46"/>
<path d="M45.3392 46.7788C45.8149 47.1034 46.2403 47.4841 46.6517 47.8759L46.5958 47.8283C46.5454 47.7863 46.4362 47.8171 46.425 47.8759C46.4083 47.929 46.4222 47.9682 46.4166 47.9934C46.4194 48.0298 46.3971 47.9458 46.3859 47.9122L46.3439 47.7807C46.1928 47.3161 46.0164 46.8656 45.7562 46.4346C45.8121 45.6678 46.6965 45.2032 47.3514 45.6034C47.4521 45.6566 48.0818 46.1687 48.1854 46.2443C48.4344 46.4346 49.7078 47.4001 49.9317 47.5708L49.9541 47.5876C49.8338 47.4953 49.6322 47.54 49.5623 47.6744C49.5203 47.7415 49.5147 47.8563 49.5455 47.915C49.5007 47.8059 49.3384 47.4533 49.2908 47.3385C49.0529 46.8236 48.8151 46.2779 48.524 45.7909C48.051 44.5875 50.1724 44.2741 50.9672 44.3216C50.928 44.3188 50.8776 44.3272 50.8301 44.3496C50.6845 44.4224 50.6314 44.5903 50.6985 44.733C50.7153 44.7666 50.7349 44.7946 50.7629 44.8198C50.7713 44.8254 50.7517 44.8114 50.7489 44.8086C49.8058 43.9634 48.8682 43.093 48.065 42.1051C48.0426 42.0743 47.9027 41.898 47.8831 41.87C47.4633 41.3243 47.7488 40.454 48.3841 40.2385C48.7815 40.0873 49.4867 39.8075 49.8645 39.6591C49.8533 39.6647 49.8505 39.6787 49.8505 39.6759C49.8505 39.6703 49.8449 39.6787 49.8589 39.6899C49.8617 39.6983 49.8729 39.6955 49.8645 39.6983C49.7722 39.6759 49.5847 39.6452 49.4755 39.62C48.8179 39.4688 48.8235 38.5061 49.4867 38.3606C50.4886 38.1003 51.5017 37.8093 52.4477 37.4007C52.4672 37.3895 52.4672 37.3895 52.47 37.3839C52.484 37.3755 52.4812 37.3307 52.47 37.3307L51.8935 36.9949C51.1687 36.5583 47.1667 34.0927 48.5184 33.1552C48.8207 32.9593 49.232 33.0628 49.4084 33.3763C50.2563 34.6468 51.7648 35.548 53.0577 36.368C53.6902 36.7486 53.777 37.7113 53.2257 38.1955C52.9486 38.4473 52.5764 38.5285 52.2406 38.6656C51.4625 38.9427 50.6705 39.161 49.8729 39.3569L49.7638 39.3821C49.7554 39.3849 49.733 39.3905 49.7218 39.3933C50.1332 39.2953 50.1332 38.688 49.719 38.5929C49.6966 38.5873 49.7106 38.5929 49.7134 38.5929C49.7974 38.6069 49.9121 38.6377 49.9961 38.6516C51.0288 38.7888 51.2191 40.2441 50.2367 40.6247C49.8421 40.7702 49.1509 41.0417 48.7507 41.1956C48.7087 41.2096 48.6947 41.2348 48.7003 41.2683C48.7003 41.2739 48.7283 41.3103 48.7339 41.3187C49.3804 42.1667 50.15 42.9027 50.9308 43.6304C51.0455 43.7395 51.3226 43.9858 51.4374 44.0921C51.8012 44.4112 51.7144 45.0465 51.2694 45.2536C51.1239 45.3263 50.9756 45.3319 50.8245 45.3235C50.4522 45.3179 50.0492 45.3739 49.705 45.4942C49.5903 45.5278 49.414 45.6286 49.3888 45.6482C49.4475 45.581 49.4419 45.3767 49.3804 45.3123C49.4 45.3459 49.4224 45.3767 49.4391 45.4075C49.677 45.8161 49.9905 46.4934 50.1976 46.9243C50.2591 47.0503 50.4299 47.4169 50.4886 47.5428C50.7461 48.097 50.1472 48.7602 49.5595 48.5503C49.4699 48.5251 49.3916 48.4748 49.3188 48.4244C48.6555 47.971 47.3682 47.0755 46.7441 46.6725C46.8392 46.7396 46.9764 46.7004 47.0267 46.5885L47.0491 46.2583C46.982 46.7368 46.9904 47.193 47.0239 47.6576C47.0659 47.9766 47.0799 48.3264 46.7805 48.5503C46.579 48.7182 46.2235 48.7127 46.0332 48.5251C45.6274 48.1277 45.2328 47.7163 44.8886 47.2546C44.7823 47.109 44.813 46.9075 44.9558 46.7984C45.0761 46.7004 45.2272 46.7004 45.3392 46.7788Z" fill="#3D2A46"/>
<path d="M22.2275 11.8238L26.5794 10.7548C27.7856 10.3686 29.0673 10.2902 30.3127 10.5281L38.3727 12.0561C38.3727 12.0561 41.4652 10.349 42.1732 9.32747C42.8813 8.30318 43.7293 3.94854 43.7293 3.94854C43.7293 3.94854 48.61 -2.8213 49.3965 -2.66178C50.1829 -2.50505 51.0113 -2.99761 51.599 -0.823088C52.1895 1.35143 52.6624 0.287961 52.6233 1.35143C52.5841 2.4149 54.3948 15.518 53.8043 17.8408C53.2138 20.1637 52.6624 20.6339 52.9003 21.7757C53.1354 22.9175 54.3556 22.9035 49.8694 27.8095C48.1035 29.7405 51.1344 32.5084 52.64 33.6922C53.0346 34.0028 52.8723 34.6437 52.377 34.7137C51.2519 34.876 49.6903 34.6521 49.6903 34.6521" stroke="#3D2A46" stroke-width="1.25937" stroke-miterlimit="10"/>
<path d="M14.6064 62.3696C15.558 60.5226 16.5319 58.6223 17.114 56.6213C17.3911 55.3395 17.892 54.0634 18.8771 53.1538L19.0646 53.3609C18.5245 53.9598 18.1607 54.7378 17.9508 55.5214C17.85 55.8629 17.7773 56.3918 17.7269 56.7472C17.3323 58.8826 16.5403 60.892 15.7483 62.907C15.7455 62.9098 14.6064 62.3696 14.6064 62.3696Z" fill="#3D2A46"/>
</g>
</g>
<rect x="2.375" y="2.375" width="55.25" height="55.25" rx="27.625" stroke="white" stroke-width="3.25"/>
<defs>
<clipPath id="clip0_342_61633">
<rect x="4" y="4" width="52" height="52" rx="26" fill="white"/>
</clipPath>
<clipPath id="clip1_342_61633">
<rect width="54.8528" height="88.9958" fill="white" transform="translate(3.28125 -3.49561)"/>
</clipPath>
</defs>
</svg>
