<svg width="639" height="208" viewBox="0 0 639 208" fill="none" xmlns="http://www.w3.org/2000/svg">
<path d="M224.515 111.99C233.217 111.99 245.82 116.392 245.82 130.595C245.82 141.198 237.818 149 216.013 149H176.502V74.9805H214.312C234.718 74.9805 242.12 82.0824 242.12 92.8853C242.12 104.188 234.417 108.99 223.515 108.99H218.613V111.99H224.515ZM198.508 133.996H213.712C219.814 133.996 223.815 132.596 223.815 125.994C223.815 118.392 219.814 116.191 213.712 116.191H198.508V133.996ZM198.508 104.788H210.911C216.313 104.788 220.614 103.188 220.614 97.1864C220.614 90.8847 216.313 89.4844 210.911 89.4844H198.508V104.788ZM276.89 73.9802V149H255.385V73.9802H276.89ZM308.607 149.6C288.902 149.6 287.801 133.396 287.801 123.894V96.9864H309.307V118.692C309.307 128.195 311.207 132.296 316.509 132.296C321.41 132.296 324.111 128.595 324.111 119.392V96.9864H345.617V149H326.912C324.311 149 324.111 148.3 324.111 147.5C324.111 144.199 332.113 138.497 332.113 126.794H329.712C329.712 134.796 322.811 149.6 308.607 149.6ZM376.984 149.6C357.279 149.6 356.179 133.396 356.179 123.894V96.9864H377.685V118.692C377.685 128.195 379.585 132.296 384.886 132.296C389.788 132.296 392.489 128.595 392.489 119.392V96.9864H413.994V149H395.289C392.689 149 392.489 148.3 392.489 147.5C392.489 144.199 400.491 138.497 400.491 126.794H398.09C398.09 134.796 391.188 149.6 376.984 149.6ZM462.248 123.593C462.248 116.191 459.847 112.791 455.446 112.791C450.345 112.791 447.444 116.492 447.444 125.694V149H425.938V96.9864H444.743C447.244 96.9864 447.444 97.6866 447.444 98.4868C447.444 101.788 439.442 107.089 439.442 118.792H441.842C441.842 110.79 449.044 95.486 464.248 95.486C475.151 95.486 479.452 101.888 479.452 104.688C479.452 107.989 475.251 109.09 475.251 118.792H477.652C477.652 109.79 484.354 95.486 499.558 95.486C515.162 95.486 519.063 107.689 519.063 121.193V149H497.557V123.593C497.557 116.191 494.656 112.791 490.355 112.791C486.554 112.791 483.753 115.491 483.753 124.694V149H462.248V123.593Z" fill="white"/>
<path d="M101.524 84.2802L106.574 92.6135L107.054 82.9107L111.56 67.6245L135.208 74.3912L131.179 89.9231L126.16 98.3708L135.085 93.9271L150.475 90.0433L156.77 113.974L141.258 117.976L131.546 118.215L139.633 123.35L150.877 134.877L133.041 152.274L121.797 140.748L116.622 132.772L116.142 142.475L111.755 157.883L87.9885 150.995L92.254 135.705L96.9183 126.894L88.3483 131.701L72.721 135.343L66.5447 111.533L81.9383 107.41L91.65 107.171L83.6876 101.678L72.4442 90.1513L90.2803 72.7535L101.524 84.2802Z" fill="#FFF04D"/>
</svg>
