<svg width="181" height="50" viewBox="0 0 181 50" fill="none" xmlns="http://www.w3.org/2000/svg">
<rect width="180.503" height="49.2321" fill="#2B0868"/>
<g clip-path="url(#clip0_856_26954)">
<path d="M31.6765 7.28321C29.0292 9.93056 27.8916 17.3721 27.4428 21.6823C26.994 17.3721 25.8565 9.93056 23.2092 7.28321C19.3933 3.46732 13.2485 3.18604 9.63119 6.80338C6.01384 10.4207 6.29306 16.5655 10.111 20.3813C12.7584 23.0287 20.1999 24.1662 24.5101 24.615C20.1999 25.0638 12.7584 26.2014 10.111 28.8487C6.29512 32.6646 6.01384 38.8093 9.63119 42.4267C13.2485 46.044 19.3933 45.7648 23.2092 41.9468C25.8565 39.2995 26.994 31.858 27.4428 27.5478C27.8916 31.858 29.0292 39.2995 31.6765 41.9468C35.4924 45.7627 41.6371 46.044 45.2545 42.4267C48.8718 38.8093 48.5926 32.6646 44.7746 28.8487C42.1273 26.2014 34.6858 25.0638 30.3756 24.615C34.6858 24.1662 42.1273 23.0287 44.7746 20.3814C48.5926 16.5655 48.8718 10.4207 45.2545 6.80545C41.6392 3.18811 35.4945 3.46732 31.6765 7.28321Z" fill="#FFEA00"/>
<g clip-path="url(#clip1_856_26954)">
<path d="M27.8799 24.7329C28.7201 24.5419 30.9205 23.4467 31.8643 22.5029C32.9931 21.3748 33.0914 20.3482 32.5189 19.7757C31.9464 19.2032 30.9205 19.3021 29.7917 20.4303C28.8486 21.3734 27.7527 23.5745 27.5617 24.4147C27.3706 23.5745 26.2754 21.3741 25.3316 20.4303C24.2035 19.3021 23.1769 19.2039 22.6051 19.7764C22.0327 20.3482 22.1309 21.3748 23.2597 22.5036C24.2028 23.4467 26.4039 24.5426 27.2442 24.7336C26.4039 24.9247 24.2035 26.0198 23.2597 26.9636C22.1309 28.0911 22.0327 29.1177 22.6051 29.6901C23.1776 30.2626 24.2035 30.1637 25.3323 29.0356C26.2754 28.0925 27.3713 25.8913 27.5623 25.0511C27.7534 25.8913 28.8486 28.0918 29.7924 29.0356C30.9212 30.1637 31.9471 30.2626 32.5196 29.6901C33.092 29.1177 32.9931 28.0918 31.865 26.963C30.9219 26.0198 28.7208 24.924 27.8805 24.7329H27.8799Z" fill="#411393"/>
</g>
</g>
<path d="M67.6919 25.3353C68.7762 25.3353 69.8604 25.5344 70.9447 25.9327C72.0289 26.331 72.9362 26.9949 73.6664 27.9242C74.3966 28.8536 74.7617 30.0485 74.7617 31.5089C74.7617 33.3897 73.9651 34.8833 72.3719 35.9897C70.8009 37.074 68.3005 37.6161 64.8707 37.6161H51.7601V13.0545H64.3064C67.5592 13.0545 69.9047 13.5745 71.343 14.6145C72.8034 15.6324 73.5336 17.0928 73.5336 18.9957C73.5336 20.7881 72.9804 22.1268 71.8741 23.0119C70.7677 23.897 69.263 24.3396 67.36 24.3396H65.7337V25.3353H67.6919ZM64.1073 32.6374C65.2358 32.6374 66.0766 32.4493 66.6298 32.0731C67.183 31.697 67.4596 30.9999 67.4596 29.9821C67.4596 28.7872 67.1719 27.9463 66.5966 27.4595C66.0213 26.9727 65.1915 26.7293 64.1073 26.7293H59.0622V32.6374H64.1073ZM63.1779 22.9455C64.1737 22.9455 64.9592 22.7574 65.5345 22.3813C66.1098 22.0051 66.3975 21.3523 66.3975 20.423C66.3975 19.4494 66.1098 18.7855 65.5345 18.4315C64.9813 18.0553 64.1958 17.8672 63.1779 17.8672H59.0622V22.9455H63.1779ZM85.4034 37.6161H78.2673V12.7226H85.4034V37.6161ZM96.2596 37.8152C94.246 37.8152 92.7302 37.3616 91.7124 36.4544C90.7166 35.5472 90.0749 34.4961 89.7873 33.3012C89.4996 32.0842 89.3558 30.7455 89.3558 29.2851V20.3566H96.4919V27.5591C96.4919 29.1523 96.6689 30.3029 97.023 31.011C97.3991 31.7191 98.0187 32.0731 98.8817 32.0731C99.7225 32.0731 100.353 31.7302 100.774 31.0442C101.194 30.3582 101.404 29.274 101.404 27.7915V20.3566H108.54V37.6161H102.334C101.935 37.6161 101.681 37.5718 101.57 37.4833C101.46 37.3948 101.404 37.2731 101.404 37.1182C101.404 36.9633 101.471 36.7531 101.603 36.4876C101.758 36.1999 101.935 35.9123 102.134 35.6246C102.71 34.7838 103.174 33.954 103.528 33.1353C103.883 32.3165 104.06 31.354 104.06 30.2476H103.263C103.263 31.2212 102.986 32.3055 102.433 33.5004C101.902 34.6953 101.106 35.7131 100.043 36.554C98.9813 37.3948 97.72 37.8152 96.2596 37.8152ZM119.281 37.8152C117.267 37.8152 115.752 37.3616 114.734 36.4544C113.738 35.5472 113.096 34.4961 112.809 33.3012C112.521 32.0842 112.377 30.7455 112.377 29.2851V20.3566H119.513V27.5591C119.513 29.1523 119.69 30.3029 120.044 31.011C120.42 31.7191 121.04 32.0731 121.903 32.0731C122.744 32.0731 123.374 31.7302 123.795 31.0442C124.215 30.3582 124.426 29.274 124.426 27.7915V20.3566H131.562V37.6161H125.355C124.957 37.6161 124.702 37.5718 124.592 37.4833C124.481 37.3948 124.426 37.2731 124.426 37.1182C124.426 36.9633 124.492 36.7531 124.625 36.4876C124.78 36.1999 124.957 35.9123 125.156 35.6246C125.731 34.7838 126.196 33.954 126.55 33.1353C126.904 32.3165 127.081 31.354 127.081 30.2476H126.284C126.284 31.2212 126.008 32.3055 125.454 33.5004C124.923 34.6953 124.127 35.7131 123.065 36.554C122.003 37.3948 120.741 37.8152 119.281 37.8152ZM147.905 29.1855C147.905 26.7957 147.153 25.6008 145.648 25.6008C144.785 25.6008 144.121 25.9438 143.657 26.6298C143.214 27.3157 142.993 28.4 142.993 29.8825V37.6161H135.857V20.3566H142.097C142.473 20.3566 142.716 20.4008 142.827 20.4894C142.938 20.5779 142.993 20.6996 142.993 20.8545C142.993 21.0094 142.916 21.2196 142.761 21.4851C142.628 21.7285 142.462 21.994 142.263 22.2817C141.687 23.1004 141.223 23.9191 140.869 24.7378C140.515 25.5344 140.338 26.4859 140.338 27.5923H141.134C141.134 26.6187 141.422 25.5234 141.997 24.3064C142.573 23.0672 143.424 22.0162 144.553 21.1532C145.681 20.2902 147.02 19.8587 148.569 19.8587C149.676 19.8587 150.605 20.0357 151.357 20.3898C152.132 20.7438 152.696 21.1642 153.05 21.6511C153.426 22.1379 153.614 22.5583 153.614 22.9123C153.614 23.0893 153.57 23.2774 153.481 23.4766C153.393 23.6536 153.293 23.8306 153.183 24.0076C152.873 24.5166 152.63 25.0255 152.453 25.5344C152.298 26.0212 152.22 26.7072 152.22 27.5923H153.017C153.017 26.5081 153.282 25.3685 153.813 24.1736C154.367 22.9566 155.185 21.9387 156.27 21.12C157.376 20.2791 158.715 19.8587 160.286 19.8587C164.601 19.8587 166.758 22.7021 166.758 28.3889V37.6161H159.622V29.1855C159.622 27.9906 159.401 27.0944 158.958 26.497C158.538 25.8995 157.962 25.6008 157.232 25.6008C156.546 25.6008 156.004 25.8995 155.606 26.497C155.23 27.0944 155.041 28.1123 155.041 29.5506V37.6161H147.905V29.1855Z" fill="white"/>
<defs>
<clipPath id="clip0_856_26954">
<rect width="32.4226" height="32.4226" fill="white" transform="translate(43.6548 8.40479) rotate(90)"/>
</clipPath>
<clipPath id="clip1_856_26954">
<rect width="10.5979" height="10.5979" fill="white" transform="translate(22.2627 19.4351)"/>
</clipPath>
</defs>
</svg>
