<svg width="116" height="26" viewBox="0 0 116 26" fill="none" xmlns="http://www.w3.org/2000/svg">
<path d="M16.692 13.3353C17.7763 13.3353 18.8605 13.5344 19.9448 13.9327C21.029 14.331 21.9362 14.9949 22.6664 15.9242C23.3967 16.8536 23.7618 18.0485 23.7618 19.5089C23.7618 21.3897 22.9652 22.8833 21.372 23.9897C19.8009 25.074 17.3005 25.6161 13.8707 25.6161H0.760164V1.0545H13.3065C16.5592 1.0545 18.9048 1.57449 20.3431 2.61449C21.8035 3.63236 22.5337 5.09278 22.5337 6.99574C22.5337 8.78808 21.9805 10.1268 20.8741 11.0119C19.7677 11.897 18.2631 12.3396 16.3601 12.3396H14.7337V13.3353H16.692ZM13.1073 20.6374C14.2358 20.6374 15.0767 20.4493 15.6299 20.0731C16.1831 19.697 16.4597 18.9999 16.4597 17.9821C16.4597 16.7872 16.172 15.9463 15.5967 15.4595C15.0214 14.9727 14.1916 14.7293 13.1073 14.7293H8.06226V20.6374H13.1073ZM12.178 10.9455C13.1737 10.9455 13.9593 10.7574 14.5346 10.3813C15.1099 10.0051 15.3975 9.35233 15.3975 8.42297C15.3975 7.44936 15.1099 6.78553 14.5346 6.43149C13.9814 6.05532 13.1959 5.86724 12.178 5.86724H8.06226V10.9455H12.178ZM34.4035 25.6161H27.2673V0.722581H34.4035V25.6161ZM45.2596 25.8152C43.246 25.8152 41.7303 25.3616 40.7124 24.4544C39.7167 23.5472 39.075 22.4961 38.7873 21.3012C38.4997 20.0842 38.3558 18.7455 38.3558 17.2851V8.35659H45.492V15.5591C45.492 17.1523 45.669 18.3029 46.023 19.011C46.3992 19.7191 47.0188 20.0731 47.8818 20.0731C48.7226 20.0731 49.3532 19.7302 49.7737 19.0442C50.1941 18.3582 50.4043 17.274 50.4043 15.7915V8.35659H57.5404V25.6161H51.3337C50.9354 25.6161 50.6809 25.5718 50.5703 25.4833C50.4596 25.3948 50.4043 25.2731 50.4043 25.1182C50.4043 24.9633 50.4707 24.7531 50.6034 24.4876C50.7583 24.1999 50.9354 23.9123 51.1345 23.6246C51.7098 22.7838 52.1745 21.954 52.5285 21.1353C52.8826 20.3165 53.0596 19.354 53.0596 18.2476H52.263C52.263 19.2212 51.9864 20.3055 51.4332 21.5004C50.9022 22.6953 50.1056 23.7131 49.0435 24.554C47.9813 25.3948 46.7201 25.8152 45.2596 25.8152ZM68.2809 25.8152C66.2673 25.8152 64.7516 25.3616 63.7337 24.4544C62.738 23.5472 62.0963 22.4961 61.8086 21.3012C61.521 20.0842 61.3771 18.7455 61.3771 17.2851V8.35659H68.5133V15.5591C68.5133 17.1523 68.6903 18.3029 69.0444 19.011C69.4205 19.7191 70.0401 20.0731 70.9031 20.0731C71.7439 20.0731 72.3745 19.7302 72.795 19.0442C73.2154 18.3582 73.4256 17.274 73.4256 15.7915V8.35659H80.5617V25.6161H74.355C73.9567 25.6161 73.7022 25.5718 73.5916 25.4833C73.4809 25.3948 73.4256 25.2731 73.4256 25.1182C73.4256 24.9633 73.492 24.7531 73.6248 24.4876C73.7796 24.1999 73.9567 23.9123 74.1558 23.6246C74.7311 22.7838 75.1958 21.954 75.5499 21.1353C75.9039 20.3165 76.0809 19.354 76.0809 18.2476H75.2843C75.2843 19.2212 75.0077 20.3055 74.4545 21.5004C73.9235 22.6953 73.1269 23.7131 72.0648 24.554C71.0026 25.3948 69.7414 25.8152 68.2809 25.8152ZM96.9054 17.1855C96.9054 14.7957 96.153 13.6008 94.6484 13.6008C93.7854 13.6008 93.1216 13.9438 92.6569 14.6298C92.2143 15.3157 91.993 16.4 91.993 17.8825V25.6161H84.8569V8.35659H91.0969C91.473 8.35659 91.7165 8.40085 91.8271 8.48936C91.9377 8.57787 91.993 8.69957 91.993 8.85446C91.993 9.00935 91.9156 9.21957 91.7607 9.4851C91.6279 9.7285 91.462 9.99403 91.2628 10.2817C90.6875 11.1004 90.2228 11.9191 89.8688 12.7378C89.5148 13.5344 89.3377 14.4859 89.3377 15.5923H90.1343C90.1343 14.6187 90.422 13.5234 90.9973 12.3064C91.5726 11.0672 92.4245 10.0162 93.553 9.15318C94.6815 8.29021 96.0203 7.85872 97.5692 7.85872C98.6756 7.85872 99.6049 8.03574 100.357 8.38978C101.132 8.74382 101.696 9.16425 102.05 9.65105C102.426 10.1379 102.614 10.5583 102.614 10.9123C102.614 11.0893 102.57 11.2774 102.482 11.4766C102.393 11.6536 102.293 11.8306 102.183 12.0076C101.873 12.5166 101.63 13.0255 101.453 13.5344C101.298 14.0212 101.22 14.7072 101.22 15.5923H102.017C102.017 14.5081 102.282 13.3685 102.813 12.1736C103.367 10.9566 104.185 9.93871 105.27 9.11999C106.376 8.27914 107.715 7.85872 109.286 7.85872C113.601 7.85872 115.758 10.7021 115.758 16.3889V25.6161H108.622V17.1855C108.622 15.9906 108.401 15.0944 107.958 14.497C107.538 13.8995 106.962 13.6008 106.232 13.6008C105.546 13.6008 105.004 13.8995 104.606 14.497C104.23 15.0944 104.042 16.1123 104.042 17.5506V25.6161H96.9054V17.1855Z" fill="white"/>
</svg>
