<svg width="33" height="33" viewBox="0 0 33 33" fill="none" xmlns="http://www.w3.org/2000/svg">
<g clip-path="url(#clip0_1389_19363)">
<path d="M20.6764 -0.716785C18.029 1.93056 16.8915 9.37207 16.4427 13.6823C15.9939 9.37207 14.8564 1.93056 12.209 -0.716786C8.39314 -4.53268 2.24841 -4.81396 -1.36893 -1.19662C-4.98628 2.42073 -4.70707 8.56545 -0.889104 12.3813C1.75824 15.0287 9.19975 16.1662 13.5099 16.615C9.19975 17.0638 1.75823 18.2014 -0.889104 20.8487C-4.705 24.6646 -4.98628 30.8093 -1.36894 34.4267C2.24841 38.044 8.39313 37.7648 12.209 33.9468C14.8564 31.2995 15.9939 23.858 16.4427 19.5478C16.8915 23.858 18.029 31.2995 20.6764 33.9468C24.4923 37.7627 30.637 38.044 34.2544 34.4267C37.8717 30.8093 37.5925 24.6646 33.7745 20.8487C31.1272 18.2014 23.6857 17.0638 19.3755 16.615C23.6857 16.1662 31.1272 15.0287 33.7745 12.3814C37.5925 8.56546 37.8717 2.42073 34.2544 -1.19455C30.6391 -4.81189 24.4943 -4.53268 20.6764 -0.716785Z" fill="#FFEA00"/>
<g clip-path="url(#clip1_1389_19363)">
<path d="M16.8797 16.7329C17.7199 16.5419 19.9203 15.4467 20.8641 14.5029C21.993 13.3748 22.0912 12.3482 21.5187 11.7757C20.9462 11.2032 19.9203 11.3021 18.7915 12.4303C17.8484 13.3734 16.7525 15.5745 16.5615 16.4147C16.3704 15.5745 15.2753 13.3741 14.3314 12.4303C13.2033 11.3021 12.1768 11.2039 11.605 11.7764C11.0325 12.3482 11.1307 13.3748 12.2595 14.5036C13.2026 15.4467 15.4038 16.5426 16.244 16.7336C15.4038 16.9247 13.2033 18.0198 12.2595 18.9636C11.1307 20.0911 11.0325 21.1177 11.605 21.6901C12.1774 22.2626 13.2033 22.1637 14.3321 21.0356C15.2753 20.0925 16.3711 17.8913 16.5622 17.0511C16.7532 17.8913 17.8484 20.0918 18.7922 21.0356C19.921 22.1637 20.9469 22.2626 21.5194 21.6901C22.0918 21.1177 21.993 20.0918 20.8648 18.963C19.9217 18.0198 17.7206 16.924 16.8804 16.7329H16.8797Z" fill="#411393"/>
</g>
</g>
<defs>
<clipPath id="clip0_1389_19363">
<rect width="32.4226" height="32.4226" fill="white" transform="translate(32.6547 0.404785) rotate(90)"/>
</clipPath>
<clipPath id="clip1_1389_19363">
<rect width="10.5979" height="10.5979" fill="white" transform="translate(11.2626 11.4351)"/>
</clipPath>
</defs>
</svg>
