<svg width="21" height="25" viewBox="0 0 21 25" fill="none" xmlns="http://www.w3.org/2000/svg">
<path d="M18.6763 2.72061H14.6449C14.1452 2.16107 13.5329 1.71338 12.8481 1.40686C12.1634 1.10034 11.4216 0.941895 10.6714 0.941895C9.92116 0.941895 9.17939 1.10034 8.49463 1.40686C7.80988 1.71338 7.19758 2.16107 6.69782 2.72061H2.66645C2.19466 2.72061 1.7422 2.90803 1.40859 3.24163C1.07499 3.57523 0.887573 4.0277 0.887573 4.49948V23.1777C0.887573 23.6495 1.07499 24.1019 1.40859 24.4355C1.7422 24.7691 2.19466 24.9565 2.66645 24.9565H18.6763C19.1481 24.9565 19.6006 24.7691 19.9342 24.4355C20.2678 24.1019 20.4552 23.6495 20.4552 23.1777V4.49948C20.4552 4.0277 20.2678 3.57523 19.9342 3.24163C19.6006 2.90803 19.1481 2.72061 18.6763 2.72061ZM10.6714 2.72061C11.615 2.72061 12.5199 3.09544 13.1871 3.76265C13.8543 4.42986 14.2291 5.33478 14.2291 6.27836H7.11364C7.11364 5.33478 7.48847 4.42986 8.15568 3.76265C8.82288 3.09544 9.72781 2.72061 10.6714 2.72061ZM18.6763 23.1777H2.66645V4.49948H5.6405C5.43818 5.07074 5.33478 5.67233 5.33476 6.27836V7.1678C5.33476 7.40369 5.42847 7.62992 5.59527 7.79672C5.76207 7.96353 5.9883 8.05723 6.2242 8.05723H15.1186C15.3545 8.05723 15.5807 7.96353 15.7475 7.79672C15.9143 7.62992 16.008 7.40369 16.008 7.1678V6.27836C16.008 5.67233 15.9046 5.07074 15.7023 4.49948H18.6763V23.1777Z" fill="white"/>
</svg>
