<svg width="263" height="263" viewBox="0 0 263 263" fill="none" xmlns="http://www.w3.org/2000/svg">
<path d="M102.279 49.1421L116.911 73.2848L118.302 45.1744L131.354 0.887971L199.867 20.4921L188.195 65.4902L173.653 89.9645L199.51 77.0904L244.099 65.8384L262.336 135.169L217.395 146.764L189.259 147.456L212.687 162.332L245.261 195.727L193.588 246.13L161.014 212.736L146.022 189.631L144.63 217.741L131.921 262.379L63.0655 242.423L75.4232 198.128L88.9365 172.599L64.1081 186.528L18.8335 197.077L0.939831 128.098L45.5372 116.151L73.6736 115.459L50.6054 99.5459L18.0315 66.1514L69.7052 15.7476L102.279 49.1421Z" fill="#32CA84"/>
</svg>
