<svg width="128" height="160" viewBox="0 0 128 160" fill="none" xmlns="http://www.w3.org/2000/svg">
<path d="M62.2415 30.1194L71.0865 44.714L71.9277 27.7208L79.818 0.949011L121.235 12.8L114.179 40.0021L105.388 54.7971L121.019 47.0146L147.974 40.2126L158.998 82.1241L131.831 89.1334L114.822 89.5516L128.985 98.5445L148.676 118.732L117.439 149.202L97.7475 129.014L88.6847 115.047L87.8435 132.04L80.1606 159.024L38.5363 146.961L46.0067 120.184L54.1757 104.751L39.1665 113.171L11.7974 119.548L0.980363 77.8492L27.9402 70.6274L44.949 70.2092L31.0039 60.5892L11.3125 40.4017L42.5501 9.93186L62.2415 30.1194Z" fill="#32CA84"/>
</svg>
