<svg width="22" height="22" viewBox="0 0 22 22" fill="none" xmlns="http://www.w3.org/2000/svg">
<path d="M21.294 9.30663L12.5801 1.42761C12.5758 1.42404 12.5718 1.42021 12.5681 1.41612C12.2473 1.13651 11.8292 0.981567 11.3955 0.981567C10.9619 0.981567 10.5438 1.13651 10.223 1.41612L10.211 1.42761L1.50686 9.30663C1.32931 9.46309 1.18759 9.65317 1.09065 9.86483C0.993721 10.0765 0.943689 10.3051 0.943726 10.5363V20.1867C0.943726 20.6297 1.12734 21.0545 1.45418 21.3677C1.78101 21.6809 2.2243 21.8569 2.68651 21.8569H7.91487C8.37708 21.8569 8.82036 21.6809 9.1472 21.3677C9.47404 21.0545 9.65765 20.6297 9.65765 20.1867V15.1762H13.1432V20.1867C13.1432 20.6297 13.3268 21.0545 13.6537 21.3677C13.9805 21.6809 14.4238 21.8569 14.886 21.8569H20.1144C20.5766 21.8569 21.0199 21.6809 21.3467 21.3677C21.6735 21.0545 21.8571 20.6297 21.8571 20.1867V10.5363C21.8572 10.3051 21.8071 10.0765 21.7102 9.86483C21.6133 9.65317 21.4716 9.46309 21.294 9.30663ZM20.1144 20.1867H14.886V15.1762C14.886 14.7333 14.7024 14.3085 14.3756 13.9952C14.0487 13.682 13.6054 13.5061 13.1432 13.5061H9.65765C9.19543 13.5061 8.75215 13.682 8.42532 13.9952C8.09848 14.3085 7.91487 14.7333 7.91487 15.1762V20.1867H2.68651V10.5363L2.69849 10.5259L11.4004 2.64996L20.1035 10.5238L20.1154 10.5342L20.1144 20.1867Z" fill="white"/>
</svg>
