<svg width="20" height="21" viewBox="0 0 20 21" fill="none" xmlns="http://www.w3.org/2000/svg">
<path d="M2.60234 20.1167C2.00781 20.1167 1.49436 19.9096 1.06198 19.4952C0.647613 19.0628 0.44043 18.5494 0.44043 17.9548V2.82146C0.44043 2.22693 0.647613 1.72249 1.06198 1.30812C1.49436 0.875737 2.00781 0.659546 2.60234 0.659546H17.7357C18.3302 0.659546 18.8347 0.875737 19.2491 1.30812C19.6814 1.72249 19.8976 2.22693 19.8976 2.82146V17.9548C19.8976 18.5494 19.6814 19.0628 19.2491 19.4952C18.8347 19.9096 18.3302 20.1167 17.7357 20.1167H2.60234ZM2.60234 17.9548H17.7357V14.712H14.4928C13.9524 15.3966 13.3038 15.928 12.5471 16.3064C11.8085 16.6847 11.0158 16.8739 10.169 16.8739C9.32228 16.8739 8.52057 16.6847 7.7639 16.3064C7.02525 15.928 6.38568 15.3966 5.84521 14.712H2.60234V17.9548ZM10.169 14.712C10.8536 14.712 11.4752 14.5138 12.0337 14.1174C12.5922 13.7211 12.9795 13.1986 13.1957 12.5501H17.7357V2.82146H2.60234V12.5501H7.14235C7.35854 13.1986 7.74589 13.7211 8.30438 14.1174C8.86287 14.5138 9.48442 14.712 10.169 14.712ZM2.60234 17.9548H5.84521C6.38568 17.9548 7.02525 17.9548 7.7639 17.9548C8.52057 17.9548 9.32228 17.9548 10.169 17.9548C11.0158 17.9548 11.8085 17.9548 12.5471 17.9548C13.3038 17.9548 13.9524 17.9548 14.4928 17.9548H17.7357H2.60234Z" fill="white"/>
</svg>
