<svg width="15" height="14" viewBox="0 0 15 14" fill="none" xmlns="http://www.w3.org/2000/svg">
<circle cx="7.69824" cy="7" r="6.4" stroke="white" stroke-width="1.2"/>
<g clip-path="url(#clip0_1584_15787)">
<path d="M7.52704 8.83765C7.86666 8.83765 8.14139 8.56355 8.14139 8.24237V3.32534C8.14139 2.98712 7.86666 2.71265 7.52704 2.71265C7.18742 2.71265 6.91269 2.98712 6.91269 3.32534V8.20811C6.91269 8.56394 7.18742 8.83765 7.52704 8.83765Z" fill="white"/>
<path d="M7.52703 9.75635C7.10294 9.75635 6.75909 10.0992 6.75909 10.522C6.75909 10.9448 7.10294 11.2704 7.52703 11.2704C7.95113 11.2704 8.29497 10.9278 8.29497 10.522C8.29497 10.1162 7.95113 9.75635 7.52703 9.75635Z" fill="white"/>
</g>
<defs>
<clipPath id="clip0_1584_15787">
<rect width="2.4574" height="9.8" fill="white" transform="translate(6.29834 2.1001)"/>
</clipPath>
</defs>
</svg>
