<svg width="15" height="15" viewBox="0 0 15 15" fill="none" xmlns="http://www.w3.org/2000/svg">
<path fill-rule="evenodd" clip-rule="evenodd" d="M7.39999 13.5416C3.85616 13.5416 0.983322 10.6687 0.983322 7.12492C0.983322 3.58109 3.85616 0.708252 7.39999 0.708252C10.9438 0.708252 13.8167 3.58109 13.8167 7.12492C13.8167 10.6687 10.9438 13.5416 7.39999 13.5416ZM7.39983 12.375C10.2993 12.375 12.6498 10.0245 12.6498 7.125C12.6498 4.2255 10.2993 1.875 7.39983 1.875C4.50033 1.875 2.14983 4.2255 2.14983 7.125C2.14983 10.0245 4.50033 12.375 7.39983 12.375ZM10.3165 6.54167H7.98316V3.625H6.81649V7.70833H10.3165V6.54167Z" fill="white"/>
</svg>
