<svg width="357" height="357" viewBox="0 0 357 357" fill="none" xmlns="http://www.w3.org/2000/svg">
<g clip-path="url(#clip0_1493_35908)">
<path d="M182.215 185.12C196.603 200.75 247.007 234.391 278.767 243.008C316.738 253.322 339.9 242.837 345.127 223.573C350.354 204.309 335.661 183.577 297.69 173.263C265.952 164.652 205.434 168.198 185.12 174.413C200.75 160.025 234.391 109.62 243.008 77.8602C253.307 39.8976 242.822 16.735 223.566 11.5227C204.316 6.28778 183.562 20.9746 173.256 58.9599C164.645 90.6972 168.191 151.215 174.406 171.53C160.018 155.9 109.614 122.259 77.8537 113.642C39.8972 103.32 16.7346 113.805 11.508 133.069C6.28128 152.333 20.9743 173.065 58.9451 183.379C90.6825 191.99 151.201 188.444 171.515 182.229C155.885 196.617 122.244 247.022 113.627 278.782C103.336 316.759 113.798 339.915 133.063 345.142C152.327 350.368 173.058 335.675 183.373 297.705C191.983 265.967 188.438 205.449 182.223 185.134L182.215 185.12Z" fill="#FE4CB0"/>
</g>
<defs>
<clipPath id="clip0_1493_35908">
<rect width="261.29" height="261.29" fill="white" transform="translate(226.693) rotate(60.1798)"/>
</clipPath>
</defs>
</svg>
