<svg width="174" height="219" viewBox="0 0 174 219" fill="none" xmlns="http://www.w3.org/2000/svg">
<g clip-path="url(#clip0_1462_29357)">
<path d="M66.7322 113.151C75.908 122.136 107.391 140.866 126.835 145.073C150.081 150.11 163.736 143.055 166.288 131.261C168.84 119.467 159.32 107.412 136.074 102.375C116.644 98.1708 80.22 102.208 68.1506 106.596C77.1358 97.4201 95.8657 65.9369 100.073 46.4933C105.101 23.2525 98.0458 9.5977 86.2576 7.05431C74.4724 4.49707 62.4031 14.0138 57.3714 37.2685C53.1674 56.6982 57.2041 93.122 61.5925 105.191C52.4167 96.2062 20.9335 77.4763 1.4899 73.2693C-21.7479 68.2268 -35.4028 75.2824 -37.9546 87.076C-40.5064 98.8696 -30.9866 110.925 -7.74037 115.962C11.6894 120.166 48.1131 116.129 60.1826 111.741C51.1974 120.917 32.4675 152.4 28.2604 171.844C23.2372 195.093 30.2789 208.745 42.0726 211.297C53.8662 213.848 65.9216 204.329 70.9587 181.082C75.1627 161.653 71.126 125.229 66.7377 113.159L66.7322 113.151Z" fill="#FE4CB0"/>
</g>
<defs>
<clipPath id="clip0_1462_29357">
<rect width="157.954" height="157.954" fill="white" transform="translate(87.784) rotate(57.209)"/>
</clipPath>
</defs>
</svg>
