<svg width="21" height="21" viewBox="0 0 21 21" fill="none" xmlns="http://www.w3.org/2000/svg">
<path fill-rule="evenodd" clip-rule="evenodd" d="M12.5631 13.9324C11.4537 14.697 10.109 15.1447 8.65969 15.1447C4.85638 15.1447 1.77319 12.0615 1.77319 8.2582C1.77319 4.4549 4.85638 1.3717 8.65969 1.3717C12.463 1.3717 15.5462 4.4549 15.5462 8.2582C15.5462 9.7075 15.0985 11.0522 14.3338 12.1616L18.9357 16.7635L17.165 18.5343L12.5631 13.9324ZM8.65959 12.6405C11.0799 12.6405 13.0419 10.6785 13.0419 8.25822C13.0419 5.83793 11.0799 3.8759 8.65959 3.8759C6.2393 3.8759 4.27727 5.83793 4.27727 8.25822C4.27727 10.6785 6.2393 12.6405 8.65959 12.6405Z" fill="white"/>
</svg>
