<svg width="669" height="669" viewBox="0 0 669 669" fill="none" xmlns="http://www.w3.org/2000/svg">
<g clip-path="url(#clip0_1493_35890)">
<path d="M103.909 456.003C158.475 459.23 250.731 399.491 302.13 362.596C259.435 409.288 189.238 493.86 186.012 548.427C181.36 627.078 237.872 696.877 312.431 701.286C386.991 705.695 451.355 643.066 455.986 564.392C459.212 509.826 399.473 417.57 362.579 366.171C409.271 408.866 493.843 479.062 548.409 482.289C627.061 486.94 696.86 430.429 701.269 355.87C705.678 281.31 643.049 216.946 564.374 212.315C509.808 209.088 417.552 268.827 366.153 305.722C408.849 259.03 479.045 174.458 482.272 119.892C486.923 41.2397 430.412 -28.559 355.852 -32.9682C281.293 -37.3774 216.929 25.2519 212.298 103.926C209.071 158.492 268.81 250.748 305.705 302.147C259.012 259.452 174.44 189.256 119.874 186.029C41.2023 181.355 -28.5764 237.889 -32.963 312.428C-37.3922 386.965 25.237 451.329 103.909 456.003Z" fill="#FFEA00"/>
</g>
<defs>
<clipPath id="clip0_1493_35890">
<rect width="473.373" height="473.373" fill="white" transform="translate(0 314.382) rotate(-41.6157)"/>
</clipPath>
</defs>
</svg>
