<svg width="298" height="404" viewBox="0 0 298 404" fill="none" xmlns="http://www.w3.org/2000/svg">
<g clip-path="url(#clip0_1462_29359)">
<path d="M-43.186 275.661C-10.2 277.611 45.5702 241.498 76.6416 219.195C50.8316 247.421 8.39698 298.546 6.44631 331.532C3.63461 379.078 37.7966 421.273 82.8689 423.938C127.941 426.604 166.85 388.743 169.65 341.183C171.6 308.197 135.487 252.427 113.184 221.356C141.41 247.166 192.535 289.6 225.521 291.551C273.067 294.363 315.262 260.201 317.927 215.129C320.593 170.056 282.732 131.147 235.172 128.348C202.186 126.397 146.416 162.51 115.345 184.814C141.155 156.587 183.589 105.462 185.54 72.4762C188.352 24.93 154.19 -17.2644 109.118 -19.9298C64.0452 -22.5952 25.1362 15.2651 22.3366 62.825C20.386 95.811 56.4992 151.581 78.8025 182.653C50.5764 156.843 -0.548756 114.408 -33.5348 112.457C-81.0931 109.632 -123.275 143.808 -125.927 188.868C-128.605 233.926 -90.7444 272.835 -43.186 275.661Z" fill="#FFEA00"/>
</g>
<defs>
<clipPath id="clip0_1462_29359">
<rect width="286.161" height="286.161" fill="white" transform="translate(-106 190.048) rotate(-41.6157)"/>
</clipPath>
</defs>
</svg>
