<svg width="20" height="20" viewBox="0 0 20 20" fill="none" xmlns="http://www.w3.org/2000/svg">
<path d="M18.3122 5.11076C18.3122 5.40912 18.198 5.70763 17.9696 5.93501L8.61284 15.2635C8.38532 15.4923 8.08561 15.6053 7.78591 15.6053C7.4862 15.6053 7.18722 15.4914 6.95915 15.2636L2.28079 10.5994C2.05236 10.3726 1.93796 10.0738 1.93796 9.77498C1.93796 9.10887 2.48438 8.60893 3.10755 8.60893C3.40682 8.60893 3.70623 8.7228 3.9343 8.95055L7.78591 12.7922L16.3166 4.28723C16.5432 4.05876 16.8429 3.9447 17.1426 3.9447C17.7676 3.9447 18.3122 4.44392 18.3122 5.11076Z" fill="white"/>
</svg>
