<svg width="30" height="30" viewBox="0 0 30 30" fill="none" xmlns="http://www.w3.org/2000/svg">
<rect x="0.345123" y="0.381348" width="29.2651" height="29.2651" rx="14.6326" fill="#11AB45"/>
<path d="M20.905 11.6372C20.905 11.8532 20.8223 12.0693 20.6569 12.2339L13.8828 18.9875C13.7181 19.1532 13.5011 19.235 13.2842 19.235C13.0672 19.235 12.8507 19.1526 12.6856 18.9877L9.29856 15.6109C9.13318 15.4466 9.05035 15.2303 9.05035 15.014C9.05035 14.5317 9.44595 14.1698 9.89712 14.1698C10.1138 14.1698 10.3306 14.2522 10.4957 14.4171L13.2842 17.1984L19.4602 11.041C19.6243 10.8755 19.8413 10.793 20.0582 10.793C20.5107 10.793 20.905 11.1544 20.905 11.6372Z" fill="white"/>
</svg>
